<svg width="30" height="30" viewBox="0 0 30 30" fill="none" xmlns="http://www.w3.org/2000/svg">
<g clip-path="url(#clip0_1469_10213)">
<path d="M22.8948 7.10547H7.10547V22.8948H22.8948V7.10547Z" fill="white"/>
<path d="M22.8945 30.0005L29.9998 22.8952L26.4471 22.2891L22.8945 22.8952L22.2461 26.1448L22.8945 30.0005Z" fill="#EA4335"/>
<path d="M0 22.8952V27.632C0 28.9406 1.05984 30.0005 2.36836 30.0005H7.10531L7.83481 26.4478L7.10531 22.8952L3.23426 22.2891L0 22.8952Z" fill="#188038"/>
<path d="M29.9998 7.10531V2.36836C29.9998 1.05984 28.94 0 27.6314 0H22.8945C22.4623 1.76203 22.2461 3.05871 22.2461 3.89016C22.2461 4.72148 22.4623 5.79328 22.8945 7.10531C24.466 7.55531 25.6502 7.78031 26.4471 7.78031C27.2441 7.78031 28.4283 7.55531 29.9998 7.10531Z" fill="#1967D2"/>
<path d="M29.9998 7.10547H22.8945V22.8948H29.9998V7.10547Z" fill="#FBBC04"/>
<path d="M22.8948 22.8945H7.10547V29.9998H22.8948V22.8945Z" fill="#34A853"/>
<path d="M22.8947 0H2.36848C1.05984 0 0 1.05984 0 2.36836V22.8947H7.10531V7.10531H22.8947V0Z" fill="#4285F4"/>
<path d="M10.3429 19.3536C9.75273 18.955 9.3441 18.3728 9.12109 17.6029L10.4909 17.0385C10.6151 17.5121 10.8323 17.8793 11.1422 18.1398C11.4501 18.4003 11.8251 18.5286 12.2632 18.5286C12.7112 18.5286 13.0961 18.3925 13.4178 18.12C13.7396 17.8477 13.9014 17.5003 13.9014 17.08C13.9014 16.6496 13.7316 16.2983 13.3922 16.026C13.0527 15.7536 12.6264 15.6175 12.1172 15.6175H11.3257V14.2616H12.0362C12.4744 14.2616 12.8434 14.1431 13.1434 13.9062C13.4434 13.6695 13.5934 13.3457 13.5934 12.9332C13.5934 12.5661 13.4593 12.274 13.1909 12.055C12.9225 11.8358 12.5829 11.7253 12.1704 11.7253C11.7678 11.7253 11.4481 11.832 11.2112 12.047C10.9745 12.2627 10.7966 12.5351 10.6941 12.8385L9.33824 12.274C9.51777 11.7648 9.84742 11.3148 10.3309 10.926C10.8146 10.5371 11.4323 10.3418 12.1823 10.3418C12.7369 10.3418 13.2362 10.4484 13.6784 10.6635C14.1204 10.8786 14.4678 11.1766 14.7184 11.5556C14.9692 11.9365 15.0934 12.3628 15.0934 12.8365C15.0934 13.32 14.9771 13.7286 14.7442 14.0641C14.5113 14.3996 14.2251 14.6562 13.8856 14.8358V14.9167C14.3239 15.0974 14.7047 15.3943 14.9869 15.7753C15.2731 16.1602 15.4172 16.62 15.4172 17.157C15.4172 17.6937 15.2809 18.1733 15.0086 18.5937C14.7362 19.0141 14.3594 19.3457 13.8816 19.5865C13.4021 19.8273 12.8632 19.9498 12.2652 19.9498C11.5724 19.9516 10.933 19.7523 10.3429 19.3536ZM18.7565 12.5562L17.2526 13.6437L16.5006 12.503L19.1986 10.5568H20.2328V19.7365H18.7565V12.5562Z" fill="#4285F4"/>
</g>
<defs>
<clipPath id="clip0_1469_10213">
<rect width="30" height="30" fill="white"/>
</clipPath>
</defs>
</svg>
