<svg width="372" height="248" viewBox="0 0 372 248" fill="none" xmlns="http://www.w3.org/2000/svg">
<path d="M357.259 62.4608C357.259 62.4608 353.112 59.9312 348.529 69.7917C343.946 79.6522 342.274 85.3115 342.274 85.3115C342.274 85.3115 341.039 87.3848 339.601 86.1101C338.163 84.8354 336.129 81.1501 333.768 81.904C331.338 82.6926 330.628 85.4653 331.243 89.4779C331.858 93.4905 332.875 102.329 332.97 103.128C333.064 103.926 332.647 105.112 331.526 104.378C330.405 103.644 323.858 96.8832 320.822 100.182C317.787 103.48 321.318 114.377 321.705 115.558C322.092 116.738 321.849 117.279 321.284 117.601C320.718 117.924 318.734 115.434 316.82 113.579C314.905 111.724 312.301 109.918 310.714 111.967C309.127 114.015 308.889 122.298 317.236 135.432L321.502 141.265L328.729 140.601C344.105 138.24 350.186 132.615 350.682 130.071C351.178 127.526 348.122 126.772 345.454 126.534C342.785 126.296 339.601 126.43 339.472 125.795C339.343 125.16 339.591 124.649 340.737 124.138C341.883 123.628 352.413 119.124 352.904 114.665C353.395 110.206 343.976 109.749 342.701 109.372C341.426 108.996 342.041 107.914 342.701 107.463C343.361 107.012 350.692 101.957 354.109 99.7798C357.526 97.6024 359.104 95.2563 358.112 92.9053C357.12 90.6385 353.018 91.5313 351.108 91.2833C349.199 91.0353 349.953 88.7438 349.953 88.7438C349.953 88.7438 353.112 83.7838 357.517 73.8291C361.921 63.8744 357.164 62.4211 357.164 62.4211" fill="#F5F5F5"/>
<path d="M353.152 71.2852C353.152 71.2852 353.127 71.3596 353.068 71.4984C353.008 71.6373 352.919 71.8556 352.81 72.1184L351.788 74.4744C350.895 76.5229 349.586 79.4791 347.954 83.1247C344.69 90.4159 340.097 100.445 334.988 111.506C329.88 122.567 325.247 132.596 321.944 139.872L318.04 148.488L316.979 150.829C316.855 151.087 316.76 151.29 316.696 151.434C316.665 151.503 316.63 151.571 316.592 151.637C316.614 151.564 316.64 151.493 316.671 151.424C316.736 151.275 316.82 151.072 316.929 150.809C317.167 150.258 317.514 149.465 317.951 148.448C318.844 146.399 320.153 143.448 321.785 139.803C325.049 132.511 329.642 122.482 334.75 111.417C339.859 100.351 344.477 90.3316 347.78 83.0602C349.427 79.4344 350.756 76.4932 351.684 74.4496L352.75 72.1085C352.869 71.8456 352.963 71.6472 353.033 71.4984C353.102 71.3496 353.152 71.2852 353.152 71.2852Z" fill="#E0E0E0"/>
<path d="M336.422 87.1816C336.511 87.3374 336.579 87.5041 336.625 87.6776C336.744 87.9901 336.898 88.4514 337.086 89.0218C337.454 90.1676 337.925 91.7548 338.411 93.5205L339.636 98.044C339.785 98.5847 339.909 99.036 340.013 99.413C340.073 99.5725 340.111 99.7393 340.127 99.909C340.038 99.7533 339.969 99.5865 339.924 99.413C339.805 99.1005 339.651 98.6392 339.467 98.0639C339.11 96.9181 338.659 95.321 338.173 93.5552L336.918 89.0416L336.536 87.6776C336.479 87.5172 336.441 87.3508 336.422 87.1816Z" fill="#E0E0E0"/>
<path d="M340.795 100.014C340.795 99.9497 344.009 98.8337 348.022 97.5342C352.034 96.2346 355.308 95.2079 355.328 95.2724C355.348 95.3369 352.114 96.4529 348.101 97.7524C344.088 99.0519 340.815 100.079 340.795 100.014Z" fill="#E0E0E0"/>
<path d="M332.18 116.649C332.356 116.616 332.536 116.601 332.715 116.604L334.164 116.555C335.384 116.51 337.075 116.446 338.935 116.302C340.795 116.158 342.477 115.989 343.697 115.85L345.135 115.687C345.312 115.654 345.492 115.644 345.671 115.657C345.51 115.715 345.344 115.757 345.175 115.781C344.838 115.845 344.347 115.93 343.741 116.019C342.531 116.203 340.845 116.411 338.98 116.55C337.115 116.689 335.419 116.728 334.189 116.723C333.578 116.723 333.082 116.723 332.74 116.699C332.552 116.708 332.363 116.691 332.18 116.649Z" fill="#E0E0E0"/>
<path d="M325.674 105.915C325.789 106.033 325.889 106.165 325.971 106.307C326.15 106.565 326.408 106.947 326.715 107.423C327.335 108.37 328.174 109.69 329.086 111.153C329.999 112.616 330.817 113.95 331.398 114.922C331.69 115.418 331.918 115.805 332.072 116.083C332.166 116.22 332.241 116.368 332.295 116.524C332.176 116.409 332.074 116.277 331.993 116.133C331.814 115.87 331.561 115.493 331.249 115.017C330.634 114.069 329.796 112.75 328.878 111.282C327.96 109.814 327.147 108.484 326.567 107.512C326.279 107.016 326.071 106.629 325.892 106.356C325.802 106.219 325.729 106.07 325.674 105.915Z" fill="#E0E0E0"/>
<path d="M316.201 119.635C316.346 119.786 316.474 119.952 316.583 120.131L317.54 121.559C318.334 122.769 319.425 124.451 320.616 126.316C321.806 128.181 322.872 129.882 323.631 131.117L324.524 132.605C324.639 132.781 324.739 132.967 324.822 133.161C324.677 133.009 324.549 132.843 324.44 132.665L323.487 131.236C322.689 130.021 321.598 128.34 320.407 126.475C319.217 124.61 318.155 122.908 317.392 121.673C317.034 121.088 316.737 120.592 316.504 120.185C316.384 120.013 316.282 119.828 316.201 119.635Z" fill="#E0E0E0"/>
<path d="M324.707 132.775C324.927 132.725 325.151 132.698 325.377 132.695L327.212 132.566C328.759 132.457 330.902 132.299 333.258 132.07C335.614 131.842 337.722 131.574 339.284 131.361L341.105 131.118C341.327 131.078 341.553 131.058 341.779 131.059C341.565 131.132 341.344 131.184 341.12 131.212C340.693 131.297 340.073 131.406 339.309 131.53C337.772 131.783 335.644 132.08 333.283 132.318C330.922 132.557 328.774 132.69 327.222 132.755C326.443 132.785 325.818 132.805 325.382 132.805C325.156 132.814 324.931 132.804 324.707 132.775Z" fill="#E0E0E0"/>
<path d="M61.8958 111.317C73.4675 103.595 76.2798 88.9973 76.0467 75.8087C76.002 73.6064 76.2848 71.2951 75.2531 69.3607C74.2214 67.4263 71.7811 66.0573 69.7624 66.9551C68.1007 67.6991 67.3468 69.5888 66.3995 71.1463C65.1218 73.2271 63.2844 74.9065 61.0972 75.9922C59.6688 76.6965 57.908 77.1131 56.5192 76.3295C54.6145 75.2581 54.426 72.6343 54.4756 70.4469L54.7435 58.2255C54.7881 56.0381 54.8328 53.8061 54.1731 51.7179C53.5134 49.6298 52.0254 47.6855 49.9273 47.0704C47.8292 46.4554 45.2054 47.616 44.7243 49.7488C44.5259 50.6367 44.6945 51.5642 44.6201 52.4719C44.5457 53.3795 44.1241 54.3765 43.2214 54.6146C42.3187 54.8527 41.4606 54.2227 40.8059 53.5779C38.554 51.3311 37.0462 48.4691 35.6425 45.6419C34.2388 42.8147 32.8699 39.8735 30.8363 37.4381C28.8027 35.0027 25.9556 33.0485 22.7862 32.8203C19.6168 32.5922 16.2092 34.4819 15.3462 37.5423C14.4832 40.6026 16.2688 43.7671 18.2131 46.2917C21.1083 50.0316 24.5279 53.3343 28.3662 56.0976C29.0606 56.5936 29.8046 57.1343 30.0625 57.9477C30.5188 59.4357 29.1003 60.8394 27.6321 61.3007C25.9705 61.7967 24.1601 61.6231 22.4539 61.7967C20.7476 61.9703 18.838 62.6944 18.1585 64.2767C17.2211 66.4987 19.0761 68.8696 20.9163 70.432C24.6028 73.5616 28.7963 76.0391 33.3163 77.7579C34.9382 78.373 36.6444 78.9136 37.939 80.0643C39.2336 81.2151 40.0024 83.1891 39.184 84.7168C38.3656 86.2445 36.3171 86.7008 34.6158 86.3735C32.9145 86.0461 31.4017 85.0987 29.7848 84.4688C26.7542 83.2883 22.8408 83.4371 20.832 86.0064C19.5225 87.6928 19.3737 90.0687 19.9888 92.1122C20.6038 94.1557 21.8934 95.9264 23.2624 97.5682C28.0537 103.292 34.2339 107.935 41.2572 110.464C48.2806 112.994 54.8129 113.738 61.871 111.307" fill="#EBEBEB"/>
<path d="M61.0094 111.571C59.1494 104.9 54.0654 89.2013 51.015 81.8109L48.7483 76.3549C47.9993 74.5643 47.2603 72.7936 46.422 71.1022C44.8114 67.8646 43.023 64.7185 41.0652 61.6782C39.2102 58.7518 37.3452 56.0437 35.6092 53.519C33.8732 50.9944 32.1372 48.688 30.5104 46.6395C27.9449 43.3936 25.1253 40.3567 22.0784 37.5578C21.002 36.5658 20.144 35.8218 19.5537 35.3258L18.8494 34.7206C18.6956 34.5966 18.6113 34.5371 18.6113 34.5371C18.6113 34.5371 18.6808 34.6115 18.8246 34.7454L19.4793 35.3307C20.0497 35.8267 20.8979 36.6005 21.9593 37.6074C24.9605 40.4393 27.7459 43.4916 30.2921 46.7387C31.9091 48.7922 33.5856 51.1134 35.3464 53.6331C37.1072 56.1528 38.9523 58.8709 40.8024 61.7923C42.7479 64.8337 44.5246 67.9798 46.1244 71.2163C46.9528 72.9027 47.6918 74.6883 48.4408 76.459C49.1897 78.2297 49.9288 80.0749 50.7075 81.915C53.7381 89.2955 58.8369 104.979 60.7118 111.63" fill="#E0E0E0"/>
<path d="M46.3164 71.0669C46.4191 70.7639 46.4921 70.4516 46.5346 70.1345C46.6537 69.5293 46.8025 68.6465 46.9711 67.5652C47.3134 65.3927 47.6854 62.377 48.0871 59.0489C48.4889 55.7207 48.9105 52.7199 49.2974 50.5573C49.4858 49.4761 49.6495 48.6031 49.7934 48.0029C49.8709 47.6937 49.9223 47.3784 49.9471 47.0605C49.8257 47.3552 49.7327 47.6608 49.6694 47.9732C49.5057 48.5684 49.3073 49.4612 49.089 50.5177C48.6079 52.6703 48.1615 55.681 47.7598 59.0241C47.358 62.3671 47.0108 65.3084 46.743 67.5503C46.609 68.5919 46.495 69.4599 46.4057 70.1295C46.3495 70.4389 46.3196 70.7525 46.3164 71.0669Z" fill="#E0E0E0"/>
<path d="M17.916 65.3878C18.0107 65.418 18.1093 65.4347 18.2087 65.4374L19.0519 65.5217C19.7859 65.5961 20.8424 65.6953 22.1419 65.859C24.7459 66.1665 28.332 66.727 32.2603 67.5157C36.1887 68.3043 39.7003 69.1921 42.2299 69.9014C43.4947 70.2486 44.5115 70.5561 45.2059 70.7645L46.0194 71.0025C46.1115 71.0382 46.2085 71.06 46.3071 71.067C46.2245 71.0126 46.1342 70.9708 46.0392 70.943C45.821 70.8587 45.5432 70.7595 45.2456 70.6454C44.5562 70.3974 43.5443 70.0502 42.2696 69.6534C39.7549 68.8846 36.2333 67.967 32.3 67.1734C28.3667 66.3798 24.8005 65.8789 22.1667 65.6259C20.8623 65.492 19.7959 65.4275 19.0618 65.3977H18.2136C18.1152 65.382 18.0152 65.3787 17.916 65.3878Z" fill="#E0E0E0"/>
<path d="M58.2383 102.488C58.3139 102.381 58.3787 102.266 58.4317 102.146L58.9277 101.154C59.3543 100.271 59.9197 98.9813 60.6538 97.3792C62.0724 94.18 63.8927 89.6961 65.842 84.7262C67.7912 79.7563 69.5719 75.2427 70.926 72.0187L72.5528 68.2094C72.7314 67.7829 72.8802 67.4406 72.9943 67.1728C73.0505 67.0533 73.0953 66.9287 73.1282 66.8008C73.048 66.9053 72.9829 67.0205 72.9348 67.143L72.4388 68.135C72.0122 69.0179 71.422 70.3075 70.7176 71.9046C69.2991 75.1088 67.4738 79.5926 65.5295 84.5625C63.5852 89.5325 61.7946 94.0262 60.4306 97.2502L58.8037 101.06L58.3672 102.096C58.3084 102.221 58.2651 102.353 58.2383 102.488Z" fill="#E0E0E0"/>
<path d="M20.5801 89.8848C20.6987 89.9468 20.8234 89.9966 20.9521 90.0336L22.0482 90.4056L26.0857 91.7596C29.4932 92.9004 34.1804 94.5323 39.3537 96.3476C44.527 98.163 49.234 99.7601 52.6614 100.846C54.3726 101.387 55.7663 101.814 56.7286 102.091L57.8446 102.404C57.9733 102.447 58.1063 102.477 58.2414 102.493C58.1209 102.43 57.9947 102.378 57.8644 102.339L56.7682 101.967L52.7308 100.623C49.3233 99.4824 44.6361 97.8505 39.4628 96.0352C34.2895 94.2198 29.5874 92.6177 26.1601 91.5364C24.4439 90.9958 23.0551 90.5692 22.0879 90.2915L20.9769 89.974C20.8478 89.9314 20.7149 89.9015 20.5801 89.8848Z" fill="#E0E0E0"/>
<path d="M252.344 34.9038H314.875L302.643 43.5987V50.8601C302.616 54.4479 301.164 57.8779 298.608 60.3957C296.052 62.9136 292.601 64.3133 289.013 64.2868H249.775C246.187 64.3133 242.735 62.9136 240.179 60.3957C237.623 57.8779 236.172 54.4479 236.145 50.8601C236.16 48.7486 236.592 46.6609 237.414 44.7162C238.237 42.7715 239.434 41.0079 240.939 39.5261C242.443 38.0443 244.225 36.8735 246.181 36.0804C248.138 35.2873 250.232 34.8875 252.344 34.9038Z" fill="#F5F5F5"/>
<path d="M292.095 44.6104C292.095 44.6798 281.679 44.7394 268.783 44.7394C255.887 44.7394 245.471 44.6798 245.471 44.6104C245.471 44.541 255.887 44.4814 268.783 44.4814C281.679 44.4814 292.095 44.536 292.095 44.6104Z" fill="#E0E0E0"/>
<path d="M292.095 49.4415C292.095 49.5109 281.679 49.5704 268.783 49.5704C255.887 49.5704 245.471 49.5109 245.471 49.4415C245.471 49.372 255.887 49.3125 268.783 49.3125C281.679 49.3125 292.095 49.3671 292.095 49.4415Z" fill="#E0E0E0"/>
<path d="M157.476 183.729H83.4824L95.5352 192.448V209.56C95.5352 210.03 95.6278 210.494 95.8075 210.928C95.9873 211.362 96.2508 211.755 96.583 212.087C96.9151 212.419 97.3094 212.682 97.7432 212.861C98.1771 213.04 98.642 213.132 99.1114 213.131H157.476C157.945 213.132 158.41 213.04 158.844 212.861C159.278 212.682 159.672 212.419 160.004 212.087C160.336 211.755 160.6 211.362 160.78 210.928C160.959 210.494 161.052 210.03 161.052 209.56V187.3C161.051 186.352 160.673 185.444 160.003 184.774C159.332 184.105 158.423 183.729 157.476 183.729Z" fill="#F5F5F5"/>
<path d="M154.391 195.821C154.391 195.896 143.231 195.95 129.467 195.95C115.703 195.95 104.543 195.896 104.543 195.821C104.543 195.747 115.698 195.692 129.467 195.692C143.236 195.692 154.391 195.752 154.391 195.821Z" fill="#E0E0E0"/>
<path d="M154.391 202.393C154.391 202.462 143.231 202.522 129.467 202.522C115.703 202.522 104.543 202.462 104.543 202.393C104.543 202.323 115.698 202.264 129.467 202.264C143.236 202.264 154.391 202.323 154.391 202.393Z" fill="#E0E0E0"/>
<path d="M308.551 99.3984H221.955C211.329 99.3984 202.715 108.012 202.715 118.638V189.12C202.715 199.746 211.329 208.36 221.955 208.36H308.551C319.177 208.36 327.791 199.746 327.791 189.12V118.638C327.791 108.012 319.177 99.3984 308.551 99.3984Z" fill="#349997"/>
<g opacity="0.4">
<path d="M308.551 99.3984H221.955C211.329 99.3984 202.715 108.012 202.715 118.638V189.12C202.715 199.746 211.329 208.36 221.955 208.36H308.551C319.177 208.36 327.791 199.746 327.791 189.12V118.638C327.791 108.012 319.177 99.3984 308.551 99.3984Z" fill="black"/>
</g>
<path d="M327.756 137.382H346.49L327.334 156.542L327.756 137.382Z" fill="#349997"/>
<g opacity="0.4">
<path d="M327.756 137.382H346.49L327.334 156.542L327.756 137.382Z" fill="black"/>
</g>
<path d="M199.72 149.162L191.868 140.234C189.745 138.112 189.016 137.09 189.443 136.718C190.008 136.222 189.765 136.385 194.175 139.694C194.175 139.694 187.925 134.917 190.093 134.888C190.474 134.888 191.536 135.503 192.672 136.247C191.124 134.932 190.688 134.044 190.99 133.623C191.486 132.889 195.315 135.542 197.076 136.817C195.638 135.746 192.895 133.667 192.414 133.013C191.749 132.12 193.093 132.194 194.185 132.566C195.41 132.983 202.18 136.44 204.184 137.333C204.345 137.429 204.524 137.489 204.71 137.508C204.896 137.528 205.084 137.507 205.262 137.448C205.439 137.388 205.601 137.29 205.737 137.162C205.873 137.033 205.979 136.877 206.049 136.703C206.788 133.598 209.025 131.579 209.878 131.316C210.731 131.053 211.391 132.145 210.781 132.938C210.207 133.862 209.763 134.86 209.461 135.904C209.185 136.724 209.049 137.584 209.06 138.449C209.06 139.441 209.129 140.299 209.194 141.018L216.371 150.864L204.367 157.808L199.72 149.162Z" fill="#B78876"/>
<path d="M196.912 141.082C196.833 141.191 195.424 140.233 193.798 138.939C192.171 137.644 190.901 136.503 190.995 136.399C191.089 136.295 192.483 137.257 194.11 138.542C195.737 139.827 196.982 140.967 196.912 141.082Z" fill="#AA6550"/>
<path d="M198.431 139.515C198.352 139.629 196.809 138.687 194.984 137.417C193.159 136.147 191.74 135.021 191.82 134.912C191.899 134.803 193.441 135.735 195.267 137.005C197.092 138.275 198.511 139.401 198.431 139.515Z" fill="#AA6550"/>
<path d="M199.542 137.848C199.462 137.962 197.984 137.099 196.243 135.919C194.502 134.738 193.153 133.691 193.228 133.572C193.302 133.453 194.78 134.321 196.526 135.502C198.272 136.682 199.616 137.734 199.542 137.848Z" fill="#AA6550"/>
<path d="M209.864 142.352L238.473 178.629L231.921 193.881C231.921 193.881 224.074 192.145 221.693 188.842C219.313 185.538 199.721 149.162 199.721 149.162L209.864 142.352Z" fill="#B78876"/>
<path d="M282.488 91.6006C284.546 93.3862 284.541 96.5308 284.303 99.2439C284.065 101.957 283.882 105.047 285.761 107.021C287.314 108.648 290.126 109.357 290.483 111.575C290.568 112.095 290.489 112.63 290.258 113.104C290.026 113.578 289.654 113.969 289.191 114.223C288.728 114.477 288.198 114.582 287.674 114.522C287.149 114.462 286.656 114.242 286.262 113.891C286.868 115.642 286.451 117.829 284.933 118.891C283.415 119.952 280.871 119.297 280.4 117.507C280.477 117.806 280.491 118.117 280.443 118.422C280.394 118.727 280.283 119.018 280.117 119.279C279.95 119.539 279.732 119.762 279.476 119.934C279.22 120.106 278.931 120.223 278.627 120.278C278.323 120.334 278.011 120.326 277.711 120.255C277.41 120.185 277.127 120.053 276.88 119.868C276.633 119.684 276.426 119.45 276.273 119.182C276.12 118.914 276.024 118.617 275.99 118.31" fill="#263238"/>
<path d="M253.01 109.914C252.733 110.578 252.203 111.105 251.538 111.379C250.872 111.653 250.125 111.651 249.461 111.374C248.796 111.097 248.269 110.568 247.995 109.902C247.721 109.237 247.723 108.49 248 107.826C248.471 106.794 249.587 106.05 249.696 104.919C249.825 103.555 248.432 102.578 247.216 101.983C246.001 101.387 244.533 100.614 244.399 99.2447C244.265 97.8758 245.451 96.8986 246.438 96.0158C247.425 95.1329 248.422 93.7639 247.792 92.5884C247.479 91.9833 246.829 91.641 246.408 91.1004C245.48 89.9199 245.966 88.0401 247.152 87.1324C248.337 86.2247 249.974 86.0809 251.452 86.3438C252.93 86.6066 254.319 87.2217 255.757 87.6532C258.142 88.3466 260.644 88.5379 263.106 88.2152C265.568 87.8925 267.937 87.0627 270.062 85.7783" fill="#263238"/>
<path d="M261.795 141.9C264.357 142.417 267.02 141.906 269.209 140.477C271.398 139.048 272.938 136.816 273.495 134.262L280.533 101.992C280.973 100.128 281.034 98.1959 280.713 96.3084C280.393 94.421 279.697 92.617 278.667 91.0031C277.637 89.3893 276.294 87.9983 274.718 86.9124C273.141 85.8266 271.363 85.068 269.487 84.6814L268.753 84.5723C265.168 84.0451 261.515 84.8882 258.523 86.9334C255.531 88.9786 253.419 92.0759 252.609 95.6083C251.041 102.418 249.399 109.962 248.903 113.668C247.877 121.341 255.351 123.652 255.351 123.652L254.007 130.1C253.741 131.385 253.731 132.71 253.978 133.998C254.225 135.287 254.724 136.514 255.447 137.609C256.169 138.704 257.101 139.646 258.189 140.379C259.277 141.113 260.499 141.625 261.785 141.885L261.795 141.9Z" fill="#B78876"/>
<path d="M253.987 100.688C253.944 100.972 254.013 101.263 254.179 101.498C254.346 101.733 254.597 101.894 254.88 101.947C255.017 101.979 255.159 101.982 255.298 101.958C255.437 101.933 255.569 101.882 255.687 101.805C255.806 101.729 255.907 101.63 255.987 101.514C256.066 101.398 256.122 101.267 256.15 101.129C256.196 100.845 256.129 100.553 255.963 100.318C255.797 100.082 255.546 99.9213 255.262 99.8693C255.125 99.8379 254.982 99.8344 254.843 99.8587C254.704 99.883 254.572 99.9348 254.453 100.011C254.334 100.087 254.232 100.186 254.152 100.302C254.072 100.419 254.016 100.55 253.987 100.688Z" fill="#263238"/>
<path d="M253.704 99.5956C253.818 99.7593 254.735 99.2633 255.916 99.4418C257.096 99.6204 257.865 100.33 258.014 100.206C258.088 100.151 257.984 99.8734 257.652 99.546C257.194 99.1185 256.616 98.8431 255.995 98.7574C255.384 98.665 254.758 98.7692 254.21 99.055C253.808 99.2831 253.649 99.5212 253.704 99.5956Z" fill="#263238"/>
<path d="M265.488 102.573C265.443 102.858 265.511 103.149 265.678 103.385C265.845 103.62 266.097 103.781 266.381 103.833C266.518 103.864 266.661 103.868 266.8 103.843C266.939 103.818 267.071 103.766 267.189 103.689C267.308 103.613 267.41 103.513 267.489 103.396C267.568 103.28 267.623 103.148 267.651 103.01C267.695 102.725 267.627 102.435 267.46 102.2C267.293 101.966 267.041 101.806 266.758 101.755C266.621 101.723 266.478 101.719 266.339 101.743C266.201 101.767 266.068 101.819 265.95 101.895C265.831 101.972 265.729 102.071 265.65 102.187C265.571 102.304 265.516 102.435 265.488 102.573Z" fill="#263238"/>
<path d="M265.242 101.511C265.356 101.669 266.273 101.178 267.449 101.357C268.624 101.535 269.403 102.245 269.552 102.121C269.621 102.066 269.522 101.788 269.185 101.461C268.727 101.034 268.149 100.758 267.528 100.672C266.917 100.58 266.291 100.684 265.743 100.97C265.361 101.183 265.182 101.436 265.242 101.511Z" fill="#263238"/>
<path d="M259.692 109.617C259.692 109.547 258.992 109.314 257.832 108.992C257.534 108.917 257.261 108.813 257.241 108.6C257.262 108.287 257.376 107.988 257.569 107.742C257.962 107.057 258.371 106.338 258.794 105.584C260.505 102.504 261.77 99.9596 261.666 99.8901C261.561 99.8207 260.054 102.261 258.342 105.346L257.152 107.519C256.912 107.856 256.796 108.266 256.825 108.679C256.855 108.789 256.91 108.89 256.984 108.976C257.059 109.062 257.152 109.13 257.256 109.175C257.415 109.243 257.582 109.292 257.752 109.319C258.384 109.498 259.035 109.598 259.692 109.617Z" fill="#263238"/>
<path d="M265.607 96.8534C265.676 97.1907 266.877 97.2105 268.231 97.5775C269.585 97.9446 270.646 98.4852 270.875 98.2273C270.974 98.1033 270.825 97.771 270.423 97.399C269.878 96.9307 269.233 96.593 268.538 96.4116C267.843 96.2303 267.115 96.21 266.411 96.3524C265.855 96.4814 265.582 96.7195 265.607 96.8534Z" fill="#263238"/>
<path d="M254.637 96.2536C254.806 96.5512 255.629 96.3925 256.621 96.5215C257.613 96.6504 258.397 96.9679 258.605 96.7149C258.71 96.5909 258.605 96.3032 258.298 95.9957C257.858 95.6215 257.316 95.3868 256.742 95.3214C256.168 95.2561 255.587 95.363 255.074 95.6287C254.717 95.8519 254.563 96.1098 254.637 96.2536Z" fill="#263238"/>
<path d="M273.451 92.3753L273.486 92.4149C274.566 93.5554 275.164 95.0698 275.152 96.6409V96.7946C275.152 99.0266 274.751 101.259 274.756 103.466C274.761 105.673 275.187 108.024 276.581 109.76C277.151 110.479 278.262 111.074 278.912 110.43C279.141 110.155 279.287 109.822 279.334 109.467C280.514 104.254 282.637 99.7905 283.436 94.2749C283.546 93.5366 283.479 92.7825 283.241 92.0752C283.002 91.3679 282.597 90.7277 282.062 90.2077C281.03 89.2157 279.745 88.1444 278.371 88.566C276.998 88.9876 274.989 91.1452 273.843 92.038" fill="#263238"/>
<path d="M277.444 105.077C277.583 105.038 282.934 104.289 281.997 109.502C281.059 114.715 276.045 112.701 276.045 112.547C276.045 112.393 277.444 105.077 277.444 105.077Z" fill="#B78876"/>
<path d="M277.988 110.86C277.988 110.86 278.068 110.94 278.207 111.034C278.407 111.166 278.65 111.216 278.886 111.173C279.472 111.069 280.092 110.28 280.285 109.343C280.385 108.9 280.385 108.441 280.285 107.998C280.264 107.827 280.203 107.663 280.105 107.52C280.008 107.378 279.877 107.261 279.724 107.18C279.625 107.133 279.512 107.123 279.406 107.151C279.3 107.179 279.207 107.244 279.144 107.334C279.05 107.463 279.065 107.577 279.035 107.577C279.005 107.577 278.941 107.473 279.035 107.264C279.087 107.141 279.179 107.039 279.298 106.977C279.461 106.894 279.649 106.878 279.824 106.932C280.031 107.015 280.214 107.149 280.355 107.323C280.496 107.497 280.589 107.704 280.627 107.924C280.765 108.408 280.784 108.919 280.682 109.412C280.459 110.459 279.744 111.342 278.956 111.426C278.808 111.441 278.659 111.424 278.519 111.374C278.379 111.324 278.252 111.244 278.147 111.138C277.974 110.984 277.969 110.865 277.988 110.86Z" fill="#AA6550"/>
<path d="M278.43 89.4031C280.027 87.4935 276.942 83.9719 274.462 82.7766C271.982 81.5812 268.411 82.3451 265.713 82.8212C264.012 83.1238 262.285 83.6396 260.589 83.3172C259.463 83.0355 258.387 82.5857 257.395 81.983C256.401 81.3911 255.298 81.0048 254.151 80.8471C253.574 80.7762 252.989 80.8639 252.459 81.1007C251.928 81.3376 251.473 81.7146 251.14 82.1913C250.55 83.1833 250.962 84.7358 252.073 85.0582C251.738 84.804 251.346 84.6348 250.932 84.5652C250.517 84.4956 250.092 84.5275 249.692 84.6584C249.293 84.7892 248.931 85.015 248.638 85.3164C248.345 85.6178 248.129 85.9858 248.01 86.3888C247.89 86.7918 247.87 87.2178 247.951 87.6303C248.032 88.0428 248.213 88.4294 248.476 88.757C248.739 89.0847 249.078 89.3435 249.464 89.5113C249.849 89.6791 250.27 89.7509 250.689 89.7206C250.029 89.046 248.75 89.8148 248.705 90.7572C248.66 91.6996 249.404 92.4982 250.193 92.9991C252.232 94.2788 254.821 94.3433 257.192 93.9167C259.562 93.4902 261.834 92.6073 264.195 92.1212C266.556 91.6351 270.519 90.7126 272.652 91.8385C274.219 92.6619 275.082 94.8145 276.079 94.5219C276.551 94.348 276.976 94.0665 277.321 93.6997C277.665 93.3329 277.919 92.891 278.063 92.4089C278.332 91.441 278.444 90.4363 278.396 89.4329" fill="#263238"/>
<path d="M288.632 113.584C288.729 113.562 288.822 113.521 288.904 113.465C289.15 113.307 289.346 113.084 289.47 112.82C289.662 112.398 289.721 111.927 289.639 111.471C289.51 110.871 289.181 110.332 288.706 109.943C288.142 109.479 287.508 109.109 286.826 108.847C286.06 108.568 285.324 108.212 284.629 107.786C283.901 107.274 283.345 106.553 283.037 105.717C282.698 104.818 282.541 103.861 282.575 102.9C282.625 100.916 283.176 99.0562 283.31 97.3053C283.443 95.5544 283.22 93.9127 282.476 92.7768C281.917 91.8634 281.03 91.198 279.996 90.9168C279.719 90.8471 279.433 90.8186 279.148 90.8325C279.049 90.8341 278.951 90.8491 278.855 90.8772C279.232 90.8747 279.607 90.9214 279.971 91.016C280.954 91.3267 281.788 91.989 282.313 92.876C283.002 93.9772 283.24 95.5743 283.067 97.2855C282.893 98.9967 282.362 100.857 282.303 102.895C282.271 103.891 282.44 104.883 282.799 105.812C283.13 106.694 283.724 107.454 284.5 107.989C285.212 108.417 285.965 108.772 286.747 109.051C287.41 109.297 288.031 109.645 288.587 110.082C289.04 110.441 289.361 110.94 289.5 111.501C289.59 111.928 289.549 112.373 289.381 112.776C289.227 113.12 288.964 113.405 288.632 113.584Z" fill="#455A64"/>
<path d="M251.904 84.9343C251.835 84.8821 251.758 84.8404 251.676 84.8103C251.583 84.7646 251.487 84.7265 251.388 84.6962C251.251 84.6492 251.11 84.6144 250.967 84.5921C250.496 84.5179 250.015 84.5516 249.56 84.6908C249.104 84.8301 248.687 85.071 248.338 85.3956C247.985 85.8257 247.721 86.3216 247.561 86.8546C247.4 87.3876 247.348 87.947 247.405 88.5005C247.472 89.188 247.676 89.8552 248.005 90.4626C248.334 91.0701 248.781 91.6054 249.32 92.037C250.56 93.0357 252.069 93.6419 253.655 93.778C255.377 93.9261 257.112 93.8208 258.804 93.4655C261.486 92.94 264.055 91.946 266.392 90.5292C267.394 89.9094 268.442 89.3672 269.527 88.9073C270.473 88.5233 271.482 88.3165 272.503 88.2972C273.989 88.265 275.459 88.6061 276.779 89.2892C277.256 89.5562 277.718 89.8493 278.162 90.1671C277.765 89.7769 277.316 89.4431 276.828 89.1751C275.505 88.4378 274.013 88.0567 272.498 88.069C271.452 88.077 270.416 88.2771 269.443 88.6593C268.347 89.1186 267.287 89.6608 266.273 90.2812C263.952 91.6687 261.408 92.6437 258.754 93.1629C257.087 93.5159 255.378 93.6246 253.68 93.4853C252.142 93.3578 250.677 92.7779 249.469 91.8188C248.949 91.4079 248.517 90.8976 248.196 90.3177C247.876 89.7377 247.675 89.0997 247.604 88.441C247.543 87.9132 247.587 87.3787 247.734 86.868C247.88 86.3573 248.126 85.8806 248.457 85.465C248.788 85.1494 249.184 84.9113 249.619 84.768C250.053 84.6247 250.513 84.5799 250.967 84.6367C251.288 84.707 251.602 84.8066 251.904 84.9343Z" fill="#455A64"/>
<path d="M254.806 80.5947C254.788 80.9933 254.85 81.3913 254.989 81.7653C255.376 82.7989 256.099 83.6723 257.043 84.2453C257.677 84.6582 258.381 84.9508 259.121 85.1083C259.969 85.2793 260.838 85.3244 261.7 85.2422C263.52 85.1083 265.425 84.4834 267.424 83.9675C269.423 83.4517 271.422 83.1789 273.148 83.6402C274.68 84.046 276.042 84.9306 277.036 86.1648C277.72 86.9846 278.227 87.937 278.524 88.9622C278.723 89.6914 278.748 90.1179 278.782 90.113C278.789 90.0106 278.789 89.9078 278.782 89.8054C278.755 89.5131 278.707 89.223 278.639 88.9374C278.374 87.8799 277.881 86.893 277.195 86.0458C276.191 84.7609 274.8 83.8338 273.227 83.4021C271.442 82.9061 269.388 83.1888 267.379 83.7096C265.371 84.2304 263.481 84.8554 261.7 84.9992C260.861 85.086 260.014 85.0509 259.185 84.895C258.469 84.7492 257.783 84.4771 257.162 84.0915C256.242 83.5493 255.522 82.7247 255.108 81.7405C254.976 81.3677 254.874 80.9844 254.806 80.5947Z" fill="#455A64"/>
<path d="M257.34 113.509C257.405 114.021 257.541 114.522 257.742 114.997C257.847 115.232 258.001 115.442 258.194 115.613C258.386 115.784 258.612 115.912 258.858 115.989C259.124 116.044 259.399 116.032 259.659 115.953C259.919 115.874 260.155 115.731 260.346 115.538C260.726 115.137 260.971 114.627 261.045 114.079C261.125 113.583 261.045 112.963 260.549 112.805C260.349 112.755 260.14 112.755 259.939 112.805L257.191 113.301" fill="#AA6550"/>
<path d="M257.819 115.593C258.256 115.761 258.72 115.848 259.188 115.851C259.672 115.822 260.129 115.614 260.467 115.266C260.667 115.053 260.82 114.8 260.915 114.524C261.01 114.247 261.045 113.954 261.018 113.664C261.003 113.514 260.97 113.368 260.919 113.227C260.854 113.093 260.874 113.103 260.76 113.088C260.646 113.073 260.467 113.088 260.319 113.113L259.857 113.148C259.262 113.192 258.726 113.227 258.275 113.252C257.781 113.321 257.278 113.311 256.787 113.222C257.251 113.053 257.737 112.952 258.23 112.924C258.677 112.86 259.222 112.796 259.803 112.726L260.259 112.676C260.423 112.652 260.589 112.637 260.755 112.632C260.886 112.635 261.013 112.681 261.117 112.761C261.21 112.843 261.28 112.947 261.321 113.063C261.388 113.242 261.431 113.429 261.45 113.619C261.482 113.976 261.435 114.336 261.313 114.673C261.19 115.01 260.995 115.315 260.74 115.568C260.317 115.971 259.752 116.19 259.168 116.178C258.786 116.18 258.412 116.075 258.087 115.876C257.918 115.737 257.804 115.613 257.819 115.593Z" fill="#263238"/>
<path d="M255.362 123.652C255.362 123.652 260.362 125.547 265.228 124.148C265.228 124.148 261.557 127.229 254.861 126.048L255.362 123.652Z" fill="#AA6550"/>
<path d="M262.991 194.765C262.75 194.607 262.521 194.431 262.306 194.239C262.093 194.065 261.81 193.852 261.508 193.624C261.205 193.396 260.838 193.128 260.417 192.855C259.995 192.582 259.559 192.285 259.048 192.002C258.537 191.719 257.996 191.422 257.416 191.124C254.871 189.872 252.135 189.054 249.321 188.704C248.671 188.634 248.056 188.555 247.476 188.54C246.896 188.525 246.355 188.5 245.864 188.505C245.373 188.51 244.922 188.535 244.53 188.55C244.138 188.565 243.801 188.595 243.538 188.624C243.254 188.668 242.967 188.688 242.68 188.684C242.959 188.612 243.242 188.559 243.528 188.525C243.856 188.469 244.187 188.429 244.52 188.406C244.912 188.376 245.358 188.322 245.859 188.322C246.36 188.322 246.901 188.292 247.486 188.322C248.071 188.352 248.696 188.401 249.351 188.461C250.77 188.637 252.173 188.926 253.547 189.324C254.91 189.743 256.237 190.272 257.515 190.906C258.095 191.214 258.656 191.496 259.147 191.814C259.638 192.131 260.104 192.414 260.511 192.702C260.918 192.989 261.275 193.267 261.587 193.505C261.9 193.743 262.158 193.971 262.361 194.16C262.587 194.344 262.798 194.546 262.991 194.765Z" fill="#FAFAFA"/>
<path d="M233.841 169.289L237.908 151.666C239.466 145.04 241.311 138.671 244.411 137.917V139.965L243.081 190.314C243.081 190.314 234.793 199.738 224.233 194.511C220.93 192.869 214.904 181.337 214.904 181.337C214.904 181.337 200.882 156.319 201.467 155.183C202.052 154.047 210.618 143.006 211.491 142.455L233.841 169.289Z" fill="#349997"/>
<path d="M275.692 132.927C283.777 134.475 292.878 139.192 297.07 151.279C298.597 155.694 309.728 188.236 309.728 188.236L290.746 187.84L287.68 181.139L289.168 192.026L290.453 207.551L242.52 208.359L242.857 184.968L243.318 138.443C243.318 138.443 243.854 137.739 252.122 133.18C257.251 130.348 275.692 132.927 275.692 132.927Z" fill="#349997"/>
<g opacity="0.2">
<path d="M280.475 164.048C281.264 173.869 282.166 176.904 282.955 186.725C282.974 187.655 283.141 188.576 283.451 189.453C283.617 189.889 283.882 190.28 284.227 190.595C284.572 190.909 284.985 191.138 285.435 191.263C286.834 191.546 288.649 192.558 289.041 191.189L287.717 181.73C287.432 180.354 286.993 179.015 286.407 177.737C283.466 171.205 282.38 170.823 280.455 164.048" fill="black"/>
</g>
<path d="M252.115 138.215L252.274 137.193L253.807 127.392C253.851 127.107 254.001 126.849 254.228 126.671C254.454 126.492 254.739 126.406 255.027 126.43L273.9 128.007C274.47 128.054 274.998 128.324 275.37 128.759C275.741 129.194 275.926 129.758 275.884 130.328L275.462 136.022L269.569 143.71L261.083 145.035" fill="#349997"/>
<path d="M242.639 156.642C242.713 156.642 242.768 164.32 242.768 173.788C242.768 183.257 242.713 190.935 242.639 190.935C242.564 190.935 242.51 183.257 242.51 173.788C242.51 164.32 242.569 156.642 242.639 156.642Z" fill="#263238"/>
<path d="M291.153 189.418C291.153 189.418 291.153 189.383 291.094 189.309C291.034 189.234 291 189.11 290.935 188.971L290.36 187.667L288.291 182.851L281.551 166.924C280.241 163.809 278.996 160.843 277.866 158.14C277.294 156.874 276.884 155.541 276.645 154.172C276.436 152.976 276.327 151.765 276.318 150.551C276.255 148.792 276.51 147.036 277.072 145.368L277.226 144.956L277.399 144.609C277.481 144.425 277.58 144.248 277.697 144.083L277.905 143.776C277.929 143.741 277.956 143.708 277.985 143.677C277.658 144.225 277.384 144.803 277.166 145.403C276.647 147.067 276.422 148.81 276.502 150.551C276.51 153.138 277.048 155.695 278.084 158.066L281.789 166.84L288.46 182.796L290.444 187.642L290.975 188.967L291.109 189.314C291.127 189.347 291.142 189.382 291.153 189.418Z" fill="#263238"/>
<path d="M281.575 134.659C281.402 134.835 281.218 135.001 281.025 135.155C280.467 135.58 279.859 135.935 279.214 136.212C278.193 136.638 277.124 136.938 276.03 137.104C274.584 137.329 273.127 137.473 271.665 137.536C270.038 137.605 268.263 137.576 266.358 137.61C264.335 137.607 262.319 137.854 260.356 138.344C258.182 138.858 256.214 140.019 254.712 141.673C253.964 142.573 253.428 143.631 253.145 144.768C252.842 145.933 252.862 147.159 253.204 148.314C253.394 148.884 253.673 149.42 254.032 149.901C254.394 150.369 254.85 150.754 255.372 151.032C255.877 151.309 256.454 151.43 257.028 151.379C257.59 151.322 258.11 151.056 258.487 150.635C258.822 150.193 259.06 149.684 259.187 149.143C259.313 148.603 259.325 148.041 259.221 147.496C259.138 146.957 258.971 146.435 258.725 145.948C258.48 145.474 258.186 145.026 257.847 144.614C256.521 143.086 254.735 142.029 252.758 141.603C251.044 141.199 249.258 141.219 247.555 141.663C246.153 142.025 244.815 142.599 243.587 143.364C242.651 143.947 241.768 144.611 240.948 145.348C240.268 145.943 239.787 146.459 239.46 146.796L239.093 147.193C239.053 147.241 239.008 147.284 238.959 147.322C239.543 146.584 240.19 145.899 240.893 145.274C241.705 144.522 242.585 143.848 243.522 143.26C244.763 142.471 246.118 141.878 247.54 141.504C249.271 141.04 251.091 141.009 252.837 141.415C254.866 141.843 256.699 142.921 258.06 144.485C258.407 144.899 258.709 145.348 258.963 145.824C259.213 146.335 259.38 146.883 259.459 147.446C259.545 148.021 259.535 148.606 259.429 149.177C259.322 149.772 259.06 150.328 258.67 150.789C258.253 151.257 257.676 151.552 257.053 151.617C256.428 151.677 255.799 151.547 255.248 151.245C254.694 150.95 254.209 150.541 253.824 150.045C253.446 149.54 253.151 148.977 252.951 148.379C252.595 147.179 252.574 145.904 252.892 144.693C253.181 143.517 253.736 142.423 254.514 141.494C256.052 139.806 258.064 138.622 260.287 138.096C262.272 137.611 264.31 137.375 266.353 137.392C268.263 137.362 270.038 137.392 271.655 137.348C273.111 137.297 274.564 137.166 276.005 136.956C277.093 136.8 278.158 136.517 279.18 136.112C279.821 135.852 280.43 135.519 280.995 135.12C281.193 134.987 281.327 134.863 281.427 134.793C281.472 134.744 281.521 134.699 281.575 134.659Z" fill="#FAFAFA"/>
<path d="M297.978 155.302C297.909 155.322 297.837 155.334 297.765 155.337C297.626 155.337 297.423 155.372 297.155 155.382C296.406 155.406 295.655 155.388 294.908 155.327C293.961 155.258 292.84 155.114 291.6 154.94C290.36 154.767 289.001 154.583 287.562 154.509C286.217 154.436 284.869 154.537 283.55 154.811C282.471 155.031 281.436 155.424 280.484 155.977C279.622 156.504 278.857 157.175 278.223 157.961C278.249 157.895 278.286 157.833 278.332 157.777C278.436 157.602 278.556 157.436 278.689 157.281C279.169 156.694 279.744 156.192 280.39 155.793C281.348 155.208 282.398 154.789 283.495 154.553C284.835 154.261 286.208 154.151 287.577 154.226C289.03 154.3 290.394 154.499 291.634 154.682C292.874 154.866 293.986 155.03 294.923 155.119C295.86 155.208 296.629 155.248 297.155 155.253C297.43 155.252 297.705 155.269 297.978 155.302Z" fill="#FAFAFA"/>
<path d="M286.06 177.538C285.127 177.321 284.169 177.239 283.213 177.295C282.092 177.371 280.982 177.569 279.904 177.885C278.64 178.227 277.226 178.728 275.639 179.219C273.915 179.804 272.112 180.117 270.292 180.147C268.197 180.146 266.123 179.716 264.201 178.882C262.065 177.979 260.164 176.598 258.646 174.845C257.824 173.929 257.155 172.887 256.662 171.76C256.137 170.593 255.94 169.305 256.092 168.035C256.264 166.754 256.889 165.577 257.852 164.716C258.331 164.299 258.905 164.006 259.524 163.863C260.129 163.735 260.757 163.752 261.354 163.913C261.952 164.075 262.502 164.375 262.961 164.791C263.409 165.202 263.721 165.74 263.854 166.333C263.982 166.914 263.936 167.52 263.72 168.074C263.511 168.607 263.196 169.092 262.792 169.498C262.023 170.268 261.093 170.859 260.069 171.229C259.587 171.412 259.089 171.55 258.581 171.64C258.333 171.685 258.085 171.74 257.842 171.774L257.103 171.864C255.291 172.043 253.461 171.914 251.692 171.482C250.233 171.134 248.827 170.594 247.511 169.875C246.515 169.337 245.582 168.692 244.728 167.95L244.232 167.519L243.825 167.107C243.606 166.899 243.401 166.677 243.21 166.442L242.853 166.016C242.813 165.97 242.776 165.92 242.744 165.867C242.792 165.908 242.837 165.953 242.878 166.001L243.25 166.408C243.447 166.635 243.657 166.851 243.88 167.052L244.292 167.454L244.788 167.876C245.646 168.597 246.578 169.224 247.57 169.746C248.879 170.445 250.275 170.969 251.722 171.303C253.473 171.72 255.283 171.838 257.074 171.65L257.798 171.561C258.041 171.521 258.294 171.467 258.532 171.422C259.028 171.333 259.515 171.196 259.985 171.016C260.976 170.655 261.875 170.081 262.619 169.334C262.998 168.95 263.295 168.493 263.492 167.99C263.686 167.479 263.729 166.923 263.616 166.388C263.469 165.842 263.175 165.346 262.767 164.954C262.359 164.563 261.851 164.29 261.3 164.166C260.734 164.003 260.137 163.986 259.564 164.117C258.99 164.248 258.459 164.522 258.021 164.915C257.103 165.733 256.509 166.855 256.349 168.074C256.207 169.297 256.396 170.535 256.895 171.66C257.375 172.761 258.024 173.781 258.82 174.681C260.312 176.402 262.178 177.759 264.276 178.649C266.168 179.475 268.208 179.907 270.272 179.919C272.073 179.897 273.86 179.595 275.569 179.026C277.152 178.53 278.545 178.064 279.85 177.731C280.939 177.425 282.058 177.241 283.188 177.181C283.599 177.155 284.012 177.155 284.423 177.181C284.775 177.235 285.078 177.26 285.316 177.315L285.856 177.449C285.928 177.469 285.996 177.499 286.06 177.538Z" fill="#FAFAFA"/>
<path d="M242.475 172.246C242.431 172.246 242.202 171.75 241.721 170.917C240.462 168.802 238.626 167.09 236.429 165.982C235.586 165.555 235.03 165.367 235.045 165.322C235.185 165.334 235.321 165.366 235.452 165.417C235.813 165.524 236.166 165.657 236.508 165.813C237.645 166.331 238.69 167.03 239.603 167.882C240.519 168.732 241.288 169.728 241.88 170.828C242.068 171.157 242.233 171.499 242.376 171.85C242.427 171.977 242.46 172.11 242.475 172.246Z" fill="#FAFAFA"/>
<path d="M223.231 193.474C223.231 193.474 223.197 193.434 223.152 193.35C223.107 193.266 223.033 193.132 222.949 192.978C222.77 192.651 222.512 192.16 222.195 191.525C221.273 189.733 220.513 187.862 219.923 185.935C219.529 184.596 219.291 183.217 219.214 181.823C219.174 181.045 219.206 180.265 219.308 179.492C219.431 178.674 219.627 177.869 219.893 177.086C220.472 175.394 221.474 173.878 222.805 172.682C223.515 172.03 224.351 171.529 225.26 171.209C226.17 170.89 227.135 170.758 228.097 170.822C229.097 170.897 230.03 171.351 230.706 172.092C231.027 172.458 231.261 172.893 231.389 173.363C231.517 173.833 231.536 174.326 231.445 174.805C231.338 175.274 231.093 175.701 230.741 176.03C230.397 176.345 229.982 176.571 229.531 176.69C228.657 176.917 227.731 176.805 226.936 176.377C226.2 175.979 225.556 175.43 225.047 174.765C224.559 174.149 224.157 173.47 223.851 172.746C223.315 171.448 223.092 170.04 223.202 168.639C223.302 167.483 223.639 166.361 224.194 165.341C224.604 164.572 225.129 163.869 225.751 163.258C226.14 162.87 226.567 162.523 227.026 162.221C227.179 162.117 227.308 162.053 227.393 162.003L227.522 161.938C227.522 161.938 227.363 162.053 227.055 162.266C226.613 162.582 226.199 162.937 225.82 163.327C225.226 163.944 224.725 164.644 224.332 165.406C223.805 166.412 223.49 167.516 223.405 168.649C223.309 170.023 223.54 171.4 224.079 172.667C224.381 173.369 224.774 174.028 225.25 174.626C225.743 175.263 226.365 175.788 227.075 176.169C227.817 176.568 228.682 176.671 229.496 176.456C229.913 176.359 230.296 176.148 230.601 175.847C230.907 175.546 231.123 175.166 231.227 174.75C231.306 174.312 231.285 173.862 231.166 173.432C231.048 173.003 230.835 172.606 230.542 172.27C229.909 171.58 229.036 171.157 228.102 171.09C227.175 171.028 226.246 171.156 225.369 171.463C224.493 171.771 223.688 172.253 223.003 172.88C221.705 174.048 220.724 175.526 220.151 177.176C219.884 177.941 219.686 178.73 219.561 179.532C219.458 180.291 219.423 181.058 219.457 181.823C219.526 183.202 219.753 184.568 220.131 185.895C220.703 187.817 221.433 189.689 222.314 191.49L223.023 192.978C223.097 193.137 223.157 193.266 223.207 193.365C223.256 193.464 223.231 193.474 223.231 193.474Z" fill="#FAFAFA"/>
<path d="M217.104 149.688C217.104 149.688 217.129 149.757 217.148 149.891C217.183 150.091 217.208 150.293 217.223 150.496C217.288 151.237 217.288 151.982 217.223 152.723C217.022 155.19 216.179 157.561 214.776 159.601C213.373 161.64 211.46 163.275 209.227 164.344C208.559 164.671 207.864 164.938 207.149 165.143C206.901 165.222 206.698 165.257 206.564 165.292C206.43 165.326 206.355 165.331 206.355 165.321C206.604 165.214 206.859 165.123 207.119 165.049C207.815 164.807 208.493 164.517 209.148 164.181C211.321 163.083 213.183 161.457 214.563 159.451C215.943 157.445 216.796 155.125 217.044 152.703C217.122 151.972 217.151 151.236 217.129 150.501C217.103 150.231 217.095 149.959 217.104 149.688Z" fill="#FAFAFA"/>
<path d="M302.319 171.195C301.581 171.657 300.932 172.248 300.404 172.94C299.908 173.58 299.412 174.428 298.852 175.321C298.237 176.321 297.528 177.259 296.734 178.124C295.282 179.692 293.56 180.988 291.65 181.948C291.075 182.239 290.482 182.492 289.874 182.707C289.652 182.794 289.423 182.86 289.189 182.905C289.395 182.788 289.611 182.69 289.834 182.612C290.251 182.429 290.856 182.171 291.565 181.784C293.419 180.788 295.094 179.493 296.525 177.95C297.311 177.099 298.017 176.178 298.633 175.197C299.126 174.378 299.665 173.586 300.245 172.826C300.649 172.317 301.129 171.874 301.669 171.512C301.815 171.415 301.969 171.33 302.13 171.259C302.259 171.209 302.319 171.185 302.319 171.195Z" fill="#FAFAFA"/>
<path d="M275.512 133.523C275.439 133.554 275.362 133.574 275.284 133.582L274.624 133.701C274.049 133.795 273.215 133.919 272.189 134.058C270.125 134.336 267.268 134.663 264.099 134.896C262.615 135.032 261.125 135.085 259.635 135.055C258.406 135.025 257.188 134.816 256.019 134.435C255.23 134.179 254.485 133.803 253.812 133.319C253.628 133.19 253.452 133.049 253.286 132.898C253.177 132.788 253.122 132.734 253.127 132.724C253.132 132.714 253.385 132.922 253.866 133.22C254.552 133.66 255.294 134.004 256.074 134.242C257.232 134.594 258.434 134.781 259.645 134.797C261.135 134.813 262.625 134.754 264.109 134.619C267.268 134.386 270.125 134.093 272.189 133.86L274.634 133.582C274.925 133.542 275.218 133.522 275.512 133.523Z" fill="#263238"/>
<path d="M309.503 191.749C309.876 193.667 309.823 195.645 309.347 197.541C308.87 199.437 307.983 201.205 306.747 202.719C305.511 204.234 303.957 205.458 302.196 206.305C300.434 207.152 298.507 207.601 296.552 207.621L258.98 207.204L259.972 195.037L292.143 190.206" fill="#B78876"/>
<path d="M262.275 195.568C262.101 195.623 259.934 194.65 257.989 193.753C255.927 192.797 253.663 192.358 251.392 192.473L242.435 192.929C242.435 192.929 242.985 194.417 243.923 194.913C244.86 195.409 250.48 195.568 250.48 195.568L250.192 195.861C249.017 197.071 247.414 197.773 245.728 197.815H244.87C244.235 197.765 243.607 197.641 243 197.448L240.793 196.555C240.123 196.258 239.419 196.302 239.126 196.977C238.834 197.651 239.057 198.425 240.882 199.343C241.899 199.839 245.679 201.163 245.679 201.163C245.704 201.701 245.779 202.236 245.902 202.76C246.065 203.311 247.548 203.861 247.548 203.861C247.934 204.677 248.375 205.466 248.868 206.222C249.041 206.421 250.386 206.842 251.819 207.244C254.13 207.891 256.576 207.872 258.877 207.189L262.29 206.168V195.752" fill="#B78876"/>
<path d="M250.022 202.368C248.444 202.327 246.897 201.92 245.504 201.177C245.504 201.118 246.496 201.495 247.751 201.817C249.006 202.139 250.027 202.293 250.022 202.368Z" fill="#AA6550"/>
<path d="M249.705 204.455C249.285 204.543 248.848 204.51 248.445 204.361C248.024 204.284 247.633 204.091 247.314 203.806C247.72 203.887 248.118 204.001 248.505 204.148C248.912 204.219 249.314 204.322 249.705 204.455Z" fill="#AA6550"/>
<path d="M251.342 194.759C251.146 195.035 250.914 195.283 250.653 195.498C250.059 196.065 249.403 196.564 248.698 196.986C247.988 197.4 247.216 197.698 246.412 197.869C246.089 197.955 245.754 197.992 245.42 197.978C246.528 197.723 247.599 197.325 248.604 196.792C249.293 196.377 249.949 195.908 250.563 195.389C250.804 195.156 251.064 194.945 251.342 194.759Z" fill="#AA6550"/>
<path d="M263.19 193.934L262.277 207.693H297.667C300.07 207.695 302.428 207.042 304.487 205.804C306.818 204.403 308.66 202.319 309.764 199.834C310.868 197.349 311.18 194.584 310.657 191.916C310.148 189.303 309.384 186.746 308.376 184.282L290.579 187.214L291.149 189.426L263.19 193.934Z" fill="#349997"/>
<path d="M299.348 188.272C299.231 188.306 299.112 188.332 298.991 188.351L297.954 188.54L294.13 189.174L281.552 191.158L268.958 193.088L265.139 193.643L264.098 193.782C263.976 193.799 263.853 193.809 263.73 193.812C263.848 193.771 263.969 193.743 264.093 193.728L265.124 193.544L268.934 192.904L281.512 190.92L294.13 188.976L297.95 188.421L298.991 188.282C299.109 188.266 299.229 188.262 299.348 188.272Z" fill="#263238"/>
<path d="M281.233 207.704C281.168 207.704 281.446 206.712 281.481 205.09C281.488 204.65 281.47 204.209 281.426 203.771C281.384 203.271 281.311 202.774 281.208 202.283C280.962 201.151 280.576 200.055 280.057 199.019C279.526 197.989 278.877 197.023 278.123 196.143L277.627 195.562C277.458 195.374 277.275 195.21 277.106 195.041C276.774 194.699 276.422 194.426 276.114 194.163C274.849 193.171 273.951 192.675 273.981 192.631C274.201 192.719 274.412 192.827 274.611 192.953C274.858 193.082 275.097 193.226 275.325 193.385C275.588 193.573 275.916 193.757 276.228 194.025C276.585 194.292 276.926 194.58 277.25 194.888C277.423 195.056 277.617 195.215 277.79 195.384L278.331 195.969C279.108 196.855 279.774 197.833 280.315 198.88C280.84 199.937 281.227 201.058 281.466 202.214C281.567 202.719 281.634 203.231 281.664 203.746C281.696 204.192 281.696 204.64 281.664 205.085C281.655 205.456 281.622 205.825 281.565 206.191C281.538 206.468 281.49 206.741 281.421 207.01C281.378 207.246 281.315 207.479 281.233 207.704Z" fill="#FAFAFA"/>
<path d="M302.78 206.667C302.228 206.664 301.677 206.599 301.139 206.474C300.504 206.328 299.888 206.11 299.303 205.824C298.528 205.439 297.828 204.918 297.235 204.287C296.516 203.513 295.994 202.577 295.712 201.559C295.556 200.993 295.467 200.41 295.449 199.823C295.414 199.202 295.464 198.579 295.598 197.973C295.731 197.326 295.98 196.71 296.332 196.152C296.7 195.561 297.212 195.073 297.82 194.734C298.449 194.367 299.172 194.194 299.899 194.238C300.272 194.264 300.636 194.365 300.97 194.535C301.303 194.706 301.598 194.942 301.838 195.23C302.086 195.513 302.272 195.845 302.385 196.205C302.497 196.564 302.534 196.943 302.493 197.318C302.432 197.681 302.291 198.026 302.08 198.328C301.869 198.63 301.593 198.882 301.273 199.064C300.072 199.692 298.69 199.882 297.364 199.599C295.483 199.306 293.763 198.364 292.503 196.937C291.243 195.509 290.522 193.686 290.465 191.782C290.433 191.23 290.48 190.675 290.604 190.136C290.558 190.682 290.545 191.23 290.564 191.778C290.656 193.27 291.144 194.712 291.977 195.954C292.598 196.866 293.399 197.641 294.331 198.232C295.262 198.823 296.304 199.217 297.394 199.391C298.66 199.663 299.982 199.488 301.134 198.895C301.421 198.732 301.669 198.508 301.86 198.238C302.05 197.968 302.178 197.658 302.235 197.333C302.264 196.993 302.226 196.651 302.123 196.327C302.02 196.002 301.853 195.701 301.634 195.44C301.414 195.18 301.145 194.966 300.842 194.809C300.539 194.653 300.208 194.558 299.869 194.53C299.196 194.485 298.525 194.638 297.939 194.972C297.388 195.301 296.915 195.745 296.551 196.274C296.187 196.803 295.942 197.405 295.831 198.037C295.697 198.625 295.645 199.23 295.678 199.833C295.691 200.401 295.773 200.965 295.921 201.514C296.182 202.505 296.679 203.419 297.369 204.178C297.936 204.8 298.608 205.319 299.353 205.71C299.925 206.002 300.527 206.23 301.149 206.39C302.19 206.623 302.785 206.633 302.78 206.667Z" fill="#FAFAFA"/>
<path d="M162.393 56.7773H73.7627C68.5823 56.7773 63.6142 58.8352 59.9511 62.4983C56.2881 66.1613 54.2302 71.1295 54.2302 76.3098V107.895H35.1094L54.2302 127.016V148.488C54.2302 153.668 56.2881 158.636 59.9511 162.299C63.6142 165.962 68.5823 168.02 73.7627 168.02H162.393C167.573 168.02 172.541 165.962 176.204 162.299C179.867 158.636 181.925 153.668 181.925 148.488V76.3098C181.925 71.1295 179.867 66.1613 176.204 62.4983C172.541 58.8352 167.573 56.7773 162.393 56.7773Z" fill="#349997"/>
<path d="M126.184 60.1158C125.624 61.5691 126.586 63.1513 127.672 64.2723C128.759 65.3932 130.058 66.4547 130.4 67.9724C130.683 69.2472 130.212 70.5715 130.326 71.871C130.44 73.1705 131.159 74.3956 131.566 75.6654C132.305 77.9668 132.007 80.4816 131.348 82.8078C130.872 84.7409 129.963 86.5404 128.689 88.0704C128.048 88.8281 127.253 89.441 126.356 89.8686C125.46 90.2961 124.484 90.5285 123.491 90.5504C123.21 90.568 122.929 90.5278 122.665 90.4322C122.4 90.3367 122.158 90.1878 121.953 89.9948C121.675 89.5936 121.522 89.1191 121.512 88.6308C120.376 78.6438 120.376 68.5603 121.512 58.5732" fill="#263238"/>
<path d="M125.14 92.3006C129.456 92.1121 133.443 96.2438 133.101 100.549C137.471 101.615 140.541 106.422 139.703 110.836C139.42 112.294 138.771 113.683 138.681 115.161C138.582 116.778 139.177 118.35 139.47 119.938C140.031 122.83 139.731 125.824 138.607 128.548C137.927 130.19 136.658 131.886 134.882 131.936C134.28 131.911 133.694 131.738 133.175 131.432C132.656 131.127 132.22 130.699 131.906 130.185C131.288 129.145 130.88 127.994 130.706 126.797C129.937 122.919 129.714 118.936 128.642 115.131C127.571 111.327 125.488 107.577 122.05 105.648C120.151 104.577 117.869 104.071 116.356 102.498C115.595 101.64 115.088 100.587 114.891 99.4574C114.694 98.3275 114.815 97.165 115.24 96.0999C115.686 95.0444 116.349 94.0947 117.187 93.3127C118.025 92.5307 119.017 91.934 120.101 91.5615" fill="#263238"/>
<path d="M95.2683 63.6719C95.2187 61.8268 96.92 60.4033 98.6361 59.7039C100.352 59.0046 102.262 58.7715 103.79 57.7199C105.149 56.8073 106.056 55.3838 107.202 54.2479C108.617 52.8132 110.388 51.7808 112.334 51.2568C114.279 50.7328 116.329 50.7361 118.273 51.2663C120.217 51.7964 121.985 52.8344 123.396 54.2737C124.806 55.7129 125.808 57.5016 126.298 59.4559C126.958 62.0798 126.506 65.1847 124.438 66.9307C122.037 68.9543 118.486 68.503 115.396 67.873C112.306 67.2431 108.834 66.6231 106.265 68.4335C104.717 69.5198 103.824 71.2955 102.877 72.9372C101.93 74.579 100.744 76.2505 98.9536 76.8705C97.163 77.4905 94.7276 76.4191 94.6582 74.5294" fill="#263238"/>
<path d="M102.541 64.0502C101.773 64.1332 101.064 64.5013 100.554 65.0817C100.044 65.6621 99.771 66.4126 99.7878 67.1849L101.628 108.849C101.707 113.769 108.899 116.532 114.167 116.408C119.489 116.284 119.658 113.675 119.727 108.993C119.836 101.176 119.826 98.2394 119.831 98.2841C119.836 98.3287 126.552 97.1532 127.926 88.3641C128.605 84.0042 128.372 76.8519 127.99 71.0041C127.648 65.7415 124.146 59.2935 118.904 59.859L102.541 64.0502Z" fill="#FFBE9D"/>
<path d="M126.476 76.5282C126.479 76.8209 126.368 77.1033 126.166 77.3153C125.964 77.5273 125.688 77.6524 125.395 77.664C125.254 77.6762 125.111 77.6601 124.976 77.6167C124.84 77.5733 124.715 77.5034 124.607 77.411C124.499 77.3187 124.411 77.2058 124.347 77.079C124.283 76.9521 124.244 76.8138 124.234 76.672C124.23 76.3789 124.341 76.0959 124.543 75.8835C124.746 75.6712 125.023 75.5465 125.316 75.5362C125.457 75.524 125.6 75.5401 125.735 75.5835C125.87 75.6269 125.996 75.6969 126.104 75.7892C126.212 75.8815 126.3 75.9944 126.364 76.1212C126.428 76.2481 126.466 76.3864 126.476 76.5282Z" fill="#263238"/>
<path d="M126.447 74.7423C126.308 74.8911 125.455 74.2463 124.245 74.2463C123.035 74.2463 122.147 74.8614 122.013 74.7126C121.948 74.6481 122.092 74.3803 122.479 74.0975C123.001 73.7339 123.624 73.5416 124.26 73.547C124.89 73.5433 125.504 73.7395 126.016 74.1075C126.388 74.4001 126.517 74.6779 126.447 74.7423Z" fill="#263238"/>
<path d="M114.847 76.5282C114.85 76.8209 114.739 77.1033 114.537 77.3153C114.335 77.5273 114.059 77.6524 113.766 77.664C113.625 77.6762 113.482 77.6601 113.347 77.6167C113.212 77.5733 113.086 77.5034 112.978 77.411C112.87 77.3187 112.782 77.2058 112.718 77.079C112.654 76.9521 112.616 76.8138 112.606 76.672C112.602 76.3789 112.712 76.0959 112.915 75.8835C113.117 75.6712 113.394 75.5465 113.687 75.5362C113.828 75.524 113.971 75.5401 114.106 75.5835C114.242 75.6269 114.367 75.6969 114.475 75.7892C114.583 75.8815 114.671 75.9944 114.735 76.1212C114.799 76.2481 114.837 76.3864 114.847 76.5282Z" fill="#263238"/>
<path d="M114.573 74.9953C114.434 75.1441 113.581 74.4993 112.371 74.4993C111.161 74.4993 110.273 75.1143 110.144 74.9655C110.08 74.901 110.218 74.6332 110.605 74.3505C111.127 73.986 111.749 73.792 112.386 73.795C113.016 73.7927 113.631 73.9907 114.142 74.3604C114.489 74.663 114.618 74.9308 114.573 74.9953Z" fill="#263238"/>
<path d="M118.964 83.9633C118.964 83.8938 119.708 83.7649 120.948 83.6061C121.255 83.5714 121.548 83.5069 121.603 83.2986C121.625 82.9789 121.553 82.6596 121.394 82.381L120.472 80.03C119.197 76.682 118.269 73.9292 118.408 73.8796C118.547 73.83 119.688 76.5034 120.963 79.8316L121.846 82.1975C122.038 82.57 122.096 82.9975 122.009 83.4077C121.966 83.5159 121.899 83.613 121.813 83.6919C121.727 83.7709 121.625 83.8297 121.513 83.8641C121.352 83.9086 121.185 83.932 121.017 83.9335C119.728 84.0228 118.969 84.0327 118.964 83.9633Z" fill="#263238"/>
<path d="M119.831 98.2877C115.701 98.3589 111.631 97.2823 108.076 95.1777C108.076 95.1777 110.938 101.199 119.717 100.356L119.831 98.2877Z" fill="#EB996E"/>
<path d="M118.459 86.8792C118.225 86.5858 117.92 86.3576 117.572 86.2169C117.225 86.0761 116.847 86.0275 116.475 86.0757C116.208 86.0997 115.948 86.1775 115.712 86.3045C115.476 86.4316 115.268 86.6051 115.101 86.8148C114.94 87.0171 114.845 87.2641 114.829 87.5224C114.813 87.7806 114.877 88.0375 115.012 88.2581C115.206 88.476 115.461 88.6303 115.744 88.7011C116.027 88.7719 116.325 88.7558 116.599 88.6549C117.17 88.452 117.694 88.1366 118.141 87.7274C118.279 87.6315 118.397 87.5103 118.489 87.3703C118.534 87.3037 118.558 87.2251 118.558 87.1446C118.558 87.0641 118.534 86.9855 118.489 86.9189" fill="#EB996E"/>
<path d="M115.402 84.8164C115.601 84.8164 115.606 86.1209 116.732 87.0484C117.857 87.9759 119.256 87.8321 119.266 88.0404C119.266 88.1247 118.954 88.2983 118.363 88.3132C117.594 88.3272 116.844 88.069 116.245 87.5841C115.673 87.1159 115.305 86.4436 115.219 85.7092C115.164 85.1289 115.313 84.8164 115.402 84.8164Z" fill="#263238"/>
<path d="M115.069 72.8723C114.95 73.2046 113.74 73.0509 112.322 73.2245C110.903 73.3981 109.752 73.7899 109.564 73.4923C109.48 73.3534 109.678 73.041 110.139 72.7235C110.755 72.3277 111.453 72.0773 112.18 71.9913C112.907 71.9054 113.644 71.9862 114.335 72.2275C114.876 72.4606 115.139 72.7186 115.069 72.8723Z" fill="#263238"/>
<path d="M125.981 71.2405C125.768 71.5133 124.934 71.2405 123.928 71.2405C122.921 71.2405 122.078 71.429 121.884 71.1413C121.795 71.0025 121.929 70.7297 122.301 70.4668C122.798 70.1553 123.377 69.9981 123.964 70.0149C124.551 70.0317 125.12 70.2217 125.599 70.561C125.981 70.8239 126.085 71.1066 125.981 71.2405Z" fill="#263238"/>
<path d="M96.4144 92.9056C97.6238 93.1501 98.874 93.1036 100.062 92.7698C101.25 92.436 102.341 91.8246 103.246 90.9859C104.151 90.1473 104.844 89.1055 105.267 87.9464C105.69 86.7874 105.832 85.5443 105.68 84.3199C105.407 82.1623 104.246 79.9749 104.995 77.9314C105.987 75.2381 109.762 74.4098 110.764 71.7165C111.344 70.1541 110.823 68.3239 111.483 66.7912C112.103 65.3528 113.621 64.5245 115.099 63.9888C116.577 63.4531 118.154 63.0861 119.394 62.1239C120.634 61.1616 121.403 59.3463 120.604 57.9922C114.054 58.7782 107.62 60.3417 101.439 62.6496C100.005 63.1853 98.5026 63.8301 97.6544 65.0999C96.7616 66.449 96.8063 68.185 96.8807 69.8019C97.2477 77.6784 96.0474 85.0539 96.4144 92.9304" fill="#263238"/>
<path d="M94.3276 90.4364C94.2777 90.4289 94.2292 90.4139 94.1838 90.3918C94.0422 90.3424 93.9073 90.2758 93.782 90.1934C93.2988 89.8808 92.9191 89.432 92.6908 88.9038C92.3154 88.0687 92.2147 87.1361 92.4031 86.2402C92.7018 85.0763 93.2445 83.9892 93.9953 83.051C94.7641 81.9796 95.7412 80.8934 96.4059 79.5095C96.7603 78.8063 96.9582 78.0347 96.9862 77.2478C96.9575 76.4124 96.7899 75.5877 96.4902 74.8074C96.1559 73.9639 95.9794 73.0661 95.9694 72.1588C96.0174 71.188 96.3024 70.2437 96.7996 69.4085C97.2968 68.5733 97.9909 67.8725 98.8214 67.3674C99.7121 66.8814 100.7 66.6002 101.713 66.5441C102.693 66.496 103.664 66.3294 104.605 66.0481C105.488 65.7138 106.213 65.0608 106.638 64.2178C107.043 63.3886 107.366 62.5213 107.601 61.6287C107.852 60.7723 108.184 59.9419 108.593 59.1487C109.338 57.6449 110.474 56.3688 111.881 55.4535C113.123 54.6724 114.577 54.2947 116.043 54.3722C117.256 54.435 118.413 54.9091 119.321 55.7164C119.998 56.3253 120.503 57.102 120.784 57.9682C120.967 58.5105 121.036 59.0845 120.988 59.6546C120.977 59.8529 120.944 60.0494 120.888 60.2399C120.888 60.2399 120.923 60.0366 120.938 59.6497C120.962 59.0883 120.878 58.5276 120.69 57.998C120.349 57.0233 119.722 56.1738 118.891 55.5599C118.061 54.946 117.065 54.5962 116.033 54.5558C114.608 54.493 113.198 54.8705 111.995 55.637C110.626 56.5368 109.523 57.7871 108.801 59.2578C108.4 60.0512 108.078 60.8818 107.839 61.7378C107.596 62.6466 107.264 63.5289 106.847 64.3716C106.617 64.8077 106.317 65.2031 105.959 65.5422C105.589 65.8848 105.154 66.1496 104.679 66.3209C103.713 66.6187 102.713 66.7953 101.703 66.8466C100.727 66.8981 99.7742 67.1675 98.9156 67.6353C98.1217 68.1169 97.4577 68.7854 96.9813 69.5825C96.505 70.3796 96.2308 71.2811 96.1827 72.2084C96.1915 73.0877 96.3595 73.9582 96.6787 74.7777C96.9943 75.5818 97.1704 76.434 97.1995 77.2974C97.166 78.1162 96.9562 78.9181 96.5844 79.6484C95.89 81.067 94.903 82.1284 94.1292 83.2047C93.3824 84.1164 92.838 85.1765 92.5321 86.3146C92.3345 87.1806 92.4161 88.087 92.7652 88.9038C92.9798 89.4242 93.3375 89.873 93.7969 90.1983C94.1292 90.367 94.3326 90.4166 94.3276 90.4364Z" fill="#455A64"/>
<path d="M119.816 52.1895C119.937 52.1983 120.054 52.2339 120.159 52.2936C120.456 52.4199 120.735 52.5868 120.987 52.7896C121.851 53.4601 122.424 54.4379 122.585 55.5197C122.747 56.6015 122.485 57.7039 121.855 58.5978C121.672 58.8642 121.455 59.1059 121.21 59.317C121.032 59.4658 120.922 59.5303 120.913 59.5154C121.192 59.1984 121.455 58.8673 121.701 58.5234C122.26 57.6518 122.484 56.6071 122.332 55.5829C122.18 54.5588 121.661 53.6245 120.873 52.9533C120.536 52.6785 120.183 52.4235 119.816 52.1895Z" fill="#455A64"/>
<path d="M139.25 112.389C139.354 112.084 139.439 111.772 139.503 111.456C139.619 110.59 139.468 109.71 139.071 108.932C138.459 107.789 137.486 106.882 136.304 106.352C135.612 106.025 134.889 105.768 134.146 105.584C133.372 105.385 132.554 105.222 131.735 104.954C130.912 104.729 130.152 104.315 129.518 103.743C128.95 103.175 128.583 102.436 128.472 101.64C128.338 100.901 128.293 100.202 128.129 99.577C127.983 98.9988 127.71 98.4602 127.331 97.9997C126.776 97.3252 126.039 96.8242 125.208 96.5564C124.618 96.3778 124.266 96.3778 124.266 96.3481C124.35 96.3397 124.434 96.3397 124.519 96.3481C124.761 96.3648 125.002 96.403 125.238 96.4621C126.108 96.702 126.885 97.198 127.47 97.8857C127.878 98.3611 128.175 98.9221 128.338 99.5274C128.516 100.177 128.571 100.886 128.71 101.601C128.812 102.354 129.161 103.051 129.702 103.585C130.31 104.125 131.035 104.517 131.82 104.73C132.618 104.988 133.437 105.157 134.215 105.36C134.968 105.545 135.7 105.807 136.398 106.144C137.619 106.703 138.616 107.66 139.225 108.857C139.622 109.671 139.751 110.59 139.592 111.481C139.545 111.719 139.47 111.95 139.369 112.17C139.337 112.247 139.297 112.32 139.25 112.389Z" fill="#455A64"/>
<path d="M101.096 96.8553C96.6324 95.6649 92.8132 91.315 91.2557 86.9849C89.6983 82.6548 89.6983 77.9279 90.1001 73.3449C90.3877 70.0267 90.973 66.515 93.1753 64.0151C96.4985 60.2455 100.119 58.3211 105.119 58.4798" fill="#263238"/>
<path d="M127.039 106.527L122.897 105.485C123.348 105.175 123.678 104.717 123.828 104.19C123.978 103.663 123.94 103.1 123.72 102.598C123.458 101.955 123.024 101.396 122.466 100.983C121.908 100.569 121.247 100.316 120.556 100.252L101.678 98.1195C101.348 98.0755 101.013 98.1435 100.726 98.3125C100.439 98.4816 100.217 98.7419 100.096 99.052C99.2592 101.181 99.2311 102.934 100.011 104.31H99.9222L96.2816 105.034L90.1113 159.465L130.525 157.575L127.039 106.527Z" fill="#F5F5F5"/>
<path d="M121.096 105.693C120.848 105.765 120.594 105.815 120.337 105.842C119.841 105.921 119.132 106.005 118.249 106.095C113.628 106.524 108.97 106.292 104.416 105.405C103.543 105.232 102.843 105.073 102.362 104.944C102.109 104.895 101.862 104.822 101.623 104.726C101.879 104.744 102.133 104.786 102.382 104.85C102.878 104.944 103.577 105.078 104.45 105.227C109 106.01 113.629 106.239 118.234 105.911C119.117 105.852 119.831 105.787 120.327 105.737C120.582 105.702 120.839 105.687 121.096 105.693Z" fill="#263238"/>
<path d="M102.826 114.344C103.224 113.519 103.697 112.732 104.24 111.993C104.714 111.208 105.26 110.469 105.872 109.786C105.473 110.612 104.998 111.4 104.453 112.137C103.982 112.923 103.437 113.662 102.826 114.344Z" fill="#E0E0E0"/>
<path d="M115.853 115.266C114.592 113.971 113.457 112.56 112.465 111.05C113.126 111.668 113.727 112.347 114.26 113.078C114.861 113.754 115.394 114.487 115.853 115.266Z" fill="#E0E0E0"/>
<path d="M109.8 122.186C109.515 121.303 109.311 120.397 109.19 119.477C108.984 118.573 108.866 117.651 108.838 116.725C109.124 117.607 109.328 118.513 109.448 119.433C109.649 120.338 109.767 121.259 109.8 122.186Z" fill="#E0E0E0"/>
<path d="M119.746 122.611C119.046 123.482 118.28 124.298 117.455 125.052C116.688 125.868 115.859 126.622 114.975 127.308C115.675 126.437 116.441 125.622 117.266 124.868C118.036 124.055 118.865 123.301 119.746 122.611Z" fill="#E0E0E0"/>
<path d="M106.41 131.887C104.582 130.794 103.093 129.217 102.109 127.328C102.179 127.284 102.938 128.474 104.133 129.729C105.328 130.984 106.459 131.822 106.41 131.887Z" fill="#E0E0E0"/>
<path d="M110.694 139.05C110.694 139.124 109.563 139.486 108.254 140.186C106.944 140.885 105.987 141.619 105.938 141.555C106.562 140.886 107.307 140.342 108.135 139.953C108.922 139.489 109.791 139.182 110.694 139.05Z" fill="#E0E0E0"/>
<path d="M117.662 139.51C117.366 139.26 117.102 138.975 116.873 138.662C116.417 138.116 115.807 137.337 115.172 136.45C114.537 135.562 114.002 134.733 113.63 134.118C113.408 133.8 113.225 133.458 113.084 133.097C113.348 133.38 113.582 133.689 113.783 134.019L115.385 136.301L117.017 138.553C117.265 138.848 117.482 139.169 117.662 139.51Z" fill="#E0E0E0"/>
<path d="M118.364 145.62C117.4 145.958 116.402 146.191 115.388 146.315C114.385 146.524 113.363 146.625 112.338 146.617C113.329 146.368 114.334 146.183 115.349 146.062C116.344 145.855 117.351 145.707 118.364 145.62Z" fill="#E0E0E0"/>
<path d="M107.079 104.924C107.044 104.924 107.282 104.626 107.485 104.101C107.737 103.413 107.812 102.672 107.704 101.948C107.581 101.218 107.366 100.506 107.064 99.83C106.918 99.5532 106.804 99.2602 106.727 98.957C106.934 99.1949 107.101 99.4645 107.223 99.7556C107.583 100.428 107.83 101.155 107.952 101.908C108.072 102.677 107.967 103.464 107.649 104.175C107.538 104.476 107.34 104.737 107.079 104.924Z" fill="#E0E0E0"/>
<path d="M114.627 100.848C114.981 101.335 115.234 101.887 115.371 102.473C115.508 103.059 115.527 103.667 115.426 104.26C115.351 104.26 115.341 103.471 115.118 102.534C114.895 101.597 114.573 100.887 114.627 100.848Z" fill="#E0E0E0"/>
<path d="M148.68 139.629L167.478 106.61L169.745 100.881C169.745 100.881 175.607 88.2831 176.014 86.9935C176.485 85.5055 177.314 85.3864 177.849 85.5948C178.683 85.9271 178.951 87.1671 178.583 88.4517C178.455 88.8931 176.178 95.8173 176.178 95.8173C176.79 95.2896 177.44 94.8072 178.122 94.3739C179.566 93.3819 182.209 93.4315 184.659 94.3045C187.11 95.1775 187.715 95.6387 187.422 96.601C187.358 96.7816 187.253 96.9454 187.117 97.0802C186.98 97.2149 186.815 97.3173 186.634 97.3797C186.057 97.6207 185.41 97.6348 184.823 97.4194C180.885 96.0802 179.139 97.8559 179.139 97.8559L178.846 98.6048C178.846 98.6048 181.822 97.6575 183.489 98.9967C183.738 99.1932 183.946 99.4357 184.104 99.7109C184.643 99.8871 185.127 100.201 185.508 100.622C185.889 101.042 186.153 101.555 186.275 102.109C186.397 102.663 186.372 103.24 186.202 103.781C186.033 104.323 185.725 104.811 185.309 105.197C185.128 105.403 184.889 105.549 184.624 105.616C184.358 105.684 184.078 105.669 183.821 105.574C183.581 105.41 183.387 105.186 183.261 104.924C183.18 104.793 183.089 104.668 182.988 104.552L181.867 106.536C181.867 106.536 179.104 110.851 178.112 112.87L165.167 147.357C164.741 148.492 164.094 149.531 163.262 150.413C162.43 151.296 161.431 152.003 160.323 152.495C159.215 152.987 158.019 153.253 156.807 153.278C155.595 153.302 154.39 153.085 153.263 152.639C152.046 152.159 150.947 151.423 150.04 150.481C149.132 149.539 148.438 148.413 148.003 147.18C147.569 145.946 147.404 144.633 147.521 143.331C147.638 142.028 148.033 140.766 148.68 139.629Z" fill="#FFBE9D"/>
<path d="M168.771 106.497C169.436 106.934 170.354 106.636 170.949 106.12C171.544 105.605 171.941 104.895 172.516 104.335C174.188 102.663 176.98 102.505 178.582 100.754C178.806 100.511 179.004 100.139 178.811 99.8708C178.617 99.6029 178.26 99.6525 177.962 99.7121L170.269 101.235" fill="#FFBE9D"/>
<path d="M170.27 101.235C170.53 101.117 170.803 101.034 171.084 100.987C171.614 100.853 172.388 100.679 173.34 100.491L176.693 99.7813L177.685 99.5779C178.068 99.438 178.489 99.4523 178.861 99.6176C178.967 99.6963 179.047 99.8049 179.092 99.9295C179.136 100.054 179.142 100.189 179.109 100.317C179.058 100.527 178.956 100.721 178.811 100.882C178.552 101.169 178.261 101.426 177.943 101.646C176.664 102.534 175.26 102.896 174.139 103.486C173.604 103.739 173.112 104.074 172.681 104.478C172.284 104.86 171.971 105.297 171.644 105.669C171.409 105.997 171.104 106.27 170.752 106.468C170.4 106.665 170.008 106.784 169.606 106.815C169.015 106.815 168.772 106.522 168.792 106.517C169.051 106.606 169.323 106.648 169.596 106.641C169.961 106.58 170.311 106.445 170.622 106.242C170.932 106.04 171.198 105.775 171.401 105.465C171.719 105.032 172.058 104.615 172.418 104.216C172.867 103.77 173.385 103.398 173.951 103.114C175.106 102.489 176.505 102.122 177.685 101.279C177.97 101.077 178.232 100.846 178.469 100.59C178.687 100.347 178.762 100.054 178.608 99.9698C178.454 99.8854 178.112 99.9251 177.77 99.9946L176.778 100.178L173.405 100.798C172.443 100.967 171.664 101.096 171.123 101.175C170.844 101.239 170.556 101.26 170.27 101.235Z" fill="#EB996E"/>
<path d="M178.74 98.6158C178.937 98.1554 179.24 97.7476 179.623 97.4254C180.053 97.1035 180.575 96.9294 181.111 96.9294C181.786 96.9335 182.455 97.0439 183.095 97.2568C183.749 97.4774 184.424 97.6303 185.109 97.7131C185.684 97.7791 186.266 97.6901 186.795 97.4552C186.977 97.3712 187.137 97.2459 187.262 97.0891C187.387 96.9324 187.473 96.7486 187.515 96.5525C187.552 96.4144 187.552 96.2689 187.515 96.1309C187.485 96.1309 187.485 96.2797 187.41 96.5277C187.356 96.6948 187.266 96.848 187.146 96.9765C187.026 97.1051 186.879 97.2058 186.716 97.2717C186.211 97.4593 185.668 97.5206 185.134 97.4502C184.469 97.3456 183.814 97.1795 183.18 96.9542C182.517 96.7362 181.823 96.6289 181.126 96.6368C180.541 96.6504 179.977 96.86 179.524 97.232C179.224 97.4817 178.993 97.8046 178.854 98.1694C178.73 98.4621 178.721 98.6109 178.74 98.6158Z" fill="#EB996E"/>
<path d="M178.717 87.9561C178.523 88.3998 178.367 88.8595 178.251 89.33C177.958 90.2823 177.611 91.4132 177.224 92.6631C176.837 93.913 176.456 95.034 176.148 95.9813C175.969 96.4307 175.831 96.8956 175.736 97.3701C175.983 96.9523 176.186 96.5102 176.341 96.0508C176.669 95.2175 177.085 94.0668 177.502 92.7524C177.919 91.438 178.241 90.2724 178.449 89.3845C178.589 88.9191 178.678 88.4403 178.717 87.9561Z" fill="#EB996E"/>
<path d="M179.805 100.688C179.956 100.709 180.11 100.709 180.261 100.688C180.451 100.655 180.646 100.664 180.833 100.714C181.02 100.763 181.193 100.852 181.342 100.975C181.428 101.066 181.49 101.178 181.52 101.3C181.551 101.421 181.549 101.549 181.516 101.67C181.436 101.974 181.317 102.268 181.164 102.543C180.965 102.888 180.9 103.293 180.98 103.683C181.048 103.89 181.163 104.078 181.316 104.232C181.47 104.386 181.657 104.502 181.863 104.571C182.067 104.636 182.281 104.658 182.493 104.637C182.706 104.615 182.912 104.551 183.098 104.447C183.445 104.27 183.731 103.991 183.917 103.649C184.185 103.083 184.369 102.482 184.462 101.863C184.534 101.448 184.534 101.023 184.462 100.608C184.447 100.452 184.386 100.304 184.289 100.182C184.264 100.182 184.328 100.34 184.353 100.623C184.374 101.028 184.339 101.433 184.249 101.828C184.131 102.415 183.938 102.983 183.673 103.52C183.512 103.822 183.255 104.062 182.943 104.203C182.631 104.344 182.281 104.377 181.947 104.298C181.784 104.246 181.635 104.155 181.513 104.035C181.391 103.914 181.298 103.767 181.243 103.604C181.178 103.28 181.233 102.944 181.397 102.657C181.551 102.356 181.668 102.038 181.744 101.709C181.777 101.552 181.77 101.389 181.722 101.235C181.674 101.081 181.588 100.942 181.471 100.831C181.299 100.695 181.097 100.601 180.882 100.556C180.666 100.511 180.444 100.517 180.231 100.573C180.084 100.588 179.94 100.627 179.805 100.688Z" fill="#EB996E"/>
<path d="M183.046 104.16C183.046 104.16 182.952 104.289 182.962 104.567C182.976 104.762 183.035 104.951 183.135 105.119C183.235 105.287 183.372 105.429 183.537 105.534C183.791 105.68 184.079 105.757 184.373 105.757C184.666 105.757 184.954 105.68 185.209 105.534C185.82 105.181 186.272 104.605 186.468 103.927C186.684 103.263 186.684 102.548 186.468 101.884C186.292 101.347 185.975 100.867 185.551 100.495C185.271 100.244 184.946 100.049 184.594 99.9194C184.468 99.8593 184.331 99.8287 184.192 99.8301C184.634 100.044 185.044 100.318 185.412 100.644C185.828 101.05 186.122 101.564 186.261 102.129C186.399 102.693 186.377 103.285 186.196 103.838C186.018 104.447 185.62 104.969 185.08 105.301C184.863 105.428 184.619 105.498 184.368 105.505C184.117 105.512 183.869 105.455 183.646 105.341C183.498 105.254 183.371 105.138 183.271 104.998C183.172 104.859 183.104 104.7 183.071 104.532C183.021 104.314 183.071 104.16 183.046 104.16Z" fill="#EB996E"/>
<path d="M176.787 107.275C176.59 107.142 176.359 107.071 176.122 107.071C175.517 107.013 174.909 107.157 174.396 107.483L174.609 107.627C174.676 107.3 174.722 106.968 174.748 106.635C174.922 104.72 174.311 103.242 174.252 103.282C174.443 104.38 174.514 105.496 174.465 106.61C174.441 106.928 174.4 107.244 174.341 107.558L174.282 107.88L174.555 107.696C175.019 107.393 175.562 107.231 176.117 107.23C176.529 107.24 176.777 107.31 176.787 107.275Z" fill="#EB996E"/>
<path d="M180.701 95.5102C180.622 95.5102 180.731 96.1054 181.257 96.5617C181.782 97.018 182.373 97.0577 182.373 96.9734C182.373 96.889 181.901 96.7452 181.45 96.3434C180.999 95.9417 180.78 95.4804 180.701 95.5102Z" fill="#EB996E"/>
<path d="M122.014 167.029L141.68 167.222L138.382 152.953L139.488 155.646C140.507 158.132 142.243 160.26 144.475 161.757C146.707 163.254 149.334 164.053 152.022 164.053C158.242 164.053 162.542 159.425 165.171 153.791C171.321 140.617 177.248 119.403 177.248 119.403L165.26 108.868C156.58 125.286 148.426 139.541 148.426 139.541C148.426 139.541 146.07 132.383 144.249 125.995C142.429 119.606 142.444 116.254 139.651 113.069C135.351 108.169 129.235 106.954 123.541 105.485L123.328 131.992L122.014 167.029Z" fill="#349997"/>
<path d="M99.5098 147.312L135.321 154.256L137.062 168.015H82.1548C80.6518 168.034 79.1614 167.739 77.7788 167.149C76.3963 166.559 75.1519 165.687 74.1251 164.59C73.0983 163.492 72.3116 162.192 71.8153 160.773C71.3191 159.355 71.124 157.848 71.2428 156.349C72.0314 146.32 72.8895 133.97 73.5442 128.747C74.0402 124.675 75.677 120.464 77.5965 116.843C80.3692 111.625 89.6096 104.939 97.7093 104.592L99.242 138.702" fill="#349997"/>
<g opacity="0.4">
<path d="M122.014 167.028L141.68 167.222L138.382 152.952L139.488 155.645C140.507 158.132 142.243 160.259 144.475 161.756C146.707 163.253 149.334 164.052 152.022 164.052C158.242 164.052 162.542 159.424 165.171 153.79C171.321 140.616 177.248 119.402 177.248 119.402L165.26 108.867C156.58 125.285 148.426 139.54 148.426 139.54C148.426 139.54 146.07 132.382 144.249 125.994C142.429 119.605 142.444 116.253 139.651 113.068C135.351 108.168 129.235 106.953 123.541 105.484L123.328 131.991L122.014 167.028Z" fill="black"/>
<path d="M99.5098 147.312L131.809 153.234C132.467 153.356 133.075 153.67 133.554 154.137C134.034 154.604 134.364 155.203 134.503 155.858L137.062 168.045H82.1548C80.6518 168.063 79.1614 167.768 77.7788 167.178C76.3963 166.588 75.1519 165.717 74.1251 164.619C73.0983 163.521 72.3116 162.222 71.8153 160.803C71.3191 159.384 71.124 157.877 71.2428 156.379C72.0314 146.35 72.8895 133.999 73.5442 128.776C74.0402 124.704 75.677 120.493 77.5965 116.872C80.3692 111.654 89.6096 104.968 97.7093 104.621L99.242 138.731" fill="black"/>
</g>
<path d="M92.6897 146.291C92.6769 146.183 92.6769 146.073 92.6897 145.964C92.6897 145.721 92.6897 145.409 92.6897 145.027C92.6897 144.179 92.6897 143.008 92.6897 141.555C92.6897 138.643 92.6352 134.611 92.412 130.181C92.2979 127.959 92.1541 125.846 92.0003 123.932C91.9283 122.232 91.6874 120.544 91.2811 118.892C90.9974 117.79 90.4569 116.77 89.7038 115.916C89.4122 115.618 89.1042 115.337 88.7812 115.073C89.1599 115.268 89.5036 115.525 89.7981 115.832C90.601 116.68 91.1791 117.715 91.4795 118.843C91.9127 120.508 92.172 122.213 92.2532 123.932C92.4219 125.851 92.5707 127.964 92.6848 130.186C92.9129 134.65 92.9377 138.663 92.8881 141.594C92.8584 143.053 92.8187 144.233 92.784 145.066L92.7294 146.004C92.7275 146.101 92.7142 146.197 92.6897 146.291Z" fill="#263238"/>
<path d="M134.626 155.248C134.249 154.83 133.808 154.474 133.322 154.191C132.743 153.876 132.129 153.631 131.492 153.462C130.752 153.249 129.884 153.085 128.927 152.892C125.098 152.108 119.816 151.022 113.963 149.916C108.11 148.81 102.783 147.932 98.9291 147.317L94.361 146.588L93.121 146.379C92.9749 146.361 92.8306 146.332 92.6895 146.29C92.8358 146.291 92.9818 146.304 93.1259 146.33L94.3758 146.488C95.4571 146.632 97.0245 146.851 98.9539 147.138C102.818 147.714 108.15 148.567 114.008 149.663C119.865 150.759 125.148 151.87 128.962 152.693C129.919 152.902 130.787 153.08 131.531 153.308C132.175 153.491 132.794 153.754 133.371 154.092C133.743 154.302 134.077 154.57 134.363 154.886C134.44 154.964 134.509 155.049 134.572 155.139C134.606 155.198 134.631 155.248 134.626 155.248Z" fill="#263238"/>
<path d="M92.7978 146.29C92.7978 146.335 92.1381 146.488 91.1163 146.905C90.5198 147.152 89.9399 147.437 89.3803 147.758C88.7037 148.162 88.0587 148.616 87.4509 149.117C86.8599 149.63 86.3093 150.187 85.8042 150.784C85.3886 151.276 85.0074 151.796 84.6634 152.341C84.0781 153.279 83.8103 153.914 83.7656 153.894C83.7965 153.734 83.8482 153.579 83.9194 153.432C84.0884 153.025 84.2839 152.629 84.5047 152.247C84.8358 151.681 85.2089 151.14 85.6207 150.63C86.6389 149.381 87.8842 148.336 89.2911 147.55C89.8609 147.228 90.4565 146.954 91.0717 146.731C91.4855 146.577 91.9098 146.453 92.3415 146.359C92.4896 146.315 92.6432 146.292 92.7978 146.29Z" fill="#263238"/>
<path d="M139.041 154.862C139.007 154.75 138.982 154.635 138.967 154.52C138.927 154.272 138.872 153.944 138.808 153.528C138.669 152.669 138.486 151.429 138.277 149.892C137.861 146.822 137.355 142.566 136.928 137.854C136.502 133.142 136.249 128.866 136.11 125.766C136.04 124.219 136.001 122.964 135.981 122.096C135.981 121.683 135.981 121.352 135.981 121.104C135.97 120.989 135.97 120.872 135.981 120.757C136.008 120.871 136.021 120.987 136.02 121.104L136.085 122.096C136.139 122.989 136.209 124.234 136.298 125.757C136.482 128.852 136.769 133.122 137.191 137.829C137.613 142.536 138.094 146.792 138.466 149.867C138.649 151.385 138.803 152.62 138.912 153.513C138.957 153.924 138.996 154.252 139.026 154.505C139.046 154.623 139.051 154.743 139.041 154.862Z" fill="#263238"/>
<path d="M150.914 149.53C150.914 149.53 150.8 149.42 150.626 149.202C150.386 148.886 150.166 148.554 149.967 148.21C148.636 145.938 148.022 143.317 148.206 140.691C148.231 140.296 148.284 139.903 148.364 139.515C148.382 139.371 148.419 139.229 148.474 139.094C148.518 139.094 148.424 139.709 148.389 140.701C148.306 143.29 148.905 145.856 150.125 148.141C150.592 148.999 150.954 149.5 150.914 149.53Z" fill="#263238"/>
<path d="M92.5475 127.859C92.5475 127.859 92.483 127.884 92.3639 127.899C92.1849 127.928 92.0044 127.946 91.8233 127.954C91.158 127.982 90.4917 127.928 89.8393 127.795C88.8703 127.6 87.9243 127.304 87.0171 126.912C85.9903 126.485 84.8991 125.92 83.7583 125.369C82.6904 124.833 81.5847 124.376 80.45 124.001C79.5292 123.691 78.5722 123.503 77.603 123.44C76.7051 123.411 75.8079 123.513 74.9395 123.743C74.9928 123.707 75.0514 123.68 75.1131 123.663C75.2738 123.593 75.4396 123.535 75.6091 123.49C76.2556 123.316 76.9241 123.24 77.5931 123.261C78.5833 123.292 79.5647 123.459 80.5095 123.757C81.6589 124.127 82.7768 124.588 83.8526 125.136C84.9983 125.702 86.0796 126.257 87.0915 126.689C87.9822 127.085 88.9091 127.394 89.8591 127.611C90.7435 127.792 91.645 127.875 92.5475 127.859Z" fill="#FAFAFA"/>
<path d="M98.7011 126.654C97.7482 126.944 96.7726 127.153 95.7846 127.279C94.8058 127.492 93.8098 127.617 92.8086 127.651C93.7614 127.361 94.7371 127.152 95.7251 127.026C96.7038 126.813 97.6999 126.688 98.7011 126.654Z" fill="#FAFAFA"/>
<path d="M92.3225 137.298C92.0942 137.427 91.8532 137.531 91.6033 137.61C91.1321 137.794 90.4427 138.042 89.5846 138.32C87.3407 139.04 85.0506 139.606 82.7299 140.016C81.3708 140.254 80.0664 140.428 78.876 140.547C77.8202 140.683 76.7532 140.711 75.6916 140.631C74.9716 140.573 74.2702 140.372 73.6283 140.041C73.4537 139.95 73.2877 139.844 73.1323 139.723C73.075 139.684 73.0233 139.637 72.9785 139.584C72.9785 139.584 73.2166 139.738 73.668 139.951C74.3108 140.242 75.0021 140.41 75.7065 140.447C76.7551 140.502 77.8065 140.455 78.8462 140.309C80.0316 140.175 81.3262 139.996 82.6803 139.758C84.9901 139.348 87.2752 138.81 89.5251 138.146C90.3881 137.888 91.0825 137.65 91.5636 137.516C91.8109 137.425 92.0645 137.352 92.3225 137.298Z" fill="#FAFAFA"/>
<path d="M98.5373 139.912C97.6436 140.054 96.7386 140.112 95.8341 140.085C94.9323 140.142 94.0273 140.114 93.1309 140.001C94.0245 139.859 94.9296 139.801 95.8341 139.827C96.7358 139.77 97.6408 139.799 98.5373 139.912Z" fill="#FAFAFA"/>
<path d="M73.0156 162.511C73.0214 162.419 73.0397 162.329 73.0702 162.243C73.1198 162.045 73.1892 161.802 73.2686 161.499L73.4174 160.963C73.4819 160.77 73.5662 160.566 73.6455 160.343C73.8239 159.837 74.0292 159.34 74.2606 158.855L74.6623 158.007C74.8062 157.71 74.9897 157.422 75.1583 157.114C75.5324 156.464 75.9397 155.833 76.3785 155.225C78.4048 152.423 81.0468 150.124 84.1012 148.504C84.7655 148.153 85.4476 147.837 86.1447 147.556C86.4771 147.432 86.7846 147.289 87.0971 147.189L87.9948 146.907C88.5091 146.743 89.0325 146.609 89.5622 146.505C89.7953 146.455 90.0086 146.401 90.207 146.366L90.7625 146.292L91.5263 146.197C91.6151 146.184 91.7054 146.184 91.7942 146.197C91.7096 146.23 91.6213 146.251 91.5313 146.262L90.7774 146.406L90.2318 146.5L89.5919 146.659C89.1356 146.783 88.5999 146.887 88.0494 147.095L87.1665 147.393C86.859 147.497 86.5515 147.641 86.2291 147.77C85.5421 148.055 84.87 148.374 84.2153 148.727C82.7238 149.552 81.3196 150.526 80.0241 151.634C78.7445 152.763 77.5814 154.017 76.5521 155.378C76.1057 156.023 75.6643 156.628 75.327 157.238C75.1534 157.541 74.9699 157.824 74.831 158.116L74.4143 158.95C74.1316 159.475 73.958 159.981 73.7695 160.438C73.6852 160.656 73.5959 160.859 73.5265 161.048L73.3529 161.573L73.1099 162.302C73.0861 162.375 73.0545 162.445 73.0156 162.511Z" fill="#FAFAFA"/>
<path d="M97.8881 147.272C97.0585 147.993 96.3691 148.861 95.8545 149.832C95.3135 150.893 94.9292 152.028 94.7137 153.2C94.4572 154.641 94.2915 156.097 94.2177 157.559C94.1559 159.033 93.9902 160.499 93.7217 161.949C93.4787 163.137 93.0591 164.283 92.4767 165.347C92.0878 166.06 91.5852 166.705 90.9887 167.256C90.8263 167.407 90.6521 167.545 90.4679 167.668C90.3439 167.752 90.2745 167.797 90.2695 167.787C91.1142 167.082 91.8177 166.224 92.3428 165.257C92.8924 164.202 93.2866 163.073 93.5134 161.904C93.7774 160.464 93.9431 159.007 94.0094 157.545C94.0738 156.07 94.2395 154.602 94.5054 153.15C94.7363 151.962 95.1443 150.815 95.7156 149.747C96.1054 149.028 96.6078 148.375 97.2036 147.813C97.3597 147.664 97.5254 147.524 97.6996 147.396C97.7569 147.347 97.8202 147.306 97.8881 147.272Z" fill="#FAFAFA"/>
<path d="M106.355 168.1C106.285 168.1 106.355 163.824 106.538 158.557C106.722 153.289 106.91 149.019 106.98 149.019C107.049 149.019 106.98 153.294 106.796 158.567C106.612 163.839 106.424 168.105 106.355 168.1Z" fill="#FAFAFA"/>
<path d="M119.815 167.365C119.722 167.166 119.649 166.959 119.597 166.745C119.517 166.501 119.449 166.253 119.394 166.001C119.329 165.709 119.24 165.376 119.185 165.009C119.031 164.134 118.943 163.249 118.923 162.361C118.874 160.178 119.21 158.004 119.915 155.937C120.202 155.096 120.552 154.277 120.961 153.487C121.125 153.145 121.308 152.857 121.457 152.599C121.583 152.375 121.722 152.158 121.874 151.95C121.984 151.76 122.116 151.584 122.266 151.424C122.31 151.449 121.77 152.217 121.12 153.572C120.734 154.362 120.403 155.177 120.128 156.012C119.448 158.057 119.113 160.201 119.136 162.356C119.147 163.234 119.215 164.11 119.339 164.98C119.587 166.458 119.865 167.35 119.815 167.365Z" fill="#FAFAFA"/>
<path d="M96.9537 112.548C96.9537 112.588 96.17 112.245 94.8804 111.829C91.5214 110.744 87.9617 110.429 84.4644 110.906C83.1252 111.09 82.3068 111.298 82.2969 111.253C82.4747 111.168 82.6632 111.106 82.8574 111.07C83.3763 110.926 83.9029 110.812 84.4346 110.728C87.9584 110.142 91.5732 110.461 94.9399 111.655C95.4458 111.834 95.9424 112.037 96.4279 112.265C96.6141 112.337 96.7907 112.432 96.9537 112.548Z" fill="#FAFAFA"/>
<path d="M136.139 133.424C135.525 133.456 134.91 133.446 134.298 133.395C133.163 133.35 131.595 133.29 129.864 133.251C128.133 133.211 126.566 133.186 125.43 133.176C124.816 133.196 124.201 133.174 123.59 133.112C123.752 133.073 123.919 133.053 124.086 133.052C124.403 133.052 124.865 133.008 125.435 132.993C126.571 132.958 128.138 132.948 129.874 132.993C131.61 133.037 133.178 133.127 134.338 133.221C134.904 133.266 135.36 133.305 135.677 133.345C135.834 133.355 135.988 133.381 136.139 133.424Z" fill="#FAFAFA"/>
<path d="M145.931 131.544C145.931 131.589 145.311 131.802 144.344 132.278C141.814 133.523 139.671 135.433 138.144 137.803C137.559 138.711 137.276 139.316 137.236 139.291C137.264 139.135 137.318 138.984 137.395 138.845C137.569 138.451 137.768 138.068 137.99 137.699C138.718 136.473 139.631 135.367 140.698 134.421C141.762 133.472 142.965 132.691 144.265 132.104C144.657 131.928 145.059 131.776 145.47 131.648C145.618 131.593 145.774 131.558 145.931 131.544Z" fill="#FAFAFA"/>
<path d="M141.101 115.647C140.247 115.618 139.394 115.737 138.581 115.999C137.703 116.306 136.852 116.684 136.037 117.13C135.03 117.688 133.978 118.161 132.892 118.544C130.885 119.187 128.75 119.325 126.677 118.946C126.054 118.832 125.442 118.667 124.847 118.45C124.624 118.38 124.41 118.287 124.207 118.172C124.207 118.122 125.14 118.514 126.687 118.767C128.731 119.086 130.822 118.925 132.793 118.296C133.866 117.916 134.909 117.455 135.913 116.917C136.743 116.476 137.611 116.111 138.507 115.826C139.116 115.632 139.753 115.54 140.392 115.553C140.558 115.558 140.724 115.574 140.888 115.603C141.041 115.622 141.106 115.637 141.101 115.647Z" fill="#FAFAFA"/>
<path d="M138.624 148.891C138.444 149.005 138.251 149.097 138.049 149.163C137.86 149.243 137.627 149.337 137.349 149.426C137.072 149.516 136.759 149.635 136.407 149.724C135.576 149.955 134.731 150.131 133.877 150.25C132.832 150.385 131.777 150.44 130.723 150.413C129.669 150.374 128.619 150.256 127.583 150.061C126.742 149.891 125.913 149.664 125.103 149.382C124.751 149.273 124.448 149.139 124.181 149.03C123.913 148.92 123.685 148.816 123.496 148.727C123.299 148.645 123.111 148.542 122.936 148.419C122.936 148.375 123.774 148.772 125.163 149.208C125.976 149.464 126.804 149.669 127.643 149.823C129.694 150.203 131.792 150.267 133.862 150.012C134.708 149.908 135.546 149.752 136.372 149.545C137.771 149.188 138.609 148.846 138.624 148.891Z" fill="#FAFAFA"/>
<path d="M150.022 163.572C149.951 163.527 149.886 163.474 149.828 163.413C149.714 163.299 149.526 163.146 149.332 162.917C148.733 162.277 148.208 161.571 147.765 160.814C146.334 158.278 145.572 155.419 145.553 152.506C145.556 149.614 145.934 146.735 146.679 143.941C146.947 142.869 147.175 142.006 147.358 141.416C147.443 141.143 147.512 140.92 147.566 140.736C147.621 140.553 147.646 140.498 147.656 140.503C147.655 140.586 147.641 140.668 147.616 140.746C147.576 140.935 147.522 141.163 147.457 141.441C147.309 142.081 147.105 142.929 146.857 143.985C146.173 146.771 145.825 149.628 145.821 152.497C145.837 155.362 146.553 158.18 147.909 160.705C148.334 161.462 148.832 162.174 149.397 162.833C149.789 163.309 150.037 163.552 150.022 163.572Z" fill="#FAFAFA"/>
<path d="M168.073 146.727C167.28 146.098 166.395 145.596 165.449 145.239C164.414 144.881 163.352 144.604 162.274 144.41C160.935 144.185 159.611 143.881 158.306 143.503C155.952 142.737 153.802 141.444 152.022 139.723C151.485 139.204 150.988 138.645 150.534 138.052C150.37 137.843 150.261 137.67 150.182 137.556C150.103 137.442 150.068 137.377 150.078 137.372C150.27 137.565 150.449 137.771 150.614 137.987C151.089 138.553 151.601 139.089 152.146 139.589C153.934 141.248 156.062 142.499 158.381 143.255C159.671 143.631 160.981 143.939 162.304 144.177C163.391 144.386 164.46 144.683 165.498 145.065C166.2 145.33 166.859 145.698 167.453 146.156C167.615 146.278 167.768 146.412 167.909 146.558C168.033 146.667 168.083 146.722 168.073 146.727Z" fill="#FAFAFA"/>
<path d="M173.745 130.176C173.553 130.039 173.376 129.885 173.214 129.715C173.05 129.561 172.852 129.372 172.604 129.164C172.356 128.956 172.108 128.708 171.771 128.47C171.038 127.879 170.269 127.334 169.469 126.838C167.507 125.624 165.373 124.711 163.14 124.13C162.227 123.895 161.302 123.714 160.368 123.589C159.971 123.525 159.609 123.5 159.291 123.47C158.974 123.44 158.696 123.415 158.473 123.405C158.238 123.404 158.004 123.383 157.773 123.341C158.005 123.305 158.239 123.294 158.473 123.306C158.749 123.292 159.025 123.292 159.301 123.306C159.619 123.306 159.991 123.331 160.392 123.386C161.336 123.489 162.273 123.655 163.195 123.882C164.325 124.171 165.432 124.543 166.508 124.993C167.575 125.458 168.606 126.002 169.593 126.62C170.395 127.131 171.163 127.697 171.89 128.311C172.207 128.564 172.465 128.807 172.703 129.045C172.906 129.23 173.1 129.425 173.283 129.63C173.456 129.795 173.611 129.978 173.745 130.176Z" fill="#FAFAFA"/>
<path d="M130.346 107.409C130.055 107.603 129.738 107.755 129.404 107.86C128.621 108.167 127.817 108.416 126.998 108.604C126.182 108.797 125.353 108.929 124.518 109.001C124.173 109.054 123.822 109.054 123.477 109.001C123.477 108.922 125.049 108.793 126.949 108.342C128.848 107.89 130.316 107.335 130.346 107.409Z" fill="#FAFAFA"/>
<path d="M147.939 177.266C148.003 177.487 148.011 177.721 147.962 177.946C147.913 178.171 147.808 178.38 147.657 178.554C147.506 178.729 147.314 178.862 147.098 178.943C146.882 179.024 146.649 179.049 146.421 179.016C146.157 178.979 145.909 178.865 145.708 178.689C145.507 178.513 145.362 178.282 145.29 178.024L144.869 176.467H144.933C144.976 176.692 144.965 176.924 144.901 177.143C144.836 177.363 144.721 177.565 144.563 177.731C144.406 177.897 144.211 178.023 143.995 178.099C143.779 178.175 143.548 178.199 143.321 178.168C142.671 178.168 142.111 177.221 141.922 176.72C141.432 176.767 140.938 176.68 140.494 176.467C140.049 176.253 139.672 175.922 139.403 175.51L136.491 170.966L131.1 167.023L134.363 155.372L145.965 162.882C146.421 163.239 146.49 163.378 147.215 164.057L154.704 170.946C153.856 171.442 153.137 171.418 151.956 170.946C150.776 170.475 145.608 166.978 145.608 166.978L147.939 177.221" fill="#FFBE9D"/>
<path d="M138.014 167.684C138.014 167.684 138.148 167.743 138.357 167.887L138.743 168.155C138.927 168.27 139.094 168.41 139.239 168.571C139.411 168.769 139.546 168.996 139.636 169.241C139.726 169.504 139.82 169.772 139.919 170.054L140.554 171.919C140.995 173.249 141.382 174.449 141.65 175.327C141.819 175.793 141.947 176.272 142.032 176.76C141.807 176.318 141.621 175.857 141.476 175.382C141.164 174.518 140.747 173.328 140.306 172.004C140.093 171.344 139.884 170.714 139.691 170.134C139.602 169.846 139.517 169.573 139.433 169.315C139.359 169.088 139.246 168.875 139.101 168.686C138.975 168.531 138.832 168.391 138.674 168.269L138.317 167.966C138.104 167.798 138.004 167.698 138.014 167.684Z" fill="#EB996E"/>
<path d="M144.994 176.734C144.92 176.576 144.865 176.409 144.83 176.238L144.458 174.909C144.141 173.788 143.719 172.235 143.178 170.544C142.638 168.853 142.072 167.345 141.393 166.412C141.139 166.04 140.818 165.718 140.445 165.465C140.173 165.296 139.999 165.247 140.004 165.217C140.05 165.216 140.095 165.224 140.138 165.242C140.261 165.273 140.381 165.318 140.495 165.376C140.907 165.605 141.264 165.922 141.542 166.303C142.281 167.246 142.876 168.783 143.421 170.465C143.967 172.146 144.364 173.728 144.632 174.864C144.766 175.43 144.865 175.891 144.929 176.213C144.977 176.383 144.999 176.558 144.994 176.734Z" fill="#EB996E"/>
<path d="M147.989 177.439C147.899 177.275 147.831 177.1 147.785 176.919C147.661 176.522 147.508 176.041 147.324 175.47C146.947 174.245 146.446 172.549 145.906 170.674C145.365 168.799 144.914 167.152 144.542 165.863C144.413 165.385 144.135 164.961 143.748 164.652C143.591 164.551 143.425 164.465 143.252 164.395C143.301 164.383 143.352 164.383 143.401 164.395C143.54 164.426 143.673 164.481 143.793 164.558C144.226 164.856 144.546 165.291 144.7 165.793C145.107 167.018 145.588 168.715 146.139 170.59C146.689 172.464 147.155 174.176 147.488 175.411C147.637 175.986 147.766 176.477 147.865 176.899C147.925 177.074 147.966 177.255 147.989 177.439Z" fill="#EB996E"/>
<path d="M218.471 69.8815C218.471 70.2249 218.573 70.5605 218.763 70.846C218.954 71.1315 219.225 71.354 219.542 71.4854C219.86 71.6168 220.209 71.6511 220.545 71.5842C220.882 71.5172 221.191 71.3518 221.434 71.109C221.677 70.8663 221.842 70.5569 221.909 70.2202C221.976 69.8834 221.942 69.5344 221.811 69.2172C221.679 68.9 221.457 68.6288 221.171 68.4381C220.886 68.2473 220.55 68.1455 220.207 68.1455C219.746 68.1455 219.305 68.3284 218.979 68.654C218.654 68.9795 218.471 69.4211 218.471 69.8815Z" fill="#455A64"/>
<path d="M213.257 71.6175C214.216 71.6175 214.993 70.8403 214.993 69.8815C214.993 68.9227 214.216 68.1455 213.257 68.1455C212.299 68.1455 211.521 68.9227 211.521 69.8815C211.521 70.8403 212.299 71.6175 213.257 71.6175Z" fill="#455A64"/>
<path d="M204.594 69.0137C204.422 69.311 204.343 69.6526 204.365 69.9953C204.387 70.3379 204.511 70.6663 204.72 70.9388C204.929 71.2113 205.214 71.4156 205.539 71.5261C205.864 71.6366 206.215 71.6481 206.546 71.5593C206.878 71.4704 207.176 71.2852 207.402 71.0271C207.629 70.7689 207.774 70.4494 207.818 70.109C207.863 69.7685 207.806 69.4224 207.654 69.1145C207.502 68.8065 207.263 68.5505 206.965 68.3788C206.768 68.2643 206.55 68.1898 206.324 68.1597C206.098 68.1296 205.868 68.1444 205.648 68.2034C205.427 68.2624 205.221 68.3644 205.04 68.5034C204.859 68.6425 204.708 68.8159 204.594 69.0137Z" fill="#455A64"/>
<path d="M213.149 49.6008C213.034 49.5922 212.918 49.5922 212.802 49.6008L211.77 49.6306C211.542 49.6306 211.274 49.6306 211.007 49.6653L210.099 49.7943L209.037 49.948L207.847 50.2407C205.808 50.7469 203.866 51.5847 202.098 52.7207C199.484 54.3852 197.285 56.6251 195.669 59.2693C194.053 61.9135 193.063 64.8921 192.774 67.9776C192.696 68.903 192.677 69.8325 192.719 70.7602C192.754 71.2264 192.744 71.7076 192.813 72.1788C192.883 72.65 192.957 73.1311 193.027 73.6122C193.39 75.5834 194.042 77.4904 194.961 79.2716C195.94 81.1378 197.185 82.852 198.656 84.3605C200.224 85.9022 202.021 87.1922 203.983 88.1847C206.013 89.2236 208.212 89.8953 210.476 90.1687C211.049 90.2541 211.627 90.3022 212.207 90.3125C212.789 90.3564 213.374 90.368 213.958 90.3472C215.135 90.2986 216.307 90.1509 217.459 89.9058C219.948 89.3666 222.314 88.3692 224.438 86.9645L224.23 86.9893L231.338 89.8413L231.759 90.01L231.64 89.5735L229.547 81.9748L229.512 82.1583C231.442 79.6033 232.742 76.6296 233.307 73.4783C233.579 72.0069 233.672 70.508 233.584 69.0143C233.568 68.2978 233.5 67.5834 233.381 66.8765C233.328 66.526 233.274 66.1788 233.217 65.8349C233.158 65.4927 233.054 65.1604 232.969 64.8429C231.779 60.17 228.966 56.0722 225.033 53.2812C223.582 52.2423 221.995 51.4078 220.316 50.8012L219.25 50.4192L218.258 50.1613L217.335 49.9332C217.038 49.8786 216.75 49.8488 216.482 49.8042C215.947 49.7397 215.49 49.6455 215.059 49.6256L214.017 49.5909H213.377C213.305 49.5856 213.232 49.5856 213.159 49.5909C213.23 49.6134 213.303 49.6234 213.377 49.6207L214.012 49.6752L215.049 49.7447C215.461 49.7744 215.927 49.8786 216.463 49.958C220.321 50.6283 223.902 52.4043 226.77 55.0703C229.639 57.7364 231.672 61.1778 232.622 64.9768C232.697 65.3042 232.801 65.6316 232.86 65.9688C232.92 66.3061 232.959 66.6434 233.014 66.9906C233.128 67.6845 233.191 68.3857 233.203 69.0887C233.281 70.5482 233.184 72.0119 232.915 73.4485C232.339 76.5307 231.05 79.4354 229.15 81.9301L229.086 82.0144L229.115 82.1186C229.777 84.5721 230.468 87.1067 231.189 89.7223L231.491 89.4544L224.384 86.5925L224.275 86.5479L224.17 86.6124C221.122 88.6321 217.577 89.7748 213.923 89.9157C213.352 89.9356 212.781 89.9257 212.212 89.886C211.645 89.8756 211.08 89.8276 210.52 89.7421C208.307 89.4742 206.157 88.8177 204.172 87.8028C202.252 86.8314 200.492 85.5719 198.954 84.0679C197.511 82.598 196.288 80.9274 195.323 79.1079C194.427 77.3596 193.792 75.4897 193.438 73.5576C193.364 73.0616 193.289 72.6202 193.22 72.154C193.151 71.6877 193.16 71.2215 193.126 70.7602C193.079 69.851 193.092 68.9397 193.165 68.0322C193.436 64.9951 194.394 62.0594 195.967 59.4478C197.541 56.8361 199.688 54.617 202.247 52.9588C203.984 51.8098 205.895 50.949 207.907 50.4093L209.077 50.0968L210.129 49.9232L211.031 49.7744C211.309 49.7447 211.562 49.7348 211.785 49.7199L212.812 49.6455C212.926 49.6425 213.039 49.6275 213.149 49.6008Z" fill="#455A64"/>
</svg>
