<svg width="344" height="256" viewBox="0 0 344 256" fill="none" xmlns="http://www.w3.org/2000/svg">
<path d="M323.5 214.179H21V214.028H323.5V214.179Z" fill="#E7E8E5"/>
<path d="M196.578 218.289H211.981V218.138H196.578V218.289Z" fill="#E7E8E5"/>
<path d="M260.043 221.555H296.544V221.404H260.043V221.555Z" fill="#E7E8E5"/>
<path d="M155.586 218.364H193.297V218.213H155.586V218.364Z" fill="#E7E8E5"/>
<path d="M123.242 222.879H131.132V222.728H123.242V222.879Z" fill="#E7E8E5"/>
<path d="M138.801 222.879H174.723V222.728H138.801V222.879Z" fill="#E7E8E5"/>
<path d="M52.7344 220.331H75.9987V220.18H52.7344V220.331Z" fill="#E7E8E5"/>
<path d="M47.5706 16.5466C45.7495 16.5466 44.2684 18.0241 44.2684 19.8402V183.664C44.2684 185.481 45.7495 186.958 47.5706 186.958H164.395C166.215 186.958 167.697 185.481 167.697 183.664V19.8402C167.697 18.0241 166.215 16.5466 164.395 16.5466H47.5706ZM164.395 187.109H47.5706C45.6664 187.109 44.1172 185.564 44.1172 183.664V19.8402C44.1172 17.9414 45.6664 16.3957 47.5706 16.3957H164.395C166.299 16.3957 167.848 17.9414 167.848 19.8402V183.664C167.848 185.564 166.299 187.109 164.395 187.109Z" fill="#E7E8E5"/>
<path d="M178.429 16.5466C176.609 16.5466 175.128 18.0241 175.128 19.8402V183.664C175.128 185.481 176.609 186.958 178.429 186.958H295.254C297.075 186.958 298.556 185.481 298.556 183.664V19.8402C298.556 18.0241 297.075 16.5466 295.254 16.5466H178.429ZM295.254 187.109H178.429C176.525 187.109 174.977 185.564 174.977 183.664V19.8402C174.977 17.9414 176.525 16.3957 178.429 16.3957H295.254C297.158 16.3957 298.708 17.9414 298.708 19.8402V183.664C298.708 185.564 297.158 187.109 295.254 187.109Z" fill="#E7E8E5"/>
<path d="M139.557 161.681H99.3841L96.9453 133.615H137.118L139.557 161.681Z" fill="#129089"/>
<path d="M141.634 161.681H101.462L99.0234 133.615H139.195L141.634 161.681Z" fill="#EDEDEB"/>
<path d="M106.957 155.653L105.617 139.641H133.707L135.046 155.653H106.957Z" fill="white"/>
<path d="M143.875 214.026H148.589V161.68H143.875V214.026Z" fill="#129089"/>
<path d="M146.801 214.026H150.074V161.68H146.801V214.026Z" fill="#EDEDEB"/>
<path d="M104.453 167.458H150.076V161.68H104.453V167.458Z" fill="#EDEDEB"/>
<path d="M101.352 214.026H106.065V167.458H101.352V214.026Z" fill="#129089"/>
<path d="M104.281 214.026H107.555V167.458H104.281V214.026Z" fill="#EDEDEB"/>
<path d="M72.5143 214.026H67.8008V167.458H72.5143V214.026Z" fill="#129089"/>
<path d="M74 214.026H70.7266V167.458H74V214.026Z" fill="#EDEDEB"/>
<path d="M114.047 214.026H118.76V167.458H114.047V214.026Z" fill="#129089"/>
<path d="M116.973 214.026H120.246V167.458H116.973V214.026Z" fill="#EDEDEB"/>
<path d="M67.8008 167.458H104.453V161.68H67.8008V167.458Z" fill="#129089"/>
<path d="M99.3516 109.896H241.122V31.1597H99.3516V109.896Z" fill="#DADBD8"/>
<path d="M100.066 109.896H248.906V31.1597H100.066V109.896Z" fill="#E9EDF2"/>
<path d="M102.5 107.472H246.475V33.5857H102.5V107.472Z" fill="white"/>
<path d="M160.794 107.472L187.977 33.5857H143.116L115.934 107.472H160.794Z" fill="#E9EDF2"/>
<path d="M203.974 107.472L231.157 33.5857H197.316L170.133 107.472H203.974Z" fill="#E9EDF2"/>
<path d="M286.059 214.027H274.008V138.827H286.059V214.027Z" fill="#129089"/>
<path d="M282.889 214.027H286.057V208.237H279.566L282.889 214.027Z" fill="#FAFAF9"/>
<path d="M162.891 214.027H174.941V138.827H162.891V214.027Z" fill="#129089"/>
<path d="M172.18 212.465H286.058V138.827H172.18V212.465Z" fill="#FAFAF9"/>
<path d="M174.941 161.983H283.298V142.393H174.941V161.983ZM283.903 162.587H174.336V141.789H283.903V162.587Z" fill="#129089"/>
<path d="M188.063 144.997C190.11 148.999 192.893 151.283 195.749 151.283H264.611C267.467 151.283 270.25 148.999 272.298 144.997H188.063ZM264.611 151.887H195.749C192.551 151.887 189.472 149.314 187.303 144.827L187.094 144.394H273.267L273.058 144.827C270.889 149.314 267.81 151.887 264.611 151.887Z" fill="#129089"/>
<path d="M175.349 214.027H172.18V208.237H178.671L175.349 214.027Z" fill="#FAFAF9"/>
<path d="M174.941 185.441H283.298V165.851H174.941V185.441ZM283.903 186.045H174.336V165.247H283.903V186.045Z" fill="#129089"/>
<path d="M188.063 168.456C190.11 172.458 192.893 174.742 195.749 174.742H264.611C267.467 174.742 270.25 172.458 272.298 168.456H188.063ZM264.611 175.346H195.749C192.551 175.346 189.472 172.772 187.303 168.285L187.094 167.852H273.267L273.058 168.285C270.889 172.772 267.81 175.346 264.611 175.346Z" fill="#129089"/>
<path d="M174.941 208.9H283.298V189.31H174.941V208.9ZM283.903 209.504H174.336V188.706H283.903V209.504Z" fill="#129089"/>
<path d="M188.063 191.913C190.11 195.915 192.893 198.199 195.749 198.199H264.611C267.467 198.199 270.25 195.915 272.298 191.913H188.063ZM264.611 198.803H195.749C192.551 198.803 189.472 196.229 187.303 191.742L187.094 191.309H273.267L273.058 191.742C270.889 196.229 267.81 198.803 264.611 198.803Z" fill="#129089"/>
<path d="M94.1967 148.775V150.234H93.2601L92.4869 161.681H81.0919L80.3194 150.234H79.3828V148.775H94.1967Z" fill="#129089"/>
<path d="M90.4472 120.363C89.5101 113.545 80.2866 111.597 68.5812 111.347C57.4426 111.11 53.875 107.178 53.875 107.178C53.875 107.178 53.91 123.1 69.9602 128.864C85.2007 134.338 91.3856 127.194 90.4472 120.363Z" fill="#129089"/>
<path d="M84.7529 135.823C84.9489 133.018 89.4374 127.864 100.234 130.207C108.041 131.901 110.943 127.864 110.943 127.864C110.943 127.864 110.22 139.258 98.4786 142.684C87.3302 145.938 84.4099 140.754 84.7529 135.823Z" fill="#129089"/>
<path d="M87.2162 153.071C87.3342 153.071 87.4522 153.022 87.5344 152.925C88.3173 152.002 87.6766 149.792 86.7909 146.733C85.6535 142.808 84.2384 137.923 85.4369 134.375C86.1133 132.372 86.9506 130.607 87.7595 128.9C89.4541 125.324 90.9176 122.236 89.6973 119.011C89.6156 118.797 89.3761 118.689 89.1607 118.77C88.9459 118.851 88.837 119.091 88.9181 119.305C90.0137 122.199 88.687 124.999 87.0069 128.545C86.2252 130.193 85.3401 132.062 84.648 134.11C83.366 137.903 84.821 142.927 85.9905 146.964C86.6802 149.344 87.3935 151.805 86.8986 152.387C86.7504 152.563 86.7721 152.825 86.9476 152.974C87.0256 153.039 87.1212 153.071 87.2162 153.071Z" fill="#129089"/>
<path d="M289.551 234.452C289.551 238.226 237.033 241.286 172.248 241.286C107.464 241.286 54.9453 238.226 54.9453 234.452C54.9453 230.677 107.464 227.617 172.248 227.617C237.033 227.617 289.551 230.677 289.551 234.452Z" fill="#E9EDF2"/>
<path d="M172.225 201.142H86.3153L81.6133 63.3096H167.523L172.225 201.142Z" fill="#2F627C"/>
<path d="M176.511 196.864H90.6011L85.8984 59.0322H171.808L176.511 196.864Z" fill="#2F627C"/>
<path d="M176.511 196.864H90.6011L86.0442 63.309L85.8984 59.0322H171.808L176.511 196.864ZM129.38 74.456C116.033 74.456 105.583 85.25 106.036 98.5644C106.491 111.879 117.678 122.672 131.025 122.672C144.371 122.672 154.822 111.879 154.368 98.5644C153.914 85.25 142.726 74.456 129.38 74.456Z" fill="#F9FDFB"/>
<path d="M154.369 98.5651C154.824 111.879 144.372 122.673 131.026 122.673C117.68 122.673 106.492 111.879 106.038 98.5651C105.584 85.2506 116.035 74.4566 129.381 74.4566C142.727 74.4566 153.915 85.2506 154.369 98.5651Z" fill="#2F627C"/>
<path d="M150.151 98.5612C150.268 101.998 149.504 105.224 148.063 108.039C144.911 114.24 138.467 118.458 130.885 118.458C123.303 118.458 116.571 114.24 112.995 108.039C111.363 105.224 110.379 101.998 110.262 98.5612C109.887 87.5711 118.51 78.6644 129.527 78.6644C140.544 78.6644 149.776 87.5711 150.151 98.5612Z" fill="white"/>
<path d="M130.882 118.458C123.3 118.458 116.568 114.24 112.992 108.039C117.899 104.693 123.859 102.739 130.345 102.739C136.833 102.739 142.925 104.693 148.06 108.039C144.908 114.24 138.464 118.458 130.882 118.458Z" fill="#7DA6DD"/>
<path d="M130.274 100.618C125.367 100.618 121.254 96.6498 121.087 91.7549C120.92 86.8601 124.763 82.8923 129.669 82.8923C134.575 82.8923 138.689 86.8601 138.856 91.7549C139.023 96.6498 135.18 100.618 130.274 100.618Z" fill="#7DA6DD"/>
<path d="M159.26 146.95H104.457L104.086 136.086H158.89L159.26 146.95Z" fill="white"/>
<path d="M159.917 166.368H105.113L104.742 155.504H159.546L159.917 166.368Z" fill="white"/>
<path d="M134.976 165.942L132.585 166.266L132.344 163.416C131.835 163.193 131.467 162.742 131.363 162.212C131.193 161.349 131.777 160.549 132.665 160.428C133.55 160.308 134.41 160.912 134.58 161.775C134.684 162.306 134.506 162.83 134.11 163.177L134.976 165.942ZM138.77 156.998L125.564 158.789C125.022 158.862 124.665 159.356 124.768 159.879L126.502 168.708C126.605 169.235 127.132 169.605 127.674 169.532L140.881 167.74C141.423 167.667 141.781 167.177 141.677 166.649L139.943 157.82C139.841 157.297 139.313 156.924 138.77 156.998Z" fill="#2F627C"/>
<path d="M137.463 156.524C136.981 156.589 136.515 156.262 136.423 155.793L136.253 154.929C135.785 152.55 133.506 150.755 131.038 150.969C128.4 151.198 126.632 153.522 127.125 156.035L127.32 157.028C127.413 157.497 127.096 157.93 126.613 157.996C126.131 158.061 125.665 157.734 125.573 157.265L125.408 156.422C124.756 153.107 126.848 149.921 130.232 149.333C133.789 148.716 137.297 151.11 137.975 154.563L138.17 155.556C138.262 156.025 137.946 156.458 137.463 156.524Z" fill="#2F627C"/>
<path d="M150.875 181.581H115.202L114.961 174.51H150.634L150.875 181.581Z" fill="#2F627C"/>
<path d="M133.661 141.518C133.698 142.616 132.837 143.506 131.737 143.506C130.637 143.506 129.714 142.616 129.677 141.518C129.639 140.421 130.502 139.531 131.601 139.531C132.701 139.531 133.623 140.421 133.661 141.518Z" fill="#17282F"/>
<path d="M125.087 141.518C125.124 142.616 124.263 143.506 123.163 143.506C122.062 143.506 121.14 142.616 121.103 141.518C121.065 140.421 121.927 139.531 123.027 139.531C124.127 139.531 125.049 140.421 125.087 141.518Z" fill="#17282F"/>
<path d="M116.512 141.518C116.55 142.616 115.688 143.506 114.588 143.506C113.488 143.506 112.566 142.616 112.529 141.518C112.491 140.421 113.353 139.531 114.452 139.531C115.553 139.531 116.475 140.421 116.512 141.518Z" fill="#17282F"/>
<path d="M142.235 141.518C142.272 142.616 141.41 143.506 140.311 143.506C139.211 143.506 138.289 142.616 138.251 141.518C138.214 140.421 139.075 139.531 140.175 139.531C141.275 139.531 142.198 140.421 142.235 141.518Z" fill="#17282F"/>
<path d="M150.813 141.518C150.85 142.616 149.989 143.506 148.889 143.506C147.789 143.506 146.867 142.616 146.829 141.518C146.792 140.421 147.653 139.531 148.753 139.531C149.854 139.531 150.775 140.421 150.813 141.518Z" fill="#17282F"/>
<path d="M223.014 88.4166C223.821 89.7052 224.488 90.9419 225.179 92.2257C225.868 93.4974 226.492 94.8047 227.103 96.1228C228.307 98.7676 229.383 101.497 230.189 104.41C230.296 104.768 230.379 105.146 230.468 105.518L230.601 106.076L230.667 106.355L230.745 106.815C230.918 108.041 230.766 109.042 230.556 109.924C230.122 111.682 229.423 113.086 228.674 114.424C227.143 117.075 225.357 119.332 223.298 121.47L220.75 119.546C222.007 117.168 223.248 114.677 224.16 112.281C224.603 111.09 224.975 109.877 225.084 108.881C225.137 108.392 225.101 107.972 225.034 107.815L224.795 107.077C224.695 106.775 224.607 106.474 224.487 106.168C223.615 103.733 222.506 101.287 221.299 98.875C220.109 96.4723 218.791 94.0261 217.492 91.7428L223.014 88.4166Z" fill="#F46B74"/>
<path d="M221.395 118.682L218.617 120.153L221.81 123.883C221.81 123.883 223.804 122.537 223.893 120.484L221.395 118.682Z" fill="#F46B74"/>
<path d="M214.883 122.452L218.305 125.161L221.814 123.883L218.621 120.153L214.883 122.452Z" fill="#F46B74"/>
<path d="M203.198 68.6708C203.13 69.0064 202.896 69.2424 202.676 69.1977C202.456 69.153 202.333 68.8446 202.402 68.509C202.47 68.1741 202.704 67.9375 202.924 67.9821C203.143 68.0268 203.266 68.3352 203.198 68.6708Z" fill="#17282F"/>
<path d="M202.926 69.2487C202.926 69.2487 201.767 71.0298 200.734 71.7927C201.216 72.4675 202.28 72.4192 202.28 72.4192L202.926 69.2487Z" fill="#F14358"/>
<path d="M201.836 81.0884L201.862 77.1321L207.113 77.7653C207.113 77.7653 207.023 81.1669 204.091 82.167L201.836 81.0884Z" fill="#F46B74"/>
<path d="M203.343 74.2837L207.041 75.3436L207.111 77.7656L201.859 77.1325L203.343 74.2837Z" fill="#F46B74"/>
<path d="M206.037 80.7764C206.037 80.7758 206.035 80.7752 206.035 80.7752C206.159 80.6134 206.269 80.4468 206.366 80.279C206.366 80.2796 206.366 80.2808 206.366 80.2814C206.27 80.4486 206.161 80.6146 206.037 80.7764ZM207.065 76.2026L207.04 75.3438L203.344 74.2845L203.345 74.2815L207.042 75.3444L207.065 76.2026ZM202.625 75.6618C202.625 75.6606 202.625 75.6594 202.625 75.6582L203.059 74.8283L202.625 75.6618Z" fill="#BABCBA"/>
<path d="M206.036 80.7744C204.597 80.1177 203.429 78.8527 202.91 77.2587L207.109 77.7651C207.109 77.7699 207.108 77.7886 207.106 77.82L206.056 78.4085C206.206 79.009 206.321 79.647 206.367 80.2783C206.27 80.4461 206.16 80.6127 206.036 80.7744Z" fill="#EA5B5B"/>
<path d="M207.108 77.7656L202.909 77.2592C202.746 76.7565 202.647 76.2211 202.625 75.6616L203.059 74.8281L203.344 74.2843L207.04 75.3436L207.065 76.2024L207.108 77.7638C207.108 77.7638 207.108 77.7644 207.108 77.7656Z" fill="#EA5B5B"/>
<path d="M204.805 67.0576L204.942 67.0045C205.023 66.9291 205.029 66.8017 204.953 66.7202C204.196 65.903 203.278 66.0485 203.238 66.0545C203.128 66.0732 203.054 66.177 203.073 66.2869C203.092 66.3961 203.197 66.4691 203.305 66.4516C203.335 66.4468 204.053 66.3418 204.657 66.9936L204.805 67.0576Z" fill="#17282F"/>
<path d="M212.536 74.7783C211.926 77.8848 211.557 82.1876 213.735 84.2596C213.735 84.2596 212.884 87.4102 207.1 87.4102C200.739 87.4102 204.04 84.6453 204.04 84.6453C206.684 83.8268 206.661 80.8224 206.056 78.4093L212.536 74.7783Z" fill="#F46B74"/>
<path d="M214.926 86.3365C215.492 85.5362 215.469 83.0073 214.865 82.5612C213.889 81.8412 209.712 81.6758 204.086 82.9662C204.692 85.4155 203.395 86.6992 203.395 86.6992L214.926 86.3365Z" fill="#2F627C"/>
<path d="M233.142 228.944L233.023 228.983C232.944 229.021 232.893 229.077 232.87 229.155C232.816 229.336 232.884 229.393 232.906 229.412C233.135 229.606 233.984 229.427 234.583 229.188C234.177 229.045 233.52 228.863 233.142 228.944ZM233.834 229.623C233.408 229.715 232.98 229.74 232.775 229.565C232.689 229.491 232.602 229.351 232.677 229.098C232.717 228.965 232.804 228.865 232.937 228.802C233.512 228.528 234.832 229.065 234.888 229.088L234.95 229.178L234.893 229.272C234.691 229.369 234.263 229.53 233.834 229.623Z" fill="#2F627C"/>
<path d="M233.669 227.779L233.625 227.792C233.5 227.835 233.502 227.895 233.502 227.921C233.509 228.206 234.188 228.779 234.687 229.01C234.562 228.671 234.278 228.002 233.914 227.816C233.83 227.773 233.75 227.761 233.669 227.779ZM234.873 229.279L234.824 229.278C234.342 229.138 233.313 228.408 233.301 227.927C233.298 227.839 233.329 227.681 233.558 227.602C233.707 227.549 233.858 227.562 234.005 227.637C234.574 227.927 234.933 229.102 234.948 229.153L234.923 229.252L234.873 229.279Z" fill="#2F627C"/>
<path d="M201.745 229.512C201.675 229.512 201.609 229.519 201.551 229.535C201.457 229.56 201.393 229.606 201.353 229.676C201.282 229.801 201.308 229.862 201.333 229.898C201.532 230.172 202.607 230.179 203.398 230.067C203.004 229.865 202.243 229.512 201.745 229.512ZM202.421 230.335C201.874 230.335 201.347 230.26 201.17 230.016C201.108 229.93 201.059 229.784 201.179 229.576C201.245 229.459 201.353 229.38 201.497 229.341C202.206 229.149 203.693 229.994 203.756 230.03L203.805 230.133L203.726 230.216C203.454 230.27 202.929 230.335 202.421 230.335Z" fill="#2F627C"/>
<path d="M202.663 228.496L202.603 228.499C202.422 228.517 202.41 228.589 202.406 228.612C202.36 228.9 203.051 229.622 203.575 229.937C203.52 229.602 203.369 228.918 203.014 228.627C202.907 228.539 202.791 228.496 202.663 228.496ZM203.702 230.218L203.661 230.208C203.147 229.979 202.13 229.061 202.207 228.58C202.225 228.467 202.306 228.327 202.583 228.299C202.789 228.278 202.976 228.336 203.141 228.472C203.683 228.915 203.797 230.059 203.802 230.107L203.76 230.198L203.702 230.218Z" fill="#2F627C"/>
<path d="M208.383 230.117H204.127L203.703 220.286H207.959L208.383 230.117Z" fill="#F46B74"/>
<path d="M239.616 228.152L235.457 229.05L231.281 219.893L235.44 218.995L239.616 228.152Z" fill="#F46B74"/>
<path d="M235.058 228.634L239.73 227.624C239.9 227.587 240.073 227.673 240.146 227.831L241.768 231.342C241.936 231.706 241.713 232.133 241.319 232.211C239.682 232.535 238.869 232.611 236.813 233.055C235.55 233.328 232.696 234.021 230.95 234.398C229.242 234.767 228.602 233.103 229.284 232.793C232.336 231.401 233.612 230.175 234.438 229.034C234.587 228.829 234.809 228.687 235.058 228.634Z" fill="#17282F"/>
<path d="M204.152 229.625H208.799C208.974 229.625 209.124 229.746 209.162 229.915L210.003 233.689C210.09 234.079 209.792 234.45 209.39 234.444C207.714 234.416 205.292 234.318 203.185 234.318C200.721 234.318 198.593 234.451 195.704 234.451C193.957 234.451 193.472 232.689 194.204 232.53C197.532 231.803 200.251 231.726 203.127 229.956C203.44 229.764 203.785 229.625 204.152 229.625Z" fill="#17282F"/>
<path d="M221.357 85.2198C225.345 86.1318 228.633 96.289 228.633 96.289L220.624 102.379C220.624 102.379 217.685 99.614 216.377 94.5333C215.006 89.2099 217.279 84.2867 221.357 85.2198Z" fill="#2F627C"/>
<path d="M220.624 102.379C220.624 102.379 220.177 101.959 219.555 101.145C219.555 101.144 219.555 101.145 219.555 101.144C220.157 101.93 220.595 102.351 220.625 102.379H220.624ZM220.946 102.135L220.979 102.109C220.877 100.047 220.576 97.7979 219.866 95.8708C220.154 92.3895 220.624 88.7911 221.357 85.2198C221.357 85.2198 221.237 85.1957 221.018 85.1546C221.13 85.1721 221.242 85.1933 221.357 85.2198C225.345 86.1318 228.633 96.289 228.633 96.289L227.549 97.1141L222.36 101.059L220.946 102.135Z" fill="#F2CD33"/>
<path d="M200.381 97.3423C199.385 98.4136 198.393 99.3666 197.365 100.347C196.855 100.834 196.334 101.313 195.801 101.781L194.997 102.483L194.795 102.658C194.697 102.742 194.578 102.841 194.45 102.939C194.184 103.135 193.892 103.364 193.282 103.628C192.957 103.752 192.541 103.916 191.81 103.931C191.462 103.937 190.99 103.876 190.539 103.706C190.079 103.536 189.633 103.241 189.329 102.938C188.696 102.304 188.505 101.748 188.38 101.375C188.264 100.991 188.231 100.717 188.207 100.478C188.169 100.009 188.193 99.6919 188.219 99.3992C188.247 99.1089 188.288 98.8584 188.332 98.6218C188.509 97.6912 188.761 96.9409 189.035 96.1889C189.311 95.4441 189.617 94.7301 189.975 94.0077C190.358 93.2387 190.73 92.681 191.099 92.0382C192.594 89.5456 194.349 87.269 196.212 85.1227C198.117 82.9916 200.116 81.0433 202.415 79.258L204.641 81.5436C203.077 83.6307 201.539 85.8687 200.117 88.0753C198.698 90.2982 197.381 92.5615 196.247 94.8623C195.985 95.4308 195.663 96.0537 195.481 96.5299C195.269 97.049 195.074 97.6079 194.914 98.1571C194.756 98.7009 194.628 99.267 194.571 99.6823C194.558 99.7825 194.551 99.87 194.551 99.9207C194.549 99.9672 194.562 99.9925 194.556 99.8646C194.549 99.7945 194.543 99.6901 194.478 99.4692C194.404 99.2598 194.29 98.8614 193.78 98.3472C193.534 98.1058 193.165 97.8541 192.782 97.7177C192.413 97.5735 192.026 97.5306 191.764 97.5318C191.204 97.5445 190.955 97.6586 190.789 97.7177C190.493 97.8457 190.486 97.8801 190.489 97.8668L190.721 97.6555L191.447 96.9916L192.894 95.6397C193.852 94.7404 194.814 93.7801 195.724 92.8899L200.381 97.3423Z" fill="#F46B74"/>
<path d="M220.627 102.38C220.627 102.38 220.626 102.38 220.625 102.379L220.946 102.135L220.627 102.38Z" fill="#C3C5C2"/>
<path d="M220.625 102.379C220.595 102.351 220.157 101.93 219.555 101.144C219.618 99.4317 219.718 97.6657 219.866 95.8708C220.576 97.7979 220.877 100.047 220.979 102.109L220.946 102.135L220.625 102.379Z" fill="#24427C"/>
<path d="M196.152 89.4755C195.283 94.0619 194.738 103.48 197.264 122.131H220.024C220.181 118.646 217.986 101.643 221.356 85.2192C221.356 85.2192 217.454 84.4376 213.736 84.259C210.828 84.1196 206.617 84.0266 204.061 84.2596C202.994 84.3568 201.946 84.5101 201.013 84.6748C198.552 85.1094 196.617 87.0257 196.152 89.4755Z" fill="#2F627C"/>
<path d="M220.026 122.131H197.265C196.162 113.988 195.645 107.604 195.484 102.616C195.485 102.615 195.486 102.614 195.487 102.614C195.509 103.266 195.536 103.943 195.57 104.645C196.503 103.586 197.563 102.236 198.368 100.793C201.347 98.7316 205.305 95.3897 205.307 92.1764C205.307 91.737 205.234 91.2995 205.073 90.8685C203.943 87.829 203.305 84.7062 201.018 84.7062C200.951 84.7062 200.882 84.7086 200.811 84.7147C200.879 84.7002 200.946 84.6869 201.014 84.6748C201.948 84.5101 202.995 84.3568 204.063 84.2596C205.189 84.157 206.637 84.1177 208.154 84.1177C210.078 84.1177 212.112 84.1811 213.738 84.259C217.456 84.4376 221.357 85.2192 221.357 85.2192C220.624 88.7905 220.154 92.3889 219.866 95.8702C219.718 97.6651 219.618 99.4312 219.555 101.143C219.555 101.145 219.555 101.143 219.555 101.145C219.493 102.851 219.467 104.508 219.467 106.094C219.467 113.521 220.035 119.401 220.034 121.714C220.034 121.744 220.034 121.774 220.033 121.803C220.033 121.923 220.03 122.032 220.026 122.131Z" fill="#E9DD7B"/>
<path d="M195.567 104.645C195.533 103.943 195.506 103.266 195.484 102.614C196.022 102.306 197.106 101.664 198.365 100.793C197.56 102.236 196.5 103.586 195.567 104.645Z" fill="#24427C"/>
<path d="M208.18 225.355H208.177L207.959 220.288H207.962L208.18 225.355Z" fill="#C3C5C2"/>
<path d="M208.176 225.355H203.921L203.92 225.351L203.703 220.288H207.957L208.176 225.355Z" fill="#EA5B5B"/>
<path d="M237.597 223.717L237.18 222.803L237.182 222.802L237.6 223.716L237.597 223.717Z" fill="#C3C5C2"/>
<path d="M233.436 224.615L233.02 223.701L237.178 222.803L237.595 223.717L233.436 224.615Z" fill="#EA5B5B"/>
<path d="M214.558 70.2347C213.465 74.3039 213.032 76.741 210.515 78.4334C206.728 80.9786 202.013 78.058 201.866 73.7444C201.733 69.8617 203.543 63.8587 207.921 63.0385C212.234 62.2303 215.651 66.1643 214.558 70.2347Z" fill="#F46B74"/>
<path d="M205.007 70.3906C204.805 69.845 203.863 65.6394 204.748 64.5476C205.633 63.4557 215.705 64.241 217.194 65.7034C219.665 68.1291 217.951 70.294 215.246 73.0873C213.212 75.1876 213.133 77.5554 212.107 77.903C210.309 78.512 207.521 77.9393 206.961 76.0248C206.402 74.1097 205.007 70.3906 205.007 70.3906Z" fill="#17282F"/>
<path d="M215.974 60.9199C212.414 59.4073 205.739 61.0804 202.135 60.2131C202.006 62.075 203.132 65.0608 206.736 65.8636C206.736 65.8636 211.853 66.8588 215.811 66.6983C219.769 66.5377 218.997 62.2036 215.974 60.9199Z" fill="#17282F"/>
<path d="M216.531 65.8329C216.531 65.8329 218.733 66.0797 220.296 65.1116C220.964 66.7165 217.304 67.1571 216.531 65.8329Z" fill="#17282F"/>
<path d="M206.951 70.5583C206.885 71.6598 206.372 72.6967 205.755 73.3744C204.827 74.3939 203.86 73.7589 203.695 72.5174C203.547 71.3996 203.851 69.522 204.986 68.9594C206.103 68.4054 207.026 69.2986 206.951 70.5583Z" fill="#F46B74"/>
<path d="M205.336 122.131C205.336 122.131 210.166 154.575 212.817 166.729C215.72 180.039 231.288 224.075 231.288 224.075L238.906 222.43C238.906 222.43 228.02 186.543 225.583 167.936C223.711 153.642 220.023 122.131 220.023 122.131H205.336Z" fill="#2F627C"/>
<path d="M229.465 221.538L230.885 224.286L239.455 222.436L238.733 219.865L229.465 221.538Z" fill="#17282F"/>
<path d="M212.709 166.242C212.682 166.114 212.654 165.983 212.626 165.85H212.628C212.656 165.981 212.682 166.108 212.709 166.234C212.709 166.237 212.709 166.24 212.709 166.242ZM212.503 165.247H212.501C212.331 164.424 212.155 163.533 211.973 162.587H211.974C212.156 163.532 212.333 164.424 212.503 165.247ZM211.858 161.983H211.858C211.429 159.73 210.972 157.192 210.508 154.515C210.973 157.192 211.429 159.73 211.858 161.983Z" fill="#A4A6A5"/>
<path d="M211.976 162.587H211.974C211.936 162.388 211.897 162.187 211.859 161.983H211.86C211.899 162.187 211.937 162.388 211.976 162.587Z" fill="#949696"/>
<path d="M212.632 165.851H212.629C212.588 165.654 212.546 165.453 212.504 165.247H212.506C212.548 165.453 212.59 165.654 212.632 165.851Z" fill="#949696"/>
<path d="M212.712 166.234C212.684 166.108 212.658 165.981 212.63 165.851C212.589 165.654 212.547 165.453 212.505 165.248C212.335 164.424 212.158 163.533 211.976 162.588C211.938 162.389 211.899 162.188 211.86 161.984C211.431 159.73 210.975 157.193 210.51 154.515C209.33 147.715 208.097 140.021 207.133 133.842C207.386 133.715 207.662 133.648 207.961 133.648C208.099 133.648 208.242 133.662 208.389 133.691C213.972 134.783 213.383 155.547 212.712 166.234Z" fill="#2D5BB2"/>
<path d="M197.262 122.132C197.262 122.132 196.676 153.872 197.139 166.819C197.62 180.285 202.335 224.375 202.335 224.375H209.544C209.544 224.375 209.809 181.071 210.129 167.847C210.479 153.429 212.224 122.132 212.224 122.132H197.262Z" fill="#2F627C"/>
<path d="M200.949 221.51L201.356 224.496H210.125L210.362 221.831L200.949 221.51Z" fill="#17282F"/>
<path d="M205.075 90.869C207.115 96.3547 195.128 102.816 195.128 102.816L189.938 96.1598C189.938 96.1598 193.4 89.2853 197.649 86.186C202.898 82.3583 203.522 86.6924 205.075 90.869Z" fill="#2F627C"/>
<path d="M195.128 102.816L194.922 102.553L189.938 96.1598C189.938 96.1598 193.4 89.2853 197.649 86.186C199.078 85.1437 200.164 84.7067 201.02 84.7067C203.307 84.7067 203.944 87.8295 205.075 90.869C205.236 91.3 205.309 91.7375 205.309 92.1769C205.306 95.3903 201.349 98.7321 198.37 100.794C197.111 101.665 196.027 102.307 195.489 102.614C195.488 102.615 195.487 102.615 195.486 102.616C195.257 102.746 195.128 102.816 195.128 102.816Z" fill="#F2CD33"/>
<path d="M273.868 35.336C273.868 43.0024 264.093 49.2178 252.036 49.2178C239.978 49.2178 230.203 43.0024 230.203 35.336C230.203 27.669 239.978 21.4542 252.036 21.4542C264.093 21.4542 273.868 27.669 273.868 35.336Z" fill="#2F627C"/>
<path d="M244.181 32.9627C243.958 32.9627 243.733 32.9856 243.509 33.0315C242.653 33.2078 241.918 33.7051 241.438 34.4318C240.959 35.159 240.791 36.03 240.968 36.8852C241.144 37.738 241.643 38.4714 242.373 38.9506C243.103 39.4298 243.976 39.5964 244.831 39.4201C245.688 39.2439 246.424 38.746 246.903 38.0181C247.382 37.2908 247.549 36.4199 247.372 35.5664C247.195 34.7112 246.697 33.9767 245.969 33.4987C245.43 33.1456 244.812 32.9627 244.181 32.9627ZM244.163 40.0925C243.414 40.0925 242.681 39.8752 242.041 39.4551C241.176 38.8872 240.584 38.0181 240.376 37.0071C240.166 35.9944 240.364 34.9617 240.933 34.0998C241.502 33.2385 242.373 32.6489 243.387 32.44C244.402 32.2312 245.437 32.428 246.301 32.9947C247.164 33.5608 247.755 34.4312 247.964 35.4445C248.174 36.4561 247.977 37.4876 247.409 38.3494C246.84 39.2125 245.969 39.8028 244.953 40.0116C244.69 40.0659 244.425 40.0925 244.163 40.0925ZM242.946 30.8666C240.139 31.5027 238.255 34.3237 238.745 37.1556C239.001 38.6367 239.827 39.9175 241.07 40.763C242.313 41.608 243.809 41.9074 245.283 41.6038C247.621 41.1222 249.374 39.2089 249.643 36.843L249.668 36.6257L254.559 35.6183C254.842 35.5604 255.134 35.6286 255.361 35.8061C255.587 35.9829 255.724 36.2491 255.736 36.5358L255.764 37.222C255.77 37.3958 255.894 37.5443 256.052 37.5678C256.59 37.6481 257.055 37.9626 257.328 38.4309C257.395 38.5456 257.521 38.656 257.684 38.6228L257.966 38.5649C258.126 38.5317 258.201 38.3796 258.217 38.248C258.307 37.4894 258.874 36.8755 259.628 36.7204C260.38 36.5659 261.141 36.9063 261.525 37.5666C261.592 37.6813 261.717 37.7936 261.88 37.7592L262.169 37.6994C262.329 37.6668 262.403 37.5147 262.417 37.3837C262.481 36.8454 262.782 36.3734 263.243 36.0873C263.378 36.0034 263.433 35.8181 263.37 35.6564L263.123 35.0148C263.019 34.7468 263.04 34.4481 263.178 34.1958C263.316 33.9435 263.557 33.766 263.84 33.7081L264.208 33.632C264.617 33.5482 264.963 33.3067 265.183 32.953C265.404 32.5994 265.466 32.1817 265.36 31.7773C265.16 31.0174 264.324 30.5376 263.498 30.709L249.057 33.6821L248.949 33.4926C247.738 31.3832 245.328 30.3258 242.946 30.8666ZM244.155 42.3232C242.942 42.3232 241.758 41.9611 240.729 41.2616C239.349 40.3243 238.433 38.9023 238.148 37.2576C237.605 34.1149 239.697 30.9842 242.812 30.2775C245.378 29.6975 247.983 30.7881 249.36 33.0038L263.376 30.1175C264.512 29.884 265.666 30.5593 265.945 31.6246C266.093 32.1914 266.006 32.7756 265.697 33.2711C265.388 33.7672 264.903 34.1052 264.33 34.2229L263.962 34.299C263.852 34.3213 263.762 34.3877 263.709 34.4855C263.656 34.5814 263.648 34.6961 263.688 34.7987L263.935 35.4397C264.102 35.8736 263.946 36.3619 263.562 36.6003C263.263 36.7856 263.06 37.1049 263.019 37.4538C262.969 37.8811 262.684 38.21 262.29 38.2909L262.002 38.35C261.61 38.4297 261.218 38.2426 261.001 37.8696C260.748 37.4338 260.246 37.2093 259.75 37.3119C259.252 37.4145 258.877 37.8195 258.817 38.3193C258.766 38.7472 258.479 39.0755 258.088 39.1558L257.805 39.2137C257.418 39.294 257.021 39.1063 256.805 38.7339C256.627 38.4297 256.313 38.2173 255.963 38.1648C255.515 38.0984 255.177 37.7121 255.159 37.2461L255.131 36.5599C255.126 36.4488 255.076 36.3493 254.988 36.2811C254.9 36.2123 254.795 36.1875 254.681 36.2098L250.215 37.1296C249.836 39.6543 247.929 41.6756 245.405 42.1953C244.988 42.281 244.57 42.3232 244.155 42.3232Z" fill="white"/>
<path d="M234.262 57.3564C230.299 57.3564 227.086 55.3134 227.086 52.7936C227.086 50.2737 230.299 48.2313 234.262 48.2313C238.225 48.2313 241.438 50.2737 241.438 52.7936C241.438 55.3134 238.225 57.3564 234.262 57.3564Z" fill="#7DA6DD"/>
<path d="M222.847 59.2295C222.469 59.2295 222.106 59.1842 221.773 59.1009L223.102 55.4905C224.61 55.5725 225.793 56.3765 225.793 57.3567C225.793 58.3912 224.474 59.2295 222.847 59.2295Z" fill="#B8D2EF"/>
<path d="M221.77 59.1006C220.675 58.8284 219.898 58.15 219.898 57.3563C219.898 56.3218 221.217 55.4835 222.844 55.4835C222.93 55.4835 223.015 55.4859 223.099 55.4901L221.77 59.1006Z" fill="#B0CAEC"/>
</svg>
