<svg width="256" height="252" viewBox="0 0 256 252" fill="none" xmlns="http://www.w3.org/2000/svg">
<path d="M262.509 232.655H240.164V232.824H262.509V232.655Z" fill="#EBEBEB"/>
<path d="M182.446 234.486H176.582V234.655H182.446V234.486Z" fill="#EBEBEB"/>
<path d="M239.49 226.391H226.543V226.559H239.49V226.391Z" fill="#EBEBEB"/>
<path d="M23.5254 227.524H-5.61328V227.693H23.5254V227.524Z" fill="#EBEBEB"/>
<path d="M33.8075 227.524H29.5352V227.693H33.8075V227.524Z" fill="#EBEBEB"/>
<path d="M110.887 230.373H47.6914V230.542H110.887V230.373Z" fill="#EBEBEB"/>
<path d="M119.825 191.71H-10.4423C-12.5653 191.71 -14.293 189.982 -14.293 187.859V4.74719C-14.293 2.62417 -12.5653 0.896484 -10.4423 0.896484H119.825C121.948 0.896484 123.675 2.62417 123.675 4.74719V187.859C123.675 189.982 121.948 191.71 119.825 191.71ZM-10.4423 1.06581C-12.4729 1.06581 -14.1243 2.71727 -14.1243 4.74786V187.86C-14.1243 189.891 -12.4729 191.542 -10.4423 191.542H119.825C121.855 191.542 123.507 189.891 123.507 187.86V4.74719C123.507 2.71727 121.855 1.06514 119.825 1.06514L-10.4423 1.06581Z" fill="#EBEBEB"/>
<path d="M265.743 191.71H135.475C133.353 191.71 131.625 189.982 131.625 187.859V4.74719C131.625 2.62417 133.353 0.896484 135.475 0.896484H265.743C267.866 0.896484 269.593 2.62417 269.593 4.74719V187.859C269.593 189.982 267.866 191.71 265.743 191.71ZM135.475 1.06581C133.445 1.06581 131.794 2.71727 131.794 4.74786V187.86C131.794 189.891 133.445 191.542 135.475 191.542H265.743C267.773 191.542 269.425 189.891 269.425 187.86V4.74719C269.425 2.71727 267.773 1.06514 265.743 1.06514L135.475 1.06581Z" fill="#EBEBEB"/>
<path d="M296.308 221.797H-41V221.966H296.308V221.797Z" fill="#EBEBEB"/>
<path d="M39.5028 176.161C38.9328 169.645 32.2817 167.206 24.4002 167.896C16.5194 168.585 10.3925 172.143 10.9626 178.658L39.5028 176.161Z" fill="#129089"/>
<path d="M24.1404 164.918C27.7982 164.598 28.9659 161.508 28.6455 157.851C28.3257 154.193 26.6392 151.353 22.9814 151.673C19.3237 151.993 18.1559 155.083 18.4763 158.74C18.7961 162.398 20.4826 165.238 24.1404 164.918Z" fill="#129089"/>
<path d="M188.439 37.3396C188.616 39.3567 187.124 41.135 185.107 41.311C183.09 41.4878 181.311 39.9955 181.135 37.9784C180.959 35.9613 182.451 34.183 184.468 34.0063C186.485 33.8302 188.263 35.3225 188.439 37.3396Z" fill="#F5F5F5"/>
<path d="M208.725 35.5642C208.902 37.5813 207.41 39.3596 205.393 39.5356C203.375 39.7124 201.597 38.2201 201.42 36.203C201.244 34.1859 202.736 32.4077 204.753 32.2309C206.771 32.0548 208.548 33.5471 208.725 35.5642Z" fill="#F5F5F5"/>
<path d="M229.014 33.7892C229.191 35.8063 227.699 37.5846 225.682 37.7613C223.665 37.9381 221.886 36.4458 221.71 34.4287C221.533 32.4116 223.025 30.6333 225.042 30.4566C227.059 30.2798 228.838 31.7721 229.014 33.7892Z" fill="#F5F5F5"/>
<path d="M190.249 58.0181C190.425 60.0352 188.933 61.8135 186.916 61.9903C184.899 62.167 183.121 60.6748 182.944 58.6577C182.767 56.6406 184.259 54.8623 186.277 54.6862C188.294 54.5088 190.073 56.0003 190.249 58.0181Z" fill="#F5F5F5"/>
<path d="M210.542 56.2422C210.718 58.2593 209.226 60.0376 207.209 60.2144C205.192 60.3911 203.414 58.8989 203.237 56.8818C203.06 54.8647 204.552 53.0864 206.569 52.9096C208.587 52.7335 210.365 54.2258 210.542 56.2422Z" fill="#F5F5F5"/>
<path d="M230.823 54.4674C231 56.4845 229.507 58.2628 227.49 58.4389C225.473 58.6156 223.695 57.1234 223.518 55.1063C223.341 53.0892 224.834 51.3109 226.851 51.1341C228.868 50.9587 230.646 52.451 230.823 54.4674Z" fill="#F5F5F5"/>
<path d="M192.057 78.6964C192.233 80.7135 190.741 82.4918 188.724 82.6686C186.707 82.8453 184.929 81.3531 184.752 79.336C184.576 77.3189 186.068 75.5406 188.085 75.3638C190.102 75.1871 191.88 76.6793 192.057 78.6964Z" fill="#F5F5F5"/>
<path d="M212.342 76.9214C212.519 78.9385 211.027 80.7168 209.01 80.8936C206.993 81.0703 205.214 79.5781 205.038 77.561C204.861 75.5439 206.353 73.7656 208.37 73.5895C210.387 73.4121 212.166 74.9043 212.342 76.9214Z" fill="#F5F5F5"/>
<path d="M232.631 75.1466C232.808 77.1637 231.316 78.942 229.299 79.1181C227.282 79.2941 225.503 77.8026 225.327 75.7855C225.15 73.7684 226.642 71.9901 228.659 71.814C230.677 71.6373 232.455 73.1295 232.631 75.1466Z" fill="#F5F5F5"/>
<path d="M228.242 76.3369L186.561 79.9839L223.517 35.0768L185.651 38.3898C185.209 38.4283 184.819 38.1011 184.78 37.6585C184.742 37.216 185.069 36.826 185.512 36.7876L227.193 33.1406L190.237 78.0477L228.103 74.7347C228.545 74.6962 228.935 75.0234 228.974 75.4653C229.012 75.9078 228.685 76.2984 228.242 76.3369Z" fill="#E6E6E6"/>
<path d="M228.883 156.498C228.746 156.101 228.39 155.806 227.97 155.779C226.059 155.651 224.444 154.935 223.165 153.652C221.498 151.978 220.518 149.431 220.359 146.406C220.33 145.843 219.858 145.404 219.294 145.4C218.669 145.396 218.171 145.924 218.205 146.547C218.397 150.094 219.596 153.128 221.635 155.176C223.228 156.775 225.282 157.712 227.623 157.917C227.664 157.92 227.716 157.925 227.777 157.929C228.553 157.991 229.138 157.234 228.883 156.498Z" fill="#129089"/>
<path d="M226.724 169.447C217.783 168.665 211.335 162.571 209.295 153.062C209.165 152.455 209.551 151.858 210.162 151.752C210.727 151.654 211.279 152.012 211.398 152.573C213.226 161.125 218.966 166.601 226.912 167.297C235.626 168.059 244.985 162.326 246.661 147.873C246.729 147.288 247.24 146.855 247.827 146.906C248.428 146.959 248.878 147.495 248.808 148.094C247.201 161.721 238.242 170.455 226.724 169.447Z" fill="#129089"/>
<path d="M209.855 143.584C209.254 143.532 208.804 142.995 208.875 142.396C210.481 128.769 219.442 120.035 230.959 121.043C241.05 121.926 247.854 129.481 248.914 140.861C248.97 141.463 248.504 141.986 247.902 142.022H247.9C247.312 142.057 246.816 141.613 246.76 141.027C245.787 130.774 239.732 123.977 230.77 123.193C222.056 122.431 212.697 128.163 211.02 142.617C210.953 143.203 210.442 143.636 209.855 143.584Z" fill="#129089"/>
<path d="M227.158 163.668C225.496 163.522 223.937 163.134 222.506 162.509C221.924 162.254 221.684 161.554 221.988 160.996C222.253 160.509 222.845 160.299 223.351 160.522C224.696 161.113 226.183 161.46 227.785 161.548C234.395 161.927 241.37 157.245 242.054 145.935C242.475 138.969 240.088 133.342 235.633 130.651C235.156 130.362 234.978 129.758 235.224 129.258C235.504 128.689 236.214 128.479 236.756 128.806C241.912 131.919 244.681 138.27 244.209 146.065C243.55 156.972 236.745 164.225 227.661 163.705C227.493 163.694 227.325 163.682 227.158 163.668Z" fill="#129089"/>
<path d="M217.546 156.939C217.024 157.296 216.31 157.129 215.993 156.582C214.081 153.273 213.186 149.008 213.464 144.426C214.094 133.993 220.349 126.902 228.843 126.763C229.473 126.753 229.983 127.28 229.947 127.909V127.912C229.915 128.472 229.458 128.914 228.897 128.924C222.598 129.048 216.269 133.81 215.62 144.556C215.367 148.728 216.165 152.578 217.876 155.522C218.157 156.006 218.008 156.623 217.546 156.939Z" fill="#129089"/>
<path d="M232.298 156.056C232.078 155.556 232.27 154.979 232.739 154.697C235.575 152.989 237.318 149.404 237.348 145.083C237.371 141.621 236.367 138.694 234.519 136.838C233.094 135.407 231.252 134.686 229.044 134.69C225.718 134.699 223.025 136.521 221.533 139.728C221.298 140.232 220.714 140.471 220.191 140.279C219.597 140.06 219.314 139.376 219.582 138.802C221.428 134.863 224.891 132.542 229.038 132.53C231.803 132.526 234.228 133.486 236.049 135.314C238.306 137.581 239.534 141.055 239.506 145.097C239.472 150.196 237.324 154.471 233.825 156.563C233.275 156.892 232.557 156.644 232.298 156.056Z" fill="#129089"/>
<path d="M224.529 148.125C223.916 148.371 223.23 148.015 223.073 147.372C223.001 147.08 222.942 146.779 222.896 146.47C222.285 142.433 224.455 138.917 227.944 138.294C229.744 137.971 231.35 138.395 232.577 139.49C233.075 139.935 233.036 140.729 232.493 141.119L232.426 141.167C232.017 141.459 231.478 141.393 231.097 141.065C230.365 140.437 229.435 140.22 228.323 140.419C225.665 140.895 224.654 143.661 225.031 146.147C225.067 146.389 225.113 146.624 225.168 146.849C225.296 147.378 225.035 147.921 224.529 148.125Z" fill="#129089"/>
<path d="M228.093 152.278C228.09 152.278 228.087 152.278 228.084 152.278C227.34 152.212 226.929 151.378 227.326 150.744L227.418 150.598C227.617 150.281 227.972 150.106 228.346 150.132C228.666 150.154 229.004 150.134 229.359 150.07C231.68 149.655 232.745 147.493 232.727 145.297C232.722 144.748 233.102 144.275 233.644 144.193C234.277 144.097 234.876 144.568 234.888 145.209C234.952 148.729 232.879 151.635 229.738 152.196C229.172 152.297 228.621 152.325 228.093 152.278Z" fill="#129089"/>
<path d="M228.571 148.293C227.422 148.193 226.565 147.418 226.254 146.312C226.074 145.672 226.611 145.051 227.274 145.109L227.522 145.131C227.906 145.164 228.223 145.427 228.351 145.792C228.414 145.97 228.534 146.122 228.759 146.142C229.278 146.187 229.369 145.443 229.382 145.293C229.392 145.186 229.414 144.773 229.237 144.529C229.064 144.291 228.945 144.017 228.971 143.723C229.055 142.763 230.268 142.377 230.88 143.122C231.366 143.714 231.616 144.544 231.533 145.481C231.379 147.247 230.133 148.43 228.571 148.293Z" fill="#129089"/>
<path d="M208.287 124.149C207.692 124.097 207.253 123.574 207.305 122.979L208.123 113.625L217.477 114.443C218.072 114.495 218.511 115.019 218.459 115.613C218.407 116.207 217.884 116.647 217.289 116.595L210.086 115.965L209.456 123.167C209.404 123.762 208.88 124.201 208.287 124.149Z" fill="#129089"/>
<path d="M252.759 128.04C252.165 127.988 251.725 127.465 251.777 126.87L252.407 119.667L245.204 119.037C244.61 118.985 244.171 118.462 244.223 117.868C244.275 117.273 244.798 116.834 245.393 116.886L254.747 117.704L253.929 127.059C253.877 127.653 253.353 128.092 252.759 128.04Z" fill="#129089"/>
<path d="M249.445 178.332L240.091 177.514C239.497 177.462 239.058 176.938 239.11 176.344C239.162 175.749 239.685 175.31 240.279 175.362L247.482 175.992L248.112 168.789C248.164 168.195 248.688 167.756 249.282 167.808C249.876 167.86 250.316 168.383 250.264 168.978L249.445 178.332Z" fill="#129089"/>
<path d="M212.167 175.071L202.812 174.253L203.631 164.899C203.683 164.304 204.206 163.865 204.801 163.917C205.395 163.969 205.834 164.493 205.782 165.087L205.152 172.29L212.355 172.92C212.949 172.972 213.388 173.495 213.336 174.09C213.285 174.684 212.761 175.123 212.167 175.071Z" fill="#129089"/>
<path d="M9.41381 154.826C9.04884 154.857 8.72638 154.587 8.69467 154.222L8.19141 148.471L13.9425 147.967C14.3081 147.936 14.6299 148.206 14.6616 148.571C14.6933 148.936 14.4235 149.259 14.0579 149.29L9.62901 149.678L10.0162 154.106C10.0493 154.472 9.77878 154.794 9.41381 154.826Z" fill="#E0E0E0"/>
<path d="M36.7608 152.434C36.3958 152.466 36.0734 152.196 36.0417 151.831L35.6544 147.402L31.2256 147.789C30.8606 147.821 30.5381 147.551 30.5064 147.185C30.4747 146.82 30.7446 146.498 31.1102 146.466L36.8613 145.963L37.3646 151.714C37.3963 152.08 37.1264 152.403 36.7608 152.434Z" fill="#E0E0E0"/>
<path d="M39.5939 177.199L33.8428 177.702C33.4778 177.734 33.1553 177.464 33.1236 177.099C33.0919 176.734 33.3618 176.411 33.7274 176.38L38.1563 175.992L37.769 171.563C37.7373 171.198 38.0072 170.876 38.3728 170.844C38.7378 170.813 39.0602 171.082 39.0919 171.448L39.5939 177.199Z" fill="#E0E0E0"/>
<path d="M16.6749 179.204L10.9238 179.707L10.4205 173.955C10.3888 173.59 10.6586 173.268 11.0243 173.236C11.3892 173.204 11.7117 173.474 11.7434 173.84L12.1307 178.269L16.5595 177.881C16.9245 177.85 17.2469 178.119 17.2786 178.485C17.3103 178.849 17.0398 179.171 16.6749 179.204Z" fill="#E0E0E0"/>
<path d="M36.301 58.9105L14.2876 60.8366L13.837 55.6852C13.3695 50.3409 17.3369 45.6132 22.6805 45.1457C28.0248 44.6782 32.7525 48.6456 33.22 53.9892L33.4818 56.9825L36.6579 56.7045L36.3961 53.7113C35.7755 46.6157 29.4982 41.349 22.4026 41.9696C15.307 42.5903 10.0402 48.8675 10.6609 55.9631L11.1142 61.1442C8.55272 61.6434 6.72923 64.0059 6.9613 66.6632L8.53382 84.637C8.78276 87.4791 11.2883 89.5812 14.1304 89.333L38.7741 87.1769C41.6163 86.9287 43.7184 84.4231 43.4701 81.581L41.8976 63.6072C41.6487 60.7644 39.1431 58.6616 36.301 58.9105ZM26.9501 72.7604L27.4919 78.9493C27.5809 79.9653 26.8294 80.8605 25.8134 80.9495C24.7974 81.0386 23.9022 80.2871 23.8132 79.2711L23.2715 73.0822C22.4633 72.5843 21.8865 71.7323 21.7974 70.7136C21.6477 69.0035 22.9132 67.4957 24.6234 67.3459C26.3335 67.1962 27.8413 68.4617 27.9911 70.1719C28.0794 71.1899 27.6592 72.1296 26.9501 72.7604Z" fill="#2F627C"/>
<path d="M73.9803 69.3295L71.7547 65.7015C70.5492 65.8681 69.5629 65.8681 68.3574 65.7015L66.1318 69.3295L65.7048 69.2162C64.2706 68.835 62.8869 68.2603 61.593 67.5094L61.2105 67.2875L62.1543 63.3491C62.2305 63.03 62.551 62.8337 62.8701 62.9099C63.1892 62.9861 63.3855 63.3066 63.3086 63.6257L62.5719 66.6979C63.5332 67.2214 64.5438 67.641 65.5854 67.95L67.759 64.4055L68.1523 64.4696C69.4125 64.6754 70.6983 64.6754 71.9585 64.4696L72.3518 64.4055L74.5254 67.95C75.567 67.6403 76.5776 67.2214 77.5389 66.6979L76.5715 62.6603L76.8953 62.4282C77.7777 61.7941 78.5643 61.0446 79.2396 60.1966C79.44 59.9443 79.7968 59.8849 80.0579 60.0731C80.3291 60.2681 80.3925 60.6526 80.1854 60.9144C79.5216 61.7523 78.7593 62.5024 77.9106 63.1528L78.9016 67.2875L78.5198 67.5094C77.2259 68.2603 75.8422 68.835 74.408 69.2162L73.9803 69.3295ZM60.3396 61.4089C60.1527 61.195 59.9719 60.9751 59.7985 60.7491L55.6631 61.7394L55.4412 61.3576C54.6904 60.0637 54.1156 58.6801 53.7344 57.2458L53.6211 56.8188L57.2492 54.5932C57.1655 53.9888 57.125 53.4302 57.125 52.8946C57.125 52.3596 57.1662 51.8003 57.2492 51.1959L53.6211 48.971L53.7344 48.544C54.1156 47.1097 54.6904 45.7261 55.4412 44.4322L55.6631 44.0504L59.7979 45.0407C60.4907 44.1367 61.2969 43.3312 62.2008 42.6377L61.4507 39.5089C61.3744 39.1904 61.5708 38.8707 61.8885 38.7944L61.8905 38.7938C62.2089 38.7175 62.5287 38.9138 62.6049 39.2316L63.5386 43.1295L63.2121 43.3643C62.1759 44.1104 61.2672 45.0191 60.5217 46.0553L60.289 46.3785L56.2514 45.4111C55.7286 46.3724 55.3096 47.383 55 48.4246L58.5431 50.5975L58.479 50.9908C58.3657 51.6863 58.3103 52.309 58.3103 52.8939C58.3103 53.4801 58.3657 54.1021 58.479 54.797L58.5431 55.1896L54.9993 57.3639C55.3083 58.4062 55.7279 59.4161 56.2507 60.3774L60.2883 59.41L60.5211 59.7331C60.7403 60.0381 60.9757 60.3342 61.224 60.6182C61.4304 60.8543 61.425 61.2072 61.199 61.4251L61.1774 61.446C60.94 61.6774 60.5582 61.6585 60.3396 61.4089ZM84.4483 61.7401L82.9237 61.3752C82.6046 61.2989 82.4083 60.9785 82.4845 60.6594C82.5607 60.341 82.8812 60.144 83.2003 60.2202L83.8587 60.3781C84.3815 59.4167 84.8004 58.4062 85.1101 57.3646L81.5663 55.1903L81.6304 54.7977C81.7438 54.1028 81.7991 53.4801 81.7991 52.8946C81.7991 52.309 81.7438 51.687 81.6304 50.9915L81.5663 50.5982L85.1094 48.4252C84.8004 47.383 84.3808 46.3731 83.858 45.4117L79.8204 46.3791L79.5877 46.056C78.8422 45.0198 77.9335 44.1111 76.8973 43.3649L76.5708 43.1302L77.5382 39.0926C76.5769 38.5698 75.5663 38.1502 74.5247 37.8405L72.3511 41.3843L71.9578 41.3209C70.6969 41.1165 69.4111 41.1165 68.1503 41.3209L67.7576 41.3843L65.584 37.8412C65.4491 37.881 65.3142 37.9235 65.1793 37.9674C64.8784 38.0658 64.5546 37.9039 64.446 37.6071C64.3313 37.2948 64.4939 36.9426 64.8096 36.8394C65.1057 36.7423 65.4046 36.6539 65.7021 36.5749L66.1298 36.4609L68.3554 40.0897C69.5663 39.9217 70.5411 39.9217 71.752 40.0897L73.9776 36.4609L74.4053 36.5743C75.8395 36.9561 77.2232 37.5309 78.5171 38.2811L78.8989 38.503L77.9079 42.6384C78.8119 43.3319 79.618 44.1374 80.3109 45.0414L84.4456 44.051L84.6675 44.4329C85.4184 45.7268 85.9932 47.1104 86.3743 48.5446L86.4877 48.9717L82.8596 51.1966C82.9432 51.801 82.9837 52.3603 82.9837 52.8952C82.9837 53.4309 82.9426 53.9895 82.8596 54.5939L86.4877 56.8195L86.3743 57.2465C85.9932 58.6807 85.4184 60.0644 84.6675 61.3583L84.4483 61.7401ZM69.8894 58.6753C66.8752 58.5903 64.3616 56.0781 64.2753 53.0639C64.1883 50.0261 66.4583 47.4889 69.3882 47.1509C69.7424 47.1097 70.0561 47.387 70.0561 47.7439C70.0561 48.0434 69.8328 48.295 69.5353 48.3288C66.9515 48.6216 65.0106 51.065 65.5517 53.8201C65.9031 55.6092 67.3448 57.0509 69.1345 57.4003C72.0711 57.9744 74.6522 55.7306 74.6522 52.8946C74.6522 51.9454 74.3594 51.0266 73.8204 50.2568C73.6504 50.014 73.6963 49.682 73.9189 49.4857C74.1854 49.2503 74.6009 49.2995 74.804 49.5916C75.4752 50.5563 75.8395 51.7066 75.8395 52.8946C75.8382 56.1388 73.1539 58.7671 69.8894 58.6753Z" fill="#129089"/>
<path d="M32.0664 118.711L30.6288 116.368C29.8502 116.475 29.2127 116.475 28.4342 116.368L26.9966 118.711L26.7207 118.638C25.7938 118.391 24.8999 118.02 24.0641 117.535L23.8172 117.391L24.427 114.846C24.4763 114.64 24.6834 114.513 24.8891 114.563C25.0949 114.612 25.2217 114.819 25.1725 115.025L24.6969 117.01C25.3182 117.348 25.9705 117.619 26.6438 117.819L28.0477 115.529L28.302 115.571C29.1163 115.704 29.9467 115.704 30.761 115.571L31.0153 115.529L32.4199 117.819C33.0931 117.619 33.7455 117.348 34.3668 117.01L33.7414 114.402L33.9506 114.251C34.5206 113.842 35.0286 113.357 35.4651 112.81C35.5946 112.647 35.8253 112.609 35.994 112.73C36.1687 112.856 36.2098 113.104 36.0763 113.274C35.6472 113.815 35.1547 114.3 34.6063 114.72L35.2465 117.391L34.9996 117.535C34.1637 118.02 33.2699 118.391 32.3429 118.638L32.0664 118.711ZM23.2539 113.595C23.1331 113.457 23.0164 113.315 22.9044 113.168L20.2329 113.809L20.0899 113.562C19.6049 112.726 19.2338 111.832 18.9876 110.905L18.9141 110.629L21.2577 109.192C21.2037 108.801 21.1774 108.44 21.1774 108.094C21.1774 107.749 21.2037 107.387 21.2577 106.996L18.9141 105.559L18.9876 105.283C19.2338 104.356 19.6049 103.463 20.0899 102.626L20.2329 102.379L22.9044 103.02C23.3517 102.435 23.8725 101.915 24.4567 101.467L23.9723 99.4461C23.9231 99.2404 24.0499 99.0339 24.255 98.9847L24.2563 98.984C24.4621 98.9348 24.6685 99.0616 24.7178 99.2674L25.3209 101.786L25.1097 101.937C24.4405 102.419 23.8536 103.006 23.3719 103.676L23.2215 103.885L20.6127 103.26C20.2754 103.882 20.0042 104.534 19.8046 105.207L22.0935 106.611L22.0524 106.866C21.9788 107.315 21.9438 107.717 21.9438 108.095C21.9438 108.474 21.9795 108.876 22.0524 109.325L22.0942 109.579L19.8052 110.983C20.0049 111.657 20.2761 112.309 20.6134 112.93L23.2222 112.306L23.3726 112.515C23.5143 112.712 23.666 112.903 23.8266 113.087C23.9602 113.239 23.9561 113.467 23.8104 113.608L23.7963 113.621C23.6418 113.768 23.3955 113.755 23.2539 113.595ZM38.8287 113.808L37.8438 113.573C37.638 113.523 37.5105 113.316 37.5597 113.11C37.609 112.905 37.8161 112.778 38.0219 112.827L38.4475 112.929C38.7848 112.308 39.056 111.655 39.2557 110.982L36.9668 109.578L37.0086 109.324C37.0814 108.875 37.1172 108.472 37.1172 108.094C37.1172 107.716 37.0814 107.314 37.0086 106.864L36.9674 106.61L39.2564 105.206C39.0567 104.533 38.7855 103.88 38.4482 103.259L35.8395 103.884L35.689 103.675C35.2074 103.005 34.6205 102.418 33.9512 101.936L33.7401 101.784L34.3654 99.1756C33.7441 98.8376 33.0918 98.5671 32.4185 98.3668L31.0146 100.656L30.761 100.615C29.9467 100.482 29.1163 100.482 28.3013 100.615L28.0477 100.656L26.6438 98.3668C26.5568 98.3924 26.4691 98.42 26.3827 98.4484C26.1884 98.5118 25.9793 98.4072 25.9091 98.2156C25.8349 98.0139 25.9402 97.7866 26.1439 97.7198C26.3355 97.6571 26.5284 97.5997 26.72 97.5491L26.9966 97.4756L28.4342 99.8199C29.2168 99.7113 29.8462 99.7113 30.6288 99.8199L32.0664 97.4756L32.3423 97.5491C33.2685 97.796 34.1624 98.1671 34.9989 98.6514L35.2458 98.7951L34.6056 101.467C35.1898 101.915 35.71 102.435 36.1579 103.019L38.8294 102.379L38.9724 102.626C39.4574 103.461 39.8285 104.355 40.0747 105.282L40.1482 105.558L37.8046 106.996C37.8586 107.386 37.8849 107.747 37.8849 108.093C37.8849 108.439 37.8586 108.8 37.8046 109.191L40.1482 110.629L40.0747 110.904C39.8285 111.831 39.4574 112.725 38.9724 113.561L38.8287 113.808ZM29.4239 111.828C27.4763 111.773 25.8532 110.15 25.7972 108.203C25.7405 106.24 27.2071 104.601 29.1001 104.382C29.3288 104.356 29.5312 104.535 29.5312 104.765C29.5312 104.959 29.3868 105.122 29.1945 105.143C27.5255 105.332 26.2714 106.911 26.6209 108.691C26.8475 109.847 27.7792 110.778 28.9355 111.004C30.8325 111.375 32.5001 109.926 32.5001 108.093C32.5001 107.48 32.3112 106.886 31.9631 106.389C31.8532 106.233 31.8829 106.018 32.0266 105.891C32.1993 105.738 32.4671 105.771 32.5986 105.96C33.0324 106.583 33.2678 107.326 33.2678 108.093C33.2665 110.189 31.5321 111.888 29.4239 111.828Z" fill="#E6E6E6"/>
<path d="M127.656 251.896C199.895 251.896 258.456 248.477 258.456 244.258C258.456 240.039 199.895 236.619 127.656 236.619C55.4168 236.619 -3.14453 240.039 -3.14453 244.258C-3.14453 248.477 55.4168 251.896 127.656 251.896Z" fill="#F5F5F5"/>
<path d="M204.187 62.2021H182.221L166.684 239.794H188.65C194.897 239.794 200.423 234.712 200.97 228.465L214.525 73.531C215.071 67.284 210.434 62.2021 204.187 62.2021Z" fill="#2F627C"/>
<path d="M199.706 62.2021H125.364C119.117 62.2021 113.591 67.284 113.044 73.531L99.4891 228.465C98.9426 234.712 103.58 239.794 109.827 239.794H184.169C190.416 239.794 195.942 234.712 196.489 228.465L210.044 73.531C210.59 67.284 205.953 62.2021 199.706 62.2021Z" fill="#DCF4E6"/>
<path opacity="0.3" d="M199.706 62.2021H125.364C119.117 62.2021 113.591 67.284 113.044 73.531L99.4891 228.465C98.9426 234.712 103.58 239.794 109.827 239.794H184.169C190.416 239.794 195.942 234.712 196.489 228.465L210.044 73.531C210.59 67.284 205.953 62.2021 199.706 62.2021Z" fill="white"/>
<path opacity="0.4" d="M199.385 65.832H179.785C178.629 65.832 177.543 66.591 177.115 67.6987C175.53 71.7936 171.518 74.598 167.243 74.598H155.653C151.378 74.598 147.856 71.7929 146.987 67.6987C146.753 66.591 145.8 65.8327 144.644 65.8327H125.043C120.791 65.8327 117.043 69.2793 116.671 73.5314L103.116 228.466C102.744 232.718 105.889 236.164 110.141 236.164H184.483C188.735 236.164 192.483 232.718 192.856 228.466L206.411 73.5314C206.783 69.2793 203.637 65.832 199.385 65.832Z" fill="white"/>
<path d="M180.87 149.991H128.841C127.298 149.991 126.157 148.74 126.292 147.198L126.552 144.221C126.687 142.678 128.047 141.428 129.59 141.428H181.619C183.162 141.428 184.303 142.678 184.168 144.221L183.908 147.198C183.773 148.74 182.413 149.991 180.87 149.991Z" fill="white"/>
<path d="M179.745 162.835H127.716C126.173 162.835 125.032 161.585 125.167 160.042L125.427 157.065C125.562 155.523 126.922 154.272 128.465 154.272H180.494C182.037 154.272 183.178 155.523 183.043 157.065L182.783 160.042C182.648 161.585 181.288 162.835 179.745 162.835Z" fill="white"/>
<path opacity="0.1" d="M165.058 68.7339C164.908 70.4447 163.4 71.831 161.69 71.831C159.979 71.831 158.714 70.4447 158.864 68.7339C159.013 67.0231 160.521 65.6367 162.232 65.6367C163.942 65.6367 165.208 67.0231 165.058 68.7339Z" fill="black"/>
<path opacity="0.1" d="M163.653 68.7339C163.571 69.6683 162.747 70.4259 161.812 70.4259C160.878 70.4259 160.187 69.6683 160.268 68.7339C160.35 67.7996 161.174 67.042 162.109 67.042C163.044 67.042 163.734 67.7996 163.653 68.7339Z" fill="black"/>
<g opacity="0.8">
<path d="M190.23 73.9004C189.729 73.9004 189.358 73.4942 189.402 72.993L189.547 71.3341C189.591 70.8329 190.033 70.4268 190.534 70.4268C191.035 70.4268 191.406 70.8329 191.362 71.3341L191.217 72.993C191.174 73.4942 190.732 73.9004 190.23 73.9004Z" fill="white"/>
<path d="M197.492 73.9003C196.991 73.9003 196.62 73.4942 196.664 72.993L197.004 69.0997C197.048 68.5985 197.49 68.1924 197.991 68.1924C198.493 68.1924 198.864 68.5985 198.82 69.0997L198.479 72.993C198.435 73.4942 197.993 73.9003 197.492 73.9003Z" fill="white"/>
<path d="M193.863 73.9003C193.362 73.9003 192.991 73.4942 193.035 72.993L193.278 70.2169C193.321 69.7157 193.763 69.3096 194.265 69.3096C194.766 69.3096 195.137 69.7157 195.093 70.2169L194.85 72.993C194.806 73.4942 194.364 73.9003 193.863 73.9003Z" fill="white"/>
</g>
<g opacity="0.8">
<path d="M128.079 73.9007H123.522C123.238 73.9007 123.028 73.6707 123.053 73.3867L123.267 70.9398C123.292 70.6558 123.542 70.4258 123.825 70.4258H128.382C128.666 70.4258 128.876 70.6558 128.851 70.9398L128.637 73.3867C128.612 73.6707 128.363 73.9007 128.079 73.9007Z" fill="white"/>
<path d="M130.19 73.2371C129.906 73.2371 129.696 73.0071 129.721 72.7231L129.819 71.6039C129.844 71.3199 130.094 71.0898 130.377 71.0898C130.661 71.0898 130.871 71.3199 130.846 71.6039L130.748 72.7231C130.724 73.0071 130.474 73.2371 130.19 73.2371Z" fill="white"/>
</g>
<path d="M172.309 130.422C181.387 121.732 182.292 107.945 174.33 99.627C166.368 91.3092 152.554 91.6106 143.476 100.3C134.398 108.99 133.494 122.777 141.456 131.095C149.418 139.413 163.231 139.111 172.309 130.422Z" fill="white"/>
<path d="M157.956 114.521C152.232 114.521 147.4 116.698 146.987 121.431L146.527 126.682H167.258L167.717 121.431C168.131 116.698 163.681 114.521 157.956 114.521Z" fill="#2F627C"/>
<path d="M158.146 112.357C160.802 112.357 162.027 110.204 162.259 107.547C162.492 104.891 161.644 102.737 158.987 102.737C156.33 102.737 155.105 104.891 154.872 107.547C154.64 110.204 155.489 112.357 158.146 112.357Z" fill="#2F627C"/>
<path d="M178.494 145.556C177.08 145.556 175.887 146.093 175.785 147.262L175.672 148.56H180.792L180.906 147.262C181.007 146.093 179.908 145.556 178.494 145.556Z" fill="#DCF4E6"/>
<path d="M178.54 145.022C179.196 145.022 179.498 144.489 179.556 143.833C179.613 143.177 179.404 142.646 178.748 142.646C178.091 142.646 177.789 143.178 177.732 143.833C177.674 144.49 177.884 145.022 178.54 145.022Z" fill="#DCF4E6"/>
<path d="M162.726 175.68H142.482C140.117 175.68 138.368 173.763 138.575 171.398C138.782 169.033 140.867 167.116 143.231 167.116H163.476C165.84 167.116 167.59 169.033 167.383 171.398C167.176 173.763 165.091 175.68 162.726 175.68Z" fill="#2F627C"/>
<path d="M160.289 223.429H138.623C136.124 223.429 134.276 221.403 134.494 218.905L135.876 203.102C136.095 200.603 138.298 198.577 140.796 198.577H162.463C164.962 198.577 166.81 200.603 166.592 203.102L165.209 218.905C164.991 221.403 162.788 223.429 160.289 223.429Z" fill="#2F627C"/>
<g opacity="0.6">
<path d="M153.604 207.094C153.736 205.59 152.623 204.371 151.12 204.371C149.616 204.371 148.29 205.59 148.159 207.094C148.081 207.989 148.45 208.777 149.074 209.273L148.597 214.714C148.519 215.607 149.18 216.331 150.073 216.331C150.966 216.331 151.753 215.607 151.831 214.714L152.308 209.273C153.019 208.777 153.526 207.99 153.604 207.094Z" fill="white"/>
</g>
<path d="M162.654 201.866H159.862L160.546 194.048C160.957 189.349 157.469 185.527 152.77 185.527C148.071 185.527 143.914 189.349 143.504 194.048L142.82 201.866H140.027L140.711 194.048C141.257 187.81 146.776 182.734 153.014 182.734C159.253 182.734 163.884 187.81 163.338 194.048L162.654 201.866Z" fill="#2F627C"/>
<path d="M178.837 157.53L178.903 156.78C178.97 156.013 178.401 155.39 177.634 155.39C176.867 155.39 176.189 156.014 176.122 156.78L176.057 157.53C175.75 157.53 175.481 157.778 175.454 158.085L175.28 160.079C175.253 160.385 175.479 160.633 175.785 160.633H178.565C178.871 160.633 179.141 160.385 179.168 160.079L179.343 158.085C179.37 157.778 179.144 157.53 178.837 157.53ZM177.604 155.732C178.182 155.732 178.61 156.202 178.56 156.779L178.495 157.53H176.4L176.466 156.779C176.516 156.202 177.027 155.732 177.604 155.732Z" fill="#DCF4E6"/>
<path d="M136.997 158.328L136.027 158.128C135.913 158.104 135.853 157.984 135.901 157.87L136.305 156.915C136.392 156.71 136.143 156.558 135.985 156.721L135.252 157.476C135.165 157.566 135.025 157.566 134.955 157.476L134.354 156.721C134.225 156.559 133.949 156.71 133.999 156.915L134.236 157.87C134.264 157.984 134.184 158.104 134.065 158.128L133.06 158.328C132.844 158.372 132.817 158.675 133.026 158.718L133.996 158.918C134.111 158.942 134.17 159.062 134.122 159.176L133.718 160.131C133.631 160.336 133.881 160.488 134.038 160.325L134.771 159.57C134.858 159.48 134.998 159.48 135.069 159.57L135.67 160.325C135.799 160.488 136.074 160.336 136.024 160.131L135.787 159.176C135.759 159.062 135.839 158.942 135.958 158.918L136.964 158.718C137.179 158.675 137.206 158.371 136.997 158.328Z" fill="#263238"/>
<path d="M143.384 158.328L142.414 158.128C142.299 158.104 142.24 157.984 142.288 157.87L142.692 156.915C142.779 156.71 142.529 156.558 142.372 156.721L141.639 157.476C141.552 157.566 141.413 157.566 141.341 157.476L140.74 156.721C140.611 156.559 140.336 156.71 140.386 156.915L140.623 157.87C140.651 157.984 140.57 158.104 140.452 158.128L139.446 158.328C139.231 158.372 139.204 158.675 139.412 158.718L140.382 158.918C140.497 158.942 140.556 159.062 140.508 159.176L140.104 160.131C140.017 160.336 140.267 160.488 140.424 160.325L141.157 159.57C141.244 159.48 141.383 159.48 141.455 159.57L142.056 160.325C142.185 160.488 142.461 160.336 142.41 160.131L142.173 159.176C142.145 159.062 142.226 158.942 142.345 158.918L143.35 158.718C143.566 158.675 143.593 158.371 143.384 158.328Z" fill="#263238"/>
<path d="M149.763 158.328L148.793 158.128C148.678 158.104 148.619 157.984 148.667 157.87L149.071 156.915C149.158 156.71 148.908 156.558 148.751 156.721L148.018 157.476C147.931 157.566 147.791 157.566 147.72 157.476L147.119 156.721C146.99 156.559 146.714 156.71 146.765 156.915L147.002 157.87C147.03 157.984 146.95 158.104 146.83 158.128L145.825 158.328C145.609 158.372 145.583 158.675 145.791 158.718L146.761 158.918C146.876 158.942 146.935 159.062 146.887 159.176L146.483 160.131C146.396 160.336 146.646 160.488 146.803 160.325L147.536 159.57C147.623 159.48 147.763 159.48 147.834 159.57L148.435 160.325C148.564 160.488 148.84 160.336 148.789 160.131L148.552 159.176C148.524 159.062 148.604 158.942 148.723 158.918L149.729 158.718C149.945 158.675 149.972 158.371 149.763 158.328Z" fill="#263238"/>
<path d="M156.15 158.328L155.18 158.128C155.065 158.104 155.006 157.984 155.053 157.87L155.458 156.915C155.545 156.71 155.295 156.558 155.138 156.721L154.404 157.476C154.317 157.566 154.178 157.566 154.107 157.476L153.506 156.721C153.377 156.559 153.101 156.71 153.152 156.915L153.388 157.87C153.417 157.984 153.337 158.104 153.217 158.128L152.212 158.328C151.996 158.372 151.97 158.675 152.178 158.718L153.148 158.918C153.263 158.942 153.322 159.062 153.274 159.176L152.87 160.131C152.783 160.336 153.033 160.488 153.19 160.325L153.923 159.57C154.01 159.48 154.15 159.48 154.221 159.57L154.822 160.325C154.951 160.488 155.227 160.336 155.176 160.131L154.939 159.176C154.911 159.062 154.991 158.942 155.111 158.918L156.116 158.718C156.331 158.675 156.358 158.371 156.15 158.328Z" fill="#263238"/>
<path d="M162.533 158.328L161.562 158.128C161.448 158.104 161.388 157.984 161.436 157.87L161.84 156.915C161.927 156.71 161.678 156.558 161.521 156.721L160.787 157.476C160.7 157.566 160.561 157.566 160.49 157.476L159.889 156.721C159.76 156.559 159.484 156.71 159.535 156.915L159.771 157.87C159.8 157.984 159.719 158.104 159.6 158.128L158.595 158.328C158.379 158.372 158.353 158.675 158.56 158.718L159.531 158.918C159.645 158.942 159.705 159.062 159.657 159.176L159.253 160.131C159.166 160.336 159.415 160.488 159.572 160.325L160.306 159.57C160.393 159.48 160.532 159.48 160.603 159.57L161.204 160.325C161.333 160.488 161.609 160.336 161.558 160.131L161.322 159.176C161.293 159.062 161.374 158.942 161.493 158.918L162.498 158.718C162.714 158.675 162.741 158.371 162.533 158.328Z" fill="#263238"/>
<path d="M168.915 158.328L167.945 158.128C167.831 158.104 167.771 157.984 167.819 157.87L168.223 156.915C168.31 156.71 168.061 156.558 167.903 156.721L167.17 157.476C167.083 157.566 166.944 157.566 166.873 157.476L166.272 156.721C166.143 156.559 165.867 156.71 165.917 156.915L166.154 157.87C166.183 157.984 166.102 158.104 165.983 158.128L164.978 158.328C164.762 158.372 164.735 158.675 164.943 158.718L165.913 158.918C166.028 158.942 166.087 159.062 166.04 159.176L165.635 160.131C165.548 160.336 165.798 160.488 165.955 160.325L166.688 159.57C166.776 159.48 166.915 159.48 166.986 159.57L167.587 160.325C167.716 160.488 167.992 160.336 167.941 160.131L167.704 159.176C167.676 159.062 167.756 158.942 167.876 158.918L168.881 158.718C169.097 158.675 169.124 158.371 168.915 158.328Z" fill="#263238"/>
<path d="M153.525 144.36H141.538C140.794 144.36 140.137 144.964 140.072 145.709C140.006 146.454 140.557 147.057 141.302 147.057H153.289C154.033 147.057 154.69 146.454 154.755 145.709C154.821 144.964 154.27 144.36 153.525 144.36Z" fill="#263238"/>
<path d="M165.693 144.36H158.737C157.993 144.36 157.336 144.964 157.271 145.709C157.205 146.454 157.757 147.057 158.501 147.057H165.457C166.201 147.057 166.858 146.454 166.923 145.709C166.989 144.964 166.438 144.36 165.693 144.36Z" fill="#263238"/>
<path d="M174.879 205.516C170.359 207.32 166.397 209.953 163.685 212.946C162.095 211.593 159.835 210.653 157.125 210.223L156.807 210.173L156.668 211.764L156.845 211.831C159.52 212.841 161.697 214.634 163.142 217.015L163.368 217.39L163.619 216.988C166.399 212.538 170.452 208.811 175.031 206.491L175.186 206.412L175.279 205.354L174.879 205.516Z" fill="#263238"/>
<path opacity="0.2" d="M114.599 72.6895C113.756 74.1716 113.2 75.8251 113.046 77.577L103 192.411H134.084L140.33 168.467L138.274 144.522L144.52 120.578L142.464 96.6342L148.71 72.6901H114.599V72.6895Z" fill="black"/>
<path d="M139.77 89.8881L146.015 65.9434H67.4062L61.1606 89.8881L63.2169 113.832L56.9713 137.776L59.0268 161.721L52.7812 185.665H131.39L137.636 161.721L135.58 137.776L141.825 113.832L139.77 89.8881Z" fill="#DCF4E6"/>
<path opacity="0.7" d="M139.77 89.8881L146.015 65.9434H67.4062L61.1606 89.8881L63.2169 113.832L56.9713 137.776L59.0268 161.721L52.7812 185.665H131.39L137.636 161.721L135.58 137.776L141.825 113.832L139.77 89.8881Z" fill="white"/>
<path opacity="0.5" d="M139.769 89.8881H61.1602L67.4057 65.9434H146.015L139.769 89.8881Z" fill="white"/>
<path opacity="0.5" d="M135.578 137.776H56.9688L63.2143 113.832H141.823L135.578 137.776Z" fill="white"/>
<path opacity="0.5" d="M131.39 185.665H52.7812L59.0268 161.721H137.636L131.39 185.665Z" fill="white"/>
<path opacity="0.2" d="M129.248 99.8939C128.573 100.105 127.708 100.232 126.766 100.232C125.378 100.232 124.158 99.9573 123.465 99.5437C123.275 99.4297 123.065 99.373 122.856 99.373C122.662 99.373 122.468 99.4277 122.289 99.5255C122.275 99.5329 122.261 99.5356 122.248 99.5437C122.24 99.5485 122.231 99.5518 122.224 99.5565C121.967 99.7063 121.643 99.8379 121.265 99.9438C120.617 100.125 119.815 100.233 118.948 100.233C118.712 100.233 118.481 100.224 118.257 100.21C117.584 100.164 116.971 100.053 116.465 99.8952C116.377 99.8675 116.288 99.8514 116.201 99.8453C115.589 99.8048 115.039 100.274 115.039 100.923V101.655H84.4849C82.1204 101.655 80.2031 103.571 80.2031 105.936V110.251C80.2031 112.616 82.1204 114.533 84.4849 114.533H119.246C119.323 114.533 119.397 114.526 119.473 114.522C119.848 114.832 120.239 115.142 120.652 115.455C121.148 115.83 121.669 116.211 122.215 116.607C122.596 116.883 123.118 116.883 123.499 116.607C127.869 113.437 130.676 111.251 130.676 105.244V100.924C130.675 100.181 129.957 99.6726 129.248 99.8939Z" fill="black"/>
<path d="M118.578 112.155H83.8169C81.4524 112.155 79.5352 110.238 79.5352 107.873V103.558C79.5352 101.194 81.4517 99.2764 83.8169 99.2764H118.578C120.942 99.2764 122.86 101.193 122.86 103.558V107.873C122.86 110.238 120.942 112.155 118.578 112.155Z" fill="#DCF4E6"/>
<path d="M126.095 97.8547C124.708 97.8547 123.489 97.5801 122.794 97.1666C122.413 96.9393 121.959 96.9393 121.577 97.1666C120.884 97.5801 119.665 97.8547 118.277 97.8547C117.333 97.8547 116.469 97.7279 115.794 97.5174C115.086 97.2961 114.367 97.8041 114.367 98.5462V102.866C114.367 108.873 117.174 111.06 121.544 114.23C121.925 114.506 122.447 114.506 122.828 114.23C127.198 111.06 130.005 108.873 130.005 102.866V98.5462C130.005 97.8041 129.286 97.2961 128.578 97.5174C127.903 97.7279 127.038 97.8547 126.095 97.8547Z" fill="#DCF4E6"/>
<path opacity="0.3" d="M126.095 97.8547C124.708 97.8547 123.489 97.5801 122.794 97.1666C122.413 96.9393 121.959 96.9393 121.577 97.1666C120.884 97.5801 119.665 97.8547 118.277 97.8547C117.333 97.8547 116.469 97.7279 115.794 97.5174C115.086 97.2961 114.367 97.8041 114.367 98.5462V102.866C114.367 108.873 117.174 111.06 121.544 114.23C121.925 114.506 122.447 114.506 122.828 114.23C127.198 111.06 130.005 108.873 130.005 102.866V98.5462C130.005 97.8041 129.286 97.2961 128.578 97.5174C127.903 97.7279 127.038 97.8547 126.095 97.8547Z" fill="white"/>
<path opacity="0.2" d="M121.577 97.1668C120.884 97.5803 119.665 97.8549 118.277 97.8549C117.333 97.8549 116.469 97.728 115.794 97.5176C115.086 97.2963 114.367 97.8043 114.367 98.5457V102.866C114.367 108.873 117.174 111.06 121.544 114.23C121.735 114.367 121.96 114.437 122.186 114.437V96.9961C121.977 96.9961 121.768 97.0528 121.577 97.1668Z" fill="white"/>
<path d="M128.455 101.687C125.63 102.855 123.213 104.56 121.627 106.499C120.521 105.623 119.004 105.014 117.224 104.735L117.016 104.703V105.734L117.134 105.777C118.924 106.431 120.435 107.593 121.506 109.135L121.674 109.377L121.813 109.117C123.362 106.235 125.775 103.821 128.61 102.319L128.706 102.268V101.583L128.455 101.687Z" fill="#263238"/>
<path d="M144.625 72.6768H141.643C139.989 72.6768 138.766 71.3363 138.91 69.6822L139.171 66.6997C139.316 65.0455 140.774 63.7051 142.428 63.7051H145.411C147.065 63.7051 148.288 65.0462 148.143 66.6997L147.882 69.6822C147.737 71.3363 146.28 72.6768 144.625 72.6768Z" fill="#DCF4E6"/>
<path d="M145.864 66.6931L145.217 65.9834L143.588 67.481L142.221 65.9834L141.449 66.6931L142.816 68.1907L141.188 69.6884L141.835 70.3981L143.464 68.9004L144.83 70.3981L145.602 69.6884L144.235 68.1907L145.864 66.6931Z" fill="white"/>
<path d="M77.975 98.4062C79.7041 100.286 81.3562 102.234 82.9874 104.2C84.6207 106.164 86.2134 108.163 87.7866 110.179C87.8555 110.267 87.8278 110.231 87.844 110.257C87.8514 110.269 87.8528 110.288 87.8622 110.297C87.8797 110.317 87.8892 110.349 87.9101 110.366C87.9411 110.416 87.9863 110.452 88.0315 110.499C88.1273 110.585 88.2582 110.651 88.4039 110.677C88.4761 110.688 88.5523 110.699 88.6299 110.691C88.6717 110.696 88.7088 110.684 88.7527 110.682C88.7756 110.683 88.7925 110.671 88.8148 110.668C88.8492 110.653 88.8276 110.684 88.9207 110.628L90.6106 109.712C92.8773 108.512 95.1622 107.339 97.5254 106.286L99.5007 108.732C97.5969 110.484 95.6142 112.675 93.6133 114.281L92.1022 115.469C92.0637 115.504 91.9011 115.61 91.7993 115.678C91.6825 115.753 91.5685 115.834 91.4451 115.9C91.2002 116.035 90.9533 116.17 90.6909 116.274C90.1728 116.498 89.6196 116.64 89.059 116.727C87.9344 116.894 86.7659 116.781 85.6751 116.39C85.1314 116.194 84.6045 115.933 84.1248 115.6C83.8793 115.441 83.6546 115.254 83.4307 115.066C83.318 114.972 83.2175 114.868 83.1122 114.766L82.8437 114.494C81.0587 112.663 79.2932 110.814 77.5676 108.931C75.8406 107.049 74.1338 105.15 72.5039 103.183L77.975 98.4062Z" fill="#B55B52"/>
<path d="M96.6055 107.775L98.178 102.725L102.317 104.788C102.317 104.788 101.714 108.473 98.7008 109.112L96.6055 107.775Z" fill="#B55B52"/>
<path d="M99.8399 101.323L103.573 102.351L102.319 104.787L98.1797 102.724L99.8399 101.323Z" fill="#B55B52"/>
<path d="M56.1989 99.7826C55.7483 101.929 55.1978 104.05 54.621 106.166C54.0469 108.282 53.4202 110.386 52.7685 112.483L52.5257 113.27L52.4042 113.663C52.3786 113.749 52.3617 113.77 52.3388 113.827C52.2646 114.026 52.2201 114.242 52.2113 114.469C52.1998 114.918 52.3064 115.418 52.6005 115.853C52.6248 115.923 52.8576 116.167 53.0391 116.364L53.599 116.973L54.7033 118.209C55.4306 119.044 56.1551 119.881 56.8432 120.761L54.4922 123.483C53.5214 122.93 52.5877 122.334 51.6561 121.736L50.2725 120.823L49.5884 120.357C49.3557 120.195 49.1688 120.087 48.7964 119.778C47.5133 118.69 46.5546 117.145 46.2032 115.43C46.0237 114.574 45.9799 113.681 46.0797 112.797C46.106 112.585 46.1458 112.339 46.1782 112.157L46.2497 111.752L46.3927 110.941C46.7712 108.777 47.1746 106.62 47.63 104.475C48.0833 102.329 48.563 100.19 49.1418 98.0752L56.1989 99.7826Z" fill="#B55B52"/>
<path d="M54.5352 120.569L57.3186 119.146L58.5464 123.877C58.5464 123.877 56.3128 124.733 54.5837 123.633L54.5352 120.569Z" fill="#B55B52"/>
<path d="M61.1614 117.633L61.2876 121.973L58.1796 124.005L57.1016 119.238L61.1614 117.633Z" fill="#B55B52"/>
<path d="M70.2686 77.4767C70.3367 77.8113 70.5688 78.046 70.7873 78.0015C71.0059 77.957 71.128 77.65 71.0599 77.3154C70.9918 76.9808 70.7597 76.746 70.5411 76.7906C70.3232 76.8351 70.2011 77.142 70.2686 77.4767Z" fill="#263238"/>
<path d="M70.5391 78.0518C70.5391 78.0518 71.6913 79.826 72.7174 80.5863C72.2377 81.2589 71.1813 81.211 71.1813 81.211L70.5391 78.0518Z" fill="#A02724"/>
<path d="M68.6693 75.868C68.6207 75.868 68.5714 75.8504 68.533 75.8147C68.452 75.7398 68.4466 75.613 68.5222 75.5313C69.2744 74.7171 70.1871 74.8621 70.227 74.8682C70.3362 74.8871 70.4091 74.9903 70.3909 75.0996C70.372 75.2082 70.2674 75.2811 70.1608 75.2635C70.1305 75.2588 69.4167 75.1542 68.817 75.8032C68.7772 75.8464 68.7232 75.868 68.6693 75.868Z" fill="#263238"/>
<path d="M60.5402 82.1797C61.2843 85.2741 62.0271 90.9443 59.3711 93.0086C59.3711 93.0086 60.4087 96.1476 67.4631 96.1476C75.2198 96.1476 71.1701 94.1258 71.1701 94.1258C66.9369 93.3021 67.0455 89.6247 67.7829 87.2204L60.5402 82.1797Z" fill="#B55B52"/>
<path d="M58.5421 93.5822C58.08 92.722 57.5707 91.7384 58.6237 91.4301C59.782 91.0908 67.2237 90.4621 69.4095 91.0989C68.7375 92.2937 69.8749 93.7623 69.8749 93.7623L58.5421 93.5822Z" fill="#263238"/>
<path d="M64.7031 238.339H69.5705L70.0548 228.543H65.1882L64.7031 238.339Z" fill="#B55B52"/>
<path d="M33.8203 236.989L38.7497 237.249L41.7457 227.599L36.8156 227.338L33.8203 236.989Z" fill="#B55B52"/>
<path d="M38.5974 236.86L33.9527 235.854C33.7841 235.818 33.612 235.903 33.5398 236.06L31.9275 239.558C31.7602 239.921 31.9815 240.347 32.3734 240.425C34.0006 240.748 34.8095 240.823 36.8515 241.265C38.1083 241.537 40.9444 242.228 42.6802 242.604C44.3775 242.972 45.0137 241.313 44.3371 241.004C41.3026 239.618 40.035 238.397 39.2134 237.259C39.0656 237.055 38.845 236.914 38.5974 236.86Z" fill="#263238"/>
<path d="M69.3146 237.849H64.6955C64.5228 237.849 64.3731 237.969 64.3353 238.137L63.4994 241.897C63.4131 242.287 63.7086 242.656 64.108 242.649C65.7743 242.621 68.182 242.523 70.2766 242.523C72.7255 242.523 74.8404 242.657 77.7122 242.657C79.4487 242.657 79.9304 240.901 79.2038 240.742C75.8948 240.018 73.193 239.941 70.3333 238.178C70.023 237.986 69.6796 237.849 69.3146 237.849Z" fill="#263238"/>
<path d="M50.5584 94.4384C46.8852 96.185 45.8867 106.773 45.8867 106.773L54.9738 110.972C54.9738 110.972 57.229 107.649 57.4017 102.425C57.5825 96.952 54.314 92.6527 50.5584 94.4384Z" fill="#F2CD33"/>
<path opacity="0.4" d="M55.4884 100.968C53.8478 103.514 54.0029 107.455 54.5709 110.785L54.9723 110.973C54.9723 110.973 57.2303 107.646 57.4036 102.424C57.4138 102.097 57.4124 101.773 57.401 101.457L55.4884 100.968Z" fill="black"/>
<path d="M75.9166 94.1827C75.9166 94.1827 80.419 99.2679 76.1669 130.743C69.3499 130.743 56.8594 130.743 53.5423 130.743C53.3865 127.271 55.5689 110.329 52.2188 93.9648C52.2188 93.9648 56.0971 93.1863 59.7927 93.0082C62.6834 92.8692 66.8687 92.7768 69.41 93.0082C72.7608 93.3144 75.9166 94.1827 75.9166 94.1827Z" fill="#DCF4E6"/>
<path opacity="0.6" d="M75.9166 94.1827C75.9166 94.1827 80.419 99.2679 76.1669 130.743C69.3499 130.743 56.8594 130.743 53.5423 130.743C53.3865 127.271 55.5689 110.329 52.2188 93.9648C52.2188 93.9648 56.0971 93.1863 59.7927 93.0082C62.6834 92.8692 66.8687 92.7768 69.41 93.0082C72.7608 93.3144 75.9166 94.1827 75.9166 94.1827Z" fill="#F2CD33"/>
<path opacity="0.2" d="M77.8933 103.802L77.8069 103.728L73.3072 101.323C72.8498 108.252 75.947 112.595 77.7894 114.494C78.043 110.055 78.037 106.554 77.8933 103.802Z" fill="black"/>
<path opacity="0.2" d="M70.0558 228.545L69.8069 233.594H64.9375L65.1864 228.545H70.0558Z" fill="black"/>
<path opacity="0.2" d="M36.8125 227.341L41.744 227.602L40.1971 232.576L35.2656 232.315L36.8125 227.341Z" fill="black"/>
<path d="M58.974 79.0345C60.0608 83.0896 60.4906 85.5182 62.9934 87.204C66.7571 89.7399 71.4436 86.8296 71.59 82.5317C71.7222 78.6634 69.9223 72.6823 65.5711 71.8646C61.2839 71.0598 57.8872 74.9793 58.974 79.0345Z" fill="#B55B52"/>
<path d="M68.1413 130.743C68.1413 130.743 63.3407 163.069 60.7056 175.179C57.8196 188.441 42.3453 232.318 42.3453 232.318L34.7734 230.679C34.7734 230.679 44.4771 194.922 46.899 176.382C47.8441 169.146 48.9849 157.484 50.4286 147.76C51.8264 138.343 53.5426 130.743 53.5426 130.743H68.1413Z" fill="#2F627C"/>
<path d="M44.1569 229.79C44.1893 229.797 42.7456 232.528 42.7456 232.528L34.2266 230.684L34.945 228.123L44.1569 229.79Z" fill="#DCF4E6"/>
<path opacity="0.6" d="M44.1569 229.79C44.1893 229.797 42.7456 232.528 42.7456 232.528L34.2266 230.684L34.945 228.123L44.1569 229.79Z" fill="white"/>
<path opacity="0.6" d="M65.1078 142.261C59.5571 143.349 60.1447 164.048 60.8125 174.695C62.4134 167.17 64.7563 152.688 66.3572 142.411C65.9888 142.226 65.5739 142.169 65.1078 142.261Z" fill="black"/>
<path d="M76.1642 130.743C76.1642 130.743 78.4221 162.369 77.962 175.268C77.4837 188.685 71.1221 232.617 71.1221 232.617H63.9563C63.9563 232.617 63.6932 189.469 63.3748 176.292C63.0274 161.927 61.293 130.743 61.293 130.743H76.1642Z" fill="#2F627C"/>
<path d="M72.5047 229.763C72.5377 229.763 72.1006 232.738 72.1006 232.738H63.3839L63.1484 230.082L72.5047 229.763Z" fill="#DCF4E6"/>
<path opacity="0.6" d="M72.5047 229.763C72.5377 229.763 72.1006 232.738 72.1006 232.738H63.3839L63.1484 230.082L72.5047 229.763Z" fill="white"/>
<path d="M73.2773 100.108C73.2773 108.595 77.7939 112.089 77.7939 112.089L85.1351 104.913C85.1351 104.913 82.639 100.612 79.2065 96.6644C74.9652 91.7869 73.2773 94.65 73.2773 100.108Z" fill="#F2CD33"/>
<path opacity="0.2" d="M71.3324 84.0674C71.1462 84.5875 70.6572 85.4692 69.4287 85.8207C67.6369 86.3334 67.6133 87.852 67.6133 87.852L67.6355 87.8803C69.345 87.3157 70.7685 85.903 71.3324 84.0674Z" fill="black"/>
<path d="M69.4265 70.9746C70.9389 69.0674 68.6122 68.9764 68.6122 68.9764C69.2166 66.6995 66.4953 67.9253 66.4953 67.9253C64.8613 65.6734 63.9398 68.4137 63.9398 68.4137C62.2452 66.5059 61.9335 69.624 61.9335 69.624C60.2342 67.2041 59.3686 70.6946 59.3686 70.6946C57.8035 68.1817 56.8456 71.4556 56.8456 71.4556C53.6142 70.2986 55.1503 73.6568 55.1503 73.6568C52.3918 73.7344 54.6045 75.8682 54.6045 75.8682C51.3002 75.8763 54.2139 77.7686 54.2139 77.7686C51.5896 79.4902 54.8838 79.9537 54.8838 79.9537C52.7426 83.3018 56.4192 82.0598 56.4192 82.0598C54.9297 85.3736 58.2326 83.9137 58.2326 83.9137C58.018 87.1114 59.8651 86.2411 60.7529 85.6488C60.9243 86.293 61.2441 86.9751 61.8377 87.0527C62.99 87.2031 63.2139 85.0281 63.2139 85.0281C63.2139 85.0281 64.2832 85.8599 65.1798 85.4093C66.0763 84.9587 65.7383 83.8179 65.7383 83.8179C65.7383 83.8179 66.4244 84.3299 67.0532 83.8415C67.4377 83.5427 67.4397 81.3953 66.9493 80.6404L68.7053 79.953C68.7053 79.953 70.0086 79.7695 69.4265 78.0513C68.8449 76.3337 69.3381 74.9771 69.3381 74.9771C71.3201 74.0481 69.6943 72.931 69.6943 72.931C71.9859 71.4461 69.4265 70.9746 69.4265 70.9746Z" fill="#263238"/>
<path d="M65.8703 79.2043C66.1462 80.2689 66.8458 81.1837 67.5771 81.7281C68.6781 82.547 69.4997 81.7409 69.4215 80.4955C69.3513 79.3743 68.6936 77.5974 67.4793 77.2648C66.2839 76.937 65.5553 77.9873 65.8703 79.2043Z" fill="#B55B52"/>
</svg>
