<svg width="500" height="500" viewBox="0 0 500 500" fill="none" xmlns="http://www.w3.org/2000/svg">
<path d="M219.35 87.7295H77.4299V283.459H219.35V87.7295Z" fill="#E0E0E0"/>
<path d="M211.53 92.6191H83.49V277.549H211.53V92.6191Z" fill="#FAFAFA" stroke="#FAFAFA" stroke-miterlimit="10"/>
<path d="M213.89 145.63H82.8899V148.55H213.89V145.63Z" fill="#E0E0E0"/>
<path d="M146.05 145.629V278.369H148.97V145.629H146.05Z" fill="#E0E0E0"/>
<path d="M241.93 69.3096H55.58V72.9396H241.93V69.3096Z" fill="#E0E0E0"/>
<path d="M55.58 81.7793C55.58 81.7793 57.28 277.509 55.63 277.509H92.43V81.7793H55.58Z" fill="#EBEBEB"/>
<path d="M64.79 85.9992C64.5326 83.2907 64.4458 80.5687 64.53 77.8492C64.4458 75.1298 64.5326 72.4078 64.79 69.6992C65.0534 72.4074 65.1402 75.1298 65.05 77.8492C65.1402 80.5687 65.0534 83.2911 64.79 85.9992Z" fill="#E0E0E0"/>
<path d="M59.83 85.9992C59.5666 83.2911 59.4798 80.5687 59.57 77.8492C59.4798 75.1298 59.5666 72.4074 59.83 69.6992C60.0874 72.4078 60.1742 75.1298 60.09 77.8492C60.1742 80.5687 60.0874 83.2907 59.83 85.9992Z" fill="#E0E0E0"/>
<path d="M70.4999 85.9992C70.2366 83.2911 70.1497 80.5687 70.2399 77.8492C70.1497 75.1298 70.2366 72.4074 70.4999 69.6992C70.7573 72.4078 70.8441 75.1298 70.7599 77.8492C70.8441 80.5687 70.7573 83.2907 70.4999 85.9992Z" fill="#E0E0E0"/>
<path d="M76.1999 85.9992C75.9425 83.2907 75.8557 80.5687 75.9399 77.8492C75.8557 75.1298 75.9425 72.4078 76.1999 69.6992C76.4633 72.4074 76.5501 75.1298 76.4599 77.8492C76.5501 80.5687 76.4633 83.2911 76.1999 85.9992Z" fill="#E0E0E0"/>
<path d="M81.91 85.9992C81.6526 83.2907 81.5658 80.5687 81.65 77.8492C81.5658 75.1298 81.6526 72.4078 81.91 69.6992C82.1674 72.4078 82.2542 75.1298 82.17 77.8492C82.2542 80.5687 82.1674 83.2907 81.91 85.9992Z" fill="#E0E0E0"/>
<path d="M87.3999 85.9992C87.1366 83.2911 87.0497 80.5687 87.1399 77.8492C87.0497 75.1298 87.1366 72.4074 87.3999 69.6992C87.6573 72.4078 87.7441 75.1298 87.66 77.8492C87.7441 80.5687 87.6573 83.2907 87.3999 85.9992Z" fill="#E0E0E0"/>
<path d="M203.85 81.7793C203.85 81.7793 205.55 277.509 203.91 277.509H240.71V81.7793H203.85Z" fill="#EBEBEB"/>
<path d="M213.07 85.9992C212.813 83.2907 212.726 80.5687 212.81 77.8492C212.726 75.1298 212.813 72.4078 213.07 69.6992C213.327 72.4078 213.414 75.1298 213.33 77.8492C213.414 80.5687 213.327 83.2907 213.07 85.9992Z" fill="#E0E0E0"/>
<path d="M208.1 85.9992C207.843 83.2907 207.756 80.5687 207.84 77.8492C207.756 75.1298 207.843 72.4078 208.1 69.6992C208.363 72.4074 208.45 75.1298 208.36 77.8492C208.45 80.5687 208.363 83.2911 208.1 85.9992Z" fill="#E0E0E0"/>
<path d="M218.78 85.9992C218.517 83.2911 218.43 80.5687 218.52 77.8492C218.43 75.1298 218.517 72.4074 218.78 69.6992C219.037 72.4078 219.124 75.1298 219.04 77.8492C219.124 80.5687 219.037 83.2907 218.78 85.9992Z" fill="#E0E0E0"/>
<path d="M224.48 85.9992C224.223 83.2907 224.136 80.5687 224.22 77.8492C224.136 75.1298 224.223 72.4078 224.48 69.6992C224.737 72.4078 224.824 75.1298 224.74 77.8492C224.824 80.5687 224.737 83.2907 224.48 85.9992Z" fill="#E0E0E0"/>
<path d="M230.19 85.9992C229.927 83.2911 229.84 80.5687 229.93 77.8492C229.84 75.1298 229.927 72.4074 230.19 69.6992C230.447 72.4078 230.534 75.1298 230.45 77.8492C230.534 80.5687 230.447 83.2907 230.19 85.9992Z" fill="#E0E0E0"/>
<path d="M235.67 85.9992C235.413 83.2907 235.326 80.5687 235.41 77.8492C235.326 75.1298 235.413 72.4078 235.67 69.6992C235.933 72.4074 236.02 75.1298 235.93 77.8492C236.02 80.5687 235.933 83.2911 235.67 85.9992Z" fill="#E0E0E0"/>
<path d="M346.4 435.81V465.2H389.38H436.78V435.81H346.4Z" fill="#EBEBEB"/>
<path d="M342.61 427.6V435.81H439.94V427.6H389.38H342.61Z" fill="#F5F5F5"/>
<path d="M391.28 465.2H436.78V435.81H439.94V427.6H389.38V435.05L391.28 465.2Z" fill="#E0E0E0"/>
<path d="M377.37 440.55H359.04V444.97H377.37V440.55Z" fill="#E0E0E0"/>
<path d="M380.22 450.51H356.68V459.85H380.22V450.51Z" fill="#FAFAFA"/>
<path d="M369.37 395.369L369.24 384.319L407.95 387.629L409.16 398.559L369.37 395.369Z" fill="#EBEBEB"/>
<path d="M377.726 389.345L377.556 391.328L401.768 393.4L401.937 391.417L377.726 389.345Z" fill="#E0E0E0"/>
<path d="M364.75 384.879L364.74 373.829L403.42 377.549L404.4 387.429L364.75 384.879Z" fill="#E0E0E0"/>
<path d="M364.74 375.329L364.72 382.789L402.41 385.559L401.78 378.689L364.74 375.329Z" fill="white"/>
<path d="M399.55 381.55C399.095 381.598 398.635 381.598 398.18 381.55L394.48 381.26C391.35 380.99 387.03 380.59 382.27 380.11C377.51 379.63 373.2 379.16 370.08 378.8L366.39 378.34C365.933 378.307 365.481 378.226 365.04 378.1C365.496 378.058 365.954 378.058 366.41 378.1L370.11 378.39C373.24 378.66 377.55 379.07 382.32 379.55C387.09 380.03 391.4 380.49 394.51 380.86L398.2 381.31C398.657 381.343 399.11 381.423 399.55 381.55Z" fill="#E0E0E0"/>
<path d="M399.47 382.479C399.011 382.529 398.549 382.529 398.09 382.479L394.35 382.299C391.2 382.129 386.84 381.859 382.03 381.519C377.22 381.179 372.86 380.859 369.71 380.589L365.98 380.249C365.521 380.233 365.064 380.166 364.62 380.049C365.079 380.004 365.541 380.004 366 380.049L369.74 380.219C372.9 380.389 377.26 380.669 382.07 380.999C386.88 381.329 391.23 381.669 394.38 381.939L398.11 382.279C398.568 382.306 399.023 382.373 399.47 382.479Z" fill="#E0E0E0"/>
<path d="M369.81 405.55L369.67 394.5L408.39 397.78L409.49 407.65L369.81 405.55Z" fill="#E0E0E0"/>
<path d="M374.08 405.78C373.75 403.986 373.593 402.164 373.61 400.34C373.448 398.523 373.464 396.694 373.66 394.88C373.985 396.675 374.142 398.496 374.13 400.32C374.287 402.137 374.27 403.966 374.08 405.78Z" fill="#F5F5F5"/>
<path d="M375.54 395C375.834 396.794 375.961 398.612 375.92 400.43C376.046 402.244 375.996 404.066 375.77 405.87C375.476 404.076 375.349 402.258 375.39 400.44C375.264 398.626 375.314 396.804 375.54 395Z" fill="#F5F5F5"/>
<path d="M379.06 399.859C385.81 400.609 393.74 401.039 400.6 401.649L379.06 399.859Z" fill="white"/>
<path d="M400.6 401.649C399.543 401.7 398.483 401.673 397.43 401.569C395.48 401.459 392.79 401.289 389.81 401.069C386.83 400.849 384.14 400.599 382.19 400.369C381.133 400.297 380.085 400.127 379.06 399.859C380.119 399.827 381.178 399.874 382.23 399.999L389.85 400.549C392.85 400.769 395.52 400.999 397.46 401.199C398.518 401.255 399.569 401.406 400.6 401.649Z" fill="#F5F5F5"/>
<path d="M403.43 407.329C403.093 405.704 402.926 404.049 402.93 402.389C402.754 400.744 402.754 399.085 402.93 397.439C403.268 399.061 403.435 400.713 403.43 402.369C403.605 404.018 403.605 405.681 403.43 407.329Z" fill="#F5F5F5"/>
<path d="M405.82 407.45C405.394 405.838 405.143 404.185 405.07 402.52C404.821 400.865 404.744 399.19 404.84 397.52C405.26 399.129 405.511 400.778 405.59 402.44C405.839 404.097 405.916 405.776 405.82 407.45Z" fill="#F5F5F5"/>
<path d="M384.81 402.34C389.07 402.63 392.32 402.84 395.72 402.92L384.81 402.34Z" fill="white"/>
<path d="M395.72 402.92C393.901 403.091 392.069 403.091 390.25 402.92C388.423 402.909 386.602 402.725 384.81 402.37C386.629 402.193 388.461 402.193 390.28 402.37C392.106 402.384 393.928 402.568 395.72 402.92Z" fill="#F5F5F5"/>
<path d="M372.41 427.13L371.68 416.1L410.52 417.33L412.14 427.12L372.41 427.13Z" fill="#E0E0E0"/>
<path d="M373.95 425.739L411.74 425.199L410.69 418.339L373.24 417.649L373.95 425.739Z" fill="#FAFAFA"/>
<path d="M373.47 416.319L373.11 405.279L411.88 407.809L413.17 417.639L373.47 416.319Z" fill="#EBEBEB"/>
<path d="M381.689 410.107L381.56 412.093L405.808 413.669L405.938 411.684L381.689 410.107Z" fill="#E0E0E0"/>
<path d="M411.08 421.16C410.588 421.249 410.089 421.286 409.59 421.27L405.59 421.37C402.17 421.43 397.46 421.48 392.25 421.5C387.04 421.52 382.33 421.5 378.91 421.5L374.91 421.44C374.411 421.455 373.912 421.421 373.42 421.34C373.909 421.258 374.404 421.221 374.9 421.23L378.95 421.13C382.36 421.07 387.08 421.03 392.29 421.01C397.5 420.99 402.22 421.01 405.63 421.01L409.63 421.08C410.115 421.065 410.6 421.092 411.08 421.16Z" fill="#E0E0E0"/>
<path d="M411.52 423.3C411.024 423.38 410.522 423.411 410.02 423.39H405.95C402.51 423.39 397.76 423.39 392.52 423.28C387.28 423.17 382.52 423.12 379.09 423.02L375 422.9C374.501 422.91 374.001 422.869 373.51 422.78C374.003 422.707 374.502 422.68 375 422.7H379.07C382.51 422.7 387.26 422.7 392.51 422.81C397.76 422.92 402.51 422.98 405.94 423.07L410.01 423.21C410.515 423.201 411.02 423.232 411.52 423.3Z" fill="#E0E0E0"/>
<path d="M84.5099 353.429C79.6499 354.209 77.5099 360.179 77.9099 365.089C78.3099 369.999 80.3499 374.779 79.8099 379.669C79.1199 385.889 74.4299 391.139 73.8799 397.359C73.2399 404.699 78.4299 411.219 79.9799 418.419C80.7299 421.929 80.6299 425.639 81.9799 428.979C83.0967 431.817 85.1617 434.181 87.8239 435.668C90.4861 437.156 93.5813 437.676 96.5834 437.14C99.5856 436.604 102.31 435.045 104.292 432.727C106.275 430.41 107.394 427.478 107.46 424.429C107.57 418.789 104.09 413.479 104.46 407.849C104.78 403.699 107.21 399.759 106.69 395.629C106.07 390.709 101.51 387.209 99.8999 382.519C98.2899 377.829 99.8399 372.659 99.2799 367.729C98.2799 358.889 93.3799 352.729 84.5099 353.429Z" fill="#F5F5F5"/>
<path d="M59.7 396.25C58.87 404.44 62.5 414.08 66.7 421.16C70.9696 428.278 77.3926 433.853 85.04 437.08C85.9 437.44 86.97 437.74 87.69 437.15C87.9453 436.868 88.1372 436.535 88.2528 436.173C88.3683 435.81 88.4049 435.428 88.36 435.05C88.4176 426.353 85.655 417.871 80.4862 410.876C75.3174 403.881 68.0208 398.749 59.69 396.25" fill="#EBEBEB"/>
<path d="M95.3899 454.21C95.2974 454.065 95.2204 453.91 95.1599 453.75C95.0099 453.4 94.8099 452.96 94.5799 452.41C94.0799 451.24 93.3499 449.56 92.4099 447.49C89.9691 442.103 87.2522 436.846 84.2699 431.74C81.2804 426.637 78.0329 421.691 74.5399 416.92C73.1999 415.09 72.0999 413.62 71.3199 412.62L70.4399 411.45C70.328 411.317 70.2308 411.173 70.1499 411.02C70.2839 411.128 70.4047 411.253 70.5099 411.39L71.4599 412.5C72.2799 413.5 73.4599 414.91 74.8099 416.72C78.39 421.45 81.6858 426.388 84.6799 431.51C87.6587 436.629 90.3301 441.922 92.6799 447.36C93.5799 449.44 94.2699 451.15 94.6799 452.36C94.8899 452.92 95.0499 453.36 95.1899 453.74C95.2804 453.885 95.3479 454.043 95.3899 454.21Z" fill="#E0E0E0"/>
<path d="M90.12 376.1C90.12 376.1 90.1199 376.37 90.2099 376.89C90.2999 377.41 90.3 378.19 90.37 379.14C90.5 381.14 90.68 383.97 90.9 387.44C91.35 394.44 91.97 404.14 92.72 414.83C93.47 425.52 94.22 435.2 94.72 442.21C94.98 445.68 95.1999 448.5 95.3499 450.5C95.4199 451.45 95.47 452.2 95.51 452.76C95.5342 453.022 95.5342 453.287 95.51 453.55C95.4455 453.294 95.4053 453.033 95.39 452.77L95.15 450.52C94.96 448.52 94.7 445.7 94.37 442.23C93.74 435.23 92.9499 425.56 92.1999 414.86C91.4499 404.16 90.8699 394.48 90.5199 387.46C90.3499 383.99 90.2199 381.16 90.1299 379.15C90.1299 378.2 90.07 377.45 90.05 376.89C90.049 376.625 90.0724 376.36 90.12 376.1Z" fill="#E0E0E0"/>
<path d="M82.58 442.529H103.1V457.589C103.1 460.202 102.062 462.707 100.215 464.554C98.3677 466.402 95.8623 467.439 93.25 467.439C90.7286 467.44 88.3028 466.475 86.4722 464.741C84.6416 463.007 83.5456 460.637 83.41 458.119L82.58 442.529Z" fill="#E0E0E0"/>
<path d="M380.87 85.5898L375.45 135.87H444.88L450.64 85.5898H380.87Z" fill="#EBEBEB"/>
<path d="M383.73 89.1992L378.46 133.199H441.12L446.19 89.1992H383.73Z" fill="#FAFAFA"/>
<path d="M394.27 96.5996L391.03 125.8H430.57L432.6 96.5996H394.27Z" fill="#E0E0E0"/>
<path d="M448.16 107.239L462.5 136.079L444.88 135.869L448.38 105.359" fill="#F5F5F5"/>
<path d="M462.74 141.859H456.49V157.499H462.74V141.859Z" fill="#E0E0E0"/>
<path d="M371.27 141.859H365.02V157.499H371.27V141.859Z" fill="#E0E0E0"/>
<path d="M474.18 136.18H352.18V142.78H474.18V136.18Z" fill="#E0E0E0"/>
<path d="M455.06 465.51C455.06 465.65 363.24 465.77 250.06 465.77C136.88 465.77 44.99 465.65 44.99 465.51C44.99 465.37 136.79 465.25 250.06 465.25C363.33 465.25 455.06 465.36 455.06 465.51Z" fill="#263238"/>
<path d="M338.69 320.71C321.44 308.71 317.52 286.29 318.21 266.18C318.32 262.83 317.95 259.29 319.55 256.34C321.15 253.39 324.87 251.39 327.87 252.8C330.37 253.97 331.45 256.87 332.87 259.27C334.732 262.468 337.461 265.075 340.74 266.79C342.88 267.9 345.52 268.58 347.63 267.41C350.53 265.82 350.87 261.82 350.85 258.48L350.73 239.81C350.73 236.48 350.73 233.07 351.73 229.9C352.73 226.73 355.06 223.79 358.23 222.9C361.4 222.01 365.34 223.84 366.01 227.11C366.135 228.49 366.165 229.876 366.1 231.26C366.2 232.65 366.84 234.18 368.16 234.57C369.48 234.96 370.83 234.01 371.82 233.04C375.27 229.67 377.61 225.32 379.82 221.04C382.03 216.76 384.13 212.3 387.25 208.62C390.37 204.94 394.7 202.03 399.48 201.76C404.26 201.49 409.36 204.44 410.57 209.13C411.78 213.82 409 218.59 406 222.39C401.566 228.042 396.339 233.024 390.48 237.18C389.343 237.823 388.44 238.811 387.9 240C387.17 242.23 389.28 244.44 391.48 245.17C393.97 246 396.67 245.74 399.27 246.05C401.87 246.36 404.69 247.5 405.68 249.96C407.04 253.37 404.19 256.96 401.38 259.29C395.756 263.984 389.366 267.674 382.49 270.2C380.03 271.1 377.49 271.88 375.49 273.61C373.49 275.34 372.31 278.33 373.49 280.69C374.67 283.05 377.76 283.79 380.33 283.31C382.9 282.83 385.21 281.44 387.66 280.52C392.24 278.79 398.17 279.1 401.11 283.07C403.04 285.67 403.21 289.3 402.23 292.41C401.107 295.469 399.387 298.273 397.17 300.66C389.9 309.394 380.441 316.04 369.76 319.92C359.12 323.61 349.26 324.61 338.69 320.74" fill="#349997"/>
<path d="M405.7 204.53C405.601 204.641 405.494 204.745 405.38 204.84L404.38 205.73C403.51 206.5 402.22 207.64 400.6 209.15C396.014 213.414 391.752 218.013 387.85 222.91C385.36 226.01 382.78 229.51 380.08 233.32C377.38 237.13 374.53 241.24 371.69 245.66C368.681 250.257 365.93 255.018 363.45 259.92C362.16 262.47 361.02 265.14 359.84 267.87C358.66 270.6 357.5 273.35 356.3 276.14C351.742 286.621 347.773 297.348 344.41 308.27C341.699 317.206 339.834 326.376 338.84 335.66C338.195 341.923 338.091 348.23 338.53 354.51C338.71 356.73 338.88 358.46 339.03 359.62C339.1 360.18 339.15 360.62 339.19 360.95C339.203 361.103 339.203 361.257 339.19 361.41C339.146 361.263 339.113 361.112 339.09 360.96C339.04 360.63 338.97 360.2 338.88 359.64C338.68 358.48 338.47 356.76 338.26 354.53C337.73 348.236 337.77 341.907 338.38 335.62C339.316 326.294 341.145 317.078 343.84 308.1C347.177 297.148 351.14 286.397 355.71 275.9L359.26 267.62C360.43 264.9 361.59 262.21 362.88 259.62C365.383 254.702 368.154 249.925 371.18 245.31C374.04 240.89 376.92 236.8 379.63 232.99C382.34 229.18 384.97 225.69 387.48 222.61C391.436 217.737 395.773 213.187 400.45 209C402.09 207.52 403.45 206.4 404.31 205.66L405.31 204.82C405.43 204.711 405.561 204.614 405.7 204.53Z" fill="#263238"/>
<path d="M363.1 259.62C362.937 259.161 362.826 258.684 362.77 258.2C362.6 257.28 362.39 255.93 362.15 254.27C361.68 250.95 361.15 246.34 360.66 241.27C360.17 236.2 359.57 231.59 359.05 228.27C358.8 226.62 358.58 225.27 358.41 224.36C358.296 223.885 358.233 223.399 358.22 222.91C358.417 223.358 358.558 223.828 358.64 224.31C358.88 225.22 359.17 226.54 359.48 228.19C360.11 231.5 360.74 236.1 361.27 241.19C361.8 246.28 362.27 250.76 362.58 254.19C362.75 255.75 362.89 257.07 363.01 258.13C363.096 258.622 363.126 259.122 363.1 259.62Z" fill="#263238"/>
<path d="M406 251.6C405.435 251.725 404.859 251.795 404.28 251.81C403.18 251.91 401.59 252.04 399.63 252.27C395.69 252.69 390.28 253.47 384.35 254.58C378.42 255.69 373.12 257 369.3 258C367.38 258.49 365.84 258.93 364.77 259.23C364.229 259.423 363.669 259.56 363.1 259.64C363.614 259.383 364.15 259.168 364.7 259C365.75 258.63 367.27 258.12 369.18 257.57C372.99 256.45 378.31 255.13 384.26 253.99C389.333 253.014 394.453 252.3 399.6 251.85C401.6 251.68 403.18 251.61 404.29 251.59C404.859 251.544 405.431 251.547 406 251.6Z" fill="#263238"/>
<path d="M344.4 307.31C344.278 307.152 344.18 306.977 344.11 306.79L343.38 305.24C342.74 303.89 341.88 301.91 340.85 299.45C338.78 294.53 336.13 287.65 333.31 280.02C330.49 272.39 327.92 265.49 325.95 260.53C324.95 258.13 324.19 256.15 323.61 254.67C323.35 254.03 323.15 253.51 322.98 253.08C322.892 252.897 322.831 252.701 322.8 252.5C322.923 252.661 323.021 252.84 323.09 253.03C323.29 253.44 323.53 253.96 323.82 254.58C324.46 255.93 325.32 257.91 326.35 260.37C328.42 265.28 331.07 272.16 333.89 279.8C336.71 287.44 339.28 294.33 341.25 299.28L343.59 305.14C343.85 305.78 344.05 306.31 344.22 306.74C344.306 306.921 344.367 307.113 344.4 307.31Z" fill="#263238"/>
<path d="M401.43 288.931C401.254 289.034 401.066 289.115 400.87 289.171L399.21 289.721L393.11 291.721C387.95 293.391 380.85 295.791 373.02 298.441C365.19 301.091 358.02 303.441 352.86 304.991C350.26 305.771 348.16 306.381 346.69 306.781L345 307.221C344.62 307.321 344.41 307.361 344.4 307.331C344.579 307.23 344.771 307.153 344.97 307.101L346.63 306.551L352.73 304.551C357.89 302.881 364.98 300.481 372.82 297.831C380.66 295.181 387.82 292.831 392.98 291.281C395.57 290.501 397.68 289.881 399.14 289.491L400.83 289.051C401.024 288.984 401.226 288.944 401.43 288.931Z" fill="#263238"/>
<path d="M352.43 316.571C354.177 316.569 355.893 316.106 357.403 315.228C358.913 314.35 360.164 313.088 361.03 311.571C361.869 310.04 362.394 308.357 362.574 306.621C362.754 304.885 362.586 303.131 362.08 301.461C361.64 299.911 360.84 298.301 359.36 297.661C358.65 297.404 357.884 297.342 357.142 297.48C356.4 297.619 355.709 297.954 355.14 298.451C354.014 299.459 353.172 300.745 352.7 302.181C350.87 307.021 350 312.021 352.43 316.581" fill="#455A64"/>
<path d="M350.57 325.86C354.253 325.73 357.914 326.479 361.251 328.044C364.588 329.609 367.505 331.945 369.76 334.86C370.89 336.35 371.85 338.4 370.9 340.01C369.95 341.62 367.67 341.78 365.83 341.46C361.986 340.741 358.441 338.898 355.645 336.163C352.848 333.429 350.926 329.927 350.12 326.1" fill="#455A64"/>
<path d="M395.34 312.921C394.403 311.671 393.223 310.623 391.87 309.841C390.518 309.059 389.021 308.559 387.47 308.371C384.36 308.013 381.21 308.372 378.26 309.421C372.52 311.271 367.26 315.811 363.26 320.361C368.58 324.431 376.34 324.041 380.26 323.601C386.46 322.901 397.26 317.871 395.26 312.921" fill="#455A64"/>
<path d="M337 326.391C337.983 326.156 338.952 325.862 339.9 325.511C343.405 324.01 346.692 322.042 349.67 319.661C352.669 317.231 354.953 314.035 356.28 310.411C356.657 309.307 356.899 308.162 357 307.001C357.066 306.577 357.066 306.145 357 305.721C356.732 307.251 356.348 308.759 355.85 310.231C354.429 313.703 352.16 316.763 349.25 319.131C346.305 321.462 343.104 323.452 339.71 325.061" fill="#263238"/>
<path d="M336.87 326.41L342.42 325.18C347.11 324.13 353.59 322.7 360.76 321.18C367.93 319.66 374.45 318.44 379.17 317.54L384.76 316.46C385.44 316.362 386.109 316.201 386.76 315.98C386.062 316.002 385.367 316.076 384.68 316.2C383.35 316.38 381.43 316.68 379.06 317.07C374.31 317.85 367.78 319.07 360.6 320.52C353.42 321.97 346.94 323.52 342.28 324.68C339.95 325.26 338.07 325.75 336.77 326.11" fill="#263238"/>
<path d="M364 335.221C363.828 334.856 363.602 334.518 363.33 334.221C363.059 333.831 362.758 333.464 362.43 333.121C362.017 332.642 361.576 332.188 361.11 331.761C359.915 330.631 358.608 329.626 357.21 328.761C355.491 327.712 353.664 326.854 351.76 326.201C349.84 325.579 347.858 325.163 345.85 324.961C344.213 324.809 342.564 324.826 340.93 325.011C340.301 325.067 339.676 325.163 339.06 325.301C338.592 325.376 338.131 325.486 337.68 325.631C336.93 325.851 336.78 326.131 336.79 326.171C338.17 325.868 339.566 325.637 340.97 325.481C342.576 325.373 344.189 325.406 345.79 325.581C349.713 326.009 353.498 327.275 356.89 329.291C358.272 330.115 359.577 331.063 360.79 332.121C362.87 333.911 363.91 335.301 364 335.221Z" fill="#263238"/>
<path d="M318.26 381.39L206.73 380.87C203.54 380.855 200.384 380.213 197.443 378.979C194.502 377.745 191.832 375.943 189.587 373.678C187.341 371.412 185.564 368.726 184.357 365.773C183.15 362.821 182.536 359.66 182.55 356.47L183.73 76.8797C183.744 73.6886 184.387 70.5315 185.622 67.5888C186.856 64.6461 188.658 61.9754 190.925 59.7292C193.192 57.4829 195.879 55.7051 198.832 54.4973C201.786 53.2894 204.949 52.6752 208.14 52.6897L319.66 53.2097C326.1 53.2388 332.266 55.8245 336.8 60.3983C341.334 64.972 343.867 71.1593 343.84 77.5997L342.66 357.19C342.648 360.381 342.008 363.539 340.775 366.483C339.542 369.427 337.741 372.099 335.475 374.346C333.209 376.594 330.522 378.372 327.568 379.581C324.615 380.79 321.452 381.404 318.26 381.39Z" fill="#263238"/>
<path d="M319.5 62.8597L297.88 62.7596C297.175 62.7714 296.48 62.922 295.833 63.2028C295.187 63.4837 294.602 63.8894 294.113 64.3965C293.623 64.9037 293.238 65.5024 292.981 66.1584C292.723 66.8145 292.597 67.5149 292.61 68.2197V72.1397C292.623 72.8449 292.498 73.5458 292.24 74.2024C291.982 74.859 291.598 75.4584 291.108 75.9664C290.619 76.4743 290.034 76.8809 289.388 77.1629C288.741 77.4448 288.045 77.5966 287.34 77.6097L245.19 77.4097C243.767 77.3704 242.417 76.7683 241.436 75.7355C240.456 74.7026 239.925 73.3233 239.96 71.8997L240 67.9997C240.035 66.576 239.504 65.1967 238.524 64.1638C237.543 63.131 236.194 62.5289 234.77 62.4897H227.17L208.24 62.3997C206 62.3878 203.78 62.8188 201.707 63.6678C199.634 64.5168 197.749 65.7671 196.161 67.3469C194.573 68.9267 193.313 70.8048 192.453 72.8732C191.593 74.9416 191.15 77.1596 191.15 79.3997L190 352.19C189.99 354.423 190.419 356.636 191.264 358.704C192.11 360.771 193.354 362.651 194.926 364.237C196.498 365.824 198.368 367.084 200.427 367.948C202.487 368.811 204.697 369.26 206.93 369.27L318.23 369.79C320.47 369.802 322.69 369.371 324.763 368.522C326.836 367.673 328.721 366.422 330.309 364.842C331.897 363.263 333.158 361.385 334.017 359.316C334.877 357.248 335.32 355.03 335.32 352.79L336.48 79.8897C336.484 77.6563 336.048 75.4441 335.197 73.3794C334.345 71.3147 333.095 69.438 331.519 67.8565C329.942 66.275 328.069 65.0197 326.006 64.1623C323.944 63.3049 321.733 62.8623 319.5 62.8597Z" fill="#FAFAFA"/>
<path d="M279.78 95.2393H251.07V100.509H279.78V95.2393Z" fill="#455A64"/>
<path d="M217.18 139.63C217.409 139.635 217.637 139.666 217.86 139.72C218.066 139.665 218.277 139.635 218.49 139.63H217.18Z" fill="#455A64"/>
<path d="M225.05 125.169C224.523 124.441 223.881 123.802 223.15 123.279C221.618 122.149 219.764 121.539 217.86 121.539C215.956 121.539 214.102 122.149 212.57 123.279C211.836 123.802 211.191 124.441 210.66 125.169C210.137 125.854 209.725 126.616 209.44 127.429C208.918 128.84 208.759 130.359 208.975 131.847C209.192 133.336 209.778 134.746 210.68 135.949C210.79 136.099 210.91 136.229 211.02 136.359C211.391 135.165 212.101 134.104 213.063 133.306C214.025 132.507 215.198 132.004 216.44 131.859C215.664 131.52 215.004 130.96 214.544 130.249C214.083 129.538 213.842 128.707 213.85 127.859C213.811 127.302 213.887 126.743 214.073 126.217C214.26 125.69 214.552 125.208 214.933 124.799C215.314 124.39 215.775 124.065 216.287 123.842C216.799 123.619 217.352 123.504 217.91 123.504C218.469 123.504 219.021 123.619 219.533 123.842C220.045 124.065 220.506 124.39 220.887 124.799C221.268 125.208 221.561 125.69 221.747 126.217C221.933 126.743 222.009 127.302 221.97 127.859C221.978 128.705 221.738 129.535 221.279 130.246C220.821 130.957 220.164 131.518 219.39 131.859C220.618 132.007 221.776 132.511 222.721 133.309C223.667 134.107 224.358 135.164 224.71 136.349L225.04 135.949C225.942 134.746 226.528 133.336 226.745 131.847C226.962 130.359 226.802 128.84 226.28 127.429C225.988 126.618 225.573 125.856 225.05 125.169Z" fill="#FAFAFA"/>
<path d="M226.78 127.25C226.484 126.384 226.052 125.57 225.5 124.84C224.943 124.072 224.268 123.397 223.5 122.84C221.872 121.632 219.898 120.979 217.87 120.979C215.842 120.979 213.869 121.632 212.24 122.84C211.469 123.393 210.794 124.069 210.24 124.84C209.689 125.572 209.254 126.385 208.95 127.25C208.381 128.853 208.25 130.579 208.57 132.25C208.846 133.707 209.462 135.077 210.37 136.25C211.672 137.939 213.521 139.123 215.6 139.6C216.154 139.732 216.721 139.799 217.29 139.8C217.486 139.826 217.684 139.826 217.88 139.8C217.657 139.745 217.429 139.715 217.2 139.71H218.51C218.297 139.715 218.086 139.745 217.88 139.8C218.076 139.826 218.274 139.826 218.47 139.8C219.039 139.799 219.607 139.732 220.16 139.6C222.236 139.122 224.081 137.938 225.38 136.25C226.295 135.08 226.916 133.709 227.19 132.25C227.505 130.576 227.364 128.849 226.78 127.25ZM226.69 132.15C226.439 133.548 225.859 134.868 225 136L224.67 136.4C224.318 135.214 223.627 134.157 222.681 133.359C221.736 132.561 220.578 132.058 219.35 131.91C220.124 131.568 220.781 131.007 221.239 130.296C221.698 129.585 221.938 128.756 221.93 127.91C221.969 127.353 221.893 126.793 221.707 126.267C221.521 125.74 221.228 125.258 220.847 124.849C220.466 124.441 220.005 124.115 219.493 123.892C218.981 123.669 218.429 123.555 217.87 123.555C217.312 123.555 216.759 123.669 216.247 123.892C215.735 124.115 215.274 124.441 214.893 124.849C214.512 125.258 214.22 125.74 214.033 126.267C213.847 126.793 213.771 127.353 213.81 127.91C213.802 128.757 214.043 129.588 214.504 130.299C214.964 131.01 215.624 131.57 216.4 131.91C215.158 132.055 213.985 132.557 213.023 133.356C212.061 134.155 211.351 135.215 210.98 136.41C210.87 136.28 210.75 136.15 210.64 136C209.738 134.796 209.152 133.386 208.935 131.898C208.719 130.409 208.878 128.89 209.4 127.48C209.685 126.667 210.097 125.904 210.62 125.22C211.151 124.491 211.796 123.853 212.53 123.33C214.062 122.199 215.916 121.589 217.82 121.589C219.724 121.589 221.578 122.199 223.11 123.33C223.841 123.853 224.483 124.491 225.01 125.22C225.533 125.906 225.948 126.668 226.24 127.48C226.8 128.969 226.956 130.581 226.69 132.15Z" fill="#455A64"/>
<path d="M325.9 148.05C325.9 148.05 326.19 148.05 326.73 147.94C327.531 147.775 328.27 147.386 328.86 146.82C329.334 146.362 329.7 145.803 329.932 145.186C330.164 144.569 330.255 143.907 330.2 143.25C330.2 141.66 330.2 139.83 330.2 137.78C330.2 133.66 330.2 128.63 330.15 122.78C330.15 121.32 330.15 119.78 330.15 118.24C330.191 117.464 330.017 116.692 329.649 116.007C329.28 115.323 328.731 114.753 328.06 114.36C326.68 113.49 324.88 113.87 323.15 113.79H317.77L202.77 113.87C202.115 113.873 201.469 114.031 200.887 114.332C200.304 114.632 199.802 115.067 199.42 115.6C199.04 116.133 198.796 116.751 198.71 117.4C198.659 118.065 198.642 118.733 198.66 119.4V143.79C198.689 144.408 198.857 145.011 199.151 145.554C199.446 146.098 199.859 146.568 200.36 146.93C200.855 147.292 201.426 147.535 202.03 147.64C202.661 147.714 203.296 147.738 203.93 147.71H226.59L278.28 147.77L313.12 147.86L322.6 147.91H325.06C325.62 147.91 325.9 147.91 325.9 147.91H325.06H322.6L313.12 147.97L278.28 148.06L226.59 148.12H203.93C203.262 148.143 202.594 148.116 201.93 148.04C200.888 147.853 199.941 147.318 199.244 146.522C198.546 145.726 198.139 144.717 198.09 143.66C198.09 138.36 198.09 132.973 198.09 127.5V119.24C198.09 118.54 198.09 117.87 198.09 117.12C198.199 116.399 198.476 115.714 198.9 115.12C199.332 114.505 199.905 114.002 200.572 113.654C201.238 113.306 201.978 113.123 202.73 113.12L317.73 113.2H325.73C326.608 113.167 327.476 113.389 328.23 113.84C328.953 114.268 329.545 114.886 329.941 115.626C330.338 116.366 330.524 117.201 330.48 118.04C330.48 119.6 330.48 121.12 330.48 122.58C330.48 128.42 330.48 133.45 330.43 137.58C330.43 139.63 330.43 141.46 330.43 143.05C330.476 143.729 330.37 144.409 330.121 145.042C329.872 145.675 329.486 146.244 328.99 146.71C328.376 147.277 327.613 147.655 326.79 147.8C326.507 147.927 326.207 148.011 325.9 148.05Z" fill="#455A64"/>
<path d="M268.16 122.56H235.68V125H268.16V122.56Z" fill="#455A64"/>
<path d="M292.58 136.319H235.68V138.759H292.58V136.319Z" fill="#455A64"/>
<path d="M318.14 129.27H235.68V131.71H318.14V129.27Z" fill="#455A64"/>
<path d="M217.18 225.79C217.62 225.85 217.86 225.85 217.86 225.89C218.066 225.836 218.277 225.805 218.49 225.8L217.18 225.79Z" fill="#455A64"/>
<path d="M225.05 211.339C224.526 210.608 223.884 209.97 223.15 209.449C221.618 208.319 219.764 207.709 217.86 207.709C215.956 207.709 214.102 208.319 212.57 209.449C211.138 210.491 210.048 211.936 209.44 213.599C208.918 215.01 208.759 216.529 208.975 218.017C209.192 219.506 209.778 220.916 210.68 222.119L211.02 222.529C211.388 221.333 212.096 220.27 213.059 219.471C214.022 218.672 215.197 218.171 216.44 218.029C215.664 217.69 215.004 217.13 214.544 216.419C214.083 215.708 213.842 214.877 213.85 214.029C213.811 213.472 213.887 212.913 214.073 212.386C214.26 211.86 214.552 211.377 214.933 210.969C215.314 210.56 215.775 210.235 216.287 210.012C216.799 209.789 217.352 209.674 217.91 209.674C218.469 209.674 219.021 209.789 219.533 210.012C220.045 210.235 220.506 210.56 220.887 210.969C221.268 211.377 221.561 211.86 221.747 212.386C221.933 212.913 222.009 213.472 221.97 214.029C221.976 214.875 221.736 215.704 221.277 216.415C220.819 217.125 220.163 217.686 219.39 218.029C220.617 218.175 221.775 218.677 222.72 219.473C223.666 220.269 224.358 221.325 224.71 222.509L225.04 222.119C225.942 220.916 226.528 219.506 226.745 218.017C226.962 216.529 226.802 215.01 226.28 213.599C225.988 212.788 225.573 212.025 225.05 211.339Z" fill="#FAFAFA"/>
<path d="M226.78 213.42C226.487 212.549 226.055 211.732 225.5 211C224.943 210.232 224.268 209.557 223.5 209C221.872 207.792 219.898 207.14 217.87 207.14C215.842 207.14 213.869 207.792 212.24 209C210.73 210.122 209.583 211.662 208.94 213.43C208.369 215.033 208.238 216.759 208.56 218.43C208.835 219.887 209.452 221.258 210.36 222.43C211.666 224.113 213.514 225.293 215.59 225.77C216.143 225.91 216.71 225.98 217.28 225.98C217.476 226.006 217.674 226.006 217.87 225.98C217.87 225.98 217.63 225.98 217.19 225.88H218.5C218.287 225.885 218.076 225.915 217.87 225.97C218.066 225.996 218.264 225.996 218.46 225.97C219.03 225.97 219.598 225.9 220.15 225.76C222.224 225.283 224.068 224.103 225.37 222.42C226.283 221.25 226.904 219.878 227.18 218.42C227.501 216.748 227.362 215.02 226.78 213.42ZM226.69 218.32C226.443 219.698 225.878 220.999 225.04 222.12L224.71 222.51C224.358 221.325 223.666 220.27 222.721 219.474C221.775 218.678 220.617 218.176 219.39 218.03C220.163 217.687 220.819 217.126 221.277 216.415C221.736 215.704 221.976 214.875 221.97 214.03C222.009 213.473 221.933 212.913 221.747 212.387C221.561 211.86 221.268 211.378 220.887 210.969C220.506 210.561 220.045 210.235 219.533 210.012C219.021 209.79 218.469 209.675 217.91 209.675C217.352 209.675 216.799 209.79 216.287 210.012C215.775 210.235 215.314 210.561 214.933 210.969C214.552 211.378 214.26 211.86 214.073 212.387C213.887 212.913 213.811 213.473 213.85 214.03C213.842 214.877 214.083 215.708 214.544 216.419C215.004 217.13 215.664 217.691 216.44 218.03C215.197 218.171 214.022 218.672 213.059 219.472C212.096 220.271 211.388 221.334 211.02 222.53L210.68 222.12C209.778 220.916 209.192 219.506 208.975 218.018C208.759 216.529 208.918 215.01 209.44 213.6C210.048 211.936 211.138 210.492 212.57 209.45C214.102 208.319 215.956 207.709 217.86 207.709C219.764 207.709 221.618 208.319 223.15 209.45C223.884 209.97 224.526 210.609 225.05 211.34C225.573 212.026 225.988 212.788 226.28 213.6C226.836 215.108 226.977 216.738 226.69 218.32Z" fill="#455A64"/>
<path d="M325.9 234.22C325.9 234.22 326.19 234.22 326.73 234.11C327.531 233.945 328.27 233.556 328.86 232.99C329.335 232.53 329.702 231.971 329.934 231.351C330.166 230.732 330.257 230.069 330.2 229.41C330.2 227.83 330.2 226 330.2 223.94C330.2 219.83 330.2 214.79 330.15 208.94C330.15 207.48 330.15 205.94 330.15 204.41C330.19 203.633 330.017 202.859 329.648 202.173C329.28 201.487 328.731 200.916 328.06 200.52C326.68 199.65 324.88 200.03 323.15 199.95H317.77L202.77 200.04C202.114 200.04 201.468 200.197 200.885 200.498C200.302 200.799 199.8 201.235 199.42 201.77C199.039 202.299 198.795 202.914 198.71 203.56C198.659 204.226 198.643 204.893 198.66 205.56V230C198.69 230.617 198.859 231.22 199.153 231.763C199.447 232.307 199.86 232.777 200.36 233.14C200.855 233.502 201.426 233.745 202.03 233.85C202.661 233.92 203.296 233.943 203.93 233.92H226.59L278.28 233.98L313.12 234.08H322.6L313.12 234.13L278.28 234.23L226.59 234.29H203.93C203.263 234.316 202.594 234.293 201.93 234.22C200.915 234.038 199.99 233.525 199.297 232.762C198.604 231.999 198.183 231.028 198.1 230C198.1 224.7 198.1 219.313 198.1 213.84V205.58C198.1 204.88 198.1 204.22 198.1 203.46C198.201 202.722 198.479 202.018 198.91 201.41C199.343 200.796 199.917 200.294 200.583 199.946C201.249 199.598 201.989 199.415 202.74 199.41L317.74 199.49H325.74C326.378 199.465 327.014 199.574 327.608 199.81C328.201 200.046 328.739 200.403 329.186 200.859C329.634 201.314 329.981 201.859 330.205 202.457C330.43 203.054 330.527 203.693 330.49 204.33C330.49 205.89 330.49 207.4 330.49 208.86C330.49 214.7 330.49 219.74 330.44 223.86C330.44 225.92 330.44 227.75 330.44 229.33C330.486 230.009 330.381 230.689 330.132 231.322C329.883 231.955 329.496 232.525 329 232.99C328.387 233.559 327.623 233.941 326.8 234.09C326.508 234.177 326.205 234.221 325.9 234.22Z" fill="#455A64"/>
<path d="M268.16 208.72H235.68V211.16H268.16V208.72Z" fill="#455A64"/>
<path d="M292.58 222.489H235.68V224.929H292.58V222.489Z" fill="#455A64"/>
<path d="M318.14 215.439H235.68V217.879H318.14V215.439Z" fill="#455A64"/>
<path d="M198.686 159.509L198.611 186.099C198.605 188.27 200.36 190.034 202.53 190.04L326.59 190.387C328.76 190.393 330.525 188.638 330.531 186.468L330.605 159.878C330.611 157.707 328.857 155.943 326.686 155.937L202.627 155.59C200.456 155.584 198.692 157.339 198.686 159.509Z" fill="#349997"/>
<path d="M268.489 164.728L236.009 164.638L236.002 167.078L268.482 167.168L268.489 164.728Z" fill="#FAFAFA"/>
<path d="M292.87 178.556L235.971 178.397L235.964 180.837L292.864 180.996L292.87 178.556Z" fill="#FAFAFA"/>
<path d="M318.45 171.589L235.99 171.358L235.983 173.798L318.443 174.029L318.45 171.589Z" fill="#FAFAFA"/>
<path d="M219.71 173.88C220.477 173.52 221.122 172.944 221.566 172.223C222.01 171.502 222.234 170.666 222.21 169.82C222.239 169.263 222.154 168.705 221.958 168.183C221.763 167.66 221.463 167.183 221.075 166.782C220.688 166.38 220.222 166.063 219.707 165.849C219.192 165.635 218.638 165.529 218.081 165.538C217.523 165.547 216.973 165.67 216.465 165.9C215.957 166.131 215.501 166.463 215.127 166.877C214.753 167.291 214.468 167.777 214.289 168.306C214.111 168.834 214.043 169.394 214.09 169.95C214.089 170.806 214.342 171.643 214.817 172.356C215.292 173.068 215.969 173.623 216.76 173.95C215.481 174.13 214.285 174.686 213.324 175.548C212.362 176.41 211.679 177.538 211.36 178.79C212.853 180.409 214.874 181.444 217.06 181.71H219.56C221.771 181.374 223.784 180.244 225.22 178.53C224.875 177.291 224.165 176.184 223.182 175.355C222.199 174.526 220.989 174.011 219.71 173.88Z" fill="#FAFAFA"/>
<path d="M218.35 181.77C218.35 181.7 219.17 181.77 220.57 181.33C221.786 180.987 222.916 180.394 223.89 179.589C224.863 178.785 225.658 177.785 226.223 176.656C226.787 175.526 227.11 174.291 227.17 173.029C227.23 171.768 227.025 170.508 226.57 169.33C226.265 168.522 225.837 167.766 225.3 167.09C224.752 166.371 224.094 165.743 223.35 165.23C221.784 164.136 219.912 163.569 218.003 163.611C216.093 163.652 214.247 164.3 212.73 165.46C212.009 166.004 211.378 166.659 210.86 167.4C210.352 168.098 209.954 168.87 209.68 169.69C209.275 170.887 209.124 172.155 209.235 173.413C209.346 174.672 209.717 175.894 210.326 177.002C210.934 178.109 211.766 179.078 212.769 179.848C213.771 180.617 214.923 181.169 216.15 181.47C217.57 181.81 218.4 181.74 218.39 181.81C217.628 181.887 216.857 181.84 216.11 181.67C214.03 181.233 212.165 180.092 210.83 178.44C209.905 177.298 209.261 175.956 208.95 174.52C208.593 172.858 208.69 171.131 209.23 169.52C209.83 167.743 210.94 166.181 212.42 165.03C214.018 163.793 215.971 163.102 217.99 163.059C220.01 163.016 221.991 163.622 223.64 164.79C224.426 165.342 225.119 166.017 225.69 166.79C226.255 167.509 226.704 168.312 227.02 169.17C227.634 170.761 227.803 172.489 227.51 174.17C227.207 175.937 226.4 177.58 225.187 178.902C223.974 180.223 222.406 181.167 220.67 181.62C219.911 181.8 219.126 181.851 218.35 181.77Z" fill="#FAFAFA"/>
<path d="M256.51 343.66C256.429 344.21 256.152 344.713 255.731 345.077C255.309 345.44 254.771 345.64 254.215 345.64C253.659 345.64 253.121 345.44 252.699 345.077C252.278 344.713 252.002 344.21 251.92 343.66C252.002 343.11 252.278 342.607 252.699 342.243C253.121 341.88 253.659 341.68 254.215 341.68C254.771 341.68 255.309 341.88 255.731 342.243C256.152 342.607 256.429 343.11 256.51 343.66Z" fill="#455A64"/>
<path d="M263.63 343.689C263.695 344.158 263.616 344.635 263.402 345.057C263.189 345.479 262.852 345.825 262.436 346.05C262.02 346.275 261.545 346.368 261.075 346.315C260.605 346.263 260.162 346.068 259.806 345.757C259.45 345.446 259.197 345.033 259.082 344.575C258.967 344.116 258.995 343.633 259.161 343.191C259.328 342.748 259.626 342.367 260.016 342.099C260.405 341.831 260.867 341.688 261.34 341.689C261.909 341.651 262.47 341.84 262.899 342.215C263.329 342.59 263.592 343.121 263.63 343.689Z" fill="#455A64"/>
<path d="M270.74 343.72C270.805 344.189 270.726 344.666 270.512 345.089C270.298 345.511 269.96 345.857 269.543 346.082C269.127 346.307 268.651 346.399 268.181 346.345C267.711 346.292 267.268 346.096 266.912 345.784C266.556 345.472 266.305 345.059 266.191 344.599C266.077 344.14 266.106 343.657 266.274 343.214C266.443 342.772 266.742 342.392 267.133 342.125C267.524 341.858 267.987 341.716 268.46 341.72C269.027 341.684 269.586 341.875 270.013 342.25C270.44 342.624 270.701 343.153 270.74 343.72Z" fill="#455A64"/>
<path d="M217.18 270.479C217.62 270.539 217.86 270.539 217.86 270.579C217.86 270.619 218.08 270.579 218.49 270.489L217.18 270.479Z" fill="#455A64"/>
<path d="M225.05 255.999C224.523 255.274 223.881 254.639 223.15 254.119C221.618 252.989 219.764 252.379 217.86 252.379C215.956 252.379 214.102 252.989 212.57 254.119C211.836 254.639 211.191 255.273 210.66 255.999C210.136 256.687 209.725 257.453 209.44 258.269C208.918 259.68 208.759 261.199 208.975 262.687C209.192 264.175 209.778 265.586 210.68 266.789C210.79 266.929 210.91 267.059 211.02 267.189C211.39 265.996 212.1 264.936 213.062 264.138C214.025 263.341 215.198 262.841 216.44 262.699C215.656 262.357 214.991 261.789 214.53 261.068C214.069 260.347 213.832 259.505 213.85 258.649C213.811 258.092 213.887 257.533 214.073 257.006C214.26 256.48 214.552 255.997 214.933 255.589C215.314 255.18 215.775 254.855 216.287 254.632C216.799 254.409 217.352 254.294 217.91 254.294C218.469 254.294 219.021 254.409 219.533 254.632C220.045 254.855 220.506 255.18 220.887 255.589C221.268 255.997 221.561 256.48 221.747 257.006C221.933 257.533 222.009 258.092 221.97 258.649C221.976 259.495 221.736 260.324 221.277 261.035C220.819 261.745 220.163 262.306 219.39 262.649C220.617 262.795 221.775 263.297 222.72 264.093C223.666 264.889 224.358 265.945 224.71 267.129L225.04 266.739C225.938 265.534 226.522 264.124 226.738 262.636C226.955 261.149 226.797 259.631 226.28 258.219C225.983 257.422 225.569 256.674 225.05 255.999Z" fill="#FAFAFA"/>
<path d="M226.78 258.109C226.484 257.24 226.052 256.423 225.5 255.689C224.941 254.923 224.267 254.248 223.5 253.689C221.872 252.481 219.898 251.829 217.87 251.829C215.842 251.829 213.869 252.481 212.24 253.689C210.725 254.806 209.576 256.348 208.94 258.119C208.369 259.722 208.238 261.449 208.56 263.119C208.837 264.576 209.454 265.946 210.36 267.119C211.666 268.803 213.514 269.983 215.59 270.459C216.144 270.589 216.711 270.66 217.28 270.669C217.476 270.695 217.674 270.695 217.87 270.669C217.87 270.669 217.63 270.669 217.19 270.569H218.5C218.09 270.619 217.87 270.619 217.87 270.659C218.066 270.685 218.264 270.685 218.46 270.659C219.029 270.65 219.596 270.579 220.15 270.449C222.224 269.972 224.068 268.792 225.37 267.109C226.283 265.939 226.904 264.568 227.18 263.109C227.501 261.437 227.362 259.709 226.78 258.109ZM226.69 262.999C226.447 264.381 225.881 265.686 225.04 266.809L224.71 267.199C224.358 266.015 223.666 264.959 222.721 264.163C221.775 263.367 220.617 262.865 219.39 262.719C220.163 262.376 220.819 261.815 221.277 261.105C221.736 260.394 221.976 259.565 221.97 258.719C222.009 258.162 221.933 257.603 221.747 257.076C221.561 256.55 221.268 256.067 220.887 255.659C220.506 255.25 220.045 254.925 219.533 254.702C219.021 254.479 218.469 254.364 217.91 254.364C217.352 254.364 216.799 254.479 216.287 254.702C215.775 254.925 215.314 255.25 214.933 255.659C214.552 256.067 214.26 256.55 214.073 257.076C213.887 257.603 213.811 258.162 213.85 258.719C213.832 259.575 214.069 260.417 214.53 261.138C214.991 261.859 215.656 262.427 216.44 262.769C215.198 262.911 214.025 263.411 213.062 264.208C212.1 265.006 211.39 266.066 211.02 267.259C210.91 267.129 210.79 266.999 210.68 266.859C209.778 265.656 209.192 264.246 208.975 262.757C208.759 261.269 208.918 259.75 209.44 258.339C209.725 257.523 210.136 256.757 210.66 256.069C211.191 255.344 211.836 254.709 212.57 254.189C214.102 253.059 215.956 252.449 217.86 252.449C219.764 252.449 221.618 253.059 223.15 254.189C223.881 254.709 224.523 255.344 225.05 256.069C225.573 256.759 225.988 257.524 226.28 258.339C226.825 259.829 226.967 261.437 226.69 262.999Z" fill="#455A64"/>
<path d="M325.9 278.909C325.9 278.909 326.19 278.909 326.73 278.799C327.531 278.634 328.27 278.245 328.86 277.679C329.335 277.22 329.702 276.66 329.934 276.04C330.166 275.421 330.257 274.758 330.2 274.099C330.2 272.509 330.2 270.689 330.2 268.629C330.2 264.509 330.2 259.479 330.15 253.629C330.15 252.169 330.15 250.629 330.15 249.099C330.19 248.322 330.017 247.548 329.648 246.862C329.28 246.176 328.731 245.605 328.06 245.209C326.68 244.339 324.88 244.719 323.15 244.639H317.77L202.77 244.729C202.114 244.727 201.466 244.883 200.883 245.184C200.3 245.485 199.798 245.923 199.42 246.459C199.037 246.987 198.793 247.602 198.71 248.249C198.659 248.915 198.643 249.582 198.66 250.249V274.699C198.689 275.318 198.857 275.923 199.151 276.468C199.445 277.013 199.859 277.485 200.36 277.849C200.855 278.211 201.426 278.454 202.03 278.559C202.661 278.624 203.296 278.647 203.93 278.629H226.59L278.28 278.689L313.12 278.789L322.6 278.839H325.06C325.62 278.839 325.9 278.839 325.9 278.839H325.06H322.6H313.12L278.28 278.929L226.59 278.999H203.93C203.262 279.027 202.593 279 201.93 278.919C201.239 278.807 200.585 278.533 200.02 278.119C199.448 277.708 198.976 277.172 198.642 276.552C198.308 275.932 198.119 275.243 198.09 274.539C198.09 269.206 198.09 263.819 198.09 258.379V250.119C198.09 249.419 198.09 248.759 198.09 247.999C198.191 247.261 198.469 246.557 198.9 245.949C199.335 245.337 199.909 244.837 200.575 244.49C201.241 244.142 201.979 243.957 202.73 243.949L317.73 244.039H325.73C326.607 244.016 327.473 244.237 328.23 244.679C328.953 245.11 329.544 245.729 329.941 246.471C330.337 247.213 330.524 248.049 330.48 248.889C330.48 250.449 330.48 251.959 330.48 253.419C330.48 259.259 330.48 264.289 330.43 268.419C330.43 270.479 330.43 272.299 330.43 273.889C330.476 274.568 330.371 275.248 330.122 275.881C329.873 276.514 329.486 277.084 328.99 277.549C328.377 278.118 327.613 278.5 326.79 278.649C326.508 278.779 326.208 278.867 325.9 278.909Z" fill="#455A64"/>
<path d="M268.16 253.41H235.68V255.85H268.16V253.41Z" fill="#455A64"/>
<path d="M292.58 267.18H235.68V269.62H292.58V267.18Z" fill="#455A64"/>
<path d="M318.14 260.13H235.68V262.57H318.14V260.13Z" fill="#455A64"/>
<path d="M217.18 314.279C217.62 314.329 217.86 314.339 217.86 314.379C217.86 314.419 218.08 314.329 218.49 314.289L217.18 314.279Z" fill="#455A64"/>
<path d="M225.05 299.82C224.52 299.093 223.879 298.456 223.15 297.93C221.612 296.813 219.761 296.211 217.86 296.211C215.959 296.211 214.108 296.813 212.57 297.93C211.838 298.455 211.193 299.093 210.66 299.82C210.136 300.507 209.725 301.273 209.44 302.09C208.918 303.5 208.759 305.019 208.975 306.508C209.192 307.996 209.778 309.406 210.68 310.61C210.79 310.75 210.91 310.88 211.02 311.01C211.39 309.816 212.1 308.756 213.062 307.959C214.025 307.162 215.198 306.662 216.44 306.52C215.664 306.179 215.006 305.619 214.545 304.908C214.085 304.197 213.843 303.367 213.85 302.52C213.811 301.963 213.887 301.403 214.073 300.877C214.26 300.35 214.552 299.868 214.933 299.459C215.314 299.051 215.775 298.725 216.287 298.502C216.799 298.28 217.352 298.165 217.91 298.165C218.469 298.165 219.021 298.28 219.533 298.502C220.045 298.725 220.506 299.051 220.887 299.459C221.268 299.868 221.561 300.35 221.747 300.877C221.933 301.403 222.009 301.963 221.97 302.52C221.976 303.365 221.736 304.194 221.277 304.905C220.819 305.616 220.163 306.177 219.39 306.52C220.618 306.664 221.776 307.166 222.722 307.962C223.667 308.758 224.359 309.815 224.71 311C224.82 310.87 224.93 310.75 225.04 310.6C225.883 309.482 226.449 308.179 226.69 306.8C226.976 305.221 226.834 303.595 226.28 302.09C225.988 301.275 225.573 300.509 225.05 299.82Z" fill="#FAFAFA"/>
<path d="M226.78 301.9C226.484 301.034 226.052 300.22 225.5 299.49C224.943 298.722 224.268 298.047 223.5 297.49C221.869 296.288 219.896 295.64 217.87 295.64C215.844 295.64 213.871 296.288 212.24 297.49C211.469 298.044 210.794 298.719 210.24 299.49C209.689 300.222 209.254 301.035 208.95 301.9C208.381 303.503 208.25 305.229 208.57 306.9C208.844 308.357 209.461 309.729 210.37 310.9C211.672 312.589 213.521 313.773 215.6 314.25C216.154 314.38 216.721 314.45 217.29 314.46C217.486 314.486 217.684 314.486 217.88 314.46C217.88 314.46 217.64 314.41 217.2 314.36H218.51C218.1 314.36 217.88 314.36 217.88 314.45C218.076 314.476 218.274 314.476 218.47 314.45C219.039 314.44 219.606 314.37 220.16 314.24C221.904 313.82 223.491 312.907 224.732 311.611C225.973 310.316 226.816 308.691 227.16 306.93C227.491 305.25 227.359 303.512 226.78 301.9ZM226.69 306.8C226.449 308.18 225.883 309.482 225.04 310.6C224.93 310.75 224.82 310.87 224.71 311C224.359 309.815 223.667 308.759 222.722 307.962C221.776 307.166 220.618 306.665 219.39 306.52C220.163 306.177 220.819 305.616 221.277 304.905C221.736 304.195 221.976 303.366 221.97 302.52C222.009 301.963 221.933 301.404 221.747 300.877C221.561 300.351 221.268 299.868 220.887 299.46C220.506 299.051 220.045 298.725 219.533 298.503C219.021 298.28 218.469 298.165 217.91 298.165C217.352 298.165 216.799 298.28 216.287 298.503C215.775 298.725 215.314 299.051 214.933 299.46C214.552 299.868 214.26 300.351 214.073 300.877C213.887 301.404 213.811 301.963 213.85 302.52C213.843 303.367 214.085 304.197 214.545 304.908C215.006 305.619 215.664 306.18 216.44 306.52C215.196 306.657 214.019 307.154 213.053 307.95C212.087 308.746 211.373 309.805 211 311C210.89 310.87 210.77 310.74 210.66 310.6C209.758 309.397 209.172 307.986 208.955 306.498C208.739 305.01 208.898 303.491 209.42 302.08C209.705 301.264 210.116 300.498 210.64 299.81C211.173 299.084 211.818 298.446 212.55 297.92C214.088 296.803 215.939 296.201 217.84 296.201C219.741 296.201 221.592 296.803 223.13 297.92C224.558 298.971 225.646 300.417 226.26 302.08C226.823 303.587 226.971 305.217 226.69 306.8Z" fill="#455A64"/>
<path d="M325.9 322.71C325.9 322.71 326.19 322.71 326.73 322.6C327.782 322.375 328.716 321.773 329.355 320.907C329.994 320.041 330.295 318.972 330.2 317.9C330.2 316.31 330.2 314.49 330.2 312.43C330.2 308.31 330.2 303.28 330.15 297.43C330.15 295.97 330.15 294.43 330.15 292.9C330.188 292.115 330.006 291.334 329.627 290.646C329.247 289.957 328.684 289.388 328 289C326.62 288.13 324.82 288.51 323.09 288.43H317.71L202.71 288.51C202.053 288.512 201.407 288.671 200.824 288.974C200.241 289.276 199.739 289.714 199.36 290.25C198.977 290.778 198.733 291.393 198.65 292.04C198.599 292.705 198.582 293.373 198.6 294.04V318.5C198.629 319.118 198.797 319.721 199.091 320.264C199.386 320.808 199.799 321.278 200.3 321.64C200.794 322.005 201.366 322.251 201.97 322.36C202.601 322.426 203.236 322.446 203.87 322.42H226.53L278.22 322.48L313.06 322.57L322.54 322.63H325H325.84C325.84 322.63 325.56 322.63 325 322.63H322.54L313.06 322.69L278.22 322.78L226.53 322.84H203.93C203.262 322.863 202.594 322.836 201.93 322.76C201.238 322.644 200.584 322.367 200.02 321.95C199.448 321.541 198.977 321.007 198.642 320.388C198.308 319.77 198.119 319.083 198.09 318.38C198.09 313.08 198.09 307.693 198.09 302.22V293.96C198.09 293.26 198.09 292.6 198.09 291.84C198.191 291.101 198.469 290.398 198.9 289.79C199.334 289.176 199.907 288.675 200.573 288.327C201.239 287.979 201.979 287.795 202.73 287.79L317.73 287.88H325.73C326.607 287.856 327.473 288.078 328.23 288.52C328.954 288.95 329.546 289.569 329.942 290.311C330.339 291.053 330.525 291.89 330.48 292.73C330.48 294.29 330.48 295.8 330.48 297.26C330.48 303.1 330.48 308.13 330.43 312.26C330.43 314.32 330.43 316.14 330.43 317.73C330.476 318.409 330.37 319.089 330.121 319.722C329.872 320.355 329.486 320.924 328.99 321.39C328.379 321.96 327.614 322.339 326.79 322.48C326.507 322.602 326.207 322.68 325.9 322.71Z" fill="#455A64"/>
<path d="M268.16 297.21H235.68V299.65H268.16V297.21Z" fill="#455A64"/>
<path d="M292.58 310.97H235.68V313.41H292.58V310.97Z" fill="#455A64"/>
<path d="M318.14 303.92H235.68V306.36H318.14V303.92Z" fill="#455A64"/>
<path d="M326.29 165.099C329.968 165.099 332.95 162.118 332.95 158.439C332.95 154.761 329.968 151.779 326.29 151.779C322.612 151.779 319.63 154.761 319.63 158.439C319.63 162.118 322.612 165.099 326.29 165.099Z" fill="#263238"/>
<path d="M323.02 157.9L325.82 160.36L329.55 156.52" stroke="#FAFAFA" stroke-linecap="round" stroke-linejoin="round"/>
<path d="M141.72 454.971L140.09 464.441L154.69 465.511L154.74 456.201L141.72 454.971Z" fill="#349997"/>
<path d="M148.3 455.101C148.26 457.994 147.925 460.875 147.3 463.701C147.244 462.252 147.331 460.802 147.56 459.371C147.664 457.926 147.912 456.496 148.3 455.101Z" fill="#263238"/>
<path d="M154.69 464.481C153.983 464.492 153.277 464.438 152.58 464.321L147.51 463.761C145.51 463.531 143.73 463.291 142.44 463.071C141.736 462.99 141.042 462.836 140.37 462.611C141.077 462.586 141.784 462.636 142.48 462.761L147.56 463.331C149.56 463.551 151.33 463.801 152.62 464.021C153.324 464.102 154.018 464.256 154.69 464.481Z" fill="#263238"/>
<path d="M194.42 460.14V451.64L178.52 451.49L178.35 463.92L179.35 463.99C183.74 464.27 201.68 465.13 204.62 464.27C207.91 463.31 194.42 460.14 194.42 460.14Z" fill="#349997"/>
<g opacity="0.38">
<path d="M184.14 463.85C183.916 462.506 183.204 461.292 182.14 460.44C181.096 459.591 179.773 459.163 178.43 459.24V463.69L184.14 463.85Z" fill="black"/>
</g>
<g opacity="0.38">
<path d="M201 461.92C201 461.92 205.72 463.33 205.12 464.11C204.52 464.89 186.36 464.7 178.36 463.92V463.56L199.54 463.95C199.54 463.95 200.08 462 201 461.92Z" fill="black"/>
</g>
<path d="M178.15 463.551H178.42L179.2 463.611L182.09 463.761C184.54 463.871 187.91 463.981 191.64 464.021C195.37 464.061 198.74 464.021 201.19 463.971L204.08 463.881H204.87C204.959 463.894 205.05 463.894 205.14 463.881H204.08H201.19C198.74 463.881 195.37 463.881 191.64 463.881C187.91 463.881 184.54 463.751 182.1 463.671L179.21 463.581H178.42L178.15 463.551Z" fill="#263238"/>
<path d="M199.57 464.2C199.703 463.724 199.891 463.264 200.13 462.83C200.424 462.43 200.759 462.061 201.13 461.73C200.635 461.913 200.223 462.268 199.97 462.73C199.662 463.155 199.519 463.678 199.57 464.2Z" fill="#263238"/>
<path d="M194.9 461.77C194.9 461.77 195.17 461.53 195.41 461.17C195.581 460.964 195.701 460.721 195.76 460.46C195.76 460.46 195.48 460.7 195.25 461.06C195.02 461.42 194.86 461.74 194.9 461.77Z" fill="#263238"/>
<path d="M193.62 461.08C193.62 461.08 193.91 460.95 194.19 460.71C194.47 460.47 194.66 460.24 194.62 460.2C194.58 460.16 194.34 460.32 194.06 460.57C193.78 460.82 193.59 461 193.62 461.08Z" fill="#263238"/>
<path d="M192.82 459.57C193.367 459.69 193.933 459.69 194.48 459.57C194.48 459.51 194.11 459.46 193.66 459.45C193.375 459.43 193.088 459.471 192.82 459.57Z" fill="#263238"/>
<path d="M192.55 458.51C192.826 458.692 193.149 458.789 193.48 458.79C193.818 458.856 194.167 458.814 194.48 458.67C194.17 458.612 193.855 458.588 193.54 458.6C193.214 458.536 192.882 458.506 192.55 458.51Z" fill="#263238"/>
<path d="M195.46 460.391C195.791 460.444 196.129 460.444 196.46 460.391C196.829 460.343 197.193 460.266 197.55 460.161C197.766 460.102 197.974 460.018 198.17 459.911C198.232 459.877 198.288 459.832 198.332 459.777C198.377 459.722 198.41 459.659 198.43 459.591C198.445 459.515 198.439 459.437 198.412 459.365C198.386 459.292 198.34 459.229 198.28 459.181C197.893 458.982 197.448 458.926 197.023 459.023C196.599 459.12 196.223 459.363 195.96 459.711C195.796 459.904 195.679 460.134 195.62 460.381C195.62 460.561 195.62 460.661 195.62 460.661C195.722 460.344 195.881 460.049 196.09 459.791C196.324 459.524 196.629 459.329 196.97 459.231C197.374 459.103 197.812 459.139 198.19 459.331C198.35 459.451 198.28 459.641 198.1 459.751C197.916 459.845 197.726 459.925 197.53 459.991C197.184 460.106 196.83 460.193 196.47 460.251C195.85 460.361 195.46 460.361 195.46 460.391Z" fill="#263238"/>
<path d="M195.72 460.44C195.72 460.44 195.89 460.2 195.85 459.74C195.816 459.472 195.72 459.215 195.57 458.99C195.488 458.836 195.368 458.706 195.22 458.613C195.073 458.52 194.904 458.467 194.73 458.46C194.678 458.47 194.628 458.489 194.584 458.518C194.54 458.547 194.502 458.584 194.472 458.628C194.442 458.672 194.421 458.721 194.411 458.773C194.4 458.825 194.4 458.878 194.41 458.93C194.431 459.091 194.49 459.245 194.58 459.38C194.712 459.607 194.87 459.819 195.05 460.01C195.209 460.192 195.407 460.336 195.63 460.43C195.63 460.43 195.43 460.24 195.15 459.92C194.995 459.724 194.855 459.517 194.73 459.3C194.59 459.08 194.5 458.69 194.73 458.65C194.96 458.61 195.24 458.88 195.4 459.09C195.542 459.29 195.637 459.519 195.68 459.76C195.715 459.985 195.728 460.213 195.72 460.44Z" fill="#263238"/>
<path d="M178.52 459.2C178.52 459.2 178.97 459.2 179.69 459.25C180.624 459.372 181.507 459.749 182.24 460.34C182.969 460.938 183.516 461.728 183.82 462.62C183.936 462.992 184.033 463.369 184.11 463.75C184.127 463.644 184.127 463.536 184.11 463.43C184.082 463.139 184.025 462.851 183.94 462.57C183.658 461.637 183.105 460.808 182.35 460.19C181.592 459.573 180.664 459.2 179.69 459.12C179.401 459.089 179.109 459.089 178.82 459.12C178.716 459.129 178.614 459.156 178.52 459.2Z" fill="#263238"/>
<path d="M180.23 452.601C180.111 453.683 180.054 454.772 180.06 455.861C179.999 456.95 179.999 458.041 180.06 459.131C180.179 458.048 180.236 456.96 180.23 455.871C180.291 454.781 180.291 453.69 180.23 452.601Z" fill="#263238"/>
<path d="M186.15 462.321C186.909 462.504 187.689 462.589 188.47 462.571C189.25 462.62 190.034 462.566 190.8 462.411C190.8 462.351 189.8 462.411 188.48 462.411C187.16 462.411 186.16 462.261 186.15 462.321Z" fill="#263238"/>
<path d="M183 462.28C183 462.28 183.08 462.5 183.18 462.74C183.28 462.98 183.34 463.19 183.4 463.19C183.46 463.19 183.48 462.94 183.4 462.66C183.32 462.38 183.07 462.24 183 462.28Z" fill="#263238"/>
<path d="M181.88 460.811C181.88 460.811 181.94 461.011 182.1 461.181C182.26 461.351 182.43 461.451 182.47 461.421C182.51 461.391 182.4 461.211 182.24 461.041C182.08 460.871 181.91 460.771 181.88 460.811Z" fill="#263238"/>
<path d="M180.2 460.12C180.2 460.17 180.42 460.17 180.66 460.26C180.9 460.35 181.06 460.47 181.1 460.43C181.14 460.39 181.01 460.18 180.72 460.08C180.43 459.98 180.19 460.07 180.2 460.12Z" fill="#263238"/>
<path d="M179 459.791C179 459.791 179.07 459.931 179.2 459.981C179.33 460.031 179.45 459.981 179.47 459.981C179.49 459.981 179.4 459.851 179.27 459.801C179.14 459.751 179 459.741 179 459.791Z" fill="#263238"/>
<path d="M170.3 202.06C170.42 199.57 170.69 196.75 170.69 196.75C170.69 196.75 176.85 196.08 177.22 189.75C177.59 183.42 177.22 168.75 177.22 168.75L166 163L153.65 172.74L155.52 204.57L166.88 205.29C167.318 205.309 167.756 205.239 168.167 205.086C168.577 204.933 168.954 204.699 169.272 204.398C169.591 204.096 169.846 203.734 170.023 203.333C170.199 202.931 170.294 202.499 170.3 202.06Z" fill="#FFBE9D"/>
<path d="M171.41 184.681C171.41 184.681 171.41 184.791 171.31 184.951C171.226 185.053 171.118 185.135 170.997 185.189C170.875 185.243 170.743 185.267 170.61 185.261C169.89 185.261 169.2 184.441 168.95 183.471C168.836 183.007 168.836 182.524 168.95 182.061C168.964 181.85 169.033 181.646 169.15 181.47C169.268 181.295 169.43 181.153 169.62 181.061C169.694 181.028 169.774 181.012 169.855 181.012C169.936 181.012 170.016 181.028 170.09 181.061C170.204 181.111 170.294 181.205 170.34 181.321C170.43 181.501 170.34 181.621 170.34 181.611C170.34 181.601 170.34 181.501 170.22 181.391C170.163 181.307 170.077 181.249 169.978 181.227C169.88 181.204 169.777 181.22 169.69 181.271C169.556 181.358 169.446 181.477 169.368 181.616C169.289 181.755 169.246 181.911 169.24 182.071C169.162 182.489 169.179 182.92 169.29 183.331C169.51 184.201 170.11 184.901 170.64 184.971C170.746 184.984 170.854 184.976 170.957 184.947C171.061 184.918 171.157 184.868 171.24 184.801C171.35 184.761 171.39 184.671 171.41 184.681Z" fill="#EB996E"/>
<path d="M171.37 188.61C171.45 188.38 171.5 188.13 171.57 187.89C171.64 187.65 171.66 187.55 171.72 187.37C171.827 186.847 171.884 186.314 171.89 185.78C171.342 185.993 170.744 186.04 170.17 185.915C169.596 185.791 169.071 185.5 168.66 185.08C168.246 184.642 167.958 184.101 167.824 183.514C167.69 182.927 167.717 182.314 167.9 181.74C168.163 181.112 168.555 180.545 169.051 180.078C169.547 179.612 170.137 179.254 170.78 179.03C172.02 178.51 173.35 178.25 174.57 177.67C177.15 176.45 178.93 173.9 180.15 171.23C181 169.36 181.64 167.23 181.06 165.23C180.2 162.3 177.06 160.85 174.25 160.04C169.93 158.82 165.25 158.28 161.03 159.83C156.81 161.38 151.74 164.12 151.74 168.78C149.25 168.57 147.83 170.78 146.84 173.46C146.353 175.139 145.985 176.85 145.74 178.58" fill="#263238"/>
<path d="M155.14 198C152.027 195.852 149.523 192.934 147.874 189.531C146.225 186.127 145.486 182.354 145.73 178.58C146.37 165.22 171.37 188.58 171.37 188.58C171.37 188.58 166.58 204.32 155.65 197.97" fill="#263238"/>
<path d="M151.43 184.681C151.36 184.621 151.86 184.151 152.27 183.181C152.55 182.565 152.697 181.896 152.702 181.219C152.708 180.543 152.57 179.872 152.3 179.252C152.029 178.631 151.631 178.075 151.132 177.618C150.632 177.161 150.042 176.815 149.4 176.601C148.4 176.241 147.72 176.291 147.72 176.201C148.306 176.02 148.935 176.038 149.51 176.251C150.223 176.452 150.884 176.805 151.447 177.287C152.01 177.769 152.461 178.367 152.77 179.041C153.062 179.724 153.198 180.463 153.169 181.205C153.139 181.947 152.945 182.673 152.6 183.331C152.07 184.341 151.46 184.721 151.43 184.681Z" fill="#349997"/>
<path d="M146.28 176.5C146.054 176.529 145.824 176.48 145.63 176.36C145.068 176.085 144.607 175.641 144.31 175.09C143.895 174.266 143.745 173.333 143.88 172.42C143.996 171.316 144.337 170.248 144.88 169.28C145.435 168.289 146.309 167.514 147.36 167.08C148.232 166.725 149.208 166.725 150.08 167.08C150.656 167.321 151.145 167.733 151.48 168.26C151.69 168.64 151.72 168.89 151.69 168.89C151.283 168.224 150.668 167.711 149.94 167.43C149.155 167.159 148.297 167.198 147.54 167.54C146.606 167.949 145.83 168.651 145.33 169.54C144.26 171.45 143.96 173.64 144.61 174.91C144.967 175.617 145.557 176.178 146.28 176.5Z" fill="#263238"/>
<path d="M259.83 181C259.38 180.54 258.28 180.76 258.28 180.76C258.385 180.118 258.385 179.463 258.28 178.82C258.08 178.19 256.67 178.31 256.67 178.31C256.603 177.782 256.603 177.248 256.67 176.72C256.677 176.605 256.65 176.489 256.591 176.39C256.532 176.29 256.445 176.21 256.34 176.16C255.673 175.891 254.959 175.761 254.24 175.78C253.37 175.16 256.86 170.28 258.16 168.72C259.46 167.16 259.22 165.95 258.07 165.95C257.28 165.95 253.21 170.64 251.96 172.21C250.71 173.78 247.39 178.16 247.28 174.67C247.17 171.18 245.76 168.53 244.88 168.08C244 167.63 243.06 168.69 243.55 169.66C243.967 170.762 244.23 171.916 244.33 173.09C244.442 174.034 244.398 174.99 244.2 175.92C243.835 177.625 243.334 179.297 242.7 180.92L242.61 180.87C242.61 180.87 218.24 204.24 216.48 205.87C214.9 207.37 183.23 204.09 176.89 203.42C174.727 203.113 172.544 202.965 170.36 202.98C167.61 203.1 167.12 203.49 164.36 203.52C157.807 203.543 151.266 204.091 144.8 205.16C138.47 206.23 134.99 211.16 133.04 217.29C126.63 237.29 109.31 284.29 106.72 310.89C104.789 314.396 103.043 318.001 101.49 321.69C99.6999 326.58 100.14 326.75 100.74 326.86C102.36 327.16 104.22 318.39 104.92 320.5C105.62 322.61 101.4 330.97 103.11 331.21C105.33 331.53 107.11 322.31 107.32 321.54C107.53 320.77 108.65 321.05 108.42 321.73C108.1 322.73 104.96 333.13 107.14 333.47C108.35 333.65 108.48 331.47 108.48 331.47C108.48 331.47 110.7 321.47 111.73 321.7C112.76 321.93 111.67 327.79 111.15 329.75C110.63 331.71 111.36 332.75 112.4 332.23C113.12 331.9 114.83 325.93 115.3 323.98C115.77 322.03 116.93 316.66 118.51 319.78C120.09 322.9 122.51 324.7 123.51 324.78C123.74 324.77 123.961 324.687 124.141 324.543C124.321 324.4 124.451 324.202 124.513 323.98C124.574 323.758 124.563 323.522 124.481 323.307C124.4 323.091 124.253 322.907 124.06 322.78C123.214 321.955 122.487 321.016 121.9 319.99C121.397 319.183 121.032 318.297 120.82 317.37C120.377 315.517 120.119 313.624 120.05 311.72L119.86 310.57C122.36 298.19 130.86 255.99 141.19 232.77L144.19 247.41L146.04 253.9L134.67 282L183.14 281.36L175.91 253.52L184.69 224.52C194.2 224.73 218.6 225.09 222.69 223.25C227.8 220.97 254.27 187.61 254.27 187.61C256.013 186.271 257.682 184.839 259.27 183.32C259.27 183.32 260.8 182 259.83 181Z" fill="#FFBE9D"/>
<path d="M132.56 261.34C133.96 256.54 141.18 232.8 141.18 232.8C141.18 232.8 144.73 252.15 143.8 254.48C142.94 256.479 141.92 258.405 140.75 260.24C132.56 272.72 133.63 278.96 133.63 278.96L183.14 277.45C183.26 270.53 179.14 254.45 178.3 251.86C177.46 249.27 180.3 240.86 180.3 240.86C180.3 240.86 185.9 235.18 185.68 232.26C185.563 229.637 185.229 227.028 184.68 224.46L221.35 225.16L217.25 205.23L181.89 202.64L170.13 201.54C164.21 206.54 155.34 201.54 155.34 201.54C144.06 202.64 142.41 204.45 137.78 209.08C132.28 214.56 117.42 256.49 117.42 256.49L132.56 261.34Z" fill="#349997"/>
<path d="M161.84 256.511C160.979 256.661 160.102 256.704 159.23 256.641C157.61 256.641 155.39 256.531 152.94 256.291C150.49 256.051 148.29 255.691 146.71 255.381C145.842 255.273 144.992 255.054 144.18 254.731C145.049 254.727 145.917 254.811 146.77 254.981C148.37 255.181 150.56 255.461 153 255.711C155.44 255.961 157.64 256.121 159.24 256.231C160.114 256.235 160.985 256.329 161.84 256.511Z" fill="#263238"/>
<path d="M165.22 252.301C164.362 252.72 163.455 253.029 162.52 253.221C160.296 253.81 158.034 254.241 155.75 254.511C153.467 254.785 151.168 254.895 148.87 254.841C147.916 254.869 146.963 254.782 146.03 254.581C146.97 254.447 147.921 254.397 148.87 254.431C150.62 254.371 153.03 254.251 155.69 253.931C158.35 253.611 160.69 253.181 162.43 252.821C163.343 252.565 164.276 252.391 165.22 252.301Z" fill="#263238"/>
<path d="M181.88 233.521C181.869 234.371 181.755 235.217 181.54 236.04C181.25 237.59 180.8 239.71 180.23 242.04C179.66 244.37 179.08 246.461 178.62 247.971C178.428 248.8 178.136 249.602 177.75 250.361C177.81 249.512 177.968 248.673 178.22 247.861C178.64 246.121 179.13 244.121 179.66 241.911C180.19 239.701 180.71 237.701 181.14 235.911C181.296 235.089 181.545 234.287 181.88 233.521Z" fill="#263238"/>
<path d="M133.3 279.3L182.8 277.79L204.34 361.91L200.34 458.4H174.14L177.41 364L158.26 305.4L161.17 459.4L134.71 459.79L132 315.2C131.89 311.11 130.54 301.87 131 297.81L133.3 279.3Z" fill="#455A64"/>
<path d="M164.86 306.591C164.047 306.648 163.231 306.601 162.43 306.451C160.94 306.271 158.89 305.961 156.65 305.511C154.41 305.061 152.39 304.511 150.95 304.141C150.152 303.97 149.379 303.698 148.65 303.331C148.65 303.171 152.29 304.041 156.76 304.941C161.23 305.841 164.88 306.421 164.86 306.591Z" fill="#263238"/>
<path d="M200.13 453.11C200.13 453.27 194.2 453.4 186.88 453.4C179.56 453.4 174.35 453.17 174.35 453.01C174.35 452.85 179.56 452.82 186.88 452.82C194.2 452.82 200.13 453 200.13 453.11Z" fill="#263238"/>
<path d="M160.8 453.4C160.8 453.56 155.04 453.69 147.94 453.69C140.84 453.69 135.09 453.56 135.09 453.4C135.09 453.24 140.84 453.11 147.94 453.11C155.04 453.11 160.8 453.24 160.8 453.4Z" fill="#263238"/>
<path d="M157.57 453.4C157.41 453.4 156.71 420.11 156.01 379.04C155.31 337.97 154.88 304.68 155.01 304.67C155.14 304.66 155.9 338 156.6 379C157.3 420 157.73 453.39 157.57 453.4Z" fill="#263238"/>
<path d="M196.61 453.111C196.599 452.957 196.599 452.804 196.61 452.651C196.61 452.321 196.61 451.881 196.61 451.311C196.61 450.111 196.69 448.381 196.76 446.171C196.91 441.681 197.14 435.231 197.41 427.271C198.02 411.271 198.87 389.271 199.8 364.911C199.8 364.681 199.8 364.461 199.8 364.251V364.331C193.93 340.841 188.63 319.601 184.8 304.201L180.35 286.001C179.84 283.871 179.44 282.211 179.17 281.001C179.043 280.461 178.943 280.031 178.87 279.711C178.832 279.566 178.806 279.419 178.79 279.271C178.853 279.408 178.9 279.552 178.93 279.701C179.01 280.011 179.13 280.431 179.28 280.971C179.58 282.131 180.02 283.791 180.57 285.911C181.68 290.221 183.27 296.421 185.23 304.071C189.12 319.461 194.48 340.681 200.42 364.161V364.251C200.42 364.451 200.42 364.681 200.42 364.901C199.42 389.241 198.52 411.271 197.86 427.251C197.51 435.251 197.22 441.661 197.02 446.151C196.91 448.361 196.82 450.081 196.76 451.291C196.76 451.851 196.7 452.291 196.68 452.621C196.673 452.786 196.65 452.95 196.61 453.111Z" fill="#263238"/>
<path d="M188.07 362.29C186.186 362.906 184.247 363.338 182.28 363.58C179.88 363.99 177.8 364.27 176.89 364.33V364.1C177.19 364.18 177.35 364.25 177.34 364.29C177.33 364.33 177.16 364.29 176.85 364.29H176.18L176.85 364.09C177.72 363.83 179.78 363.41 182.19 362.99C184.122 362.565 186.092 362.331 188.07 362.29Z" fill="#263238"/>
<path d="M187.57 365.5C185.83 365.57 184.086 365.489 182.36 365.26C180.617 365.215 178.881 365.025 177.17 364.69C178.908 364.452 180.671 364.452 182.41 364.69C184.159 364.724 185.895 364.996 187.57 365.5Z" fill="#263238"/>
<path d="M133.08 281.07C134.27 282.76 135.98 283.35 137.96 283.67C139.956 283.908 141.974 283.871 143.96 283.56C156.74 282.14 170.28 280.83 182.79 277.79C166.59 278.69 149.49 278.39 133.29 279.3C133.29 279.3 133.15 280.41 133.12 280.68" fill="#263238"/>
<path d="M149.78 303.91L158.9 339.34L158.26 305.4L149.78 303.91Z" fill="#263238"/>
<path d="M147.94 176.91C144.42 175.97 140.74 179.72 140.62 183.36C140.62 184.36 140.73 185.6 139.99 186.36C139.25 187.12 137.93 186.91 136.82 187C135.686 187.113 134.625 187.61 133.812 188.408C132.999 189.207 132.483 190.259 132.35 191.39C132.19 193.01 132.84 194.75 132.16 196.23C131.48 197.71 129.91 198.31 128.82 199.41C128.159 200.159 127.661 201.038 127.36 201.99C127.059 202.942 126.96 203.947 127.07 204.94C127.307 206.925 127.829 208.865 128.62 210.7C129.26 212.41 130.1 214.31 131.82 214.92H146.61L147.72 209.34L149.53 214.92H151.94L150.64 178.69C150.64 178.69 150.63 177.62 147.94 176.91Z" fill="#263238"/>
<path d="M127.71 194.21C127.71 194.21 127.55 194.21 127.31 194.29C127.138 194.384 127.007 194.538 126.942 194.723C126.878 194.908 126.884 195.11 126.96 195.29C127.146 195.699 127.48 196.021 127.895 196.191C128.31 196.361 128.775 196.366 129.193 196.205C129.612 196.044 129.953 195.73 130.148 195.325C130.343 194.921 130.375 194.458 130.24 194.03C130.029 193.551 129.757 193.1 129.43 192.69C128.672 191.68 128.345 190.411 128.52 189.16C128.609 188.467 128.858 187.804 129.247 187.223C129.636 186.642 130.153 186.158 130.76 185.81C131.409 185.43 132.139 185.21 132.89 185.166C133.641 185.123 134.391 185.258 135.08 185.56C136.44 186.15 137.62 187.02 138.93 186.84C139.225 186.829 139.513 186.743 139.766 186.591C140.02 186.439 140.231 186.226 140.38 185.97C140.591 185.402 140.659 184.791 140.58 184.19C140.501 183.043 140.668 181.892 141.07 180.814C141.472 179.736 142.099 178.756 142.91 177.94C144.052 176.871 145.566 176.29 147.13 176.32C147.545 176.332 147.955 176.403 148.35 176.53C148.492 176.565 148.627 176.622 148.75 176.7C148.215 176.599 147.674 176.538 147.13 176.52C145.63 176.555 144.2 177.159 143.13 178.21C142.374 179.004 141.795 179.95 141.431 180.984C141.067 182.018 140.927 183.118 141.02 184.21C141.109 184.887 141.027 185.575 140.78 186.21C140.596 186.542 140.33 186.822 140.008 187.023C139.687 187.224 139.319 187.34 138.94 187.36C138.199 187.431 137.452 187.3 136.78 186.98C136.1 186.69 135.48 186.32 134.84 186.05C134.225 185.781 133.555 185.66 132.885 185.696C132.215 185.733 131.562 185.926 130.98 186.26C130.438 186.573 129.976 187.006 129.629 187.526C129.282 188.047 129.06 188.64 128.98 189.26C128.808 190.401 129.096 191.562 129.78 192.49C130.121 192.934 130.401 193.422 130.61 193.94C130.704 194.199 130.746 194.474 130.732 194.749C130.718 195.023 130.649 195.293 130.53 195.54C130.323 195.98 129.969 196.333 129.53 196.54C129.128 196.719 128.68 196.765 128.25 196.67C127.908 196.605 127.59 196.448 127.331 196.215C127.072 195.983 126.881 195.684 126.78 195.35C126.707 195.137 126.718 194.903 126.81 194.697C126.903 194.49 127.071 194.327 127.28 194.24C127.57 194.1 127.72 194.21 127.71 194.21Z" fill="#263238"/>
<path d="M185 224.141C184.622 224.193 184.238 224.193 183.86 224.141C182.819 224.015 181.806 223.721 180.86 223.271C179.448 222.608 178.189 221.662 177.16 220.491C175.854 219.072 174.973 217.314 174.62 215.418C174.266 213.522 174.453 211.565 175.16 209.771C175.706 208.309 176.551 206.978 177.64 205.861C178.362 205.103 179.203 204.468 180.13 203.981C180.458 203.784 180.816 203.642 181.19 203.561C179.981 204.25 178.876 205.109 177.91 206.111C176.899 207.22 176.118 208.518 175.61 209.931C174.951 211.645 174.778 213.507 175.107 215.313C175.437 217.119 176.258 218.8 177.48 220.171C178.457 221.311 179.645 222.252 180.98 222.941C182.26 223.52 183.612 223.924 185 224.141Z" fill="#263238"/>
</svg>
