<svg width="500" height="372" viewBox="0 0 500 372" fill="none" xmlns="http://www.w3.org/2000/svg">
<path d="M500 326.914H0V326.665H500V326.914Z" fill="#E7E8E5"/>
<path d="M290.208 333.708H315.667V333.459H290.208V333.708Z" fill="#E7E8E5"/>
<path d="M395.112 339.105H455.445V338.856H395.112V339.105Z" fill="#E7E8E5"/>
<path d="M222.459 333.832H284.792V333.583H222.459V333.832Z" fill="#E7E8E5"/>
<path d="M168.999 341.295H182.04V341.046H168.999V341.295Z" fill="#E7E8E5"/>
<path d="M194.709 341.295H254.085V341.046H194.709V341.295Z" fill="#E7E8E5"/>
<path d="M52.457 337.083H90.9105V336.834H52.457V337.083Z" fill="#E7E8E5"/>
<path d="M43.9152 0.248901C40.9051 0.248901 38.457 2.69107 38.457 5.6929V276.477C38.457 279.479 40.9051 281.921 43.9152 281.921H237.014C240.022 281.921 242.471 279.479 242.471 276.477V5.6929C242.471 2.69107 240.022 0.248901 237.014 0.248901H43.9152ZM237.014 282.171H43.9152C40.7676 282.171 38.207 279.617 38.207 276.477V5.6929C38.207 2.55441 40.7676 -0.000518799 43.9152 -0.000518799H237.014C240.16 -0.000518799 242.721 2.55441 242.721 5.6929V276.477C242.721 279.617 240.16 282.171 237.014 282.171Z" fill="#E7E8E5"/>
<path d="M260.21 0.248901C257.201 0.248901 254.753 2.69107 254.753 5.6929V276.477C254.753 279.479 257.201 281.921 260.21 281.921H453.309C456.318 281.921 458.767 279.479 458.767 276.477V5.6929C458.767 2.69107 456.318 0.248901 453.309 0.248901H260.21ZM453.309 282.171H260.21C257.063 282.171 254.503 279.617 254.503 276.477V5.6929C254.503 2.55441 257.063 -0.000518799 260.21 -0.000518799H453.309C456.456 -0.000518799 459.017 2.55441 459.017 5.6929V276.477C459.017 279.617 456.456 282.171 453.309 282.171Z" fill="#E7E8E5"/>
<path d="M195.961 240.141H129.56L125.529 193.752H191.93L195.961 240.141Z" fill="#129089"/>
<path d="M199.399 240.141H132.999L128.968 193.752H195.368L199.399 240.141Z" fill="#EDEDEB"/>
<path d="M142.077 230.178L139.863 203.711H186.292L188.506 230.178H142.077Z" fill="white"/>
<path d="M203.099 326.662H210.89V240.139H203.099V326.662Z" fill="#129089"/>
<path d="M207.935 326.662H213.345V240.139H207.935V326.662Z" fill="#EDEDEB"/>
<path d="M137.939 249.689H213.348V240.139H137.939V249.689Z" fill="#EDEDEB"/>
<path d="M132.816 326.662H140.606V249.689H132.816V326.662Z" fill="#129089"/>
<path d="M137.652 326.662H143.063V249.689H137.652V326.662Z" fill="#EDEDEB"/>
<path d="M85.1474 326.662H77.3564V249.689H85.1474V326.662Z" fill="#129089"/>
<path d="M87.6069 326.662H82.1963V249.689H87.6069V326.662Z" fill="#EDEDEB"/>
<path d="M153.796 326.662H161.587V249.689H153.796V326.662Z" fill="#129089"/>
<path d="M158.632 326.662H164.043V249.689H158.632V326.662Z" fill="#EDEDEB"/>
<path d="M77.3564 249.689H137.938V240.139H77.3564V249.689Z" fill="#129089"/>
<path d="M129.507 154.547H363.838V24.4034H129.507V154.547Z" fill="#DADBD8"/>
<path d="M130.691 154.547H376.707V24.4034H130.691V154.547Z" fill="#E9EDF2"/>
<path d="M134.711 150.539H372.687V28.4134H134.711V150.539Z" fill="white"/>
<path d="M231.064 150.539L275.995 28.4134H201.845L156.915 150.539H231.064Z" fill="#E9EDF2"/>
<path d="M302.44 150.539L347.371 28.4134H291.435L246.504 150.539H302.44Z" fill="#E9EDF2"/>
<path d="M438.11 326.664H418.191V202.367H438.11V326.664Z" fill="#129089"/>
<path d="M432.874 326.664H438.111V317.093H427.382L432.874 326.664Z" fill="#FAFAF9"/>
<path d="M234.533 326.664H254.452V202.367H234.533V326.664Z" fill="#129089"/>
<path d="M249.884 324.081H438.112V202.366H249.884V324.081Z" fill="#FAFAF9"/>
<path d="M254.445 240.641H433.547V208.26H254.445V240.641ZM434.547 241.639H253.445V207.262H434.547V241.639Z" fill="#129089"/>
<path d="M276.141 212.564C279.524 219.18 284.125 222.955 288.845 222.955H402.667C407.387 222.955 411.988 219.18 415.372 212.564H276.141ZM402.667 223.952H288.845C283.559 223.952 278.47 219.699 274.885 212.283L274.539 211.567H416.974L416.628 212.283C413.043 219.699 407.954 223.952 402.667 223.952Z" fill="#129089"/>
<path d="M255.122 326.664H249.884V317.093H260.613L255.122 326.664Z" fill="#FAFAF9"/>
<path d="M254.445 279.414H433.547V247.033H254.445V279.414ZM434.547 280.412H253.445V246.036H434.547V280.412Z" fill="#129089"/>
<path d="M276.141 251.339C279.524 257.954 284.125 261.73 288.845 261.73H402.667C407.388 261.73 411.988 257.954 415.372 251.339H276.141ZM402.667 262.728H288.845C283.559 262.728 278.47 258.474 274.885 251.057L274.539 250.341H416.974L416.628 251.057C413.043 258.474 407.954 262.728 402.667 262.728Z" fill="#129089"/>
<path d="M254.445 318.19H433.547V285.808H254.445V318.19ZM434.547 319.188H253.445V284.811H434.547V319.188Z" fill="#129089"/>
<path d="M276.141 290.111C279.524 296.726 284.125 300.501 288.845 300.501H402.667C407.388 300.501 411.988 296.726 415.372 290.111H276.141ZM402.667 301.499H288.845C283.559 301.499 278.47 297.245 274.885 289.829L274.539 289.113H416.974L416.628 289.829C413.043 297.245 407.954 301.499 402.667 301.499Z" fill="#129089"/>
<path d="M120.983 218.809V221.221H119.435L118.157 240.141H99.3221L98.0451 221.221H96.4971V218.809H120.983Z" fill="#129089"/>
<path d="M114.786 171.847C113.237 160.577 97.9914 157.358 78.6437 156.945C60.2328 156.553 54.3359 150.054 54.3359 150.054C54.3359 150.054 54.3937 176.37 80.923 185.898C106.114 194.946 116.337 183.137 114.786 171.847Z" fill="#129089"/>
<path d="M105.38 197.4C105.704 192.764 113.123 184.245 130.968 188.117C143.872 190.917 148.669 184.245 148.669 184.245C148.669 184.245 147.474 203.078 128.067 208.742C109.64 214.119 104.813 205.551 105.38 197.4Z" fill="#129089"/>
<path d="M109.448 225.91C109.643 225.91 109.838 225.828 109.974 225.668C111.268 224.142 110.209 220.489 108.745 215.433C106.865 208.946 104.526 200.871 106.507 195.007C107.625 191.697 109.009 188.779 110.346 185.957C113.147 180.047 115.566 174.943 113.549 169.613C113.414 169.259 113.018 169.079 112.662 169.214C112.307 169.348 112.127 169.744 112.261 170.098C114.072 174.882 111.879 179.51 109.102 185.37C107.81 188.095 106.347 191.183 105.203 194.569C103.084 200.839 105.489 209.143 107.422 215.815C108.562 219.749 109.741 223.817 108.923 224.78C108.678 225.07 108.714 225.503 109.004 225.749C109.133 225.857 109.291 225.91 109.448 225.91Z" fill="#129089"/>
<path d="M443.889 360.423C443.889 366.662 357.083 371.72 250 371.72C142.918 371.72 56.1113 366.662 56.1113 360.423C56.1113 354.185 142.918 349.127 250 349.127C357.083 349.127 443.889 354.185 443.889 360.423Z" fill="#E9EDF2"/>
<path d="M249.959 305.365H107.959L100.187 77.5437H242.186L249.959 305.365Z" fill="#2F627C"/>
<path d="M257.046 298.295H115.046L107.273 70.4733H249.273L257.046 298.295Z" fill="#2F627C"/>
<path d="M257.046 298.295H115.046L107.514 77.5424L107.273 70.4733H249.273L257.046 298.295ZM179.143 95.9673C157.083 95.9673 139.809 113.809 140.559 135.816C141.31 157.823 159.802 175.663 181.862 175.663C203.922 175.663 221.197 157.823 220.446 135.816C219.695 113.809 201.203 95.9673 179.143 95.9673Z" fill="#F9FDFB"/>
<path d="M220.449 135.817C221.2 157.825 203.925 175.665 181.865 175.665C159.805 175.665 141.313 157.825 140.562 135.817C139.812 113.81 157.086 95.9688 179.146 95.9688C201.206 95.9688 219.698 113.81 220.449 135.817Z" fill="#2F627C"/>
<path d="M213.469 135.811C213.663 141.491 212.4 146.824 210.019 151.476C204.809 161.727 194.157 168.698 181.625 168.698C169.093 168.698 157.966 161.727 152.055 151.476C149.357 146.824 147.731 141.491 147.537 135.811C146.918 117.645 161.171 102.924 179.381 102.924C197.59 102.924 212.849 117.645 213.469 135.811Z" fill="white"/>
<path d="M181.627 168.698C169.095 168.698 157.968 161.727 152.057 151.476C160.168 145.946 170.018 142.716 180.74 142.716C191.463 142.716 201.533 145.946 210.021 151.476C204.811 161.727 194.159 168.698 181.627 168.698Z" fill="#7DA6DD"/>
<path d="M180.617 139.211C172.507 139.211 165.709 132.652 165.433 124.561C165.157 116.47 171.508 109.912 179.618 109.912C187.727 109.912 194.526 116.47 194.802 124.561C195.078 132.652 188.727 139.211 180.617 139.211Z" fill="#7DA6DD"/>
<path d="M228.526 215.793H137.942L137.329 197.836H227.914L228.526 215.793Z" fill="white"/>
<path d="M229.618 247.889H139.033L138.42 229.932H229.005L229.618 247.889Z" fill="white"/>
<path d="M188.387 247.184L184.435 247.719L184.037 243.01C183.196 242.639 182.587 241.895 182.415 241.018C182.134 239.592 183.1 238.27 184.568 238.07C186.03 237.872 187.452 238.87 187.732 240.297C187.904 241.174 187.611 242.04 186.956 242.614L188.387 247.184ZM194.659 232.4L172.831 235.361C171.934 235.482 171.344 236.298 171.514 237.163L174.38 251.756C174.551 252.628 175.422 253.239 176.318 253.117L198.147 250.155C199.044 250.035 199.635 249.225 199.464 248.353L196.598 233.76C196.428 232.895 195.556 232.278 194.659 232.4Z" fill="#2F627C"/>
<path d="M192.504 231.617C191.707 231.725 190.937 231.185 190.785 230.409L190.504 228.981C189.731 225.048 185.963 222.081 181.885 222.436C177.524 222.815 174.602 226.656 175.417 230.81L175.739 232.45C175.892 233.226 175.369 233.941 174.571 234.05C173.773 234.158 173.003 233.617 172.851 232.842L172.578 231.449C171.501 225.97 174.959 220.704 180.552 219.732C186.432 218.712 192.23 222.668 193.351 228.376L193.673 230.017C193.825 230.793 193.302 231.509 192.504 231.617Z" fill="#2F627C"/>
<path d="M214.666 273.033H155.702L155.304 261.345H214.267L214.666 273.033Z" fill="#2F627C"/>
<path d="M186.216 206.814C186.278 208.628 184.854 210.1 183.036 210.1C181.218 210.1 179.693 208.628 179.631 206.814C179.569 205.001 180.994 203.53 182.811 203.53C184.63 203.53 186.154 205.001 186.216 206.814Z" fill="#17282F"/>
<path d="M172.044 206.814C172.106 208.628 170.682 210.1 168.864 210.1C167.045 210.1 165.521 208.628 165.459 206.814C165.397 205.001 166.821 203.53 168.64 203.53C170.458 203.53 171.982 205.001 172.044 206.814Z" fill="#17282F"/>
<path d="M157.872 206.814C157.934 208.628 156.51 210.1 154.691 210.1C152.873 210.1 151.349 208.628 151.287 206.814C151.225 205.001 152.649 203.53 154.467 203.53C156.286 203.53 157.81 205.001 157.872 206.814Z" fill="#17282F"/>
<path d="M200.391 206.814C200.453 208.628 199.029 210.1 197.211 210.1C195.393 210.1 193.869 208.628 193.807 206.814C193.745 205.001 195.168 203.53 196.987 203.53C198.805 203.53 200.33 205.001 200.391 206.814Z" fill="#17282F"/>
<path d="M214.566 206.814C214.628 208.628 213.205 210.1 211.386 210.1C209.568 210.1 208.044 208.628 207.982 206.814C207.92 205.001 209.344 203.53 211.162 203.53C212.981 203.53 214.504 205.001 214.566 206.814Z" fill="#17282F"/>
<path d="M333.911 119.043C335.245 121.172 336.347 123.217 337.49 125.339C338.629 127.44 339.66 129.601 340.67 131.78C342.659 136.152 344.439 140.663 345.77 145.478C345.947 146.069 346.084 146.694 346.232 147.309L346.451 148.232L346.56 148.693L346.689 149.454C346.976 151.48 346.724 153.134 346.377 154.592C345.66 157.499 344.504 159.818 343.266 162.031C340.736 166.411 337.784 170.142 334.38 173.676L330.169 170.495C332.246 166.565 334.297 162.448 335.806 158.487C336.537 156.519 337.152 154.514 337.332 152.869C337.42 152.061 337.361 151.365 337.25 151.106L336.854 149.887C336.69 149.387 336.544 148.889 336.346 148.384C334.905 144.359 333.072 140.316 331.077 136.329C329.109 132.358 326.93 128.314 324.784 124.54L333.911 119.043Z" fill="#F46B74"/>
<path d="M331.234 169.069L326.643 171.5L331.921 177.665C331.921 177.665 335.216 175.441 335.364 172.046L331.234 169.069Z" fill="#F46B74"/>
<path d="M320.467 175.3L326.123 179.777L331.924 177.664L326.646 171.499L320.467 175.3Z" fill="#F46B74"/>
<path d="M301.153 86.4053C301.04 86.9599 300.654 87.35 300.29 87.2762C299.927 87.2024 299.724 86.6926 299.837 86.1379C299.95 85.5842 300.336 85.1932 300.7 85.267C301.063 85.3408 301.266 85.8506 301.153 86.4053Z" fill="#17282F"/>
<path d="M300.704 87.3599C300.704 87.3599 298.788 90.3038 297.082 91.5648C297.878 92.6801 299.636 92.6003 299.636 92.6003L300.704 87.3599Z" fill="#F14358"/>
<path d="M298.902 106.93L298.945 100.391L307.625 101.437C307.625 101.437 307.476 107.06 302.629 108.713L298.902 106.93Z" fill="#F46B74"/>
<path d="M301.396 95.6823L307.508 97.4341L307.624 101.438L298.944 100.391L301.396 95.6823Z" fill="#F46B74"/>
<path d="M305.85 106.414C305.849 106.413 305.847 106.412 305.846 106.412C306.051 106.145 306.233 105.869 306.394 105.592C306.394 105.593 306.394 105.595 306.394 105.596C306.234 105.872 306.054 106.147 305.85 106.414ZM307.549 98.8542L307.508 97.4346L301.398 95.6837L301.4 95.6788L307.51 97.4356L307.549 98.8542ZM300.21 97.9603C300.21 97.9583 300.21 97.9563 300.21 97.9543L300.927 96.5826L300.21 97.9603Z" fill="#BABCBA"/>
<path d="M305.844 106.411C303.467 105.326 301.535 103.235 300.678 100.6L307.618 101.437C307.618 101.445 307.617 101.476 307.614 101.528L305.877 102.5C306.126 103.493 306.316 104.548 306.392 105.591C306.231 105.868 306.049 106.144 305.844 106.411Z" fill="#EA5B5B"/>
<path d="M307.62 101.438L300.68 100.601C300.41 99.7695 300.247 98.8846 300.21 97.9598L300.927 96.5821L301.398 95.6833L307.508 97.4341L307.549 98.8537L307.62 101.435C307.62 101.435 307.62 101.436 307.62 101.438Z" fill="#EA5B5B"/>
<path d="M303.813 83.7383L304.04 83.6505C304.174 83.5258 304.183 83.3153 304.058 83.1806C302.807 81.8298 301.289 82.0703 301.223 82.0802C301.041 82.1112 300.919 82.2828 300.951 82.4643C300.982 82.6449 301.156 82.7656 301.333 82.7367C301.383 82.7287 302.57 82.5551 303.568 83.6325L303.813 83.7383Z" fill="#17282F"/>
<path d="M316.588 96.4999C315.58 101.635 314.971 108.747 318.571 112.171C318.571 112.171 317.164 117.379 307.603 117.379C297.089 117.379 302.545 112.809 302.545 112.809C306.915 111.456 306.877 106.49 305.877 102.502L316.588 96.4999Z" fill="#F46B74"/>
<path d="M320.542 115.605C321.478 114.282 321.44 110.102 320.441 109.364C318.828 108.174 311.924 107.901 302.625 110.034C303.626 114.082 301.482 116.204 301.482 116.204L320.542 115.605Z" fill="#2F627C"/>
<path d="M350.651 351.32L350.455 351.384C350.323 351.447 350.24 351.54 350.202 351.668C350.113 351.967 350.224 352.061 350.261 352.093C350.639 352.413 352.043 352.117 353.033 351.723C352.362 351.486 351.276 351.185 350.651 351.32ZM351.795 352.441C351.09 352.594 350.384 352.635 350.044 352.346C349.902 352.224 349.758 351.992 349.883 351.574C349.949 351.354 350.093 351.189 350.312 351.084C351.262 350.632 353.444 351.519 353.537 351.557L353.64 351.707L353.546 351.861C353.212 352.022 352.504 352.288 351.795 352.441Z" fill="#2F627C"/>
<path d="M351.518 349.394L351.445 349.415C351.239 349.486 351.242 349.586 351.243 349.629C351.254 350.1 352.377 351.046 353.201 351.429C352.995 350.869 352.525 349.762 351.923 349.456C351.785 349.385 351.652 349.365 351.518 349.394ZM353.509 351.874L353.427 351.871C352.631 351.64 350.93 350.434 350.91 349.638C350.906 349.494 350.956 349.232 351.335 349.101C351.582 349.015 351.83 349.035 352.074 349.16C353.014 349.638 353.608 351.582 353.633 351.665L353.591 351.829L353.509 351.874Z" fill="#2F627C"/>
<path d="M298.75 352.259C298.633 352.259 298.524 352.269 298.428 352.296C298.274 352.337 298.168 352.413 298.102 352.529C297.984 352.735 298.027 352.837 298.069 352.896C298.397 353.35 300.174 353.36 301.482 353.175C300.83 352.842 299.572 352.259 298.75 352.259ZM299.866 353.618C298.963 353.618 298.091 353.494 297.799 353.091C297.696 352.949 297.616 352.707 297.813 352.364C297.922 352.17 298.101 352.04 298.34 351.975C299.511 351.658 301.969 353.054 302.074 353.114L302.155 353.285L302.023 353.421C301.574 353.51 300.707 353.618 299.866 353.618Z" fill="#2F627C"/>
<path d="M300.274 350.58L300.174 350.584C299.875 350.614 299.855 350.732 299.849 350.771C299.772 351.247 300.915 352.44 301.781 352.96C301.69 352.407 301.44 351.277 300.853 350.795C300.676 350.65 300.485 350.58 300.274 350.58ZM301.99 353.425L301.922 353.409C301.073 353.03 299.392 351.512 299.52 350.718C299.55 350.532 299.683 350.3 300.141 350.253C300.482 350.219 300.791 350.315 301.064 350.539C301.959 351.272 302.148 353.162 302.156 353.242L302.087 353.393L301.99 353.425Z" fill="#2F627C"/>
<path d="M309.724 353.259H302.69L301.989 337.009H309.023L309.724 353.259Z" fill="#F46B74"/>
<path d="M361.348 350.01L354.474 351.494L347.572 336.36L354.446 334.875L361.348 350.01Z" fill="#F46B74"/>
<path d="M353.815 350.806L361.538 349.137C361.819 349.077 362.105 349.219 362.225 349.479L364.906 355.282C365.184 355.884 364.815 356.59 364.164 356.719C361.458 357.254 360.114 357.38 356.717 358.113C354.628 358.565 349.911 359.712 347.025 360.334C344.203 360.945 343.145 358.193 344.271 357.68C349.316 355.38 351.425 353.355 352.791 351.468C353.037 351.128 353.404 350.894 353.815 350.806Z" fill="#17282F"/>
<path d="M302.734 352.445H310.415C310.703 352.445 310.952 352.644 311.015 352.925L312.404 359.162C312.548 359.807 312.056 360.421 311.392 360.41C308.621 360.363 304.617 360.201 301.135 360.201C297.062 360.201 293.545 360.422 288.77 360.422C285.882 360.422 285.081 357.51 286.29 357.246C291.792 356.045 296.285 355.917 301.04 352.992C301.557 352.674 302.127 352.445 302.734 352.445Z" fill="#17282F"/>
<path d="M331.169 113.759C337.761 115.266 343.196 132.055 343.196 132.055L329.958 142.121C329.958 142.121 325.099 137.551 322.937 129.153C320.671 120.354 324.428 112.217 331.169 113.759Z" fill="#2F627C"/>
<path d="M329.955 142.121C329.955 142.121 329.216 141.427 328.187 140.082C328.187 140.08 328.187 140.082 328.187 140.08C329.182 141.38 329.906 142.074 329.956 142.121H329.955ZM330.486 141.718L330.542 141.674C330.373 138.267 329.875 134.549 328.702 131.364C329.178 125.61 329.954 119.662 331.166 113.759C331.166 113.759 330.967 113.719 330.605 113.651C330.79 113.68 330.976 113.715 331.166 113.759C337.758 115.266 343.193 132.055 343.193 132.055L341.4 133.419L332.824 139.939L330.486 141.718Z" fill="#349997"/>
<path d="M296.501 133.796C294.855 135.567 293.215 137.142 291.516 138.763C290.673 139.568 289.811 140.359 288.93 141.133L287.602 142.294L287.267 142.582C287.105 142.722 286.908 142.885 286.697 143.047C286.257 143.371 285.775 143.749 284.766 144.185C284.23 144.391 283.542 144.662 282.333 144.687C281.758 144.696 280.978 144.596 280.233 144.315C279.473 144.034 278.736 143.547 278.232 143.046C277.186 141.997 276.87 141.078 276.664 140.462C276.473 139.828 276.418 139.375 276.379 138.979C276.316 138.204 276.355 137.68 276.398 137.196C276.445 136.716 276.512 136.302 276.584 135.911C276.878 134.373 277.294 133.133 277.746 131.89C278.203 130.659 278.709 129.478 279.3 128.284C279.934 127.013 280.548 126.091 281.159 125.029C283.629 120.909 286.53 117.146 289.61 113.598C292.758 110.076 296.062 106.856 299.862 103.905L303.542 107.683C300.957 111.132 298.415 114.831 296.065 118.479C293.718 122.153 291.542 125.894 289.667 129.697C289.235 130.637 288.703 131.666 288.402 132.453C288.051 133.311 287.729 134.235 287.465 135.143C287.203 136.042 286.992 136.977 286.897 137.664C286.875 137.829 286.864 137.974 286.864 138.058C286.861 138.135 286.882 138.177 286.872 137.965C286.861 137.849 286.851 137.677 286.743 137.312C286.621 136.965 286.432 136.307 285.589 135.457C285.183 135.058 284.573 134.642 283.941 134.417C283.33 134.178 282.691 134.107 282.258 134.109C281.332 134.13 280.92 134.319 280.646 134.417C280.156 134.628 280.145 134.685 280.15 134.663L280.534 134.314L281.734 133.216L284.125 130.982C285.708 129.495 287.299 127.908 288.803 126.437L296.501 133.796Z" fill="#F46B74"/>
<path d="M329.959 142.123C329.959 142.123 329.958 142.123 329.956 142.121L330.486 141.718L329.959 142.123Z" fill="#C3C5C2"/>
<path d="M329.956 142.121C329.906 142.074 329.182 141.38 328.187 140.08C328.291 137.25 328.457 134.331 328.702 131.364C329.875 134.549 330.373 138.267 330.542 141.674L330.486 141.718L329.956 142.121Z" fill="#24427C"/>
<path d="M289.508 120.793C288.071 128.374 287.171 143.941 291.345 174.769H328.966C329.225 169.008 325.597 140.904 331.167 113.758C331.167 113.758 324.718 112.466 318.573 112.17C313.766 111.94 306.806 111.786 302.581 112.171C300.816 112.332 299.085 112.585 297.542 112.858C293.474 113.576 290.276 116.743 289.508 120.793Z" fill="#2F627C"/>
<path d="M328.965 174.769H291.344C289.521 161.31 288.666 150.758 288.401 142.512C288.402 142.511 288.404 142.51 288.406 142.509C288.441 143.587 288.487 144.707 288.543 145.866C290.085 144.116 291.836 141.884 293.168 139.5C298.092 136.092 304.633 130.568 304.637 125.257C304.637 124.531 304.516 123.808 304.25 123.095C302.382 118.071 301.328 112.91 297.548 112.91C297.436 112.91 297.322 112.914 297.206 112.924C297.317 112.9 297.428 112.878 297.541 112.858C299.084 112.585 300.815 112.332 302.58 112.171C304.442 112.002 306.835 111.937 309.342 111.937C312.522 111.937 315.884 112.042 318.572 112.17C324.717 112.466 331.166 113.758 331.166 113.758C329.954 119.66 329.178 125.608 328.702 131.362C328.457 134.329 328.291 137.248 328.187 140.079C328.187 140.081 328.187 140.079 328.187 140.081C328.084 142.902 328.041 145.64 328.041 148.261C328.041 160.537 328.98 170.256 328.979 174.079C328.979 174.129 328.979 174.179 328.978 174.227C328.977 174.425 328.973 174.606 328.965 174.769Z" fill="#349997"/>
<path d="M288.544 145.866C288.488 144.707 288.442 143.588 288.407 142.509C289.296 142.001 291.088 140.94 293.169 139.5C291.837 141.885 290.086 144.116 288.544 145.866Z" fill="#24427C"/>
<path d="M309.388 345.388H309.384L309.023 337.012H309.028L309.388 345.388Z" fill="#C3C5C2"/>
<path d="M309.385 345.388H302.352L302.351 345.38L301.992 337.012H309.024L309.385 345.388Z" fill="#EA5B5B"/>
<path d="M358.007 342.68L357.318 341.169L357.322 341.168L358.012 342.678L358.007 342.68Z" fill="#C3C5C2"/>
<path d="M351.134 344.164L350.445 342.654L357.318 341.169L358.007 342.68L351.134 344.164Z" fill="#EA5B5B"/>
<path d="M319.934 88.9901C318.127 95.716 317.412 99.7444 313.251 102.542C306.992 106.749 299.199 101.921 298.956 94.7912C298.736 88.3736 301.728 78.4514 308.964 77.0956C316.093 75.7598 321.741 82.2622 319.934 88.9901Z" fill="#F46B74"/>
<path d="M304.148 89.2479C303.814 88.3461 302.256 81.3947 303.719 79.59C305.182 77.7853 321.83 79.0832 324.292 81.5005C328.376 85.5099 325.543 89.0883 321.071 93.7052C317.709 97.1769 317.579 101.091 315.883 101.665C312.911 102.672 308.303 101.725 307.378 98.5606C306.454 95.3952 304.148 89.2479 304.148 89.2479Z" fill="#17282F"/>
<path d="M322.273 73.5937C316.389 71.0937 305.356 73.8591 299.399 72.4255C299.186 75.5031 301.047 80.4383 307.005 81.7652C307.005 81.7652 315.462 83.4102 322.005 83.1449C328.547 82.8795 327.271 75.7156 322.273 73.5937Z" fill="#17282F"/>
<path d="M323.195 81.714C323.195 81.714 326.834 82.122 329.418 80.5218C330.522 83.1745 324.473 83.9027 323.195 81.714Z" fill="#17282F"/>
<path d="M307.353 89.525C307.244 91.3457 306.396 93.0596 305.377 94.1799C303.843 95.8649 302.244 94.8154 301.972 92.7633C301.727 90.9157 302.23 87.8121 304.105 86.8824C305.952 85.9666 307.478 87.443 307.353 89.525Z" fill="#F46B74"/>
<path d="M304.691 174.769C304.691 174.769 312.674 228.395 317.056 248.484C321.855 270.484 347.587 343.271 347.587 343.271L360.178 340.552C360.178 340.552 342.185 281.235 338.157 250.479C335.063 226.853 328.967 174.769 328.967 174.769H304.691Z" fill="#2F627C"/>
<path d="M344.57 339.078L346.917 343.62L361.083 340.561L359.889 336.313L344.57 339.078Z" fill="#17282F"/>
<path d="M316.877 247.68C316.832 247.467 316.786 247.252 316.74 247.032H316.744C316.789 247.248 316.833 247.457 316.878 247.666C316.877 247.671 316.877 247.676 316.877 247.68ZM316.536 246.035H316.533C316.253 244.674 315.961 243.201 315.66 241.638H315.662C315.963 243.2 316.256 244.674 316.536 246.035ZM315.471 240.641H315.47C314.761 236.916 314.007 232.72 313.239 228.295C314.008 232.72 314.762 236.915 315.471 240.641Z" fill="#A4A6A5"/>
<path d="M315.665 241.639H315.663C315.6 241.31 315.536 240.977 315.473 240.641H315.474C315.538 240.977 315.602 241.31 315.665 241.639Z" fill="#949696"/>
<path d="M316.746 247.033H316.742C316.674 246.708 316.605 246.376 316.535 246.036H316.538C316.608 246.376 316.677 246.708 316.746 247.033Z" fill="#949696"/>
<path d="M316.879 247.667C316.834 247.458 316.79 247.249 316.745 247.034C316.676 246.708 316.607 246.376 316.537 246.036C316.257 244.675 315.964 243.202 315.663 241.639C315.6 241.311 315.536 240.978 315.472 240.642C314.763 236.917 314.009 232.722 313.24 228.296C311.29 217.056 309.252 204.34 307.658 194.125C308.077 193.916 308.533 193.805 309.027 193.805C309.255 193.805 309.491 193.828 309.735 193.877C318.963 195.681 317.989 230.002 316.879 247.667Z" fill="#2D5BB2"/>
<path d="M291.346 174.771C291.346 174.771 290.377 227.234 291.142 248.633C291.938 270.891 299.731 343.768 299.731 343.768H311.646C311.646 343.768 312.084 272.191 312.614 250.332C313.191 226.502 316.076 174.771 316.076 174.771H291.346Z" fill="#2F627C"/>
<path d="M297.437 339.033L298.109 343.968H312.604L312.996 339.563L297.437 339.033Z" fill="#17282F"/>
<path d="M304.252 123.096C307.625 132.163 287.811 142.844 287.811 142.844L279.232 131.841C279.232 131.841 284.955 120.478 291.979 115.356C300.654 109.029 301.685 116.193 304.252 123.096Z" fill="#2F627C"/>
<path d="M287.811 142.844L287.471 142.408L279.232 131.841C279.232 131.841 284.955 120.478 291.979 115.356C294.341 113.633 296.136 112.91 297.55 112.91C301.33 112.91 302.384 118.072 304.252 123.096C304.518 123.808 304.639 124.532 304.639 125.258C304.635 130.569 298.094 136.093 293.17 139.501C291.089 140.94 289.297 142.002 288.408 142.51C288.406 142.511 288.404 142.512 288.403 142.513C288.024 142.728 287.811 142.844 287.811 142.844Z" fill="#349997"/>
<path d="M417.96 31.3059C417.96 43.9776 401.804 54.251 381.874 54.251C361.943 54.251 345.787 43.9776 345.787 31.3059C345.787 18.6332 361.943 8.36083 381.874 8.36083C401.804 8.36083 417.96 18.6332 417.96 31.3059Z" fill="#2F627C"/>
<path d="M368.891 27.3835C368.522 27.3835 368.15 27.4214 367.78 27.4972C366.366 27.7885 365.15 28.6106 364.357 29.8117C363.565 31.0138 363.288 32.4534 363.58 33.867C363.872 35.2766 364.696 36.4887 365.903 37.2808C367.109 38.0729 368.553 38.3482 369.966 38.0569C371.382 37.7656 372.598 36.9426 373.391 35.7395C374.183 34.5374 374.458 33.0978 374.166 31.6872C373.873 30.2736 373.05 29.0595 371.846 28.2694C370.956 27.6858 369.935 27.3835 368.891 27.3835ZM368.861 39.1683C367.623 39.1683 366.412 38.8092 365.354 38.1148C363.924 37.1761 362.946 35.7395 362.602 34.0685C362.255 32.3945 362.582 30.6876 363.523 29.263C364.463 27.8394 365.903 26.8647 367.579 26.5196C369.257 26.1744 370.968 26.4996 372.396 27.4364C373.822 28.3721 374.799 29.8107 375.145 31.4857C375.491 33.1577 375.165 34.8626 374.227 36.2872C373.287 37.7138 371.846 38.6894 370.167 39.0346C369.732 39.1244 369.295 39.1683 368.861 39.1683ZM366.85 23.9188C362.211 24.9703 359.096 29.6331 359.906 34.3139C360.329 36.7621 361.694 38.879 363.749 40.2766C365.804 41.6733 368.276 42.1681 370.713 41.6663C374.578 40.8702 377.475 37.7078 377.919 33.7971L377.96 33.438L386.045 31.773C386.512 31.6772 386.995 31.79 387.37 32.0833C387.745 32.3756 387.971 32.8155 387.99 33.2894L388.036 34.4237C388.047 34.711 388.252 34.9564 388.512 34.9953C389.402 35.128 390.171 35.6477 390.622 36.4219C390.732 36.6114 390.941 36.794 391.21 36.7391L391.677 36.6433C391.941 36.5885 392.065 36.3371 392.091 36.1196C392.24 34.8656 393.178 33.851 394.424 33.5946C395.666 33.3392 396.925 33.9019 397.559 34.9933C397.669 35.1828 397.877 35.3684 398.146 35.3115L398.623 35.2128C398.888 35.1589 399.01 34.9075 399.034 34.691C399.139 33.8011 399.636 33.021 400.398 32.5481C400.622 32.4095 400.712 32.1032 400.608 31.8359L400.2 30.7754C400.029 30.3324 400.063 29.8386 400.291 29.4216C400.52 29.0046 400.918 28.7113 401.385 28.6156L401.993 28.4899C402.669 28.3512 403.241 27.9521 403.606 27.3675C403.97 26.7829 404.073 26.0926 403.898 25.4242C403.568 24.1682 402.186 23.3751 400.82 23.6584L376.951 28.5727L376.772 28.2594C374.77 24.7728 370.788 23.0249 366.85 23.9188ZM368.848 42.8555C366.843 42.8555 364.886 42.2569 363.186 41.1007C360.905 39.5514 359.391 37.201 358.92 34.4825C358.022 29.288 361.48 24.1133 366.629 22.9451C370.869 21.9864 375.175 23.7891 377.452 27.4514L400.619 22.6808C402.496 22.2947 404.403 23.411 404.865 25.1718C405.11 26.1086 404.965 27.0742 404.455 27.8933C403.944 28.7133 403.143 29.272 402.195 29.4665L401.587 29.5922C401.405 29.6291 401.257 29.7389 401.169 29.9005C401.081 30.0591 401.068 30.2487 401.134 30.4183L401.542 31.4777C401.819 32.195 401.561 33.0021 400.926 33.3961C400.432 33.7024 400.096 34.2301 400.028 34.8067C399.946 35.5131 399.474 36.0567 398.824 36.1904L398.348 36.2882C397.7 36.4199 397.051 36.1106 396.693 35.4941C396.275 34.7738 395.445 34.4027 394.625 34.5723C393.802 34.7419 393.183 35.4113 393.083 36.2373C392.998 36.9446 392.525 37.4873 391.878 37.62L391.411 37.7158C390.771 37.8485 390.114 37.5382 389.757 36.9227C389.464 36.4199 388.944 36.0687 388.365 35.9819C387.626 35.8722 387.067 35.2337 387.036 34.4636L386.99 33.3293C386.983 33.1457 386.899 32.9811 386.754 32.8684C386.609 32.7547 386.435 32.7137 386.247 32.7507L378.865 34.271C378.239 38.444 375.086 41.785 370.914 42.644C370.226 42.7856 369.534 42.8555 368.848 42.8555Z" fill="white"/>
<path d="M352.496 67.7041C345.946 67.7041 340.635 64.3272 340.635 60.1621C340.635 55.9971 345.946 52.6212 352.496 52.6212C359.047 52.6212 364.357 55.9971 364.357 60.1621C364.357 64.3272 359.047 67.7041 352.496 67.7041Z" fill="#7DA6DD"/>
<path d="M333.629 70.7998C333.003 70.7998 332.404 70.725 331.854 70.5873L334.05 64.6196C336.542 64.7553 338.498 66.0841 338.498 67.7042C338.498 69.4141 336.318 70.7998 333.629 70.7998Z" fill="#B8D2EF"/>
<path d="M331.855 70.5869C330.044 70.137 328.761 69.0157 328.761 67.7038C328.761 65.9939 330.941 64.6082 333.63 64.6082C333.772 64.6082 333.912 64.6122 334.051 64.6192L331.855 70.5869Z" fill="#B0CAEC"/>
</svg>
