<svg width="390" height="428" viewBox="0 0 390 428" fill="none" xmlns="http://www.w3.org/2000/svg">
<path d="M75.6661 373.116C142.623 408.095 251.181 408.096 318.138 373.117C385.095 338.138 385.095 281.426 318.138 246.447C251.181 211.468 142.622 211.468 75.6653 246.446C8.70909 281.425 8.70909 338.138 75.6661 373.116Z" fill="#F5F5F5"/>
<path d="M275.927 341.359C293.498 341.359 307.741 333.135 307.741 322.991C307.741 312.847 293.498 304.623 275.927 304.623C258.357 304.623 244.113 312.847 244.113 322.991C244.113 333.135 258.357 341.359 275.927 341.359Z" fill="#E0E0E0"/>
<path d="M82.1541 313.402C81.6826 308.004 76.8014 297.164 70.5875 290.644C64.3736 284.125 55.1193 279.769 49.0502 282.456C43.398 284.958 44.6965 292.547 52.2088 296.994C59.7212 301.442 70.9034 306.876 74.7771 315.361L82.2389 325.534L82.1541 313.402Z" fill="#349997"/>
<path opacity="0.1" d="M82.1541 313.402C81.6826 308.004 76.8014 297.164 70.5875 290.644C64.3736 284.125 55.1193 279.769 49.0502 282.456C43.398 284.958 44.6965 292.547 52.2088 296.994C59.7212 301.442 70.9034 306.876 74.7771 315.361L82.2389 325.534L82.1541 313.402Z" fill="black"/>
<path d="M83.1978 320.753C83.0243 320.754 82.8648 320.64 82.815 320.467C77.5907 302.356 61.3757 288.681 52.1641 286.151C51.9533 286.093 51.8296 285.875 51.8872 285.664C51.9447 285.454 52.1579 285.326 52.3742 285.387C61.7608 287.965 78.2723 301.862 83.5759 320.247C83.6366 320.457 83.5152 320.676 83.3059 320.737C83.2686 320.748 83.2328 320.753 83.1978 320.753Z" fill="white"/>
<path d="M81.4808 332.788C80.3488 329.83 76.2044 325.146 69.8489 321.534C62.8181 317.537 54.2422 316.167 51.9961 312.774C49.298 308.699 52.5516 304.342 59.4369 304.591C66.3222 304.841 79.111 313.089 82.2479 326.914L81.4808 332.788Z" fill="#349997"/>
<path d="M82.5211 329.489C82.3702 329.49 82.2262 329.404 82.1586 329.258C75.1285 313.965 62.6004 309.477 56.9584 309.24C56.7397 309.231 56.5701 309.046 56.5795 308.827C56.588 308.608 56.7646 308.439 56.9918 308.449C63.2306 308.71 75.7027 313.317 82.8782 328.926C82.9692 329.125 82.8821 329.36 82.6837 329.452C82.6308 329.476 82.5756 329.488 82.5211 329.489Z" fill="white"/>
<path d="M293.44 306.403C293.322 302.06 294.53 294.775 298.809 287.504C303.389 279.724 309.435 274.511 314.515 276.096C319.247 277.572 318.206 283.993 311.092 290.987C306.101 295.893 301.047 302.122 298.739 309.235L294.736 318.4L293.44 306.403Z" fill="#349997"/>
<path d="M293.44 306.403C293.322 302.06 294.53 294.775 298.809 287.504C303.389 279.724 309.435 274.511 314.515 276.096C319.247 277.572 318.206 283.993 311.092 290.987C306.101 295.893 301.047 302.122 298.739 309.235L294.736 318.4L293.44 306.403Z" fill="#349997"/>
<g opacity="0.1">
<path d="M293.44 306.403C293.322 302.06 294.53 294.775 298.809 287.504C303.389 279.724 309.435 274.511 314.515 276.096C319.247 277.572 318.206 283.993 311.092 290.987C306.101 295.893 301.047 302.122 298.739 309.235L294.736 318.4L293.44 306.403Z" fill="black"/>
</g>
<path d="M294.231 309.637C294.356 309.624 294.465 309.534 294.497 309.405C297.545 297 305.268 283.946 312.464 279.042C312.605 278.946 312.641 278.754 312.546 278.614C312.449 278.473 312.258 278.438 312.118 278.533C304.811 283.513 296.979 296.722 293.9 309.257C293.859 309.422 293.959 309.589 294.124 309.629C294.16 309.639 294.196 309.641 294.231 309.637Z" fill="white"/>
<path d="M293.397 320.468C293.397 320.468 296.436 323.508 301.848 324.7C307.261 325.891 309.828 323.421 309.828 323.421C309.828 323.421 307.982 318.167 304.965 316.545C304.965 316.545 310.162 317.932 314.217 321.001C314.217 321.001 317.55 321.251 319.183 316.237C319.183 316.237 317.388 313.054 310.854 311.004C310.854 311.004 314.95 310.229 320.677 312.059C321.103 312.258 323.354 305.784 324.098 302.78C324.842 299.776 323.619 299.735 321.288 298.962C318.957 298.188 310.916 297.31 309.357 298.524C307.797 299.738 306.777 304.147 306.777 304.147C306.777 304.147 305.509 301.542 305.984 299.313C305.984 299.313 303.654 298.365 300.938 299.134C298.222 299.902 298.314 301.209 298.198 303.145C298.075 305.215 298.198 306.602 298.652 308.958C298.652 308.958 296.909 307.258 297.194 301.395C297.194 301.395 293.415 304.258 291.813 306.816C290.211 309.372 290.164 316.314 293.397 320.468Z" fill="#349997"/>
<path d="M293.378 320.776C293.492 320.783 293.606 320.725 293.665 320.618C298.621 311.72 315.649 302.052 321.59 301.26C321.758 301.237 321.877 301.082 321.855 300.913C321.832 300.745 321.676 300.628 321.509 300.649C315.47 301.454 298.162 311.277 293.127 320.318C293.044 320.467 293.098 320.654 293.246 320.737C293.289 320.76 293.333 320.773 293.378 320.776Z" fill="white"/>
<path d="M86.3594 338.751L84.2425 337.529C82.5231 336.536 81.1289 334.121 81.1289 332.135V146.586C81.1289 144.601 82.5231 142.186 84.2425 141.193L169.818 91.7856C171.537 90.7928 174.326 90.7928 176.046 91.7856L178.165 93.0086C179.885 94.0013 181.279 96.4162 181.279 98.4017V283.95C181.279 285.935 179.885 288.35 178.166 289.343L92.5881 338.751C90.8671 339.744 88.0788 339.744 86.3594 338.751Z" fill="#37474F"/>
<path d="M93.6459 150.218L82.0397 143.518C81.4765 144.494 81.1279 145.593 81.1279 146.586V332.134C81.1279 334.12 82.5221 336.535 84.2415 337.528L86.3584 338.75C88.0786 339.743 90.8662 339.743 92.5863 338.75L93.6459 338.139V150.218Z" fill="#263238"/>
<path d="M89.4727 151.406V336.954C89.4727 338.939 90.8668 339.745 92.587 338.752L178.165 289.344C179.884 288.351 181.278 285.937 181.278 283.951V98.4028C181.278 96.4173 179.884 95.6121 178.164 96.6048L92.5862 146.012C90.8668 147.005 89.4727 149.42 89.4727 151.406Z" fill="#455A64"/>
<path d="M96.3148 163.134L174.13 118.211C175.604 117.36 176.799 118.05 176.799 119.752V267.78C176.799 269.482 175.604 271.552 174.13 272.403L96.3156 317.326C94.8413 318.177 93.6463 317.487 93.6463 315.784L93.6455 167.757C93.6463 166.054 94.8405 163.985 96.3148 163.134Z" fill="#EBEBEB"/>
<g opacity="0.4">
<path d="M135.653 174.801C144.377 169.764 151.449 173.847 151.449 183.92C151.449 193.994 144.377 206.243 135.653 211.28C126.929 216.316 119.856 212.234 119.856 202.16C119.856 192.086 126.929 179.837 135.653 174.801Z" fill="#349997"/>
<path d="M166.783 228.675C166.783 212.126 155.163 204.778 140.833 213.054L131.872 218.226C117.542 226.501 105.922 246.624 105.922 263.174V267.628L166.783 232.513V228.675Z" fill="#349997"/>
</g>
<path d="M135.375 126.127C136.527 125.462 137.461 126.001 137.461 127.332C137.461 128.662 136.527 130.28 135.375 130.946C134.222 131.611 133.288 131.072 133.288 129.741C133.288 128.41 134.222 126.792 135.375 126.127Z" fill="#263238"/>
<path d="M129.351 136.548C133.59 134.205 141.153 129.704 145.332 127.245C146.042 126.828 146.617 127.115 146.617 127.888C146.617 128.66 146.039 129.62 145.326 130.031L129.317 139.277C128.604 139.688 128.026 139.396 128.026 138.623C128.026 137.852 128.63 136.947 129.351 136.548Z" fill="#263238"/>
<path d="M125.305 138.887C125.953 138.513 126.477 138.816 126.477 139.563C126.477 140.309 125.953 141.218 125.305 141.592C124.658 141.965 124.134 141.662 124.134 140.915C124.134 140.168 124.659 139.26 125.305 138.887Z" fill="#263238"/>
<path d="M135.374 299.591C137.679 298.261 139.548 299.339 139.548 302.001C139.548 304.662 137.68 307.898 135.374 309.228C133.07 310.559 131.201 309.481 131.201 306.819C131.201 304.158 133.07 300.922 135.374 299.591Z" fill="#263238"/>
<path d="M206.337 247.616L196.953 242.199C196.953 242.199 196.943 242.199 196.933 242.199L196.836 242.14L196.826 242.16C192.159 239.525 185.762 239.914 178.674 244.007C172.044 247.828 165.997 254.206 161.437 261.585C156.168 270.082 152.853 279.921 152.853 288.739C152.853 296.964 155.73 302.739 160.387 305.442V305.452L160.417 305.461L169.945 310.903C174.651 313.903 181.294 313.637 188.663 309.382C202.928 301.146 214.492 281.118 214.493 264.646C214.493 256.072 211.355 250.16 206.337 247.616Z" fill="#349997"/>
<path opacity="0.1" d="M169.759 310.797L160.415 305.458L160.385 305.448V305.438C155.727 302.739 152.854 296.961 152.854 288.736C152.854 279.918 156.166 270.086 161.438 261.589L171.406 267.338C166.135 275.834 162.831 285.656 162.831 294.466C162.831 302.33 165.462 307.952 169.759 310.797Z" fill="black"/>
<path opacity="0.4" d="M206.144 247.509C201.544 245.278 195.406 245.843 188.663 249.731C182.027 253.571 175.976 259.953 171.406 267.339L161.438 261.59C165.997 254.204 172.049 247.831 178.675 244.011C185.759 239.919 192.161 239.529 196.828 242.16L196.837 242.14L196.935 242.199C196.945 242.199 196.954 242.199 196.954 242.199L206.144 247.509Z" fill="white"/>
<path d="M202.113 258.003L198.537 255.939L184.523 288.962L186.913 290.342L202.113 258.003Z" fill="white"/>
<path d="M181.777 281.59L178.201 279.525L174.36 287.656L177.937 289.72L181.777 281.59Z" fill="white"/>
<path d="M187.834 300.026L177.937 289.721L181.777 281.591L186.913 290.342L202.113 258.004L207.746 263.501L187.834 300.026Z" fill="#F5F5F5"/>
<path d="M174.36 287.656L177.937 289.72L187.835 300.026L184.26 297.983L174.36 287.656Z" fill="#E0E0E0"/>
<path d="M279.268 166.532C287.709 166.532 294.552 159.689 294.552 151.248V150.346C294.552 143.193 288.753 137.393 281.598 137.393H276.937C269.783 137.393 263.983 143.192 263.983 150.346V151.248C263.984 159.689 270.827 166.532 279.268 166.532Z" fill="#263238"/>
<path d="M263.538 317.667C261.764 319.61 259.806 321.167 257.706 322.74C257.391 322.975 257.066 323.224 256.896 323.578C256.62 324.15 256.193 325.566 258.801 326.475C261.349 327.364 264.527 327.156 266.847 325.703C268.989 324.363 269.085 321.574 271.105 319.984C272.603 318.805 274.472 318.502 275.683 316.963C276.526 315.891 276.306 314.464 275.867 312.698C275.387 310.77 275.166 309.312 274.528 309.46L274.633 310.346C273.837 311.617 269.71 311.992 267.873 311.115C267.873 311.115 264.695 316.4 263.538 317.667Z" fill="#263238"/>
<path d="M261.729 319.471C261.729 319.469 261.729 319.461 261.729 319.457C262.349 318.889 262.957 318.304 263.539 317.666C264.285 316.85 265.871 314.365 266.906 312.703C267.535 311.691 267.993 310.482 267.849 309.15C267.705 307.817 267.335 304.398 267.335 304.398L273.874 303.936L274.634 310.346C274.792 311.8 273.591 313.089 271.463 314.922C269.336 316.755 266.634 321.031 264.708 322.107C262.782 323.183 261.405 323.142 260.583 322.592C259.737 322.026 259.654 321.591 261.729 319.471Z" fill="#B16668"/>
<path d="M288.4 318.252V317.27C288.012 318.423 286.214 323.384 283.488 325.871C281.321 327.848 278.364 330.132 277.612 332.336C276.83 334.628 281.727 335.398 283.751 335.039C286.104 334.622 289.148 333.288 290.805 331.252C291.969 329.82 292.712 328.124 293.543 326.999C294.375 325.873 296.293 324.616 296.742 323.314C296.99 322.598 296.696 321.031 296.349 319.707C296.03 318.492 295.685 317.156 295.27 317.271C295.269 317.418 295.27 318.02 295.27 318.02C294.772 318.573 293.391 319.121 291.835 319.181C290.83 319.219 288.391 319.019 288.4 318.252Z" fill="#263238"/>
<path d="M281.527 327.61C282.199 327.01 282.875 326.423 283.489 325.864C285.394 324.126 286.846 321.18 287.68 319.169C288.156 318.022 288.401 316.796 288.401 315.553V311.637H295.272V318.012V318.183L295.238 318.2C294.907 319.628 291.754 323.426 289.962 325.902C288.762 327.562 286.479 329.675 283.753 330.039C281.168 330.384 279.847 329.57 281.527 327.61Z" fill="#B16668"/>
<path d="M293.905 211.466C299.232 223.1 293.712 264.085 293.712 264.085C293.873 265.973 296.032 269.688 296.835 277.998C297.785 287.817 295.345 312.47 295.345 312.47C295.345 312.47 292.163 314.55 288.4 312.746C288.4 312.746 281.852 275.616 280.62 265.854C279.546 257.334 277.483 237.309 277.483 237.309L272.128 266.036C272.128 266.036 273.869 270.711 274.22 274.348C274.777 280.09 274.359 306.65 274.359 306.65C274.359 306.65 272.01 308.437 267.51 307.775C267.51 307.775 259.715 271.415 259.112 264.505C258.752 260.376 263.458 209.764 263.458 209.764L293.905 211.466Z" fill="#349997"/>
<path opacity="0.6" d="M293.905 211.466C299.232 223.1 293.712 264.085 293.712 264.085C293.873 265.973 296.032 269.688 296.835 277.998C297.785 287.817 295.345 312.47 295.345 312.47C295.345 312.47 292.163 314.55 288.4 312.746C288.4 312.746 281.852 275.616 280.62 265.854C279.546 257.334 277.483 237.309 277.483 237.309L272.128 266.036C272.128 266.036 273.869 270.711 274.22 274.348C274.777 280.09 274.359 306.65 274.359 306.65C274.359 306.65 272.01 308.437 267.51 307.775C267.51 307.775 259.715 271.415 259.112 264.505C258.752 260.376 263.458 209.764 263.458 209.764L293.905 211.466Z" fill="black"/>
<path opacity="0.3" d="M277.482 237.309L275.753 227.795C275.753 227.795 268.436 226.279 265.118 223.159C265.118 223.159 268.6 227.49 273.77 228.908L275.713 237.228L272.654 263.215L277.482 237.309Z" fill="black"/>
<path d="M302.587 206.408C302.532 205.645 301.102 197.498 300.118 192.941L290.541 195.877L292.243 204.26L300.313 210.736C302.84 210.234 302.641 207.171 302.587 206.408Z" fill="#B16668"/>
<path d="M256.267 189.233L251.74 197.532L258.783 203.569L265.232 193.341L256.267 189.233Z" fill="#B16668"/>
<path d="M273.253 170.735C268.764 170.781 263.82 172.414 262.119 175.935C260.418 179.455 255.707 189.166 255.707 189.166C255.707 189.166 259.898 194.861 266.192 194.452L273.253 170.735Z" fill="#349997"/>
<path opacity="0.6" d="M273.253 170.735C268.764 170.781 263.82 172.414 262.119 175.935C260.418 179.455 255.707 189.166 255.707 189.166C255.707 189.166 259.898 194.861 266.192 194.452L273.253 170.735Z" fill="black"/>
<path d="M282.549 170.896L286.285 171.047C290.352 172.025 291.818 174.814 293.526 178.422C294.827 181.168 294.842 184.353 293.849 187.224L289.09 200.992C289.09 200.992 291.318 206.378 293.905 211.467C281.962 218.133 267.049 214.629 263.458 209.765C263.306 208.733 263.513 204.082 263.223 198.79C262.914 193.147 262.139 186.776 263.026 183.288C264.673 176.813 267.758 170.735 273.899 170.735L282.549 170.896Z" fill="#F5F5F5"/>
<path d="M286.284 171.046C290.36 171.622 296.344 172.444 298.408 182.132C300.499 191.95 300.901 194.287 300.901 194.287C300.901 194.287 297.337 197.843 290.575 197.811C290.575 197.811 284.612 178.531 286.284 171.046Z" fill="#349997"/>
<path opacity="0.6" d="M286.284 171.046C290.36 171.622 296.344 172.444 298.408 182.132C300.499 191.95 300.901 194.287 300.901 194.287C300.901 194.287 297.337 197.843 290.575 197.811C290.575 197.811 284.612 178.531 286.284 171.046Z" fill="black"/>
<path d="M290.395 197.212C289.645 194.639 288.848 191.7 288.1 188.54C288.1 188.54 288.13 195.422 289.305 200.364L290.395 197.212Z" fill="#EBEBEB"/>
<path d="M269.005 143.574C267.39 144.528 265.395 148.589 265.592 157.101C265.759 164.316 268.097 166.097 269.271 166.612C270.445 167.125 272.71 166.813 274.911 166.446V170.775C274.911 170.775 271.869 174.309 272.061 176.295C272.252 178.281 276.454 178.75 279.302 176.81C282.149 174.871 283.974 171.919 283.974 171.919V161.453C283.974 161.453 285.46 163.438 287.891 161.824C290.323 160.209 290.414 156.214 289.002 154.779C287.589 153.344 284.542 153.799 283.974 155.781C283.974 155.781 280.463 155.909 275.788 153.34C271.112 150.771 269.315 146.372 269.005 143.574Z" fill="#B16668"/>
<path d="M273.646 155.288C273.619 155.808 274.004 156.248 274.505 156.272C275.005 156.297 275.432 155.894 275.458 155.374C275.484 154.854 275.099 154.413 274.599 154.39C274.099 154.366 273.672 154.769 273.646 155.288Z" fill="#263238"/>
<path d="M273.405 161.404L271.298 162.076C271.473 162.679 272.086 163.018 272.668 162.833C273.25 162.647 273.58 162.007 273.405 161.404Z" fill="#9A4A4D"/>
<path d="M266.208 152.503L268.043 151.231C267.708 150.707 267.025 150.567 266.519 150.918C266.012 151.269 265.873 151.979 266.208 152.503Z" fill="#263238"/>
<path d="M266.631 154.633C266.605 155.153 266.99 155.593 267.49 155.617C267.99 155.641 268.417 155.239 268.443 154.719C268.469 154.199 268.084 153.758 267.584 153.734C267.085 153.711 266.658 154.113 266.631 154.633Z" fill="#263238"/>
<path d="M270.91 154.114L270.767 159.575L267.893 158.685L270.91 154.114Z" fill="#9A4A4D"/>
<path d="M274.911 166.446C277.231 166.142 282.004 164.77 282.749 162.884C282.749 162.884 282.501 164.069 281.075 165.292C279.649 166.514 274.912 167.89 274.912 167.89V166.446H274.911Z" fill="#9A4A4D"/>
<path d="M236.94 188.723L263.279 195.659L271.053 228.347L246.013 221.074L236.94 188.723Z" fill="#349997"/>
<path opacity="0.15" d="M248.424 210.353C248.18 211.02 246.738 212.873 243.672 212.727L243.293 211.375L248.424 210.353Z" fill="black"/>
<path opacity="0.15" d="M254.311 211.374C254.426 212.245 256.218 213.859 259.245 214.868C262.69 216.016 267.977 215.409 267.977 215.409L267.503 213.783L254.311 211.374Z" fill="black"/>
<path opacity="0.15" d="M244.651 193.456C244.651 193.456 244.554 193.006 244.434 192.452C244.314 191.897 245.86 191.873 247.887 192.399L251.768 193.406C253.794 193.931 255.535 194.807 255.655 195.362L255.872 196.367L244.651 193.456Z" fill="black"/>
<path d="M242.826 189.667C242.749 189.32 243.376 189.229 244.224 189.464L245.761 189.888C245.761 189.888 245.303 187.716 248.713 188.476C252.123 189.235 252.868 191.702 252.868 191.702C252.868 191.702 253.602 191.91 254.509 192.168C255.415 192.425 256.236 192.914 256.343 193.259L256.537 193.883L242.97 190.312C242.97 190.312 242.902 190.014 242.826 189.667Z" fill="#37474F"/>
<path d="M244.693 190.752C245.937 191.052 246.453 191.218 246.639 192.073C246.852 193.05 246.938 193.766 246.938 193.766L252.943 195.353C252.943 195.353 252.653 194.116 252.561 193.635C252.468 193.152 252.673 192.862 253.628 193.115L253.709 192.732L244.3 190.337L244.693 190.752Z" fill="#37474F"/>
<path d="M244.487 193.551C244.487 193.551 244.39 193.101 244.27 192.546C244.15 191.992 245.696 191.968 247.723 192.494L251.604 193.5C253.63 194.025 255.371 194.901 255.491 195.457L255.708 196.461L244.487 193.551Z" fill="#37474F"/>
<path d="M300.313 210.737L292.244 204.261C292.244 204.261 274.413 207.437 272.317 207.602C270.222 207.767 267.895 206.287 267.096 204.23C266.297 202.173 264.89 202.429 264.89 202.429C264.89 202.429 265.51 205.036 265.709 205.869C265.906 206.701 260.884 207.385 258.1 206.442C255.315 205.499 251.282 206.868 253.78 210.661C256.279 214.454 261.135 214.891 264.509 214.894C265.442 214.895 267.099 214.824 268.728 214.613C269.82 214.471 270.906 214.361 272.004 214.283C278.907 213.789 297.175 211.722 300.313 210.737Z" fill="#B16668"/>
<path d="M239.62 198.279C239.62 198.279 240.563 201.644 240.788 202.447C241.014 203.25 244.076 204.709 246.012 205.241C247.947 205.773 250.065 206.403 249.149 209.11C248.304 211.606 245.119 212.176 243.496 212.105C241.874 212.035 239.654 210.485 238.779 207.986C237.663 204.798 238.264 201.393 237.821 199.531C237.379 197.67 238.649 197.169 239.62 198.279Z" fill="#B16668"/>
<path d="M292.634 183.288C287.851 183.288 283.974 179.41 283.974 174.627V162.471C288.757 162.471 292.634 166.348 292.634 171.131V183.288Z" fill="#263238"/>
</svg>
