<svg width="500" height="500" viewBox="0 0 500 500" fill="none" xmlns="http://www.w3.org/2000/svg">
<path d="M500 382.4H0V382.65H500V382.4Z" fill="#EBEBEB"/>
<path d="M449.9 398.49H396.83V398.74H449.9V398.49Z" fill="#EBEBEB"/>
<path d="M331.22 395.36H272.56V395.61H331.22V395.36Z" fill="#EBEBEB"/>
<path d="M399.39 393.92H380.2V394.17H399.39V393.92Z" fill="#EBEBEB"/>
<path d="M143.66 390.89H100.47V391.14H143.66V390.89Z" fill="#EBEBEB"/>
<path d="M94.9 390.89H79.46V391.14H94.9V390.89Z" fill="#EBEBEB"/>
<path d="M185.67 395.11H131.47V395.36H185.67V395.11Z" fill="#EBEBEB"/>
<path d="M237 337.8H43.91C42.3973 337.797 40.9475 337.195 39.8788 336.124C38.8102 335.053 38.21 333.603 38.21 332.09V60.66C38.2231 59.156 38.8292 57.718 39.8964 56.6582C40.9637 55.5985 42.4059 55.0026 43.91 55H237C238.514 55 239.967 55.6016 241.038 56.6724C242.108 57.7433 242.71 59.1956 242.71 60.71V332.09C242.71 333.604 242.108 335.057 241.038 336.128C239.967 337.198 238.514 337.8 237 337.8ZM43.91 55.2C42.4636 55.2026 41.0774 55.7791 40.0556 56.8027C39.0338 57.8264 38.46 59.2136 38.46 60.66V332.09C38.46 333.536 39.0338 334.924 40.0556 335.947C41.0774 336.971 42.4636 337.547 43.91 337.55H237C238.447 337.547 239.834 336.971 240.858 335.948C241.881 334.924 242.457 333.537 242.46 332.09V60.66C242.457 59.2127 241.881 57.8255 240.858 56.8021C239.834 55.7787 238.447 55.2026 237 55.2H43.91Z" fill="#EBEBEB"/>
<path d="M453.31 337.8H260.21C258.696 337.797 257.246 337.195 256.175 336.125C255.105 335.054 254.503 333.604 254.5 332.09V60.66C254.516 59.1551 255.124 57.7171 256.193 56.6576C257.262 55.5981 258.705 55.0025 260.21 55H453.31C454.812 55.0052 456.252 55.6022 457.317 56.6617C458.382 57.7212 458.987 59.1578 459 60.66V332.09C459 333.601 458.401 335.05 457.335 336.121C456.268 337.191 454.821 337.795 453.31 337.8ZM260.21 55.2C258.763 55.2026 257.375 55.7787 256.352 56.8021C255.329 57.8255 254.753 59.2127 254.75 60.66V332.09C254.753 333.537 255.329 334.924 256.352 335.948C257.375 336.971 258.763 337.547 260.21 337.55H453.31C454.757 337.547 456.145 336.971 457.168 335.948C458.191 334.924 458.767 333.537 458.77 332.09V60.66C458.767 59.2127 458.191 57.8255 457.168 56.8021C456.145 55.7787 454.757 55.2026 453.31 55.2H260.21Z" fill="#EBEBEB"/>
<path d="M266.71 373.94H277.22V248.91H266.71V373.94Z" fill="#F0F0F0"/>
<path d="M64.7397 382.27H273.18V373.94H64.7397V382.27Z" fill="#F0F0F0"/>
<path d="M266.71 248.91H60.71V373.94H266.71V248.91Z" fill="#F5F5F5"/>
<path d="M269.19 248.91H280.05V241.03H269.19V248.91Z" fill="#E0E0E0"/>
<path d="M269.19 241.03H57.8896V248.91H269.19V241.03Z" fill="#EBEBEB"/>
<path d="M250.66 258.61H76.7497C72.453 258.61 68.9697 262.094 68.9697 266.39V293.96C68.9697 298.257 72.453 301.74 76.7497 301.74H250.66C254.956 301.74 258.44 298.257 258.44 293.96V266.39C258.44 262.094 254.956 258.61 250.66 258.61Z" fill="white"/>
<path d="M250.66 314.62H76.7497C72.453 314.62 68.9697 318.103 68.9697 322.4V349.97C68.9697 354.267 72.453 357.75 76.7497 357.75H250.66C254.956 357.75 258.44 354.267 258.44 349.97V322.4C258.44 318.103 254.956 314.62 250.66 314.62Z" fill="white"/>
<path d="M118.93 263.22H208.49C209.467 263.22 210.26 262.427 210.26 261.45V259.08C210.26 258.102 209.467 257.31 208.49 257.31H118.93C117.952 257.31 117.16 258.102 117.16 259.08V261.45C117.16 262.427 117.952 263.22 118.93 263.22Z" fill="#F5F5F5"/>
<path d="M118.93 319.23H208.49C209.467 319.23 210.26 318.438 210.26 317.46V315.09C210.26 314.113 209.467 313.32 208.49 313.32H118.93C117.952 313.32 117.16 314.113 117.16 315.09V317.46C117.16 318.438 117.952 319.23 118.93 319.23Z" fill="#F5F5F5"/>
<path d="M447.19 289.93H415.49V295.99H447.19V289.93Z" fill="#E6E6E6"/>
<path d="M391.2 382.4H397.05V175H391.2V382.4Z" fill="#E6E6E6"/>
<path d="M370.94 295.98H415.5V289.92H370.94V295.98Z" fill="#F5F5F5"/>
<path d="M447.19 345.73H415.49V351.79H447.19V345.73Z" fill="#E6E6E6"/>
<path d="M370.94 351.79H415.5V345.73H370.94V351.79Z" fill="#F5F5F5"/>
<path d="M447.19 178.32H415.49V184.38H447.19V178.32Z" fill="#E6E6E6"/>
<path d="M370.94 184.38H415.5V178.32H370.94V184.38Z" fill="#F5F5F5"/>
<path d="M447.19 234.12H415.49V240.18H447.19V234.12Z" fill="#E6E6E6"/>
<path d="M370.94 240.19H415.5V234.13H370.94V240.19Z" fill="#F5F5F5"/>
<path d="M435.76 382.4H441.61V175H435.76V382.4Z" fill="#E6E6E6"/>
<path d="M409.64 382.4H415.49V175H409.64V382.4Z" fill="#F5F5F5"/>
<path d="M370.94 382.4H376.79V175H370.94V382.4Z" fill="#F5F5F5"/>
<path d="M87.8899 223.64L352.09 223.64V83.3697L87.8899 83.3697V223.64Z" fill="#E0E0E0"/>
<path d="M81.2203 223.64L348.32 223.64V83.3697L81.2203 83.3697V223.64Z" fill="#F5F5F5"/>
<path d="M338.74 212.58V94.4199L90.7802 94.4199V212.58H338.74Z" fill="white"/>
<path d="M250 427.56C357.083 427.56 443.89 422.492 443.89 416.24C443.89 409.988 357.083 404.92 250 404.92C142.918 404.92 56.1104 409.988 56.1104 416.24C56.1104 422.492 142.918 427.56 250 427.56Z" fill="#F5F5F5"/>
<path d="M387.82 264.221H110.54C109.658 264.218 108.812 263.866 108.188 263.242C107.564 262.618 107.213 261.773 107.21 260.891C107.213 260.008 107.564 259.163 108.188 258.539C108.812 257.915 109.658 257.563 110.54 257.561H387.82C388.702 257.563 389.548 257.915 390.172 258.539C390.796 259.163 391.147 260.008 391.15 260.891C391.147 261.773 390.796 262.618 390.172 263.242C389.548 263.866 388.702 264.218 387.82 264.221Z" fill="#349997"/>
<path opacity="0.3" d="M387.82 264.221H322.91C322.028 264.218 321.182 263.866 320.558 263.242C319.934 262.618 319.583 261.773 319.58 260.891C319.583 260.008 319.934 259.163 320.558 258.539C321.182 257.915 322.028 257.563 322.91 257.561H387.82C388.702 257.563 389.548 257.915 390.172 258.539C390.796 259.163 391.147 260.008 391.15 260.891C391.147 261.773 390.796 262.618 390.172 263.242C389.548 263.866 388.702 264.218 387.82 264.221Z" fill="#263238"/>
<path d="M380.78 272.57H167.53V295.78H380.78V272.57Z" fill="#263238"/>
<path opacity="0.1" d="M380.78 272.57H167.53V295.78H380.78V272.57Z" fill="white"/>
<path d="M377.68 411.62H384.06L383.8 264.22H374.96L377.68 411.62Z" fill="#263238"/>
<path opacity="0.1" d="M377.68 411.62H384.06L383.8 264.22H374.96L377.68 411.62Z" fill="white"/>
<path d="M318.88 411.62H312.49L326.93 264.22H335.77L318.88 411.62Z" fill="#263238"/>
<path opacity="0.2" d="M318.88 411.62H312.49L326.93 264.22H335.77L318.88 411.62Z" fill="white"/>
<path d="M165.31 411.62H171.69L171.43 264.22H162.59L165.31 411.62Z" fill="#263238"/>
<path opacity="0.1" d="M165.31 411.62H171.69L171.43 264.22H162.59L165.31 411.62Z" fill="white"/>
<path d="M106.51 411.62H100.12L114.56 264.22H123.4L106.51 411.62Z" fill="#263238"/>
<path opacity="0.2" d="M106.51 411.62H100.12L114.56 264.22H123.4L106.51 411.62Z" fill="white"/>
<path d="M286.11 257.56H271.39L265.5 228.78H280.22L286.11 257.56Z" fill="#263238"/>
<path d="M305.64 251.63H241.78C241.283 251.636 240.791 251.538 240.334 251.343C239.877 251.149 239.465 250.861 239.125 250.5C238.785 250.138 238.523 249.709 238.357 249.241C238.191 248.773 238.124 248.275 238.16 247.78L240.6 207.35C240.675 206.314 241.135 205.344 241.891 204.631C242.646 203.919 243.641 203.515 244.68 203.5H308.55C309.046 203.496 309.538 203.595 309.994 203.79C310.45 203.985 310.861 204.272 311.201 204.634C311.541 204.995 311.803 205.423 311.969 205.891C312.136 206.358 312.204 206.855 312.17 207.35L309.73 247.78C309.652 248.817 309.19 249.787 308.433 250.5C307.676 251.212 306.679 251.616 305.64 251.63Z" fill="#263238"/>
<path d="M304.64 251.63H240.78C240.283 251.636 239.791 251.538 239.334 251.343C238.877 251.149 238.465 250.861 238.125 250.5C237.785 250.138 237.523 249.709 237.357 249.241C237.191 248.773 237.124 248.275 237.16 247.78L239.6 207.35C239.675 206.314 240.135 205.344 240.891 204.631C241.646 203.919 242.641 203.515 243.68 203.5H307.55C308.046 203.496 308.538 203.595 308.994 203.79C309.45 203.985 309.861 204.272 310.201 204.634C310.541 204.995 310.803 205.423 310.969 205.891C311.136 206.358 311.204 206.855 311.17 207.35L308.73 247.78C308.652 248.817 308.19 249.787 307.433 250.5C306.676 251.212 305.679 251.616 304.64 251.63Z" fill="#349997"/>
<path d="M240.77 249.63C240.548 249.631 240.328 249.588 240.124 249.502C239.919 249.416 239.734 249.289 239.58 249.13C239.43 248.964 239.314 248.77 239.24 248.559C239.166 248.347 239.136 248.123 239.15 247.9L241.59 207.47C241.627 206.936 241.862 206.436 242.248 206.066C242.635 205.696 243.145 205.484 243.68 205.47H307.55C307.773 205.466 307.995 205.51 308.2 205.597C308.406 205.684 308.591 205.813 308.743 205.976C308.896 206.139 309.013 206.332 309.086 206.543C309.16 206.754 309.188 206.977 309.17 207.2L306.73 247.63C306.695 248.164 306.461 248.666 306.074 249.037C305.687 249.407 305.175 249.619 304.64 249.63H240.77Z" fill="white"/>
<path opacity="0.2" d="M268.82 203.5L272.97 217.71L285.29 203.5H268.82Z" fill="black"/>
<path d="M169.55 169C169.65 169.77 170.13 170.35 170.64 170.31C171.15 170.27 171.47 169.61 171.37 168.84C171.27 168.07 170.79 167.49 170.29 167.53C169.79 167.57 169.46 168.25 169.55 169Z" fill="#263238"/>
<path d="M170.39 170.15C171.29 172.147 172.454 174.013 173.85 175.7C172.75 176.81 170.74 176.36 170.74 176.36L170.39 170.15Z" fill="#A02724"/>
<path d="M167 166.07C166.924 166.084 166.846 166.084 166.77 166.07C166.659 166.021 166.571 165.932 166.524 165.82C166.478 165.708 166.476 165.583 166.52 165.47C166.78 164.804 167.198 164.211 167.738 163.742C168.278 163.274 168.924 162.943 169.62 162.78C169.678 162.77 169.738 162.772 169.796 162.785C169.854 162.798 169.908 162.822 169.957 162.857C170.005 162.891 170.046 162.935 170.078 162.985C170.109 163.035 170.13 163.091 170.14 163.15C170.16 163.269 170.133 163.392 170.064 163.491C169.994 163.59 169.889 163.658 169.77 163.68C169.225 163.812 168.72 164.076 168.302 164.449C167.883 164.823 167.563 165.293 167.37 165.82C167.333 165.888 167.28 165.947 167.216 165.991C167.151 166.034 167.077 166.061 167 166.07Z" fill="#263238"/>
<path d="M146.89 181.07L152.89 185.67L161.08 191.94C160.631 192.883 160.36 193.9 160.28 194.94C159.99 197.24 159.7 198.94 164.81 200.35C165.353 200.48 165.847 200.763 166.233 201.165C166.62 201.568 166.882 202.073 166.99 202.62C167.19 203.98 166.36 205.62 161.64 206.43C157.068 207.113 152.398 206.318 148.31 204.16C146.31 203.16 146.31 201.96 147.15 199.93C149.67 194.16 148.45 186.8 146.89 181.07Z" fill="#B55B52"/>
<path d="M140 201.75C141.152 199.533 142.103 197.217 142.84 194.83C142.84 194.83 158.04 194 163.06 195.5C168.08 197 171.2 203.5 171.2 203.5L140 201.75Z" fill="#349997"/>
<path d="M146.36 213.06C145.99 214.18 145.58 215.55 145.19 216.81L144.06 220.71C143.36 223.31 142.68 225.92 142.15 228.52C141.585 231.063 141.155 233.633 140.86 236.22C140.551 238.597 140.478 240.999 140.64 243.39C140.699 244.403 140.853 245.407 141.1 246.39C141.16 246.59 141.21 246.81 141.28 247L141.48 247.54C141.432 247.444 141.379 247.35 141.32 247.26C141.217 247.114 141.107 246.974 140.99 246.84C140.861 246.686 140.713 246.548 140.55 246.43C140.35 246.29 140.32 246.31 140.36 246.36C140.652 246.571 140.968 246.749 141.3 246.89C141.75 247.09 142.3 247.29 142.85 247.48C143.98 247.86 145.23 248.21 146.52 248.55C151.68 249.85 157.31 250.86 162.8 252.03L162.62 258.96C159.687 259.352 156.737 259.595 153.78 259.69C150.779 259.799 147.775 259.749 144.78 259.54C143.193 259.434 141.614 259.24 140.05 258.96C139.23 258.81 138.38 258.64 137.48 258.39C136.444 258.123 135.439 257.751 134.48 257.28C133.769 256.938 133.098 256.519 132.48 256.03C132.041 255.682 131.636 255.293 131.27 254.87C131.04 254.599 130.827 254.316 130.63 254.02C130.53 253.85 130.42 253.68 130.33 253.51L130.2 253.27L129.51 251.86C129.3 251.39 129.13 250.93 128.95 250.46C128.319 248.71 127.863 246.901 127.59 245.06C126.59 238.11 127.38 231.91 128.42 225.88C128.98 222.88 129.64 219.88 130.42 217.03C130.82 215.58 131.24 214.13 131.69 212.7C132.14 211.27 132.62 209.89 133.2 208.32L146.36 213.06Z" fill="#B55B52"/>
<path d="M137.11 200.51C146.56 198.01 152.17 205.75 148.97 218.51C145.77 231.27 144.7 231.75 144.7 231.75L125.21 228.5C127.61 216 127.42 203.06 137.11 200.51Z" fill="#349997"/>
<path d="M167.64 249.26L166.17 249.13C161.99 249.13 161.27 250.27 158.7 252.66L157.7 257.92C164.45 261.37 168.07 257.58 168.08 257.58H174.33L172.13 252.58C171.746 251.676 171.127 250.891 170.338 250.308C169.548 249.724 168.617 249.362 167.64 249.26Z" fill="#B55B52"/>
<path d="M144.31 171.12C146.01 180.23 146.54 185.65 151.76 189.72C159.6 195.83 170.4 190.02 171.46 180.54C172.41 172.01 169.46 158.54 160.04 156.15C157.939 155.631 155.741 155.65 153.649 156.205C151.558 156.76 149.64 157.832 148.072 159.324C146.504 160.816 145.338 162.679 144.68 164.74C144.023 166.802 143.895 168.996 144.31 171.12Z" fill="#B55B52"/>
<path d="M162.36 174.3C168.86 173.78 166.96 166.93 164.95 165.5C168 164.34 170.1 159.5 167.17 156.18C168.89 151.69 163.97 146.28 155.34 147.09C149.04 147.67 148.34 151 148.34 151C148.34 151 140.79 150.21 137.65 156.44C134.97 161.78 138.22 164.63 138.22 164.63C138.22 164.63 132.58 166.27 134.14 173.63C135.8 181.57 141.9 179.73 141.9 179.73C141.9 179.73 140.53 187.01 148.78 187.11C155.91 187.2 156 181.86 156 181.86C156 181.86 165.24 181 162.36 174.3Z" fill="#263238"/>
<path d="M157.52 174.83C158.249 176.784 159.673 178.4 161.52 179.37C163.9 180.59 165.72 178.06 165.3 175.46C164.92 173.13 162.89 170.14 160.38 170C157.87 169.86 156.63 172.41 157.52 174.83Z" fill="#B55B52"/>
<path d="M254.47 400.17L263.36 396.56L257.08 375.21L248.19 378.81L254.47 400.17Z" fill="#B55B52"/>
<path opacity="0.2" d="M251.24 389.17L260.22 385.87L257.08 375.21L248.19 378.81L251.24 389.17Z" fill="black"/>
<path d="M262.59 393L252.42 396.53C252.334 396.557 252.255 396.6 252.186 396.656C252.117 396.713 252.06 396.783 252.018 396.862C251.977 396.941 251.951 397.028 251.942 397.116C251.934 397.205 251.943 397.295 251.97 397.38L254.27 405.6C254.417 406.024 254.726 406.372 255.128 406.57C255.53 406.768 255.994 406.801 256.42 406.66C259.93 405.36 261.35 404.66 265.69 402.78C269.962 400.993 274.14 398.991 278.21 396.78C281.6 394.78 279.56 391.37 277.91 391.93C274 393.25 267.59 394.11 264.34 392.99C263.771 392.799 263.155 392.802 262.59 393Z" fill="#263238"/>
<path d="M183.07 277C183.07 277 250.26 283 252 302.33C255.5 341.66 260.87 379.58 260.87 379.58L247.2 384.58C247.2 384.58 230.47 341.38 230.69 310.58C211.31 305.11 160.35 313.14 152.02 298.19C144.66 284.99 151.12 275.51 151.12 275.51L183.07 277Z" fill="#263238"/>
<path d="M246.18 387.69L263.2 381.94L262.46 374.19L243.27 380.37L246.18 387.69Z" fill="#349997"/>
<path d="M266.34 393.41C265.522 393.673 264.676 393.844 263.82 393.92C263.777 393.926 263.733 393.919 263.693 393.899C263.654 393.879 263.622 393.849 263.6 393.81C263.578 393.774 263.566 393.733 263.566 393.69C263.566 393.648 263.578 393.606 263.6 393.57C263.82 393.27 265.78 390.63 267.03 390.67C267.173 390.679 267.312 390.723 267.434 390.798C267.556 390.873 267.658 390.977 267.73 391.1C267.86 391.277 267.941 391.485 267.964 391.703C267.987 391.921 267.951 392.141 267.86 392.34C267.503 392.872 266.961 393.253 266.34 393.41ZM264.34 393.41C266.07 393.17 267.25 392.71 267.52 392.14C267.577 392.01 267.596 391.866 267.577 391.725C267.557 391.584 267.5 391.451 267.41 391.34C267.379 391.276 267.331 391.222 267.271 391.183C267.211 391.144 267.142 391.122 267.07 391.12C266.35 391.09 265.11 392.38 264.29 393.41H264.34Z" fill="#349997"/>
<path d="M263.87 393.91C263.834 393.92 263.796 393.92 263.76 393.91C263.723 393.904 263.688 393.889 263.659 393.866C263.629 393.843 263.605 393.814 263.59 393.78C263.59 393.67 262.44 391.14 263.04 389.94C263.117 389.787 263.228 389.653 263.365 389.549C263.502 389.445 263.661 389.373 263.83 389.34C264.013 389.278 264.213 389.281 264.395 389.349C264.577 389.416 264.73 389.544 264.83 389.71C265.38 390.63 264.69 392.98 263.98 393.83C263.952 393.867 263.913 393.895 263.87 393.91ZM263.87 389.81C263.784 389.839 263.706 389.885 263.639 389.945C263.572 390.005 263.518 390.078 263.48 390.16C263.12 390.87 263.56 392.39 263.89 393.24C264.44 392.3 264.84 390.55 264.48 389.95C264.41 389.84 264.29 389.71 263.97 389.78L263.87 389.81Z" fill="#349997"/>
<path d="M206.9 406.52L216.4 406.07L217.95 383.64L208.45 384.09L206.9 406.52Z" fill="#B55B52"/>
<path d="M216.62 404.45L205.86 404.11C205.771 404.104 205.681 404.114 205.596 404.142C205.511 404.171 205.432 404.215 205.364 404.274C205.296 404.332 205.241 404.404 205.2 404.484C205.16 404.564 205.136 404.651 205.13 404.74L204.34 413.23C204.332 413.456 204.369 413.681 204.448 413.892C204.527 414.103 204.647 414.296 204.802 414.461C204.956 414.625 205.141 414.758 205.347 414.85C205.553 414.943 205.774 414.994 206 415C209.75 415.05 211.54 414.89 216.27 415C219.18 415.09 224.91 415.52 228.9 415C232.89 414.48 232.28 410.57 230.54 410.42C226.43 410.09 220.92 407.25 218.29 405.04C217.817 404.658 217.228 404.45 216.62 404.45Z" fill="#263238"/>
<path d="M220 406.22C219.14 406.171 218.289 406.03 217.46 405.8C217.417 405.791 217.379 405.769 217.349 405.738C217.319 405.706 217.299 405.667 217.291 405.624C217.284 405.581 217.289 405.537 217.307 405.497C217.324 405.458 217.353 405.424 217.39 405.4C217.7 405.19 220.47 403.4 221.63 403.92C221.761 403.978 221.876 404.068 221.963 404.181C222.051 404.295 222.108 404.429 222.13 404.57C222.188 404.781 222.188 405.003 222.132 405.214C222.076 405.425 221.965 405.617 221.81 405.77C221.286 406.146 220.638 406.307 220 406.22ZM218.08 405.49C219.78 405.89 221.08 405.88 221.51 405.49C221.608 405.385 221.677 405.256 221.708 405.115C221.74 404.974 221.734 404.828 221.69 404.69C221.68 404.621 221.653 404.555 221.611 404.499C221.569 404.443 221.514 404.399 221.45 404.37C220.79 404.07 219.17 404.82 218 405.49H218.08Z" fill="#349997"/>
<path d="M217.47 405.81C217.434 405.819 217.396 405.819 217.36 405.81C217.328 405.789 217.301 405.761 217.282 405.728C217.263 405.695 217.252 405.658 217.25 405.62C217.25 405.51 217.12 402.75 218.11 401.85C218.239 401.723 218.399 401.631 218.574 401.582C218.749 401.533 218.933 401.529 219.11 401.57C219.301 401.581 219.483 401.656 219.627 401.783C219.77 401.91 219.866 402.081 219.9 402.27C220.08 403.32 218.59 405.27 217.62 405.81C217.572 405.83 217.518 405.83 217.47 405.81ZM218.9 402C218.81 401.994 218.72 402.007 218.636 402.038C218.551 402.069 218.474 402.117 218.41 402.18C217.82 402.71 217.69 404.29 217.69 405.18C218.54 404.5 219.54 403.01 219.42 402.32C219.42 402.19 219.32 402.04 219 401.99L218.9 402Z" fill="#349997"/>
<path opacity="0.2" d="M208.45 384.09L217.96 383.64L217.06 396.47L207.59 396.46L208.45 384.09Z" fill="black"/>
<path d="M160.75 275.93C160.75 275.93 233.15 287 232 303.67C229.93 333.67 219.87 392.3 219.87 392.3L205.61 392.5C205.61 392.5 202.24 332.36 207.61 310.44C189.8 310.44 139.56 309.82 132.71 300.67C125.13 290.56 132.92 274.67 132.92 274.67L160.75 275.93Z" fill="#263238"/>
<path d="M203.93 393.62L221.19 393.35L222.04 384.23L203.1 384.97L203.93 393.62Z" fill="#349997"/>
<path d="M173.5 199.5C167.67 198.36 141.38 198.69 141.38 198.69C138.752 198.618 136.193 199.534 134.208 201.258C132.223 202.982 130.957 205.388 130.66 208C129.74 216.11 134.89 234.23 135.07 243.47C135.29 254.82 133.12 259.42 132.9 274.7L183.07 277C183.07 246.27 181.73 220.83 180.52 208.63C180.09 204.34 179.33 200.63 173.5 199.5Z" fill="#349997"/>
<path opacity="0.3" d="M173.5 199.5C167.67 198.36 141.38 198.69 141.38 198.69C138.752 198.618 136.193 199.534 134.208 201.258C132.223 202.982 130.957 205.388 130.66 208C129.74 216.11 134.89 234.23 135.07 243.47C135.29 254.82 133.12 259.42 132.9 274.7L183.07 277C183.07 246.27 181.73 220.83 180.52 208.63C180.09 204.34 179.33 200.63 173.5 199.5Z" fill="white"/>
<path d="M180.37 209.18C181.94 214.58 183.52 220.13 185.15 225.55C186.78 230.97 188.45 236.42 190.33 241.55C190.79 242.86 191.33 244.08 191.77 245.34L192.54 247.11L192.64 247.33V247.44V247.5V247.43C192.467 247.121 192.252 246.838 192 246.59C191.66 246.26 191.53 246.23 191.5 246.23C191.723 246.431 191.981 246.59 192.26 246.7C192.75 246.936 193.254 247.14 193.77 247.31C194.9 247.7 196.17 248.05 197.46 248.4C202.69 249.73 208.4 250.75 213.96 251.94L213.78 258.87C210.795 259.272 207.791 259.516 204.78 259.6C201.733 259.717 198.681 259.66 195.64 259.43C194.023 259.314 192.414 259.107 190.82 258.81C189.98 258.65 189.11 258.45 188.17 258.18C187.055 257.867 185.981 257.424 184.97 256.86C184.164 256.397 183.425 255.829 182.77 255.17C182.271 254.654 181.84 254.076 181.49 253.45L181.15 252.82L180.02 250.68C179.36 249.28 178.64 247.87 178.02 246.48C176.79 243.67 175.71 240.89 174.63 238.1C173.55 235.31 172.63 232.52 171.7 229.72C169.85 224.09 168.18 218.52 166.7 212.72L180.37 209.18Z" fill="#B55B52"/>
<path d="M166.12 203.61C172.98 196.61 181.75 200.43 185.52 213.07C189.29 225.71 188.61 226.63 188.61 226.63L170.18 233.78C165.83 221.74 159.1 210.74 166.12 203.61Z" fill="#349997"/>
<path d="M218.86 249.26L217.39 249.13C213.21 249.13 212.5 250.27 209.93 252.66L208.93 257.92C215.68 261.37 219.3 257.58 219.3 257.58H225.56L223.35 252.58C222.968 251.675 222.349 250.889 221.559 250.305C220.769 249.721 219.837 249.36 218.86 249.26Z" fill="#B55B52"/>
<path d="M135.1 314.1H199.179C200.588 314.1 201.729 312.958 201.729 311.55V307.43C201.729 306.021 200.588 304.88 199.179 304.88H135.1C133.691 304.88 132.549 306.021 132.549 307.43V311.55C132.549 312.958 133.691 314.1 135.1 314.1Z" fill="#349997"/>
<path d="M135.39 416.75H132.55L135.82 314.09H139.75L135.39 416.75Z" fill="#349997"/>
<path opacity="0.4" d="M135.39 416.75H132.55L135.82 314.09H139.75L135.39 416.75Z" fill="white"/>
<path d="M161.51 416.75H164.35L161.09 314.09H157.16L161.51 416.75Z" fill="#349997"/>
<path opacity="0.4" d="M161.51 416.75H164.35L161.09 314.09H157.16L161.51 416.75Z" fill="white"/>
<path d="M172.77 416.75H169.93L173.2 314.09H177.13L172.77 416.75Z" fill="#349997"/>
<path opacity="0.4" d="M172.77 416.75H169.93L173.2 314.09H177.13L172.77 416.75Z" fill="white"/>
<path d="M198.89 416.75H201.73L198.47 314.09H194.54L198.89 416.75Z" fill="#349997"/>
<path opacity="0.4" d="M198.89 416.75H201.73L198.47 314.09H194.54L198.89 416.75Z" fill="white"/>
<g opacity="0.3">
<path d="M135.82 314.09H139.75L139.56 318.45H135.68L135.82 314.09Z" fill="#349997"/>
<path d="M161.22 318.45H157.34L157.16 314.09H161.08L161.22 318.45Z" fill="#349997"/>
<path d="M177.12 314.09L176.94 318.45H173.06L173.2 314.09H177.12Z" fill="#349997"/>
<path d="M198.61 318.45H194.72L194.54 314.09H198.47L198.61 318.45Z" fill="#349997"/>
</g>
<path d="M389 188.61H228.83C227.585 188.623 226.352 188.378 225.207 187.889C224.062 187.401 223.031 186.681 222.178 185.774C221.326 184.867 220.671 183.794 220.255 182.621C219.838 181.448 219.67 180.201 219.76 178.96L225.87 77.5899C226.062 74.9927 227.22 72.5617 229.115 70.7756C231.01 68.9895 233.506 67.9778 236.11 67.9399H396.24C397.484 67.927 398.718 68.1723 399.863 68.6604C401.008 69.1485 402.039 69.8687 402.891 70.7756C403.744 71.6825 404.399 72.7563 404.815 73.9292C405.231 75.1021 405.4 76.3486 405.31 77.5899L399.19 179C398.991 181.582 397.837 183.998 395.953 185.775C394.069 187.552 391.589 188.563 389 188.61Z" fill="#349997"/>
<path d="M250.26 167.18L265.03 217.71L308.85 167.18H250.26Z" fill="#349997"/>
<path opacity="0.1" d="M381.19 147.82H291.43C290.732 147.827 290.04 147.69 289.398 147.416C288.756 147.143 288.177 146.739 287.699 146.231C287.221 145.722 286.853 145.12 286.619 144.463C286.385 143.805 286.29 143.106 286.34 142.41L289.77 85.5899C289.877 84.1338 290.526 82.7708 291.589 81.7694C292.651 80.768 294.05 80.2009 295.51 80.1799H385.27C385.97 80.1649 386.666 80.2971 387.311 80.568C387.957 80.839 388.539 81.2425 389.019 81.7525C389.498 82.2625 389.866 82.8677 390.097 83.5287C390.328 84.1897 390.418 84.892 390.36 85.5899L386.93 142.41C386.823 143.866 386.174 145.229 385.111 146.23C384.049 147.232 382.65 147.799 381.19 147.82Z" fill="white"/>
<path opacity="0.1" d="M333.17 172.329H243.399C242.702 172.335 242.012 172.197 241.371 171.923C240.73 171.649 240.152 171.245 239.675 170.736C239.198 170.228 238.831 169.627 238.598 168.97C238.365 168.313 238.27 167.615 238.32 166.919L241.749 110.099C241.857 108.645 242.504 107.283 243.564 106.282C244.625 105.281 246.021 104.713 247.479 104.689H337.249C337.949 104.676 338.643 104.809 339.288 105.081C339.932 105.352 340.513 105.756 340.991 106.266C341.47 106.776 341.837 107.38 342.067 108.041C342.298 108.701 342.387 109.402 342.329 110.099L338.899 166.919C338.792 168.374 338.145 169.735 337.085 170.737C336.024 171.738 334.628 172.306 333.17 172.329Z" fill="white"/>
<g opacity="0.5">
<path d="M242.21 76.7598C242.191 77.5276 241.887 78.261 241.356 78.816C240.825 79.371 240.106 79.7076 239.34 79.7598C238.975 79.7417 238.619 79.6473 238.294 79.4825C237.968 79.3178 237.681 79.0864 237.451 78.8035C237.221 78.5206 237.053 78.1924 236.958 77.8403C236.863 77.4882 236.843 77.12 236.9 76.7598C236.922 75.9933 237.228 75.2624 237.758 74.7084C238.288 74.1543 239.005 73.8163 239.77 73.7598C240.134 73.7778 240.49 73.8723 240.816 74.037C241.141 74.2018 241.428 74.4331 241.658 74.716C241.888 74.999 242.056 75.3271 242.151 75.6792C242.246 76.0313 242.266 76.3995 242.21 76.7598Z" fill="white"/>
<path d="M252 76.7598C251.979 77.5269 251.674 78.259 251.144 78.8136C250.613 79.3681 249.895 79.7054 249.13 79.7598C248.765 79.7431 248.407 79.6496 248.081 79.4855C247.754 79.3213 247.466 79.0901 247.235 78.8071C247.003 78.524 246.835 78.1953 246.739 77.8426C246.643 77.4898 246.623 77.1208 246.68 76.7598C246.702 75.9933 247.008 75.2624 247.538 74.7084C248.069 74.1543 248.785 73.8163 249.55 73.7598C249.914 73.778 250.271 73.8725 250.597 74.0371C250.923 74.2017 251.21 74.4329 251.441 74.7156C251.672 74.9983 251.841 75.3263 251.937 75.6784C252.034 76.0305 252.055 76.3989 252 76.7598Z" fill="white"/>
<path d="M261.86 76.7598C261.842 77.5276 261.537 78.261 261.006 78.816C260.475 79.371 259.756 79.7076 258.99 79.7598C258.626 79.7417 258.269 79.6473 257.944 79.4825C257.619 79.3178 257.332 79.0864 257.101 78.8035C256.871 78.5206 256.703 78.1924 256.608 77.8403C256.513 77.4882 256.493 77.12 256.55 76.7598C256.573 75.9933 256.879 75.2624 257.409 74.7084C257.939 74.1543 258.655 73.8163 259.42 73.7598C259.784 73.7778 260.141 73.8723 260.466 74.037C260.791 74.2018 261.078 74.4331 261.309 74.716C261.539 74.999 261.707 75.3271 261.802 75.6792C261.897 76.0313 261.917 76.3995 261.86 76.7598Z" fill="white"/>
</g>
<path opacity="0.3" d="M387.76 187.67H227.63C226.352 187.68 225.085 187.425 223.91 186.922C222.735 186.419 221.676 185.679 220.801 184.747C219.926 183.816 219.253 182.713 218.824 181.509C218.395 180.305 218.22 179.025 218.31 177.75L224.43 76.3795C224.622 73.7187 225.806 71.2267 227.746 69.3956C229.686 67.5646 232.242 66.5276 234.91 66.4895H395C396.278 66.4795 397.545 66.7339 398.72 67.2368C399.895 67.7397 400.954 68.4803 401.829 69.4119C402.704 70.3435 403.377 71.4461 403.806 72.6503C404.235 73.8545 404.41 75.1344 404.32 76.4095L398.21 177.78C398.016 180.435 396.836 182.921 394.903 184.751C392.969 186.581 390.422 187.622 387.76 187.67ZM234.91 66.9995C232.366 67.0306 229.926 68.016 228.074 69.7606C226.222 71.5052 225.093 73.8818 224.91 76.4195L218.79 177.79C218.701 178.997 218.864 180.21 219.269 181.352C219.673 182.493 220.31 183.538 221.139 184.421C221.968 185.303 222.971 186.004 224.085 186.479C225.199 186.954 226.399 187.192 227.61 187.18H387.76C390.303 187.146 392.742 186.16 394.593 184.416C396.445 182.672 397.575 180.296 397.76 177.76L403.87 76.3895C403.956 75.1783 403.789 73.9624 403.381 72.8189C402.973 71.6754 402.331 70.6291 401.497 69.7464C400.663 68.8637 399.655 68.1638 398.537 67.6909C397.419 67.2181 396.214 66.9827 395 66.9995H234.91Z" fill="#263238"/>
<path d="M301.05 128.409C300.37 129.849 299.75 131.079 299.05 132.409C298.35 133.739 297.65 134.939 296.93 136.189C295.46 138.679 293.93 141.189 292.29 143.529C291.463 144.729 290.616 145.919 289.75 147.099C288.84 148.259 287.98 149.439 287.01 150.569C285.118 152.911 283.077 155.129 280.9 157.209C280.35 157.749 279.75 158.209 279.17 158.779C278.594 159.319 277.987 159.823 277.35 160.289L275.43 161.739L274.84 162.149C274.579 162.315 274.308 162.465 274.03 162.599C273.481 162.863 272.904 163.064 272.31 163.199C271.136 163.474 269.916 163.483 268.738 163.227C267.56 162.971 266.454 162.456 265.5 161.719C265.027 161.346 264.594 160.924 264.21 160.459L263.94 160.099L263.81 159.919L263.76 159.839L263.58 159.519L262.86 158.219C262.64 157.799 262.49 157.399 262.31 156.989C261.68 155.48 261.165 153.926 260.77 152.339C260.074 149.448 259.586 146.51 259.31 143.549C259.017 140.666 258.891 137.768 258.93 134.869C258.951 134.047 259.265 133.259 259.816 132.648C260.367 132.037 261.118 131.643 261.933 131.537C262.749 131.431 263.576 131.62 264.265 132.069C264.953 132.519 265.459 133.2 265.69 133.989V134.109C267.015 139.206 268.655 144.216 270.6 149.109C271.045 150.145 271.563 151.147 272.15 152.109C272.28 152.309 272.41 152.549 272.54 152.719L272.92 153.179L273.01 153.299L272.96 153.219L272.85 153.069C272.693 152.864 272.512 152.68 272.31 152.519C271.911 152.197 271.447 151.965 270.95 151.839C270.452 151.734 269.938 151.734 269.44 151.839C269.181 151.894 268.929 151.978 268.69 152.089C268.56 152.089 268.45 152.219 268.33 152.279C268.21 152.339 268.03 152.489 268.16 152.379L269.41 151.159C269.83 150.779 270.24 150.319 270.65 149.879C271.06 149.439 271.48 149.009 271.88 148.539C275.177 144.585 278.178 140.394 280.86 135.999C282.23 133.769 283.58 131.499 284.86 129.199L286.79 125.739L288.62 122.359L288.72 122.179C289.588 120.626 291.022 119.468 292.724 118.947C294.425 118.426 296.262 118.583 297.851 119.384C299.44 120.186 300.658 121.57 301.25 123.248C301.842 124.926 301.763 126.768 301.03 128.389L301.05 128.409Z" fill="#263238"/>
<path d="M259.87 134.429L255 131.639L260.24 126.289C261.776 127.427 263.199 128.71 264.49 130.119C264.794 130.442 265.018 130.831 265.145 131.256C265.272 131.68 265.297 132.129 265.219 132.565C265.142 133.002 264.963 133.414 264.697 133.769C264.432 134.124 264.087 134.411 263.69 134.609C263.086 134.889 262.423 135.019 261.758 134.988C261.093 134.957 260.445 134.765 259.87 134.429Z" fill="#FFC3BD"/>
<path d="M253.89 125.91L256.54 124.02C256.885 123.769 257.314 123.665 257.735 123.728C258.156 123.792 258.535 124.019 258.79 124.36L260.24 126.29L255 131.64L253.35 127.88C253.2 127.539 253.172 127.158 253.271 126.799C253.369 126.44 253.588 126.126 253.89 125.91Z" fill="#FFC3BD"/>
<path d="M290.56 123.929C290.957 122.623 291.706 121.451 292.726 120.542C293.746 119.634 294.996 119.024 296.34 118.779C298.281 118.35 300.249 118.05 302.23 117.879C308.194 117.647 314.167 117.754 320.12 118.199C323.24 118.409 326.43 118.849 328.97 119.269H329.06C330.405 119.493 331.607 120.24 332.401 121.348C333.196 122.456 333.519 123.834 333.3 125.179C332.05 132.399 328.38 144.959 327.98 156.809C327.45 172.369 327.69 181.329 327.42 185.079L287.37 184.309C284.58 146.279 288.05 132.539 290.56 123.929Z" fill="white"/>
<path d="M330.13 118.679H330C327.32 118.239 324 117.769 320.67 117.549L318.89 117.449C317.14 124.689 306.71 136.869 303.55 155.329C302.33 139.899 301.39 123.769 303.18 117.479C300.35 117.565 297.526 117.802 294.72 118.189C293.237 118.525 291.868 119.248 290.754 120.284C289.641 121.32 288.822 122.633 288.38 124.089C285.92 131.329 281.22 147.549 284.11 187.429H328.62C328.91 183.429 327.87 175.029 329.48 162.099C331.03 149.579 333.26 132.539 334.57 124.929C334.805 123.512 334.47 122.06 333.638 120.889C332.807 119.718 331.546 118.924 330.13 118.679Z" fill="#263238"/>
<path opacity="0.2" d="M302.6 185.35C302.533 185.352 302.467 185.329 302.416 185.284C302.366 185.239 302.335 185.177 302.33 185.11C301.39 173.86 303.15 157.71 303.17 157.54C303.174 157.505 303.184 157.472 303.201 157.442C303.217 157.412 303.24 157.385 303.267 157.364C303.294 157.343 303.325 157.327 303.358 157.317C303.391 157.308 303.426 157.305 303.46 157.31C303.53 157.317 303.594 157.352 303.639 157.406C303.684 157.46 303.705 157.529 303.7 157.6C303.7 157.76 301.92 173.87 302.86 185.06C302.864 185.094 302.861 185.13 302.851 185.164C302.841 185.197 302.824 185.229 302.802 185.256C302.78 185.283 302.752 185.305 302.721 185.321C302.689 185.338 302.655 185.347 302.62 185.35H302.6Z" fill="white"/>
<path opacity="0.3" d="M328.56 134.51C326.91 141.99 327.79 152.35 329.56 161.8C330.87 151.19 332.66 137.42 333.97 128.9C332.14 127.68 329.87 128.54 328.56 134.51Z" fill="black"/>
<path d="M303.08 117.83C308.27 116.69 309.17 113.49 308.8 109.95C308.708 109.065 308.565 108.187 308.37 107.32L314.85 102.02L319.62 98.1396C318.32 103.88 316.89 114.35 320.81 118.26C320.81 118.26 317.61 123.51 308.71 122.87C301.19 122.33 303.08 117.83 303.08 117.83Z" fill="#FFC3BD"/>
<path d="M310.97 121.55L309.53 122.91L314.13 124.64L313.53 122.89L310.97 121.55Z" fill="#E0E0E0"/>
<path d="M314.49 127.079C314.49 127.079 312.68 122.509 310.97 121.539C314.333 120.737 317.414 119.033 319.88 116.609L322.61 117.699C322.61 117.699 323.47 122.999 314.49 127.079Z" fill="#F5F5F5"/>
<path d="M308.45 121.189L309.53 122.909L304.69 123.329L305.66 121.799L308.45 121.189Z" fill="#E0E0E0"/>
<path d="M302.26 125.789C304.033 123.9 306.129 122.342 308.45 121.189C305.82 120.409 305.66 116.789 305.66 116.789L303.11 117.279C303.11 117.279 298.43 121.829 302.26 125.789Z" fill="#F5F5F5"/>
<path opacity="0.2" d="M308.37 107.31C308.565 108.18 308.708 109.062 308.8 109.95C311.22 109.51 314.46 106.95 314.8 104.5C314.915 103.678 314.939 102.846 314.87 102.02L308.37 107.31Z" fill="black"/>
<path d="M300.5 81.1394C298.18 83.9894 298.4 94.2994 303.31 94.4194C308.22 94.5394 304.72 75.9394 300.5 81.1394Z" fill="#263238"/>
<path d="M321.65 88.6394C321.16 96.4494 321.26 101.039 317.32 105.079C311.4 111.149 301.8 107.659 299.95 99.8894C298.3 92.8894 299.38 81.2994 307.01 78.1294C308.676 77.4164 310.498 77.1455 312.299 77.3429C314.101 77.5403 315.821 78.1994 317.293 79.2563C318.765 80.3132 319.94 81.7322 320.703 83.376C321.466 85.0198 321.792 86.8327 321.65 88.6394Z" fill="#FFC3BD"/>
<path d="M317.81 82.1397C312.9 87.0097 319.28 90.5797 316.81 93.1997C321.44 95.6197 319.74 97.3997 319.74 97.3997C319.261 98.7312 319.261 100.188 319.74 101.52C324.96 100.18 334.65 82.8397 324.07 80.1797C317.74 82.9997 317.81 82.1397 317.81 82.1397Z" fill="#263238"/>
<path d="M319.82 85.6396C315.17 86.3596 309.32 84.1396 305.69 82.2596C302.06 80.3796 301.53 83.9296 302.87 85.0096C300.54 85.0896 297.59 83.2496 298.32 79.1396C298.99 75.3896 303.9 71.8396 310.89 75.0096C315.84 77.2496 321.94 74.2996 324.32 76.8896C326.7 79.4796 322.92 85.1496 319.82 85.6396Z" fill="#263238"/>
<path d="M323 80.5497C326.12 80.1397 326.25 78.1697 325.38 74.7197C328.75 79.5097 327.38 80.9797 325.38 82.1397C323.15 81.3897 323 80.5497 323 80.5497Z" fill="#263238"/>
<path d="M323.75 94.6294C323.058 96.1571 321.851 97.3926 320.34 98.1194C318.41 98.9894 317.43 97.2094 317.95 95.1194C318.42 93.2294 319.95 90.5094 321.95 90.5294C323.95 90.5494 324.62 92.6994 323.75 94.6294Z" fill="#FFC3BD"/>
<path d="M309.46 90.9996C309.46 91.6296 309.12 92.1496 308.71 92.1596C308.3 92.1696 308 91.6496 308 90.9996C308 90.3496 308.34 89.8496 308.75 89.8496C309.16 89.8496 309.46 90.3596 309.46 90.9996Z" fill="#263238"/>
<path d="M302.3 91.0599C302.3 91.6999 301.96 92.2099 301.54 92.2199C301.12 92.2299 300.79 91.7099 300.8 91.0699C300.81 90.4299 301.13 89.9199 301.55 89.9199C301.97 89.9199 302.3 90.4299 302.3 91.0599Z" fill="#263238"/>
<path d="M305 91.2793C304.252 93.2269 303.243 95.0638 302 96.7393C302.431 97.0419 302.922 97.2477 303.44 97.3427C303.958 97.4376 304.49 97.4194 305 97.2893V91.2793Z" fill="#ED847E"/>
<path d="M307.52 98.9994C308.246 98.9181 308.947 98.6868 309.579 98.3201C310.211 97.9534 310.759 97.4594 311.19 96.8694C311.216 96.8283 311.225 96.7783 311.215 96.7305C311.205 96.6827 311.176 96.6409 311.135 96.6144C311.094 96.5879 311.044 96.5788 310.996 96.5891C310.948 96.5994 310.906 96.6283 310.88 96.6694C310.399 97.2982 309.778 97.8062 309.066 98.1534C308.354 98.5005 307.572 98.6772 306.78 98.6694C306.755 98.6694 306.731 98.6743 306.709 98.684C306.686 98.6937 306.666 98.7078 306.649 98.7256C306.632 98.7434 306.619 98.7645 306.611 98.7875C306.602 98.8105 306.599 98.835 306.6 98.8594C306.6 98.8839 306.605 98.9082 306.614 98.9307C306.624 98.9532 306.638 98.9735 306.656 98.9904C306.674 99.0072 306.695 99.0203 306.718 99.0287C306.741 99.0371 306.765 99.0408 306.79 99.0394C307.05 98.9994 307.29 98.9994 307.52 98.9994Z" fill="#263238"/>
<path d="M312.93 88.4694C312.993 88.4659 313.053 88.4412 313.1 88.3994C313.14 88.3708 313.174 88.3344 313.199 88.2923C313.225 88.2502 313.241 88.2033 313.248 88.1546C313.254 88.1058 313.251 88.0563 313.237 88.009C313.224 87.9617 313.201 87.9176 313.17 87.8794C312.827 87.4059 312.376 87.021 311.854 86.7567C311.332 86.4923 310.755 86.3562 310.17 86.3594C310.122 86.3632 310.075 86.3766 310.032 86.3989C309.989 86.4212 309.951 86.4519 309.92 86.4893C309.889 86.5266 309.866 86.5698 309.853 86.6162C309.839 86.6626 309.835 86.7113 309.84 86.7594C309.85 86.8593 309.899 86.9515 309.975 87.0167C310.051 87.0819 310.15 87.1151 310.25 87.1094C310.715 87.1051 311.173 87.2139 311.586 87.4264C311.999 87.639 312.354 87.9489 312.62 88.3294C312.657 88.3759 312.704 88.4128 312.758 88.4372C312.812 88.4615 312.871 88.4726 312.93 88.4694Z" fill="#263238"/>
<path d="M299.4 88.7798C299.46 88.7717 299.516 88.7492 299.565 88.7144C299.614 88.6795 299.653 88.6334 299.68 88.5798C299.871 88.1471 300.162 87.7657 300.529 87.4667C300.896 87.1678 301.328 86.9598 301.79 86.8598C301.839 86.8552 301.887 86.8403 301.93 86.8161C301.973 86.7919 302.01 86.7588 302.039 86.7192C302.068 86.6796 302.089 86.6342 302.099 86.586C302.11 86.5379 302.11 86.4881 302.1 86.4398C302.083 86.3435 302.03 86.2572 301.953 86.1979C301.875 86.1387 301.778 86.1108 301.68 86.1198C301.097 86.2349 300.55 86.4872 300.084 86.8559C299.618 87.2245 299.246 87.699 299 88.2398C298.958 88.3289 298.952 88.4309 298.984 88.5242C299.016 88.6175 299.083 88.6948 299.17 88.7398C299.242 88.7732 299.321 88.787 299.4 88.7798Z" fill="#263238"/>
<path d="M335.76 123.199C336.98 125.769 338 128.199 339 130.699C340 133.199 340.89 135.749 341.78 138.299C343.526 143.496 344.935 148.801 346 154.179C346.23 155.569 346.49 156.929 346.66 158.359L346.79 159.419L346.86 159.949V160.219V160.589C346.959 161.624 346.959 162.665 346.86 163.699C346.628 165.962 345.849 168.135 344.59 170.029C343.409 171.764 341.858 173.216 340.05 174.279C338.542 175.164 336.921 175.837 335.23 176.279C333.724 176.691 332.185 176.966 330.63 177.099C327.697 177.377 324.741 177.259 321.84 176.749C321.053 176.617 320.336 176.216 319.813 175.614C319.289 175.011 318.991 174.246 318.97 173.448C318.949 172.651 319.205 171.871 319.696 171.241C320.187 170.612 320.881 170.173 321.66 169.999L322.02 169.919C323.02 169.689 324.33 169.409 325.45 169.109C326.57 168.809 327.71 168.459 328.77 168.109C330.62 167.517 332.336 166.565 333.82 165.309C334.212 164.946 334.51 164.493 334.69 163.989C334.76 163.636 334.76 163.272 334.69 162.919C334.656 162.65 334.606 162.383 334.54 162.119L334.18 160.489C333.95 159.349 333.62 158.169 333.32 157.009C332.7 154.659 332 152.309 331.2 149.949C330.4 147.589 329.58 145.239 328.71 142.889C327.84 140.539 326.92 138.189 325.99 135.889C325.06 133.589 324.08 131.169 323.15 128.979V128.879C322.402 127.211 322.347 125.314 322.998 123.606C323.649 121.897 324.951 120.517 326.62 119.769C328.288 119.021 330.185 118.967 331.893 119.617C333.602 120.268 334.982 121.571 335.73 123.239L335.76 123.199Z" fill="#263238"/>
<path d="M318.68 172.88L314.27 175L321.89 177.71C321.89 177.71 326.97 176.09 324.51 173.27L323.14 172.84C320.94 172.12 319.86 172.2 318.68 172.88Z" fill="#FFC3BD"/>
<path d="M314.86 180.38L318.21 181.02C318.689 181.108 319.183 181.044 319.624 180.838C320.065 180.632 320.43 180.294 320.67 179.87L321.89 177.68L314.27 175L313.27 177.09C313.115 177.406 313.033 177.753 313.032 178.105C313.031 178.458 313.11 178.805 313.263 179.122C313.417 179.439 313.64 179.717 313.917 179.935C314.193 180.153 314.516 180.305 314.86 180.38Z" fill="#FFC3BD"/>
</svg>
