<svg width="213" height="247" viewBox="0 0 213 247" fill="none" xmlns="http://www.w3.org/2000/svg">
<path d="M125.253 241.043C58.7622 259.605 8.36111 232.495 1.00394 191.432C-6.35323 150.368 29.2119 128.153 27.0316 69.2753C24.8514 10.3973 115.607 -46.661 183.902 58.986C252.197 164.633 186.872 223.841 125.253 241.043Z" fill="#F5F5F5"/>
<path d="M148.863 45.4102H62.767C56.821 45.4102 52 50.2312 52 56.1772V217.214C52 223.16 56.82 227.981 62.767 227.981H148.863C154.809 227.981 159.63 223.161 159.63 217.214V56.1761C159.63 50.2301 154.809 45.4102 148.863 45.4102Z" fill="white"/>
<path d="M70.9648 156.199H141.311" stroke="#E3E9E7" stroke-width="5" stroke-miterlimit="10" stroke-linecap="round" stroke-linejoin="round"/>
<path d="M70.9648 167.799H141.311" stroke="#E3E9E7" stroke-width="5" stroke-miterlimit="10" stroke-linecap="round" stroke-linejoin="round"/>
<path d="M70.9648 179.4H141.311" stroke="#E3E9E7" stroke-width="5" stroke-miterlimit="10" stroke-linecap="round" stroke-linejoin="round"/>
<path d="M88.9883 190.818H123.284" stroke="#E3E9E7" stroke-width="5" stroke-miterlimit="10" stroke-linecap="round" stroke-linejoin="round"/>
<path d="M70.9648 55.5723H141.311" stroke="#E3E9E7" stroke-width="5" stroke-miterlimit="10" stroke-linecap="round" stroke-linejoin="round"/>
<path d="M149.984 199.371H62.2969" stroke="#F2F5F4" stroke-miterlimit="10"/>
<path d="M146.567 105.614C148.522 85.7184 133.979 68.0053 114.084 66.0502C94.1888 64.0951 76.4757 78.6383 74.5205 98.5334C72.5654 118.428 87.1086 136.142 107.004 138.097C126.899 140.052 144.612 125.509 146.567 105.614Z" fill="#E3E9E7"/>
<path d="M146.568 105.613C148.523 85.7181 133.979 68.0049 114.084 66.0498C94.1889 64.0946 76.4757 78.6379 74.5206 98.5332C72.5654 118.428 87.1087 136.142 107.004 138.097C126.899 140.052 144.612 125.509 146.568 105.613Z" fill="black"/>
<path d="M111.27 123.23C112.32 110.858 113.37 98.4863 114.419 86.1133L122.008 87.3123C121.698 90.7073 122.098 94.1643 123.173 97.3993C123.988 99.8483 125.178 102.152 126.256 104.498C127.334 106.844 128.312 109.271 128.661 111.829C129.01 114.387 128.682 117.111 127.303 119.293C125.923 121.475 123.379 123.001 120.81 122.75" fill="black"/>
<path d="M146.568 105.613C148.523 85.7181 133.979 68.0049 114.084 66.0498C94.1889 64.0946 76.4757 78.6379 74.5206 98.5332C72.5654 118.428 87.1087 136.142 107.004 138.097C126.899 140.052 144.612 125.509 146.568 105.613Z" fill="black"/>
<path d="M125.342 110.367C135.461 115.394 138.714 141.026 138.714 141.026L119.652 143.882L125.342 110.367Z" fill="#349997"/>
<path d="M125.341 110.371L124.91 117.438L124.065 131.246L123.943 133.25L123.553 139.6L123.064 147.582H96.5436L96.5206 147.343L93.5376 112.573L93.3516 110.371L101.095 108.303L116.986 107.008L121.883 108.548C121.883 108.554 121.883 108.554 121.883 108.554L125.341 110.371Z" fill="#349997"/>
<path d="M86.6306 117.678C86.0156 123.227 85.0886 141.294 86.3686 155.899L97.6756 151.456C106.155 115.281 97.4956 109.262 97.4956 109.262C97.4956 109.262 87.4936 109.89 86.6306 117.678Z" fill="#349997"/>
<path d="M97.4961 109.261L116.984 107.006L121.882 108.544C121.882 108.549 121.882 108.549 121.882 108.549C122.406 123.024 103.395 120.634 97.4961 109.261Z" fill="#A87259"/>
<path d="M112.935 111.804L107.243 111.793C105.159 111.789 103.473 110.097 103.477 108.013L103.502 96.7363L117.003 96.7613L116.979 107.773C116.974 110.003 115.164 111.808 112.935 111.804Z" fill="#A87259"/>
<path d="M113.144 74.8594C119.678 74.1814 125.526 78.9284 126.204 85.4634L126.609 89.3634C127.236 95.4024 122.848 100.806 116.809 101.433L105.941 102.561C104.914 102.668 103.994 101.921 103.888 100.894L102.541 87.9194C101.862 81.3844 106.609 75.5374 113.144 74.8594Z" fill="#A87259"/>
<path d="M103.693 91.9015C103.693 91.9015 117.794 89.5545 118.033 74.4895C114.59 73.8325 110.506 74.3735 110.506 74.3735C110.506 74.3735 99.952 84.0945 103.693 91.9015Z" fill="black"/>
<path d="M110.504 74.373C100.476 74.406 94.2711 76.538 94.5241 95.054C94.5781 98.974 92.7731 102.589 89.8111 105.158C86.5541 107.984 85.2401 112.642 86.8201 116.061C90.3071 109.887 106.923 116.17 105.754 106.37C104.585 96.57 104.266 90.642 104.266 90.642L110.504 74.373Z" fill="black"/>
<path d="M107.205 92.5786C104.332 87.1636 101.732 86.7906 99.6328 87.8886C95.7868 89.9006 97.4648 99.0676 104.586 97.1236L107.205 92.5786Z" fill="#A87259"/>
<path d="M110.504 74.9266C110.504 74.9266 122.571 73.8336 126.36 86.9626C126.485 74.2776 119.133 73.6466 110.504 74.9266Z" fill="black"/>
<path d="M76.0427 67.5727C56.9858 86.6297 56.9858 117.536 76.0427 136.593C95.1068 155.657 126.006 155.65 145.063 136.593C164.127 117.529 164.127 86.6367 145.063 67.5727C126.006 48.5157 95.1068 48.5087 76.0427 67.5727ZM142.228 133.757C124.742 151.243 96.3797 151.243 78.8867 133.749C61.4007 116.263 61.4007 87.9007 78.8867 70.4147C96.3797 52.9217 124.743 52.9217 142.228 70.4067C159.721 87.9007 159.721 116.264 142.228 133.757Z" fill="#349997"/>
<path opacity="0.5" d="M142.229 70.4086C159.722 87.9016 159.722 116.265 142.229 133.758C124.743 151.244 96.3809 151.244 78.8879 133.75C61.4019 116.264 61.4019 87.9015 78.8879 70.4155C96.3809 52.9225 124.743 52.9226 142.229 70.4086Z" fill="white"/>
<path d="M34.589 199.893C34.001 200.24 33.445 200.607 32.918 200.993" stroke="#EAA105" stroke-miterlimit="10"/>
<path d="M64.162 131.628V140.122L71.826 149.256H39.628C29.892 149.256 22 141.364 22 131.628C22 121.892 29.892 114 39.628 114H46.534C56.27 114 64.162 121.893 64.162 131.628Z" fill="#349997"/>
<path d="M50.5742 135.586C50.5742 137.316 51.9772 138.719 53.7072 138.719C55.4372 138.719 56.8402 137.316 56.8402 135.586C56.8402 133.856 55.4372 132.453 53.7072 132.453C51.9772 132.453 50.5742 133.856 50.5742 135.586Z" fill="white"/>
<path d="M39.9258 135.586C39.9258 137.316 41.3288 138.719 43.0588 138.719C44.7888 138.719 46.1918 137.316 46.1918 135.586C46.1918 133.856 44.7888 132.453 43.0588 132.453C41.3288 132.453 39.9258 133.856 39.9258 135.586Z" fill="white"/>
<path d="M29.2773 135.586C29.2773 137.316 30.6803 138.719 32.4103 138.719C34.1403 138.719 35.5433 137.316 35.5433 135.586C35.5433 133.856 34.1403 132.453 32.4103 132.453C30.6803 132.453 29.2773 133.856 29.2773 135.586Z" fill="white"/>
<path d="M162.492 96.8682V105.362L154.828 114.496H187.026C196.762 114.496 204.654 106.604 204.654 96.8682C204.654 87.1322 196.762 79.2402 187.026 79.2402H180.12C170.384 79.2392 162.492 87.1322 162.492 96.8682Z" fill="#349997"/>
<path d="M176.078 100.824C176.078 102.554 174.675 103.957 172.945 103.957C171.215 103.957 169.812 102.554 169.812 100.824C169.812 99.0944 171.215 97.6914 172.945 97.6914C174.676 97.6914 176.078 99.0944 176.078 100.824Z" fill="white"/>
<path d="M186.727 100.824C186.727 102.554 185.324 103.957 183.594 103.957C181.864 103.957 180.461 102.554 180.461 100.824C180.461 99.0944 181.864 97.6914 183.594 97.6914C185.325 97.6914 186.727 99.0944 186.727 100.824Z" fill="white"/>
<path d="M197.375 100.824C197.375 102.554 195.972 103.957 194.242 103.957C192.512 103.957 191.109 102.554 191.109 100.824C191.109 99.0944 192.512 97.6914 194.242 97.6914C195.973 97.6914 197.375 99.0944 197.375 100.824Z" fill="white"/>
<path d="M81.035 219V208.5H84.95C85.8 208.5 86.5 208.645 87.05 208.935C87.6 209.225 88.01 209.615 88.28 210.105C88.55 210.585 88.685 211.12 88.685 211.71C88.685 212.27 88.55 212.795 88.28 213.285C88.02 213.765 87.615 214.155 87.065 214.455C86.515 214.745 85.805 214.89 84.935 214.89H83.06V219H81.035ZM86.48 219L84.305 214.38H86.51L88.79 219H86.48ZM83.06 213.42H84.83C85.44 213.42 85.89 213.27 86.18 212.97C86.47 212.67 86.615 212.275 86.615 211.785C86.615 211.295 86.47 210.91 86.18 210.63C85.9 210.34 85.45 210.195 84.83 210.195H83.06V213.42ZM93.6141 219.18C92.8541 219.18 92.1791 219.02 91.5891 218.7C91.0091 218.37 90.5541 217.915 90.2241 217.335C89.9041 216.745 89.7441 216.065 89.7441 215.295C89.7441 214.515 89.9041 213.825 90.2241 213.225C90.5441 212.615 90.9941 212.14 91.5741 211.8C92.1641 211.45 92.8441 211.275 93.6141 211.275C94.3641 211.275 95.0191 211.44 95.5791 211.77C96.1391 212.09 96.5741 212.535 96.8841 213.105C97.2041 213.665 97.3641 214.3 97.3641 215.01C97.3641 215.11 97.3591 215.22 97.3491 215.34C97.3491 215.46 97.3391 215.59 97.3191 215.73H91.1841V214.485H95.3091C95.2791 214.005 95.1041 213.625 94.7841 213.345C94.4741 213.055 94.0841 212.91 93.6141 212.91C93.2741 212.91 92.9591 212.99 92.6691 213.15C92.3791 213.31 92.1491 213.55 91.9791 213.87C91.8191 214.18 91.7391 214.58 91.7391 215.07V215.505C91.7391 215.915 91.8141 216.275 91.9641 216.585C92.1241 216.885 92.3441 217.12 92.6241 217.29C92.9041 217.45 93.2291 217.53 93.5991 217.53C93.9691 217.53 94.2741 217.45 94.5141 217.29C94.7641 217.13 94.9541 216.92 95.0841 216.66H97.1391C96.9991 217.14 96.7641 217.57 96.4341 217.95C96.1041 218.33 95.6991 218.63 95.2191 218.85C94.7391 219.07 94.2041 219.18 93.6141 219.18ZM100.725 219L97.9646 211.455H100.095L101.97 217.095L103.845 211.455H105.945L103.185 219H100.725ZM107.241 219V211.44H109.266V219H107.241ZM108.261 210.405C107.901 210.405 107.601 210.3 107.361 210.09C107.131 209.87 107.016 209.595 107.016 209.265C107.016 208.935 107.131 208.665 107.361 208.455C107.601 208.235 107.901 208.125 108.261 208.125C108.631 208.125 108.931 208.235 109.161 208.455C109.401 208.665 109.521 208.935 109.521 209.265C109.521 209.595 109.401 209.87 109.161 210.09C108.931 210.3 108.631 210.405 108.261 210.405ZM114.928 219.18C114.168 219.18 113.493 219.02 112.903 218.7C112.323 218.37 111.868 217.915 111.538 217.335C111.218 216.745 111.058 216.065 111.058 215.295C111.058 214.515 111.218 213.825 111.538 213.225C111.858 212.615 112.308 212.14 112.888 211.8C113.478 211.45 114.158 211.275 114.928 211.275C115.678 211.275 116.333 211.44 116.893 211.77C117.453 212.09 117.888 212.535 118.198 213.105C118.518 213.665 118.678 214.3 118.678 215.01C118.678 215.11 118.673 215.22 118.663 215.34C118.663 215.46 118.653 215.59 118.633 215.73H112.498V214.485H116.623C116.593 214.005 116.418 213.625 116.098 213.345C115.788 213.055 115.398 212.91 114.928 212.91C114.588 212.91 114.273 212.99 113.983 213.15C113.693 213.31 113.463 213.55 113.293 213.87C113.133 214.18 113.053 214.58 113.053 215.07V215.505C113.053 215.915 113.128 216.275 113.278 216.585C113.438 216.885 113.658 217.12 113.938 217.29C114.218 217.45 114.543 217.53 114.913 217.53C115.283 217.53 115.588 217.45 115.828 217.29C116.078 217.13 116.268 216.92 116.398 216.66H118.453C118.313 217.14 118.078 217.57 117.748 217.95C117.418 218.33 117.013 218.63 116.533 218.85C116.053 219.07 115.518 219.18 114.928 219.18ZM121.498 219L119.293 211.455H121.288L122.758 217.59H122.383L124.063 211.455H126.298L127.978 217.575L127.588 217.59L129.073 211.455H131.068L128.863 219H126.763L124.963 212.685H125.398L123.598 219H121.498Z" fill="#E3E9E7"/>
</svg>
